<svg xmlns="http://www.w3.org/2000/svg" width="1440" height="900" viewBox="0 0 1440 900"><path fill="#1F1F1F" d="M0 0h1440v900h-1440z"/><path fill="#1A1E1D" d="M-3.734 868.473l34.097 4.797 1.485-2.52z"/><path fill="#4F5F6F" d="M62.973 899.875l-1.356.383 12.16 10.129z"/><path fill="#2A2C29" d="M45.445 97.145l-4.781 9.554 7.563-2.449z"/><path fill="#242A2A" d="M45.445 97.145l2.782 7.105 2.691-21.785z"/><path fill="#282C2B" d="M-6.77 91.078l33.051 9.051 3.942-3.027z"/><path fill="#384D60" d="M-25.184 883.316l23.579 30.094 3.464-7.844z"/><path fill="#003F5F" d="M-3.734 868.473l-21.45 14.843 27.043 22.25z"/><path fill="#252928" d="M-33.328-11.969l-12.93 66.141 48.949-81.36z"/><path fill="#292B28" d="M-.176 817.125l-12.668 5.25 17.473 18.461z"/><path fill="#1E1D19" d="M-12.844 822.375l-4.84 26.242 22.313-7.781z"/><path fill="#5A4B4E" d="M-46.258 54.172l22.977 28.348 25.972-109.708z"/><path fill="#2A2925" d="M-23.281 82.52l16.511 8.558 9.461-118.266z"/><path fill="#025975" d="M-17.684 848.617l13.95 19.856 8.363-27.637z"/><path fill="#005574" d="M-3.734 868.473l20.781 35.933 13.316-31.136z"/><path fill="#1E201D" d="M4.629 840.836l-8.363 27.637 35.582 2.277z"/><path fill="#A5A9B5" d="M45.609 87.273l-.164 9.872 5.473-14.68z"/><path fill="#356686" d="M-3.734 868.473l5.593 37.093 15.188-1.16z"/><path fill="#718095" d="M44.188 86.855l1.257 10.29.164-9.872z"/><path fill="#292D2E" d="M-6.863 101.176l27.886 34.601 5.258-35.648z"/><path fill="#5A7391" d="M60.031 898.766l1.586 1.492 1.356-.383z"/><path fill="#272727" d="M-16.688 135.004l-16.781 121.582 54.492-120.809z"/><path fill="#205C74" d="M30.363 873.27l-13.316 31.136 25.875-10.988z"/><path fill="#272B2C" d="M-6.863 101.176l-9.825 33.828 37.711.773z"/><path fill="#2B312F" d="M-6.77 91.078l-.093 10.098 33.144-1.047z"/><path fill="#1F211E" d="M31.848 870.75l-1.485 2.52 12.559 20.148z"/><path fill="#292B2A" d="M30.223 97.102l-3.942 3.027 14.383 6.57z"/><path fill="#1D1F1C" d="M-.176 817.125l4.805 23.711 27.219 29.914z"/><path fill="#3D607E" d="M42.922 893.418l-25.875 10.988 26.297-9.484z"/><path fill="#2A2B2D" d="M26.281 100.129l-5.258 35.648 19.641-29.078z"/><path fill="#2C302F" d="M44.188 86.855l-13.965 10.247 15.222.043z"/><path fill="#32353A" d="M43.344 894.922l-26.297 9.484 29.84 2.375z"/><path fill="#50667B" d="M108.16 898.82l-4.234 1.551 16.926 8.496z"/><path fill="#2B2F2E" d="M-6.77 91.078l36.993 6.024 13.965-10.247z"/><path fill="#272823" d="M30.223 97.102l10.441 9.597 4.781-9.554z"/><path fill="#272C28" d="M48.227 104.25l-7.563 2.449 10.949 26.012z"/><path fill="#293133" d="M40.664 106.699l-19.641 29.078 30.59-3.066z"/><path fill="#375764" d="M-6.77 91.078l50.958-4.223 6.73-4.39z"/><path fill="#2E2E2C" d="M2.691-27.188l-9.461 118.266 57.688-8.613z"/><path fill="#B6B4C1" d="M44.188 86.855l1.421.418 5.309-4.808z"/><path fill="#2C2D2F" d="M51.613 132.711l-76.742 141.281 105.77 109.613z"/><path fill="#2E5485" d="M-14.637 493.934l112.953 158.023 8.707-1.613z"/><path fill="#283231" d="M-33.469 256.586l8.34 17.406 76.742-141.281z"/><path fill="#292A25" d="M21.023 135.777l-54.492 120.809 85.082-123.875z"/><path fill="#242623" d="M2.691-27.188l48.227 109.653 1.406-101.879z"/><path fill="#19272A" d="M31.848 870.75l11.074 22.668 17.109 5.348z"/><path fill="#3A3E49" d="M46.887 906.781l8.359 2.328 4.785-10.343z"/><path fill="#414048" d="M43.344 894.922l3.543 11.859 13.144-8.015z"/><path fill="#545B6D" d="M60.031 898.766l-4.785 10.343 6.371-8.851z"/><path fill="#34617E" d="M42.922 893.418l.422 1.504 16.687 3.844z"/><path fill="#AEC0CE" d="M-34.785 303.77l-3.512 18.773 118.938 61.062z"/><path fill="#A3BACA" d="M-24.445 282.102l-10.34 21.668 115.426 79.835z"/><path fill="#26302F" d="M-38.297 322.543l-9.379 75.223 128.317-14.161z"/><path fill="#153E50" d="M-47.676 397.766l30.481 50.195 97.836-64.356z"/><path fill="#2F3430" d="M-17.195 447.961l-.403 14.848 98.239-79.204z"/><path fill="#232C29" d="M-17.598 462.809l4.379 24.871 93.86-104.075z"/><path fill="#B5C6CE" d="M-25.129 273.992l.684 8.11 105.086 101.503z"/><path fill="#2D2D2B" d="M52.324-19.414l-1.406 101.879 31.383-104.047z"/><path fill="#24546A" d="M60.031 898.766l2.942 1.109 23.625-3.398z"/><path fill="#596176" d="M62.973 899.875l10.804 10.512 12.821-13.91z"/><path fill="#063E4D" d="M31.848 870.75l28.183 28.016 26.567-2.289z"/><path fill="#1C2127" d="M-.176 817.125l32.024 53.625 54.75 25.727z"/><path fill="#47586A" d="M86.598 896.477l-12.821 13.91 13.84-9.813z"/><path fill="#262722" d="M-40.992 649.965l4.246 9.234 135.062-7.242z"/><path fill="#013366" d="M-14.637 493.934l-26.355 156.031 139.308 1.992z"/><path fill="#1F211E" d="M-36.746 659.199l13.457 135.438 121.605-142.68z"/><path fill="#013E97" d="M-23.289 794.637l23.113 22.488 98.492-165.168z"/><path fill="#1E2C2D" d="M155.977 390.379l-75.336-6.774 87.972 18.575z"/><path fill="#549AA4" d="M235.848 599.844l-6.789-1.942 12.492 14.766z"/><path fill="#55758C" d="M86.598 896.477l1.019 4.097 16.309-.203z"/><path fill="#3B6780" d="M86.598 896.477l17.328 3.894 4.234-1.551z"/><path fill="#25312F" d="M108.16 898.82l12.692 10.047 12.796 3.262z"/><path fill="#5F7688" d="M192.008-46.477l23.515 50.282 7.086-24.414z"/><path fill="#1E3030" d="M154.246 383.016l14.367 19.164 22.914 3.101z"/><path fill="#1085B8" d="M80.641 383.605l-93.86 104.075 181.832-85.5z"/><path fill="#B4B4BE" d="M234.43 7.785l-3.434 19.434 14.559-29.781z"/><path fill="#252B2B" d="M284.824 241.691l6.18.723.637-4.199z"/><path fill="#2C3E4A" d="M51.613 132.711l29.028 250.894 73.605-.589z"/><path fill="#4694A0" d="M235.848 599.844l12.211 5.144 14.351-12.918z"/><path fill="#6692B7" d="M154.246 383.016l-73.605.589 75.336 6.774z"/><path fill="#4F7083" d="M201.641 900.016l-31.946-.121 32.153 1.226z"/><path fill="#274142" d="M133.648 912.129l24.352 2.566 11.695-14.8z"/><path fill="#272C28" d="M-13.219 487.68l-1.418 6.254 183.25-91.754z"/><path fill="#3479A3" d="M-14.637 493.934l121.66 156.41 61.59-248.164z"/><path fill="#28373C" d="M108.16 898.82l25.488 13.309 36.047-12.234z"/><path fill="#529DBA" d="M154.246 383.016l1.731 7.363 12.636 11.801z"/><path fill="#3D5057" d="M169.695 899.895l-11.695 14.8 43.848-13.574z"/><path fill="#282D29" d="M191.527 405.281l-22.914-3.101 55.985 193.949z"/><path fill="#65A3AE" d="M229.059 597.902l-4.461-1.773 16.953 16.539z"/><path fill="#9197B1" d="M712.781 29.23l4.25-2.07 1.672-2.805z"/><path fill="#062E52" d="M224.152 787.172l-22.511 112.844 22.769-1.469z"/><path fill="#366078" d="M201.641 900.016l.207 1.105 22.562-2.574z"/><path fill="#A0746B" d="M82.301-21.582l-31.383 104.047 164.605-78.66z"/><path fill="#586D82" d="M184.281-45.898l-101.98 24.316 133.222 25.387z"/><path fill="#60758A" d="M192.008-46.477l-7.727.579 31.242 49.703z"/><path fill="#242621" d="M265.082 634.516l4.172 10.816 3.523-15.453z"/><path fill="#1D2941" d="M98.316 651.957l-98.492 165.168 224.328-29.953z"/><path fill="#00387D" d="M-.176 817.125l86.774 79.352 137.554-109.305z"/><path fill="#003470" d="M86.598 896.477l21.562 2.343 115.992-111.648z"/><path fill="#1D2C3F" d="M107.023 650.344l-8.707 1.613 125.836 135.215z"/><path fill="#033266" d="M108.16 898.82l61.535 1.075 54.457-112.723z"/><path fill="#012C56" d="M169.695 899.895l31.946.121 22.511-112.844z"/><path fill="#78ACB7" d="M107.023 650.344l132.907 39.711 6.082-47.262z"/><path fill="#6BA4AF" d="M224.598 596.129l-117.575 54.215 138.989-7.551z"/><path fill="#A0B5C6" d="M168.613 402.18l-61.59 248.164 117.575-54.215z"/><path fill="#67A2B0" d="M229.059 597.902l6.789 1.942 26.562-7.774z"/><path fill="#909CB2" d="M230.996 27.219l-180.078 55.246 180.793 41.308z"/><path fill="#6E8398" d="M230.996 27.219l.715 96.554 2.391-1.457z"/><path fill="#2A353B" d="M215.523 3.805l-164.605 78.66 180.078-55.246z"/><path fill="#B4B8C4" d="M50.918 82.465l-2.691 21.785 183.484 19.523z"/><path fill="#7E8FA3" d="M48.227 104.25l3.386 28.461 180.098-8.938z"/><path fill="#292C33" d="M215.523 3.805l18.907 3.98 3.914-17.699z"/><path fill="#242621" d="M247.5 642.133l5.344 9.082 8.879-14.742z"/><path fill="#9396A5" d="M215.523 3.805l15.473 23.414 3.434-19.434z"/><path fill="#455F78" d="M222.609-20.609l-7.086 24.414 22.821-13.719z"/><path fill="#1F2B3B" d="M107.023 650.344l117.129 136.828 15.778-97.117z"/><path fill="#65A1AC" d="M241.551 612.668l4.461 30.125 1.488-.66z"/><path fill="#019EBD" d="M231.711 123.773l27.687 75.95 3.266-3.727z"/><path fill="#2B4659" d="M234.102 122.316l-2.391 1.457 30.953 72.223z"/><path fill="#2D2E29" d="M247.5 642.133l-1.488.66 6.832 8.422z"/><path fill="#242F33" d="M246.012 642.793l-6.082 47.262 12.914-38.84z"/><path fill="#5B9DA9" d="M235.848 599.844l5.703 12.824 6.508-7.68z"/><path fill="#CAC5CC" d="M238.344-9.914l-3.914 17.699 11.125-10.347z"/><path fill="#69A5AF" d="M241.551 612.668l-16.953-16.539 21.414 46.664z"/><path fill="#5F9DAA" d="M224.598 596.129l4.461 1.773 33.351-5.832z"/><path fill="#376980" d="M253.227 109.535l-19.125 12.781 28.562 73.68z"/><path fill="#262C2A" d="M272.777 629.879l-3.523 15.453 5.863-17.047z"/><path fill="#78889F" d="M230.996 27.219l3.106 95.097 19.125-12.781z"/><path fill="#5D5763" d="M224.41 898.547l30.625 48.609 11.785-8.269z"/><path fill="#2D404F" d="M224.41 898.547l-22.562 2.574 53.187 46.035z"/><path fill="#272928" d="M51.613 132.711l102.633 250.305 105.152-183.293z"/><path fill="#9EA5B8" d="M231.711 123.773l-180.098 8.938 207.785 67.012z"/><path fill="#6B8EA4" d="M275.379 216.152l9.445 25.539 6.817-3.476z"/><path fill="#6CA4B1" d="M241.551 612.668l5.949 29.465 14.223-5.66z"/><path fill="#669EAB" d="M284.137 579.945l-2.227 2.559 5.688-3.668z"/><path fill="#2B2D28" d="M252.844 651.215l-12.914 38.84 29.324-44.723z"/><path fill="#6DA6AF" d="M248.059 604.988l24.718 24.891 2.34-1.594z"/><path fill="#65A4AD" d="M241.551 612.668l20.172 23.805 3.359-1.957z"/><path fill="#71AAB3" d="M248.059 604.988l-6.508 7.68 23.531 21.848z"/><path fill="#6EA7B2" d="M262.41 592.07l-14.351 12.918 27.058 23.297z"/><path fill="#C2CDD1" d="M245.555-2.562l-14.559 29.781 36.43-35.344z"/><path fill="#415765" d="M224.41 898.547l42.41 40.34 2.539-41.121z"/><path fill="#1C1C1A" d="M224.152 787.172l.258 111.375 44.949-.781z"/><path fill="#A0A7B9" d="M230.996 27.219l22.231 82.316 14.199-117.66z"/><path fill="#6AA4AF" d="M248.059 604.988l17.023 29.528 7.695-4.637z"/><path fill="#272C28" d="M265.082 634.516l-3.359 1.957 7.531 8.859z"/><path fill="#2C4645" d="M261.723 636.473l-8.879 14.742 16.41-5.883z"/><path fill="#2C3B40" d="M269.359 897.766l19.157 26.109 7.566-7.055z"/><path fill="#0D353D" d="M341.379 523.918l11.48 10.531 2.043-32.855z"/><path fill="#74ABB2" d="M262.41 592.07l12.707 36.215 1.528-40.199z"/><path fill="#94A0B8" d="M295.719 203.902l9.508 26.399 8.984-2.309z"/><path fill="#949FB5" d="M262.664 195.996l-3.266 3.727 15.981 16.429z"/><path fill="#6EA2AF" d="M262.41 592.07l19.5-9.566 2.227-2.559z"/><path fill="#6EA2AD" d="M262.41 592.07l14.235-3.984 5.265-5.582z"/><path fill="#008EB0" d="M320.75 505.809l2.832 5.457 3.539-6.676z"/><path fill="#95A1B7" d="M275.379 216.152l-15.981-16.429 25.426 41.968z"/><path fill="#004859" d="M359.074 326.418l-18.242 5.574 20.457 11.992z"/><path fill="#222826" d="M259.398 199.723l-105.152 183.293 130.578-141.325z"/><path fill="#292D2C" d="M275.117 628.285l-5.863 17.047 22.516-19.379z"/><path fill="#0089AB" d="M306.469 512.586l11.523 1.539.047-9.043z"/><path fill="#008AAF" d="M318.039 505.082l-.047 9.043 2.758-8.316z"/><path fill="#293134" d="M284.824 241.691l-130.578 141.325 148.41-64.805z"/><path fill="#3B7D97" d="M191.527 405.281l110.27-56.093.859-30.977z"/><path fill="#4B5E6F" d="M269.359 897.766l-2.539 41.121 21.696-15.012z"/><path fill="#72A8B4" d="M287.598 578.836l-5.688 3.668 9.86 43.449z"/><path fill="#71A7B1" d="M281.91 582.504l-5.265 5.582 15.125 37.867z"/><path fill="#008CAF" d="M318.039 505.082l2.711.727 6.371-1.219z"/><path fill="#262A29" d="M302.781 231.289l-11.777 11.125 14.223-12.113z"/><path fill="#6EA2AF" d="M276.645 588.086l-1.528 40.199 16.653-2.332z"/><path fill="#50A0C5" d="M154.246 383.016l37.281 22.265 111.129-87.07z"/><path fill="#0097B7" d="M253.227 109.535l9.437 86.461 33.055 7.906z"/><path fill="#919DB7" d="M262.664 195.996l12.715 20.156 20.34-12.25z"/><path fill="#4A6A79" d="M328.906 323.758l3.524 5.75 8.402 2.484z"/><path fill="#9DAABA" d="M295.719 203.902l-20.34 12.25 23.519 14.719z"/><path fill="#889DB0" d="M275.379 216.152l16.262 22.063 7.257-7.344z"/><path fill="#1F2928" d="M287.598 578.836l4.172 47.117 13.671 8.109z"/><path fill="#272F31" d="M298.898 230.871l3.883.418 2.446-.988z"/><path fill="#292D2C" d="M301.797 349.188l-110.27 56.093 113.121-50.578z"/><path fill="#1C2824" d="M284.137 579.945l3.461-1.109 19.047-24.617z"/><path fill="#97A4B5" d="M295.719 203.902l3.179 26.969 6.329-.57z"/><path fill="#344B50" d="M291.77 625.953l-22.516 19.379 36.187-11.27z"/><path fill="#8A94AF" d="M711.137 30.035l1.644-.805 5.922-4.875z"/><path fill="#232726" d="M298.898 230.871l-7.257 7.344 11.14-6.926z"/><path fill="#2B3033" d="M291.641 238.215l-.637 4.199 11.777-11.125z"/><path fill="#2C2B26" d="M366.137-35.039l13.445 36.055 3.5-19.782z"/><path fill="#1D3E6B" d="M191.527 405.281l33.071 190.848 81.871-83.543z"/><path fill="#222723" d="M262.41 592.07l21.727-12.125 22.332-67.359z"/><path fill="#2D322E" d="M305.441 634.062l-36.187 11.27 42.496 3.664z"/><path fill="#232520" d="M269.254 645.332l-29.324 44.723 71.82-41.059z"/><path fill="#1D2124" d="M224.152 787.172l45.207 110.594 36.368 2.539z"/><path fill="#3F5666" d="M269.359 897.766l26.723 19.054 9.645-16.515z"/><path fill="#262825" d="M224.598 596.129l37.812-4.059 44.059-79.484z"/><path fill="#71A7B3" d="M287.598 578.836l17.843 55.226 1.204-79.843z"/><path fill="#0089AD" d="M367.055 497.27l-14.196 37.179 34.871-37.015z"/><path fill="#0187AA" d="M341.195 497.895l16.582-6.922 1.403-2.813z"/><path fill="#0292B5" d="M317.992 514.125l-7.828 3.027 20.543 12.133z"/><path fill="#262825" d="M284.137 579.945l22.508-25.726 1.714-16.328z"/><path fill="#282D27" d="M306.469 512.586l-22.332 67.359 24.222-42.054z"/><path fill="#232B2B" d="M291.004 242.414l-6.18-.723 24.133 61.168z"/><path fill="#434F69" d="M284.824 241.691l17.832 76.52 6.301-15.352z"/><path fill="#2B3335" d="M332.43 329.508l-3.067 7.297 11.469-4.813z"/><path fill="#028BAD" d="M306.469 512.586l1.89 25.305 1.805-20.739z"/><path fill="#273333" d="M328.078 342.812l-23.43 11.891 45.653 4.152z"/><path fill="#00515C" d="M340.832 331.992l-12.754 10.82 22.223 16.043z"/><path fill="#292F2F" d="M330.734 216.434l-16.523 11.558 25.457-.398z"/><path fill="#4787A3" d="M302.656 318.211l13.867 21.133 12.383-15.586z"/><path fill="#8B96AA" d="M295.719 203.902l35.015 12.532 6.446-4.672z"/><path fill="#20344F" d="M191.527 405.281l114.942 107.305 11.57-7.504z"/><path fill="#6CA9C6" d="M308.957 302.859l-6.301 15.352 26.25 5.547z"/><path fill="#262827" d="M291.004 242.414l17.953 60.445 5.254-74.867z"/><path fill="#282C2D" d="M305.227 230.301l-14.223 12.113 23.207-14.422z"/><path fill="#273132" d="M301.797 349.188l2.851 5.515 11.875-15.359z"/><path fill="#527E97" d="M302.656 318.211l-.859 30.977 14.726-9.844z"/><path fill="#283032" d="M316.523 339.344l-11.875 15.359 23.43-11.891z"/><path fill="#2A3E45" d="M376.281 251.391l-27.207 60.211 35.336 26.156z"/><path fill="#1D2A3B" d="M304.648 354.703l-113.121 50.578 126.512 99.801z"/><path fill="#405F73" d="M328.906 323.758l.457 13.047 3.067-7.297z"/><path fill="#028EB2" d="M320.75 505.809l-2.758 8.316 5.59-2.859z"/><path fill="#008EB0" d="M306.469 512.586l3.695 4.566 7.828-3.027z"/><path fill="#939EB2" d="M295.719 203.902l18.492 24.09 16.523-11.558z"/><path fill="#2C3436" d="M316.523 339.344l11.555 3.468 1.285-6.007z"/><path fill="#375762" d="M328.906 323.758l-12.383 15.586 12.84-2.539z"/><path fill="#004258" d="M310.164 517.152l-1.805 20.739 22.348-8.606z"/><path fill="#9DAFBD" d="M308.957 302.859l29.176 4.442 1.535-79.707z"/><path fill="#202123" d="M224.152 787.172l81.575 113.133 23.609.09z"/><path fill="#0286AC" d="M323.582 511.266l-5.59 2.859 12.715 15.16z"/><path fill="#272C28" d="M308.359 537.891l-1.714 16.328 24.062-24.934z"/><path fill="#2E3F5D" d="M339.668 227.594l-1.535 79.707 22.035-70.582z"/><path fill="#008FB4" d="M341.195 497.895l-14.074 6.695 14.258 19.328z"/><path fill="#0191B3" d="M327.121 504.59l10.766 20.414 3.492-1.086z"/><path fill="#262C2C" d="M314.211 227.992l-5.254 74.867 30.711-75.265z"/><path fill="#2B383E" d="M340.832 331.992l9.469 26.863 10.988-14.871z"/><path fill="#262827" d="M337.18 211.762l-6.446 4.672 8.934 11.16z"/><path fill="#0190B2" d="M327.121 504.59l-3.539 6.676 14.305 13.738z"/><path fill="#0095B6" d="M323.582 511.266l7.125 18.019 7.18-4.281z"/><path fill="#028EB1" d="M318.039 505.082l9.082-.492 14.074-6.695z"/><path fill="#2A302E" d="M304.648 354.703l13.391 150.379 23.156-7.187z"/><path fill="#6FACC8" d="M308.957 302.859l19.949 20.899 9.227-16.457z"/><path fill="#252D2D" d="M329.363 336.805l-1.285 6.007 12.754-10.82z"/><path fill="#0387AD" d="M341.195 497.895l13.707 3.699 2.875-10.621z"/><path fill="#006C87" d="M359.074 326.418l9.039 15.488 2.692-.511z"/><path fill="#008AAB" d="M354.902 501.594l-2.043 32.855 14.196-37.179z"/><path fill="#2A3E49" d="M384.41 337.758l-13.605 3.637 25.418 4.164z"/><path fill="#023C85" d="M350.301 358.855l-45.653-4.152 54.532 133.457z"/><path fill="#272D29" d="M304.648 354.703l36.547 143.192 17.985-9.735z"/><path fill="#23241F" d="M311.75 648.996l62.348 69.383 8.183-42.711z"/><path fill="#8E9FB3" d="M253.227 109.535l42.492 94.367 47.59 3.25z"/><path fill="#939EB2" d="M295.719 203.902l41.461 7.86 6.129-4.61z"/><path fill="#293133" d="M337.18 211.762l2.488 15.832 3.641-20.442z"/><path fill="#22618C" d="M370.805 341.395l-20.504 17.46 45.922-13.296z"/><path fill="#008DB1" d="M366.25 483.723l-7.07 4.437 7.875 9.11z"/><path fill="#282D30" d="M343.309 207.152l-3.641 20.442 20.5 9.125z"/><path fill="#6DA4C2" d="M338.133 307.301l-9.227 16.457 17.633-14.199z"/><path fill="#0089AA" d="M359.18 488.16l-1.403 2.813 9.278 6.297z"/><path fill="#262A29" d="M350.301 358.855l15.949 124.868 17.859-6.043z"/><path fill="#5C93B1" d="M346.539 309.559l-17.633 14.199 20.168-12.156z"/><path fill="#416D86" d="M328.906 323.758l11.926 8.234 8.242-20.39z"/><path fill="#026C93" d="M341.195 497.895l.184 26.023 13.523-22.324z"/><path fill="#252A26" d="M330.707 529.285l-24.062 24.934 46.214-19.77z"/><path fill="#018AAE" d="M357.777 490.973l-2.875 10.621 12.153-4.324z"/><path fill="#282D29" d="M341.379 523.918l-3.492 1.086 14.972 9.445z"/><path fill="#2D3740" d="M368.113 341.906l-17.812 16.949 20.504-17.46z"/><path fill="#292B2A" d="M337.887 525.004l-7.18 4.281 22.152 5.164z"/><path fill="#2D4358" d="M452.203 210.855l-5.535 128.692 11.457.137z"/><path fill="#2B2D2C" d="M328.52-30.16l50.925 32.742.137-1.566z"/><path fill="#4E859A" d="M349.074 311.602l-8.242 20.39 18.242-5.574z"/><path fill="#304149" d="M349.074 311.602l10 14.816 25.336 11.34z"/><path fill="#252B27" d="M350.301 358.855l8.879 129.305 7.07-4.437z"/><path fill="#006A7F" d="M359.074 326.418l2.215 17.566 6.824-2.078z"/><path fill="#0087AD" d="M371.148 485.711l12.149-5.711.812-2.32z"/><path fill="#28373E" d="M361.289 343.984l-10.988 14.871 17.812-16.949z"/><path fill="#0190B2" d="M366.25 483.723l.805 13.547 4.093-11.559z"/><path fill="#0091B2" d="M399.277 495.953l14.797-5.445.957-8.289z"/><path fill="#282826" d="M305.441 634.062l6.309 14.934 59.176-6.91z"/><path fill="#677A8B" d="M343.164-37.598l-14.644 7.438 51.062 31.176z"/><path fill="#1B3848" d="M370.926 642.086l-59.176 6.91 70.531 26.672z"/><path fill="#007CA2" d="M366.25 483.723l4.898 1.988 12.961-8.031z"/><path fill="#1E1F1A" d="M239.93 690.055l-15.778 97.117 149.946-68.793z"/><path fill="#232321" d="M311.75 648.996l-71.82 41.059 134.168 28.324z"/><path fill="#20211B" d="M224.152 787.172l105.184 113.223 44.762-182.016z"/><path fill="#314351" d="M346.539 309.559l2.535 2.043 27.207-60.211z"/><path fill="#364F78" d="M343.309 207.152l16.859 29.567 15.777 8.843z"/><path fill="#C4C2CD" d="M375.945 245.562l-15.777-8.843 16.082 11.414z"/><path fill="#B4B3C5" d="M376.25 248.133l-16.082-11.414 16.113 14.672z"/><path fill="#32434D" d="M338.133 307.301l8.406 2.258 29.742-58.168z"/><path fill="#1D1E19" d="M385.402 721.91l-5.265 179.336 27.629 2.633z"/><path fill="#26302F" d="M360.168 236.719l-22.035 70.582 38.148-55.91z"/><path fill="#2D3F4B" d="M253.227 109.535l90.082 97.617 36.136-204.57z"/><path fill="#99A1B4" d="M267.426-8.125l-14.199 117.66 126.218-106.953z"/><path fill="#7C8DA1" d="M277.707-16.863l-10.281 8.738 112.019 10.707z"/><path fill="#657A8D" d="M315.812-30.383l-38.105 13.52 101.738 19.445z"/><path fill="#67788A" d="M328.52-30.16l-12.708-.223 63.633 32.965z"/><path fill="#1F201B" d="M373.887 901.918l6.25-.672 5.265-179.336z"/><path fill="#5E7587" d="M366.137-35.039l-22.973-2.559 36.418 38.614z"/><path fill="#1E2736" d="M374.098 718.379l-44.762 182.016 56.066-178.485z"/><path fill="#00377A" d="M350.301 358.855l33.808 118.825 12.114-132.121z"/><path fill="#1E1E1C" d="M329.336 900.395l44.551 1.523 11.515-180.008z"/><path fill="#22231E" d="M382.281 675.668l-8.183 42.711 11.304 3.531z"/><path fill="#008EB1" d="M371.148 485.711l-4.093 11.559 20.675.164z"/><path fill="#2C2C2C" d="M383.082-18.766l-3.5 19.782 6.609-18.813z"/><path fill="#01536B" d="M359.074 326.418l11.731 14.977 13.605-3.637z"/><path fill="#5999A5" d="M352.859 534.449l-46.214 19.77 87.019 53.422z"/><path fill="#7D8FA3" d="M379.582 1.016l-.137 1.566 10.746-3.531z"/><path fill="#0091B2" d="M390.398 487.211l8.879 8.742 15.754-13.734z"/><path fill="#2698BD" d="M393.664 607.641l-22.738 34.445 29.758-7.836z"/><path fill="#0091B2" d="M383.297 480l-12.149 5.711 19.25 1.5z"/><path fill="#0094B4" d="M371.148 485.711l16.582 11.723 2.668-10.223z"/><path fill="#0090AE" d="M384.109 477.68l-.812 2.32 7.101 7.211z"/><path fill="#2E3136" d="M386.191-17.797l-6.609 18.813 12.191-5.426z"/><path fill="#8C94AB" d="M379.582 1.016l10.609-1.965 1.582-3.461z"/><path fill="#5A8E9B" d="M419.406 509.016l-11.797 97.668 12.008-.145z"/><path fill="#1C3338" d="M306.645 554.219l-1.204 79.843 88.223-26.421z"/><path fill="#51809E" d="M305.441 634.062l65.485 8.024 22.738-34.445z"/><path fill="#009DBE" d="M390.398 487.211l-2.668 10.223 11.547-1.481z"/><path fill="#313630" d="M370.926 642.086l11.355 33.582 18.403-41.418z"/><path fill="#008BAC" d="M384.109 477.68l6.289 9.531 24.633-4.992z"/><path fill="#3B5562" d="M446.051 894.531l-16.684 18.766 16.973 9.898z"/><path fill="#8E91B2" d="M375.945 245.562l.305 2.571 67.914-40.656z"/><path fill="#37A6C4" d="M414.074 490.508l-14.797 5.445 20.129 13.063z"/><path fill="#808CA4" d="M390.191-.949l-10.746 3.531 26.149-.504z"/><path fill="#868EA5" d="M402.25-5.719l-12.059 4.77 15.403 3.027z"/><path fill="#142E3B" d="M393.664 607.641l7.02 26.609 6.925-27.566z"/><path fill="#5788B0" d="M446.051 894.531l20.328 1.512 11.988-1.77z"/><path fill="#023B8A" d="M396.223 345.559l-12.114 132.121 30.922 4.539z"/><path fill="#8792A8" d="M402.25-5.719l3.344 7.797 9.449-7.734z"/><path fill="#252724" d="M407.609 606.684l-6.925 27.566 18.933-27.711z"/><path fill="#2BA2C2" d="M399.277 495.953l-11.547 1.481 31.676 11.582z"/><path fill="#2A2E31" d="M387.73 497.434l-34.871 37.015 66.547-25.433z"/><path fill="#7EADB7" d="M393.664 607.641l13.945-.957 11.797-97.668z"/><path fill="#2B2D2A" d="M352.859 534.449l40.805 73.192 25.742-98.625z"/><path fill="#00466A" d="M550.551 778.449l-72.184 115.824 96.434-93.859z"/><path fill="#726B97" d="M444.164 207.477l-67.914 40.656 71.707-38.356z"/><path fill="#C5C8D1" d="M343.309 207.152l32.636 38.41 68.219-38.085z"/><path fill="#827BA5" d="M376.25 248.133l.031 3.258 71.676-41.614z"/><path fill="#293C5D" d="M465.758 17.598l-60.164-15.52 60.941 192.711z"/><path fill="#0194B5" d="M414.074 490.508l5.332 18.508 12.594-2.442z"/><path fill="#1A9FC0" d="M415.031 482.219l-.957 8.289 17.926 16.066z"/><path fill="#3A3E47" d="M424.379 910.867l4.988 2.43 16.684-18.766z"/><path fill="#4F818C" d="M419.406 509.016l.211 97.523 21.672.121z"/><path fill="#0E3056" d="M486.172 433.008l-19.195 23.336 30.796-2.442z"/><path fill="#2E6C93" d="M384.41 337.758l11.813 7.801 50.445-6.012z"/><path fill="#4D606E" d="M459.809-22.195l-17.102 7.375 23.051 32.418z"/><path fill="#909BB1" d="M405.594 2.078l-26.149.504 64.719 204.895z"/><path fill="#566793" d="M405.594 2.078l38.57 205.399 22.371-12.688z"/><path fill="#6DA0BD" d="M510.082 462.773l-26.348 6.731 37.297 91.723z"/><path fill="#2C3434" d="M376.281 251.391l8.129 86.367 62.258 1.789z"/><path fill="#BABEC9" d="M379.445 2.582l-36.136 204.57 100.855.325z"/><path fill="#1D241D" d="M471.863 710.91l7.922-.765 4.094-2.262z"/><path fill="#6F7992" d="M407.766 903.879l16.613 6.988 21.672-16.336z"/><path fill="#22211C" d="M385.402 721.91l22.364 181.969 38.285-9.348z"/><path fill="#53838D" d="M419.406 509.016l21.883 97.644 6.902-1.418z"/><path fill="#7D709C" d="M447.957 209.777l-71.676 41.614 75.922-40.536z"/><path fill="#20221F" d="M432 506.574l-12.594 2.442 28.785 96.226z"/><path fill="#008DB8" d="M470.801 673.914l1.062 36.996 12.016-3.027z"/><path fill="#1E3032" d="M441.289 606.66l-21.672-.121 38.543 21.688z"/><path fill="#1B2524" d="M419.617 606.539l-18.933 27.711 57.476-6.023z"/><path fill="#A76D9F" d="M376.281 251.391l70.387 88.156 5.535-128.692z"/><path fill="#15333E" d="M520.48 444.684l-11.234 5.824 13.238 7.855z"/><path fill="#212322" d="M516.371 659.59l13.68 6.496 5.746-55.566z"/><path fill="#035496" d="M544.312 434.668l15.059-1.856 1.367-43.39z"/><path fill="#1893BC" d="M470.801 673.914l-88.52 1.754 89.582 35.242z"/><path fill="#23313A" d="M448.191 605.242l-6.902 1.418 16.871 21.567z"/><path fill="#55588B" d="M447.957 209.777l4.246 1.078 14.332-16.066z"/><path fill="#616195" d="M444.164 207.477l3.793 2.3 18.578-14.988z"/><path fill="#212622" d="M483.734 469.504l26.11 97.078 11.187-5.355z"/><path fill="#008FB1" d="M415.031 482.219l16.969 24.355 34.977-50.23z"/><path fill="#455763" d="M415.043-5.656l-9.449 7.734 60.164 15.52z"/><path fill="#536373" d="M442.707-14.82l-27.664 9.164 50.715 23.254z"/><path fill="#107297" d="M382.281 675.668l3.121 46.242 86.461-11z"/><path fill="#2C4049" d="M478.367 894.273l-11.988 1.77 15.152 51.727z"/><path fill="#465967" d="M459.809-22.195l5.949 39.793 2.23-42.942z"/><path fill="#314B5C" d="M446.051 894.531l.289 28.664 20.039-27.152z"/><path fill="#018EB9" d="M482.113 636.227l-11.312 37.687 24.269-1.254z"/><path fill="#004293" d="M396.223 345.559l18.808 136.66 51.946-25.875z"/><path fill="#576071" d="M467.988-25.344l-2.23 42.942 9.984-50.551z"/><path fill="#202425" d="M448.191 605.242l9.969 22.985 10.477 3.832z"/><path fill="#0F8EB7" d="M400.684 634.25l-18.403 41.418 88.52-1.754z"/><path fill="#0091BA" d="M458.16 628.227l-57.476 6.023 70.117 39.664z"/><path fill="#9F5995" d="M452.203 210.855l67.391 102.239 6.066-69.973z"/><path fill="#2895BC" d="M468.637 632.059l-10.477-3.832 12.641 45.687z"/><path fill="#242621" d="M492.859 702.094l-2.972 7.781 3.41 14.242z"/><path fill="#20211C" d="M483.879 707.883l-4.094 2.262 6.156 1.441z"/><path fill="#0189B3" d="M468.637 632.059l2.164 41.855 11.312-37.687z"/><path fill="#1B221A" d="M471.863 710.91l7.649 3.547.273-4.312z"/><path fill="#1F211E" d="M479.785 710.145l-.273 4.312 6.429-2.871z"/><path fill="#1A2D31" d="M479.512 714.457l11.859 12.777 1.926-3.117z"/><path fill="#20221D" d="M485.941 711.586l-6.429 2.871 13.785 9.66z"/><path fill="#1C211D" d="M483.879 707.883l5.5-2.067 1.492-2.937z"/><path fill="#3E5162" d="M466.379 896.043l-20.039 27.152 35.191 24.575z"/><path fill="#018BAF" d="M466.977 456.344l-34.977 50.23 51.734-37.07z"/><path fill="#0089B3" d="M490.871 702.879l1.988-.785 2.211-29.434z"/><path fill="#272D2D" d="M466.977 456.344l16.757 13.16 14.039-15.602z"/><path fill="#004D9F" d="M486.172 433.008l11.601 20.894 11.473-3.394z"/><path fill="#263135" d="M509.246 450.508l.836 12.265 12.402-4.41z"/><path fill="#01326D" d="M458.125 339.684l-11.457-.137 39.504 93.461z"/><path fill="#003070" d="M446.668 339.547l-50.445 6.012 89.949 87.449z"/><path fill="#222721" d="M396.223 345.559l70.754 110.785 19.195-23.336z"/><path fill="#008EB8" d="M470.801 673.914l13.078 33.969 6.992-5.004z"/><path fill="#20221D" d="M489.379 705.816l-5.5 2.067 6.008 1.992z"/><path fill="#21231E" d="M483.879 707.883l2.062 3.703 3.946-1.711z"/><path fill="#1D2733" d="M385.402 721.91l60.649 172.621 45.32-167.297z"/><path fill="#1F201B" d="M446.051 894.531l32.316-.258 13.004-167.039z"/><path fill="#202221" d="M490.871 702.879l-1.492 2.937 3.48-3.722z"/><path fill="#212224" d="M471.863 710.91l-86.461 11 105.969 5.324z"/><path fill="#1E1F1A" d="M479.512 714.457l-7.649-3.547 19.508 16.324z"/><path fill="#1F211C" d="M489.887 709.875l-3.946 1.711 7.356 12.531z"/><path fill="#1F201B" d="M489.379 705.816l.508 4.059 2.972-7.781z"/><path fill="#0091BD" d="M470.801 673.914l20.07 28.965 4.199-30.219z"/><path fill="#272924" d="M509.844 566.582l-61.653 38.66 67.051-27.301z"/><path fill="#0089B3" d="M482.113 636.227l12.957 36.433 10.176-16.25z"/><path fill="#292F2F" d="M509.246 450.508l-11.473 3.394 12.309 8.871z"/><path fill="#27322E" d="M497.773 453.902l-14.039 15.602 26.348-6.731z"/><path fill="#252722" d="M514.129 569.145l-4.285-2.563 5.398 11.359z"/><path fill="#004463" d="M549.965 667.797l8.363 9.828 3.063-2.559z"/><path fill="#936397" d="M466.535 194.789l-14.332 16.066 73.457 32.266z"/><path fill="#282A27" d="M521.031 561.227l10.379 13.793 2.578-3.043z"/><path fill="#262C2A" d="M483.734 469.504l-51.734 37.07 77.844 60.008z"/><path fill="#4A5C8A" d="M519.594 313.094l6.211 18.758 85.644-31.102z"/><path fill="#008BB6" d="M495.07 672.66l-2.211 29.434 26.653-31.457z"/><path fill="#2B302C" d="M432 506.574l16.191 98.668 61.653-38.66z"/><path fill="#008DB5" d="M516.371 659.59l-11.125-3.18 14.266 14.227z"/><path fill="#00489D" d="M486.172 433.008l34.308 11.676 11.297-6.657z"/><path fill="#0392BA" d="M549.965 667.797l-4.52.238 12.883 9.59z"/><path fill="#262825" d="M515.242 577.941l-67.051 27.301 71.313-17.75z"/><path fill="#1E3847" d="M448.191 605.242l20.446 26.817 50.867-44.567z"/><path fill="#18394A" d="M468.637 632.059l13.476 4.168 37.391-48.735z"/><path fill="#9AB4CF" d="M520.48 444.684l2.004 13.679 9.293-20.336z"/><path fill="#0B94BE" d="M505.246 656.41l-10.176 16.25 24.442-2.023z"/><path fill="#656E99" d="M452.203 210.855l5.922 128.829 61.469-26.59z"/><path fill="#3F4F5C" d="M478.367 894.273l3.164 53.497 43.676-38.922z"/><path fill="#596794" d="M598.988 217.383l12.461 83.367 3.641-2.605z"/><path fill="#AE6199" d="M466.535 194.789l136.93 4.848 1.855-3.414z"/><path fill="#01479D" d="M486.172 433.008l23.074 17.5 11.234-5.824z"/><path fill="#252724" d="M509.844 566.582l4.285 2.563 6.902-7.918z"/><path fill="#222C2E" d="M664.555-14.172l-5.715 2.039 15.051 14.945z"/><path fill="#006797" d="M478.367 894.273l46.84 14.575 49.594-108.434z"/><path fill="#0190B8" d="M545.445 668.035l-16.168 2.016 29.051 7.574z"/><path fill="#2D4047" d="M519.594 313.094l-61.469 26.59 67.68-7.832z"/><path fill="#1E2223" d="M558.328 677.625l17.555 17.586.656-2.234z"/><path fill="#252722" d="M521.031 561.227l-6.902 7.918 17.281 5.875z"/><path fill="#163055" d="M458.125 339.684l28.047 93.324 39.633-101.156z"/><path fill="#018CB7" d="M519.512 670.637l-26.653 31.457 36.418-32.043z"/><path fill="#34487A" d="M598.988 217.383l-73.328 25.738 85.789 57.629z"/><path fill="#0057A6" d="M557.293 433.566l-12.981 1.102 14.852 10.664z"/><path fill="#0085B0" d="M519.512 670.637l9.765-.586.774-3.965z"/><path fill="#008DB8" d="M516.371 659.59l3.141 11.047 10.539-4.551z"/><path fill="#222220" d="M564.848 673.781l-6.52 3.844 18.211 15.352z"/><path fill="#282924" d="M515.242 577.941l4.262 9.551 11.906-12.472z"/><path fill="#22241F" d="M514.129 569.145l1.113 8.796 16.168-2.921z"/><path fill="#AFB9D2" d="M578.02 898.469l-2.602-.297 2.723 9.172z"/><path fill="#7FA3BD" d="M580.062 695.711l-16.101 78.219 20.016-80.84z"/><path fill="#262B27" d="M531.41 575.02l-11.906 12.472 16.293 23.028z"/><path fill="#1B3A4C" d="M482.113 636.227l23.133 20.183 30.551-45.89z"/><path fill="#193543" d="M519.504 587.492l-37.391 48.735 53.684-25.707z"/><path fill="#1E201F" d="M505.246 656.41l11.125 3.18 19.426-49.07z"/><path fill="#A2B9C9" d="M522.484 458.363l-12.402 4.41 37.996 86.598z"/><path fill="#005BA4" d="M557.293 433.566l1.871 11.766.207-12.52z"/><path fill="#242925" d="M510.082 462.773l10.949 98.454 27.047-11.856z"/><path fill="#1A3B4E" d="M521.031 561.227l12.957 10.75 14.09-22.606z"/><path fill="#6F98B8" d="M576.539 692.977l3.523 2.734.129-4.555z"/><path fill="#018AB6" d="M530.051 666.086l-.774 3.965 16.168-2.016z"/><path fill="#0177A7" d="M574.801 800.414l3.219 98.055 4.726 2.652z"/><path fill="#22231E" d="M535.797 610.52l-5.746 55.566 19.433.18z"/><path fill="#018AB4" d="M530.051 666.086l15.394 1.949 4.039-1.769z"/><path fill="#008DB5" d="M549.484 666.266l-4.039 1.769 4.52-.238z"/><path fill="#6B9AB6" d="M493.297 724.117l-1.926 3.117 59.18 51.215z"/><path fill="#21221D" d="M491.371 727.234l-13.004 167.039 72.184-115.824z"/><path fill="#AF938F" d="M618.48 517.504l-8.179-.836 13.851 20.098z"/><path fill="#2C2C2A" d="M548.078 549.371l-14.09 22.606 26.324 26.757z"/><path fill="#263532" d="M575.418 898.172l-7.043 22.742 9.766-13.57z"/><path fill="#1C1C1A" d="M492.859 702.094l.438 22.023 65.031-46.492z"/><path fill="#007AA9" d="M529.277 670.051l-36.418 32.043 65.469-24.469z"/><path fill="#62748A" d="M554.691-42.359l-69.484 1.05 76.973 52.864z"/><path fill="#98B2C3" d="M522.484 458.363l25.594 91.008 11.086-104.039z"/><path fill="#0057A4" d="M544.312 434.668l-12.535 3.359 27.387 7.305z"/><path fill="#2372B4" d="M531.777 438.027l-9.293 20.336 36.68-13.031z"/><path fill="#1B3848" d="M535.797 610.52l13.687 55.746 10.828-67.532z"/><path fill="#1F211E" d="M561.391 675.066l-3.063 2.559 6.52-3.844z"/><path fill="#282A25" d="M533.988 571.977l-2.578 3.043 28.902 23.714z"/><path fill="#20251F" d="M531.41 575.02l4.387 35.5 24.515-11.786z"/><path fill="#262A29" d="M525.805 331.852l-39.633 101.156 74.566-43.586z"/><path fill="#02519E" d="M486.172 433.008l45.605 5.019 28.961-48.605z"/><path fill="#004EA0" d="M531.777 438.027l12.535-3.359 16.426-45.246z"/><path fill="#222625" d="M475.742-32.953l-9.984 50.551 96.422-6.043z"/><path fill="#546575" d="M485.207-41.309l-9.465 8.356 86.438 44.508z"/><path fill="#41637E" d="M493.297 724.117l57.254 54.332 13.41-4.519z"/><path fill="#283A46" d="M560.312 598.734l-10.828 67.532 15.364 7.515z"/><path fill="#005AA0" d="M559.371 432.812l-.207 12.52 8.488-7.523z"/><path fill="#0090B5" d="M549.484 666.266l.481 1.531 14.883 5.984z"/><path fill="#005C7D" d="M549.965 667.797l11.426 7.269 3.457-1.285z"/><path fill="#0359A6" d="M559.371 432.812l-15.059 1.856 23.34 3.141z"/><path fill="#0054A1" d="M557.293 433.566l2.078-.754 8.281 4.997z"/><path fill="#C6ABA4" d="M614.934 515.992l-4.633.676 8.179.836z"/><path fill="#0057A6" d="M544.312 434.668l12.981-1.102 10.359 4.243z"/><path fill="#5C6A97" d="M525.66 243.121l-6.066 69.973 91.855-12.344z"/><path fill="#A7AEBE" d="M586.801 32.133l-120.266 162.656 138.785 1.434z"/><path fill="#98AEC3" d="M559.164 445.332l-11.086 104.039 62.223-32.703z"/><path fill="#00709E" d="M574.801 800.414l-49.594 108.434 50.211-10.676z"/><path fill="#1F1E1A" d="M563.961 773.93l-13.41 4.519 24.25 21.965z"/><path fill="#2F4047" d="M525.207 908.848l43.168 12.066 7.043-22.742z"/><path fill="#21221D" d="M564.848 673.781l11.691 19.196 3.652-1.821z"/><path fill="#7CA4BE" d="M493.297 724.117l70.664 49.813 11.922-78.719z"/><path fill="#202020" d="M558.328 677.625l-65.031 46.492 82.586-28.906z"/><path fill="#6593B4" d="M580.191 691.156l-.129 4.555 3.915-2.621z"/><path fill="#22251E" d="M564.848 673.781l15.343 17.375 3.786 1.934z"/><path fill="#00729E" d="M574.801 800.414l.617 97.758 2.602.297z"/><path fill="#6C95B5" d="M576.539 692.977l-.656 2.234 4.179.5z"/><path fill="#004A98" d="M559.371 432.812l8.281 4.997 14.27-43.383z"/><path fill="#7CA4BE" d="M575.883 695.211l-11.922 78.719 16.101-78.219z"/><path fill="#6F83A6" d="M578.02 898.469l.121 8.875 4.605-6.223z"/><path fill="#222723" d="M560.738 389.422l-1.367 43.39 22.551-38.386z"/><path fill="#A1B6C7" d="M559.164 445.332l51.137 71.336.89-1.684z"/><path fill="#385D91" d="M562.18 11.555l-96.422 6.043 121.043 14.535z"/><path fill="#4A5E91" d="M465.758 17.598l.777 177.191 120.266-162.656z"/><path fill="#BFA09E" d="M611.191 514.984l-.89 1.684 4.633-.676z"/><path fill="#B89D96" d="M614.934 515.992l3.546 1.512.434-5.051z"/><path fill="#1F242A" d="M581.922 394.426l-14.27 43.383 34.145-28.282z"/><path fill="#225B88" d="M567.652 437.809l-8.488 7.523 52.027 69.652z"/><path fill="#A55E96" d="M466.535 194.789l59.125 48.332 77.805-43.484z"/><path fill="#335789" d="M710.953-14.777l.184 44.812 7.566-5.68z"/><path fill="#B19EA0" d="M567.652 437.809l43.539 77.175 7.723-2.531z"/><path fill="#242422" d="M560.738 389.422l21.184 5.004 29.527-93.676z"/><path fill="#677A8B" d="M554.691-42.359l7.489 53.914 40.535-48.809z"/><path fill="#6A7E97" d="M525.805 331.852l34.933 57.57 50.711-88.672z"/><path fill="#485C8F" d="M525.66 243.121l73.328-25.738 4.477-17.746z"/><path fill="#1A1914" d="M639.629 535.59l-2.18 17.305 2.867.82z"/><path fill="#3F5675" d="M738.039 6.449l-12.613 15.406 13.433-15.921z"/><path fill="#667C93" d="M602.715-37.254l-40.535 48.809 59.718-18.993z"/><path fill="#7E6465" d="M618.48 517.504l5.672 19.262 3.723-7.43z"/><path fill="#025F8B" d="M574.801 800.414l7.945 100.707 42.16 25.219z"/><path fill="#282A29" d="M581.922 394.426l19.875 15.101 9.652-108.777z"/><path fill="#495F91" d="M562.18 11.555l24.621 20.578 35.097-39.571z"/><path fill="#4475AD" d="M601.797 409.527l-34.145 28.282 51.262 74.644z"/><path fill="#C1A99F" d="M611.191 514.984l3.743 1.008 3.98-3.539z"/><path fill="#917780" d="M624.152 536.766l-76.074 12.605 79.906.926z"/><path fill="#67A4C3" d="M548.078 549.371l12.234 49.363 67.672-48.437z"/><path fill="#1F1A14" d="M627.875 529.336l11.754 6.254.867-15.285z"/><path fill="#262D33" d="M658.84-12.133l-4.594 6.242 19.645 8.703z"/><path fill="#2B292A" d="M610.301 516.668l-62.223 32.703 76.074-12.605z"/><path fill="#292524" d="M643.902 553.371l-5.714 3.32 8.484 15.231z"/><path fill="#201C1B" d="M637.449 552.895l-9.465-2.598 10.204 6.394z"/><path fill="#465387" d="M638.145 198.363l-39.157 19.02 40.723-18.356z"/><path fill="#191813" d="M637.449 552.895l.739 3.796 2.128-2.976z"/><path fill="#7C5F5B" d="M618.48 517.504l9.395 11.832 2.277-10.856z"/><path fill="#B08888" d="M618.914 512.453l-.434 5.051 11.672.976z"/><path fill="#191813" d="M640.316 553.715l-2.128 2.976 5.714-3.32z"/><path fill="#2C2924" d="M630.152 518.48l-2.277 10.856 12.621-9.031z"/><path fill="#58473D" d="M618.914 512.453l11.238 6.027 10.344 1.825z"/><path fill="#475288" d="M603.465 199.637l-4.477 17.746 39.157-19.02z"/><path fill="#46588A" d="M605.32 196.223l-1.855 3.414 34.68-1.274z"/><path fill="#2A3956" d="M621.898-7.438l-35.097 39.571 53.058-33.746z"/><path fill="#377081" d="M627.984 550.297l9.465 2.598 2.18-17.305z"/><path fill="#1F1E19" d="M627.875 529.336l-3.723 7.43 15.477-1.176z"/><path fill="#291F1E" d="M624.152 536.766l3.832 13.531 11.645-14.707z"/><path fill="#445485" d="M598.988 217.383l16.102 80.762 44.719-86.399z"/><path fill="#B1928F" d="M601.797 409.527l17.117 102.926 21.582 7.852z"/><path fill="#576592" d="M654.008 200.176l-14.297-1.149 18.105 6.594z"/><path fill="#241C19" d="M638.188 556.691l-10.204-6.394 18.688 21.625z"/><path fill="#2D261E" d="M640.316 553.715l3.586-.344 2.137-16.594z"/><path fill="#773131" d="M639.629 535.59l.687 18.125 5.723-16.938z"/><path fill="#8C7C7C" d="M627.984 550.297l-67.672 48.437 86.36-26.812z"/><path fill="#5C6795" d="M586.801 32.133l18.519 164.09 40.692-4.789z"/><path fill="#6C77A4" d="M605.32 196.223l32.825 2.14 7.867-6.929z"/><path fill="#65749D" d="M638.145 198.363l1.566.664 6.301-7.593z"/><path fill="#2B3043" d="M657.816 205.621l-18.105-6.594 20.098 12.719z"/><path fill="#302B2F" d="M640.496 520.305l-.867 15.285 6.41 1.187z"/><path fill="#1E3344" d="M560.312 598.734l4.536 75.047 81.824-101.859z"/><path fill="#BBBFCB" d="M646.012 191.434l-6.301 7.593 7.793-6.949z"/><path fill="#00638D" d="M733.789 710.797l-18.437 190.039 19.902-2.024z"/><path fill="#749BB8" d="M667.207 681.602l-83.23 11.488 85.902-.344z"/><path fill="#232325" d="M643.902 553.371l2.77 18.551 10.09-21.832z"/><path fill="#8C96AF" d="M698.484 33.758l1.739 1.015 10.914-4.738z"/><path fill="#6B799C" d="M647.504 192.078l-7.793 6.949 14.297 1.149z"/><path fill="#425389" d="M639.711 199.027l-40.723 18.356 60.821-5.637z"/><path fill="#1B1A15" d="M646.039 536.777l-2.137 16.594 12.86-3.281z"/><path fill="#80A2BE" d="M583.977 693.09l-20.016 80.84 105.918-81.184z"/><path fill="#202425" d="M563.961 773.93l10.84 26.484 95.078-107.668z"/><path fill="#395386" d="M710.953-14.777l-37.062 17.589 37.246 27.223z"/><path fill="#365689" d="M586.801 32.133l59.211 159.301 44.734-153.375z"/><path fill="#3D5C92" d="M673.891 2.812l-34.032-4.425 50.887 39.672z"/><path fill="#2F5886" d="M673.891 2.812l24.593 30.946 12.653-3.723z"/><path fill="#282E3A" d="M654.246-5.891l-14.387 4.278 34.032 4.425z"/><path fill="#262D33" d="M664.555-14.172l9.336 16.984 1.882-17.41z"/><path fill="#1D1C17" d="M667.207 681.602l2.672 11.144 6.141-15.098z"/><path fill="#1B1A15" d="M646.672 571.922l-81.824 101.859 102.359 7.821z"/><path fill="#1D1E19" d="M601.797 409.527l76.805 108.078 8.519-3.582z"/><path fill="#39799F" d="M564.848 673.781l19.129 19.309 83.23-11.488z"/><path fill="#456395" d="M639.859-1.613l-53.058 33.746 103.945 5.926z"/><path fill="#8F99B2" d="M698.484 33.758l-4.773 6.019 6.512-5.004z"/><path fill="#1F201B" d="M724.828 696.613l55.414-22.015 8.504-46.508z"/><path fill="#1A1914" d="M646.039 536.777l10.723 13.313 21.84-32.485z"/><path fill="#1B1B13" d="M640.496 520.305l5.543 16.472 32.563-19.172z"/><path fill="#1A1B13" d="M646.672 571.922l20.535 109.68 8.813-3.954z"/><path fill="#1C1C1A" d="M601.797 409.527l38.699 110.778 38.106-2.7z"/><path fill="#1B1D1A" d="M659.809 211.746l-44.719 86.399 79.328 10.738z"/><path fill="#1C1B17" d="M678.602 517.605l-21.84 32.485 30.359-36.067z"/><path fill="#7D88A8" d="M718.703 24.355l6.723-2.5 1.14-2.734z"/><path fill="#7178A4" d="M646.012 191.434l1.492.644 43.242-154.019z"/><path fill="#3D5876" d="M738.039 6.449l.82-.515 17.391-11.965z"/><path fill="#4B7083" d="M615.09 298.145l-3.641 2.605 82.969 8.133z"/><path fill="#7A86A0" d="M690.746 38.059l2.965 1.718 4.773-6.019z"/><path fill="#191E1A" d="M659.809 211.746l34.609 97.137 2.492-.391z"/><path fill="#20201E" d="M611.449 300.75l-9.652 108.777 92.621-100.644z"/><path fill="#405A8D" d="M690.746 38.059l-43.242 154.019 46.207-152.301z"/><path fill="#626A99" d="M647.504 192.078l6.504 8.098 39.703-160.399z"/><path fill="#3C5A8E" d="M673.891 2.812l16.855 35.247 7.738-4.301z"/><path fill="#436485" d="M715.352 900.836l18.359 7.332 1.543-9.356z"/><path fill="#1A1C17" d="M601.797 409.527l85.324 104.496 13.176-8z"/><path fill="#332D2F" d="M676.02 677.648l-6.141 15.098 54.949 3.867z"/><path fill="#9096B0" d="M700.223 34.773l-6.512 5.004 18.012-7.925z"/><path fill="#3C588A" d="M710.953-14.777l7.75 39.132 7.863-5.234z"/><path fill="#39578B" d="M675.773-14.598l-1.882 17.41 37.062-17.589z"/><path fill="#909AB3" d="M711.137 30.035l.586 1.817 1.058-2.622z"/><path fill="#3A5A8D" d="M710.953-14.777l27.086 21.226 18.211-12.48z"/><path fill="#8291A6" d="M711.137 30.035l-10.914 4.738 11.5-2.921z"/><path fill="#005075" d="M574.801 800.414l50.105 125.926 90.446-25.504z"/><path fill="#8B97AF" d="M712.781 29.23l-1.058 2.622 5.308-4.692z"/><path fill="#1B1A15" d="M574.801 800.414l140.551 100.422 18.437-190.039z"/><path fill="#8B90AD" d="M718.703 24.355l-1.672 2.805 8.395-5.305z"/><path fill="#8E92AB" d="M717.031 27.16l-5.308 4.692 13.703-9.997z"/><path fill="#C9C3C5" d="M696.91 308.492l118.692 28.36 2.355-119.188z"/><path fill="#1F1C17" d="M676.02 677.648l48.808 18.965 63.918-68.523z"/><path fill="#2B2724" d="M724.828 696.613l-54.949-3.867 63.91 18.051z"/><path fill="#1A1B15" d="M669.879 692.746l-95.078 107.668 158.988-89.617z"/><path fill="#3B5878" d="M726.566 19.121l-1.14 2.734 12.613-15.406z"/><path fill="#465F95" d="M710.953-14.777l15.613 33.898 11.473-12.672z"/><path fill="#3E6A85" d="M757.723 898.703l-3.618 8.985 4.583-9.051z"/><path fill="#221F18" d="M646.672 571.922l29.348 105.726 112.726-49.558z"/><path fill="#365260" d="M733.711 908.168l9.172 5.629 5.203-15.356z"/><path fill="#40647E" d="M735.254 898.812l-1.543 9.356 14.375-9.727z"/><path fill="#32607A" d="M751.641 900.004l-3.555-1.563 6.019 9.247z"/><path fill="#006791" d="M733.789 710.797l1.465 188.015 12.832-.371z"/><path fill="#465163" d="M748.086 898.441l-5.203 15.356 11.222-6.109z"/><path fill="#1C1914" d="M656.762 550.09l-10.09 21.832 142.074 56.168z"/><path fill="#3C5977" d="M751.641 900.004l2.464 7.684 3.618-8.985z"/><path fill="#20454E" d="M794.898 686.219l44.977 104.543 4.836-84.711z"/><path fill="#295C79" d="M748.086 898.441l3.555 1.563 6.082-1.301z"/><path fill="#212025" d="M700.297 506.023l-13.176 8 101.625 114.067z"/><path fill="#405872" d="M738.859 5.934l-13.433 15.921 66.668-22.722z"/><path fill="#2E2C2F" d="M758.688 898.637l-4.583 9.051 8.887 11.476z"/><path fill="#373735" d="M794.867 683.676l-14.625-9.078 14.656 11.621z"/><path fill="#7B89A3" d="M756.25-6.031l-17.391 11.965 25.278-12.258z"/><path fill="#0141A5" d="M694.418 308.883l-92.621 100.644 169.691 28.024z"/><path fill="#DE69A0" d="M601.797 409.527l98.5 96.496 71.191-68.472z"/><path fill="#1C2023" d="M696.91 308.492l-2.492.391 77.07 128.668z"/><path fill="#A86696" d="M844.242 212.105l-25.133 4.672 30.797 19.34z"/><path fill="#7589A1" d="M764.137-6.324l-25.278 12.258 53.235-6.801z"/><path fill="#201D18" d="M657.816 205.621l1.993 6.125 140.125-6.574z"/><path fill="#1C211D" d="M812.488 339.484l-34.972 96.446 61.058-91.598z"/><path fill="#E979B3" d="M776.301 436.18l-4.813 1.371 6.028-1.621z"/><path fill="#221D19" d="M780.242 674.598l-46.453 36.199 61.109-24.578z"/><path fill="#1B1A15" d="M724.828 696.613l8.961 14.184 46.453-36.199z"/><path fill="#1D1C17" d="M788.746 628.09l11.91 20 .5-1.664z"/><path fill="#1B1B13" d="M799.934 205.172l-103.024 103.32 121.047-90.828z"/><path fill="#1A1914" d="M815.344 627.629l2.222 21.082.793-25.121z"/><path fill="#1C1B16" d="M687.121 514.023l-30.359 36.067 131.984 78z"/><path fill="#4A93A2" d="M836.223 689.406l8.488 16.645 10.184-13.992z"/><path fill="#1B201C" d="M696.91 308.492l115.578 30.992 3.114-2.632z"/><path fill="#22211C" d="M792.945 660.59l-12.703 14.008 14.625 9.078z"/><path fill="#201F1A" d="M803.305 665.09l4.617 4.953.172-3.125z"/><path fill="#1A1914" d="M801.156 646.426l13.574 3.34.614-22.137z"/><path fill="#374A50" d="M788.746 628.09l-8.504 46.508 12.703-14.008z"/><path fill="#1C1D18" d="M659.809 211.746l37.101 96.746 103.024-103.32z"/><path fill="#22211F" d="M654.008 200.176l3.808 5.445 142.118-.449z"/><path fill="#282923" d="M693.711 39.777l-39.703 160.399 145.926 4.996z"/><path fill="#44588D" d="M711.723 31.852l-18.012 7.925 106.223 165.395z"/><path fill="#201E21" d="M792.945 660.59l10.36 4.5.922-7.676z"/><path fill="#21201C" d="M788.746 628.09l4.199 32.5 7.711-12.5z"/><path fill="#312322" d="M804.227 657.414l-.922 7.676 4.789 1.828z"/><path fill="#28506A" d="M800.656 648.09l-7.711 12.5 11.282-3.176z"/><path fill="#1B1C17" d="M823.602 673.734l-15.68-3.691 16.937 19.078z"/><path fill="#313139" d="M792.945 660.59l1.922 23.086 8.438-18.586z"/><path fill="#BF779C" d="M844.207 202.742l24.906 8.106 1.832-2.957z"/><path fill="#2A243C" d="M776.301 436.18l1.215-.25 34.972-96.446z"/><path fill="#1A1914" d="M818.359 623.59l-.793 25.121 3.614-30.309z"/><path fill="#201D18" d="M794.867 683.676l.031 2.543 13.024-16.176z"/><path fill="#1E1D18" d="M803.305 665.09l-8.438 18.586 13.055-13.633z"/><path fill="#936DB8" d="M771.488 437.551l4.813-1.371 36.187-96.696z"/><path fill="#2A2722" d="M807.922 670.043l-13.024 16.176 29.961 2.902z"/><path fill="#00378A" d="M696.91 308.492l74.578 129.059 41-98.067z"/><path fill="#301E1A" d="M801.156 646.426l-.5 1.664 14.074 1.676z"/><path fill="#873E37" d="M800.656 648.09l3.571 9.324 10.503-7.648z"/><path fill="#1B1A15" d="M788.746 628.09l12.41 18.336 14.188-18.797z"/><path fill="#3F2121" d="M814.73 649.766l.618 3.539 2.218-4.594z"/><path fill="#1A1A12" d="M815.344 627.629l-.614 22.137 2.836-1.055z"/><path fill="#633235" d="M814.73 649.766l-10.503 7.648 11.121-4.109z"/><path fill="#3A2723" d="M804.227 657.414l3.867 9.504 7.254-13.613z"/><path fill="#1A1A12" d="M788.746 628.09l26.598-.461 3.015-4.039z"/><path fill="#A15383" d="M819.98 191.555l-.871 25.222 25.098-14.035z"/><path fill="#1B1A15" d="M758.688 898.637l4.304 20.527 56.149 17.836z"/><path fill="#A55F55" d="M817.566 648.711l-2.218 4.594 8.254 20.429z"/><path fill="#6172A0" d="M711.723 31.852l88.211 173.32 20.046-13.617z"/><path fill="#A2578F" d="M799.934 205.172l18.023 12.492 2.023-26.109z"/><path fill="#985C92" d="M817.957 217.664l1.152-.887.871-25.222z"/><path fill="#B1628F" d="M792.094-.867l-66.668 22.722 94.554 169.7z"/><path fill="#8E6496" d="M725.426 21.855l-13.703 9.997 108.257 159.703z"/><path fill="#1D1C1A" d="M700.297 506.023l88.449 122.067 32.434-9.688z"/><path fill="#1C1B16" d="M788.746 628.09l29.613-4.5 2.821-5.188z"/><path fill="#2F4375" d="M854.945 312.09l-3.187 7.515 6.031-7.828z"/><path fill="#B05A21" d="M892.98 493.516l5.715 41.461 3.586.445z"/><path fill="#231F16" d="M815.348 653.305l-7.254 13.613 15.508 6.816z"/><path fill="#1C1B16" d="M808.094 666.918l-.172 3.125 15.68 3.691z"/><path fill="#077085" d="M844.711 706.051l24.598 55.976 11.562-55.105z"/><path fill="#1E1D1B" d="M823.602 673.734l2.96 13.75 9.661 1.922z"/><path fill="#1F1B18" d="M823.602 673.734l1.257 15.387 1.703-1.637z"/><path fill="#1B1C16" d="M826.562 687.484l-1.703 1.637 11.364.285z"/><path fill="#C4C8D1" d="M850.258 319.184l-1.391-.055 2.891.476z"/><path fill="#C2AAA8" d="M832.492 335.488l-16.89 1.364 22.972 7.48z"/><path fill="#B1638A" d="M844.207 202.742l32.828-5.031 1.051-2.008z"/><path fill="#4F91A1" d="M854.895 692.059l-10.184 13.992 36.16.871z"/><path fill="#206C7C" d="M823.602 673.734l12.621 15.672 18.672 2.653z"/><path fill="#B26593" d="M844.207 202.742l-25.098 14.035 25.133-4.672z"/><path fill="#856163" d="M815.602 336.852l-3.114 2.632 26.086 4.848z"/><path fill="#907993" d="M848.867 319.129l-6.058 20.156 8.949-19.68z"/><path fill="#1B1B13" d="M794.898 686.219l-61.109 24.578 106.086 79.965z"/><path fill="#353537" d="M757.723 898.703l.965-.066 81.187-107.875z"/><path fill="#22211D" d="M733.789 710.797l14.297 187.644 91.789-107.679z"/><path fill="#22231E" d="M748.086 898.441l9.637.262 82.152-107.941z"/><path fill="#CDBDBD" d="M832.492 335.488l6.082 8.844 4.235-5.047z"/><path fill="#1F201B" d="M824.859 689.121l-29.961-2.902 49.813 19.832z"/><path fill="#1B1A15" d="M817.566 648.711l6.036 25.023 31.293 18.325z"/><path fill="#E484C3" d="M771.488 437.551l-71.191 68.472 143.621-37.312z"/><path fill="#1C1815" d="M777.516 435.93l-6.028 1.621 72.43 31.16z"/><path fill="#292A2F" d="M887.895 570.176l-66.715 48.226 67.238-45.218z"/><path fill="#B36D92" d="M844.242 212.105l20.973 4.704 1.625-2.661z"/><path fill="#4993A0" d="M836.223 689.406l-11.364-.285 19.852 16.93z"/><path fill="#B87296" d="M844.207 202.742l.035 9.363 22.598 2.043z"/><path fill="#014C69" d="M869.309 762.027l-29.434 28.735 38.078 112.183z"/><path fill="#CBBBBB" d="M832.492 335.488l10.317 3.797 6.058-20.156z"/><path fill="#C6B2B1" d="M815.602 336.852l16.89-1.364 16.375-16.359z"/><path fill="#B3B7D0" d="M850.258 319.184l1.5.421 3.187-7.515z"/><path fill="#6B809F" d="M815.602 336.852l33.265-17.723 1.039-83.012z"/><path fill="#995D93" d="M819.109 216.777l-1.152.887 31.949 18.453z"/><path fill="#3D6799" d="M817.957 217.664l-2.355 119.188 34.304-100.735z"/><path fill="#BFC2D1" d="M848.867 319.129l1.391.055 4.687-7.094z"/><path fill="#418FB6" d="M849.906 236.117l-1.039 83.012 6.078-7.039z"/><path fill="#1A1915" d="M821.18 618.402l-3.614 30.309 37.329 43.348z"/><path fill="#A48493" d="M876.961 451.73l-17.891 21.586 18.242-18.836z"/><path fill="#BE7299" d="M844.207 202.742l26.738 5.149 6.09-10.18z"/><path fill="#1D1E19" d="M839.875 790.762l-81.187 107.875 119.265 4.308z"/><path fill="#BFAAA9" d="M843.918 468.711l8.387 5.695 6.765-1.09z"/><path fill="#C9C6CF" d="M1233.117 301.254l5.758 10.848.031-.938z"/><path fill="#1B1A15" d="M821.18 618.402l33.715 73.657 33.523-118.875z"/><path fill="#0C2E37" d="M866.84 214.148l-4.36 28.129 6.633-31.429z"/><path fill="#966292" d="M844.242 212.105l5.664 24.012 10.645-11.758z"/><path fill="#C3B1AF" d="M843.918 468.711l15.152 4.605 17.891-21.586z"/><path fill="#1B1C17" d="M758.688 898.637l60.453 38.363 58.812-34.055z"/><path fill="#1B313C" d="M860.551 224.359l-10.645 11.758 12.574 6.16z"/><path fill="#028EB2" d="M849.906 236.117l5.039 75.973 7.535-69.813z"/><path fill="#094B65" d="M854.945 312.09l2.844-.313 4.691-69.5z"/><path fill="#AA638D" d="M844.242 212.105l16.309 12.254 4.664-7.55z"/><path fill="#172526" d="M860.551 224.359l1.929 17.918 2.735-25.468z"/><path fill="#CAB2B0" d="M859.07 473.316l-6.765 1.09 14.988 27.367z"/><path fill="#16221E" d="M865.215 216.809l-2.735 25.468 4.36-28.129z"/><path fill="#C8ADC0" d="M876.961 451.73l12.949-.441.281-7.543z"/><path fill="#C5ADAB" d="M852.305 474.406l-8.387-5.695 23.375 33.062z"/><path fill="#1A1914" d="M700.297 506.023l120.883 112.379 46.113-116.629z"/><path fill="#1E1D19" d="M843.918 468.711l-143.621 37.312 166.996-4.25z"/><path fill="#6F4C38" d="M896.371 534.887l1.524 18.359.8-18.269z"/><path fill="#1C1D18" d="M869.309 762.027l8.644 140.918 8.184 4.141z"/><path fill="#22231E" d="M844.711 706.051l-4.836 84.711 29.434-28.735z"/><path fill="#BA7496" d="M844.207 202.742l22.633 11.406 2.273-3.3z"/><path fill="#BA7B69" d="M907.512 535.102l19.8 18.351 3.915-56.828z"/><path fill="#A25380" d="M877.312 454.48l13.293 28.727 1.497-23.328z"/><path fill="#934F7E" d="M889.91 451.289l-12.598 3.191 14.79 5.399z"/><path fill="#222421" d="M908.121 569.762l-19.703 3.422 23 2.632z"/><path fill="#A5878F" d="M838.574 344.332l-61.058 91.598 99.445 15.8z"/><path fill="#242225" d="M777.516 435.93l66.402 32.781 33.043-16.981z"/><path fill="#263E6A" d="M838.574 344.332l38.387 107.398 13.23-7.984z"/><path fill="#A85425" d="M917.219 472.395l-24.239 21.121 38.247 3.109z"/><path fill="#2D788B" d="M946.492 705.242l-1.746 1.426 15.297 5.301z"/><path fill="#C46F96" d="M915.406 22.195l-4.136 4 7.398-.66z"/><path fill="#AA4C5E" d="M890.605 483.207l-23.312 18.566 25.687-8.257z"/><path fill="#262A2D" d="M889.699-30.066l21.571 56.261 1.367-11.308z"/><path fill="#9A568F" d="M819.98 191.555l70.922-15.907 4.989-8.347z"/><path fill="#232531" d="M877.035 197.711l-6.09 10.18 16.024-11.868z"/><path fill="#1F2427" d="M878.086 195.703l-1.051 2.008 9.934-1.688z"/><path fill="#0180AD" d="M869.113 210.848l-6.633 31.429 24.489-46.254z"/><path fill="#1F272A" d="M870.945 207.891l-1.832 2.957 17.856-14.825z"/><path fill="#013E8E" d="M867.293 501.773l-46.113 116.629 66.715-48.226z"/><path fill="#1B2526" d="M890.902 175.648l-12.816 20.055 12.848-5.781z"/><path fill="#B9632A" d="M892.98 493.516l3.391 41.371 2.324.09z"/><path fill="#22241F" d="M949.719 686.285l10.324 25.684 1.203-29.199z"/><path fill="#8E416D" d="M876.961 451.73l.351 2.75 12.598-3.191z"/><path fill="#00739A" d="M878.086 195.703l8.883.32 3.965-6.101z"/><path fill="#2C3D6B" d="M838.574 344.332l51.617 99.414 17.192-96.074z"/><path fill="#99657B" d="M877.312 454.48l-18.242 18.836 31.535 9.891z"/><path fill="#B69FA5" d="M859.07 473.316l8.223 28.457 23.312-18.566z"/><path fill="#8B4A84" d="M842.809 339.285l-4.235 5.047 68.809 3.34z"/><path fill="#AC5C8D" d="M819.98 191.555l24.227 11.187 46.695-27.094z"/><path fill="#BB6A92" d="M844.207 202.742l33.879-7.039 12.816-20.055z"/><path fill="#1D2525" d="M890.902 175.648l.032 14.274 4.957-22.621z"/><path fill="#AB6E4F" d="M898.695 534.977l-.8 18.269 4.386-17.824z"/><path fill="#BAA5AA" d="M867.293 501.773l20.602 68.403 8.476-35.289z"/><path fill="#B65E1F" d="M892.98 493.516l-25.687 8.257 29.078 33.114z"/><path fill="#458E9D" d="M880.871 706.922l-11.562 55.105 68.968-51.336z"/><path fill="#363E53" d="M924.699-7.172l-2.375 8.981 2.801.046z"/><path fill="#23241E" d="M896.371 534.887l-8.476 35.289 10-16.93z"/><path fill="#C57075" d="M792.094-.867l111.789 154.808 7.387-127.746z"/><path fill="#23221D" d="M897.895 553.246l10.226 16.516 10.059-16.188z"/><path fill="#AE726A" d="M907.512 535.102l-9.617 18.144 20.285.328z"/><path fill="#254F81" d="M792.094-.867l27.886 192.422 83.903-37.614z"/><path fill="#8F5A90" d="M819.98 191.555l75.911-24.254 7.992-13.36z"/><path fill="#754C5A" d="M907.383 347.672l-17.192 96.074 27.028 28.649z"/><path fill="#2A4477" d="M862.48 242.277l-4.691 69.5 49.594 35.895z"/><path fill="#6C4B80" d="M851.758 319.605l-8.949 19.68 64.574 8.387z"/><path fill="#383C6B" d="M857.789 311.777l-6.031 7.828 55.625 28.067z"/><path fill="#B56125" d="M892.98 493.516l9.301 41.906 5.231-.32z"/><path fill="#AA674C" d="M902.281 535.422l-4.386 17.824 9.617-18.144z"/><path fill="#969BB1" d="M889.699-30.066l-97.605 29.199 119.176 27.062z"/><path fill="#BAACBB" d="M887.895 570.176l.523 3.008 19.703-3.422z"/><path fill="#20201E" d="M897.895 553.246l-10 16.93 20.226-.414z"/><path fill="#CA759C" d="M912.637 14.887l-1.367 11.308 4.136-4z"/><path fill="#AC581C" d="M892.98 493.516l14.532 41.586 23.715-38.477z"/><path fill="#28292B" d="M922.324 1.809l-9.687 13.078 12.488-13.032z"/><path fill="#007299" d="M895.891 167.301l-4.957 22.621 22.863-34.582z"/><path fill="#254458" d="M903.883 153.941l-7.992 13.36 17.906-11.961z"/><path fill="#212C32" d="M924.699-7.172l6.571 11.414 9.835-5.191z"/><path fill="#9198B2" d="M889.699-30.066l22.938 44.953 3.148-22.543z"/><path fill="#AD4B5A" d="M890.605 483.207l2.375 10.309 24.239-21.121z"/><path fill="#A15987" d="M890.191 443.746l-.281 7.543 27.309 21.106z"/><path fill="#CAADBF" d="M889.91 451.289l2.192 8.59 25.117 12.516z"/><path fill="#9F4B6D" d="M892.102 459.879l-1.497 23.328 26.614-10.812z"/><path fill="#22211D" d="M911.418 575.816l14.301 6.297.535-15.304z"/><path fill="#675354" d="M918.18 553.574l-10.059 16.188 18.133-2.953z"/><path fill="#27282C" d="M915.785-7.656l-3.148 22.543 9.687-13.078z"/><path fill="#23241F" d="M908.121 569.762l3.297 6.054 14.836-9.007z"/><path fill="#498C9C" d="M880.871 706.922l57.406 3.769 11.442-24.406z"/><path fill="#5087AE" d="M854.895 692.059l25.976 14.863 57.109-107.891z"/><path fill="#232522" d="M888.418 573.184l-33.523 118.875 83.085-93.028z"/><path fill="#BF6998" d="M915.406 22.195l3.262 3.34 12.602-21.293z"/><path fill="#9091AD" d="M915.785-7.656l6.539 9.465 2.375-8.981z"/><path fill="#1B2723" d="M1010.512 705.578l-7.696 8.406 8.418-7.254z"/><path fill="#212121" d="M935.441 594.152l-24.023-18.336 26.562 23.215z"/><path fill="#B38D8C" d="M918.18 553.574l8.074 13.235 1.058-13.356z"/><path fill="#03345C" d="M911.418 575.816l-23-2.632 49.562 25.847z"/><path fill="#B18582" d="M907.512 535.102l10.668 18.472 9.132-.121z"/><path fill="#AD827B" d="M927.312 553.453l-1.058 13.356 4.859 1.859z"/><path fill="#A47875" d="M926.254 566.809l-.535 15.304 5.394-13.445z"/><path fill="#1C221E" d="M944.746 706.668l1.746-1.426 3.227-18.957z"/><path fill="#242829" d="M924.699-7.172l.426 9.027 6.145 2.387z"/><path fill="#23241F" d="M937.98 599.031l11.739 87.254 11.527-3.515z"/><path fill="#AC5E98" d="M912.637 14.887l2.769 7.308 15.864-17.953z"/><path fill="#252527" d="M925.125 1.855l-12.488 13.032 18.633-10.645z"/><path fill="#1F2324" d="M935.441 594.152l2.539 4.879 4.719-4.742z"/><path fill="#23241F" d="M925.719 582.113l9.722 12.039.536-4.011z"/><path fill="#21221D" d="M925.719 582.113l-14.301-6.297 24.023 18.336zM931.113 568.668l-5.394 13.445 10.258 8.028z"/><path fill="#23241F" d="M935.977 590.141l-.536 4.011 7.258.137z"/><path fill="#C96C74" d="M918.668 25.535l22.953 82.274.465-97.7z"/><path fill="#252621" d="M931.113 568.668l4.864 21.473 6.722 4.148z"/><path fill="#252628" d="M941.105-.949l-9.835 5.191 10.816 5.867z"/><path fill="#2E7C90" d="M938.277 710.691l6.469-4.023 4.973-20.383z"/><path fill="#00658E" d="M970.426 739.164l-101.117 22.863 128.535 123.301z"/><path fill="#B56596" d="M931.27 4.242l-12.602 21.293 23.418-15.426z"/><path fill="#525983" d="M911.27 26.195l-7.387 127.746 37.738-46.132z"/><path fill="#456B90" d="M903.883 153.941l9.914 1.399 27.824-47.531z"/><path fill="#C4717B" d="M918.668 25.535l-7.398.66 30.351 81.614z"/><path fill="#252722" d="M937.98 599.031l-57.109 107.891 68.848-20.637z"/><path fill="#013F8C" d="M942.699 594.289l-4.719 4.742 23.266 83.739z"/><path fill="#1E7B8C" d="M960.043 711.969l-21.766-1.278 26.274 19.036z"/><path fill="#183233" d="M949.719 686.285l-3.227 18.957 13.551 6.727z"/><path fill="#5092A0" d="M944.746 706.668l-6.469 4.023 21.766 1.278z"/><path fill="#5594A5" d="M938.277 710.691l-68.968 51.336 95.242-32.3z"/><path fill="#338293" d="M964.551 729.727l-95.242 32.3 101.117-22.863z"/><path fill="#2F7D91" d="M1000.781 746.125l21.61 16.066 1.539-1.234z"/><path fill="#1A1F1B" d="M961.246 682.77l-1.203 29.199 24.914.043z"/><path fill="#348797" d="M960.043 711.969l4.508 17.758 20.406-17.715z"/><path fill="#4C94A2" d="M964.551 729.727l5.875 9.437 14.531-27.152z"/><path fill="#408D9D" d="M1017.609 734.758l-16.828 11.367 23.149 14.832z"/><path fill="#2A5975" d="M997.844 885.328l-3.246 29.156 16.23-24.566z"/><path fill="#375766" d="M897.148 913.59l25.418 10.32 75.278-38.582z"/><path fill="#285C74" d="M886.137 907.086l11.011 6.504 100.696-28.262z"/><path fill="#1D1E19" d="M869.309 762.027l16.828 145.059 111.707-21.758z"/><path fill="#20221F" d="M922.566 923.91l11.43 5.387 63.848-43.969z"/><path fill="#394B55" d="M966.102 934.012l28.496-19.528 3.246-29.156z"/><path fill="#47505F" d="M933.996 929.297l32.106 4.715 31.742-48.684z"/><path fill="#68A6B3" d="M984.957 712.012l-14.531 27.152 30.355 6.961z"/><path fill="#358699" d="M984.957 712.012l15.824 34.113 2.035-32.141z"/><path fill="#59788D" d="M1010.828 889.918l-16.23 24.566 16.66 1.289z"/><path fill="#4093A1" d="M1084.156 722.207l-52.105 14.668 55.722.246z"/><path fill="#B46A8D" d="M890.934 189.922l-3.965 6.101 122.625 51.137z"/><path fill="#9C718D" d="M886.969 196.023l-24.489 46.254 147.114 4.883z"/><path fill="#2A6082" d="M862.48 242.277l44.903 105.395 102.211-100.512z"/><path fill="#4B9BA6" d="M1087.773 737.121l-52.785 23.824 56.473-19.242z"/><path fill="#438D96" d="M984.957 712.012l17.859 1.972 7.696-8.406z"/><path fill="#007E9F" d="M890.934 189.922l118.66 57.238 3.816-17.383z"/><path fill="#22241F" d="M961.246 682.77l23.711 29.242 25.555-6.434z"/><path fill="#3C587F" d="M1025.488 46.109l-83.867 61.7 96.043 118.574z"/><path fill="#4793A3" d="M1002.816 713.984l-2.035 32.141 16.828-11.367z"/><path fill="#BF7296" d="M913.797 155.34l-22.863 34.582 122.476 39.855z"/><path fill="#212830" d="M941.621 107.809l71.789 121.968 24.254-3.394z"/><path fill="#944F86" d="M941.621 107.809l-27.824 47.531 99.613 74.437z"/><path fill="#3A919B" d="M1000.781 746.125l-30.355-6.961 51.965 23.027z"/><path fill="#006792" d="M970.426 739.164l27.418 146.164 24.547-123.137z"/><path fill="#5698A8" d="M1024.59 718.203l-6.981 16.555 14.442 2.117z"/><path fill="#6F5386" d="M907.383 347.672l179.449 57.277 5.641-35.383z"/><path fill="#1C1D18" d="M997.844 885.328l12.984 4.59 11.563-127.727z"/><path fill="#00798B" d="M1011.234 706.73l-8.418 7.254 21.774 4.219z"/><path fill="#4991A0" d="M1002.816 713.984l14.793 20.774 6.981-16.555z"/><path fill="#165660" d="M1010.512 705.578l.722 1.152 13.356 11.473z"/><path fill="#C27565" d="M942.086 10.109l-.465 97.7 83.867-61.7z"/><path fill="#B86D98" d="M941.105-.949l.981 11.058 83.402 36z"/><path fill="#3B5789" d="M1009.402-68.082l-68.297 67.133 84.383 47.058z"/><path fill="#262624" d="M1119.555 524.832l-.633 10.438 1.89.863z"/><path fill="#3E6376" d="M1010.828 889.918l.43 25.855 16.422-.511z"/><path fill="#272622" d="M1115.027 533.898l3.895 1.372.633-10.438z"/><path fill="#4897A4" d="M1017.609 734.758l6.321 26.199 8.121-24.082z"/><path fill="#3E677D" d="M1010.828 889.918l16.852 25.344 12.297-2.422z"/><path fill="#015778" d="M1022.391 762.191l-11.563 127.727 24.16-128.973z"/><path fill="#1B201C" d="M1023.93 760.957l-1.539 1.234 12.597-1.246z"/><path fill="#4A93A2" d="M1032.051 736.875l-8.121 24.082 11.058-.012z"/><path fill="#BAA4A7" d="M1013.41 229.777l-3.816 17.383 28.07-20.777z"/><path fill="#22231E" d="M1177.312 690.98l-5.261 27.493 11.949 3.246z"/><path fill="#A77574" d="M1092.473 369.566l-5.641 35.383 6.891-1.484z"/><path fill="#26292E" d="M1107.254-85.238l-92.469 11.797 98.777 94.843z"/><path fill="#C79F93" d="M1119.344 522.922l.211 1.91 6.773-1.227z"/><path fill="#AB93B3" d="M1025.488 46.109l87.625-22.589.449-2.118z"/><path fill="#003D88" d="M942.699 594.289l18.547 88.481 95.922-58.094z"/><path fill="#262521" d="M961.246 682.77l49.266 22.808 46.656-80.902z"/><path fill="#22231E" d="M1010.512 705.578l14.078 12.625 32.578-93.527z"/><path fill="#3F598C" d="M1009.402-68.082l16.086 114.191 88.074-24.707z"/><path fill="#C4AE87" d="M942.699 594.289l114.469 30.387 37.008-68.242z"/><path fill="#20211C" d="M1057.168 624.676l-32.578 93.527 59.566 4.004z"/><path fill="#3F92A2" d="M1024.59 718.203l7.461 18.672 52.105-14.668z"/><path fill="#335F78" d="M1010.828 889.918l29.149 22.922 45.421-1.543z"/><path fill="#054165" d="M1034.988 760.945l-24.16 128.973 74.57 21.379z"/><path fill="#B3A288" d="M931.113 568.668l11.586 25.621 151.477-37.855z"/><path fill="#B55A63" d="M917.219 472.395l14.008 24.23 155.605-91.676z"/><path fill="#33507C" d="M907.383 347.672l9.836 124.723 169.613-67.446z"/><path fill="#5A324A" d="M1009.594 247.16l-102.211 100.512 185.09 21.894z"/><path fill="#1D1F1A" d="M1057.168 624.676l26.988 97.531 10.258.773z"/><path fill="#4D99A7" d="M1032.051 736.875l2.937 24.07 52.785-23.824z"/><path fill="#222F42" d="M1014.785-73.441l-5.383 5.359 104.16 89.484z"/><path fill="#314D7C" d="M1037.664 226.383l-28.07 20.777 82.879 122.406z"/><path fill="#305572" d="M1085.398 911.297l38.571-13.609 2.652-2.77z"/><path fill="#2A2927" d="M1118.922 535.27l-3.059.621 4.949.242z"/><path fill="#C2A19A" d="M927.312 553.453l3.801 15.215 163.063-12.234z"/><path fill="#BB9690" d="M931.227 496.625l-3.915 56.828 166.864 2.981z"/><path fill="#318297" d="M1095.543 723.023l-1.129-.043 3.402 2.227z"/><path fill="#252621" d="M1057.168 624.676l37.246 98.304 1.129.043z"/><path fill="#01535F" d="M1084.156 722.207l3.617 14.914 6.641-14.141z"/><path fill="#44929E" d="M1120.77 727.801l-21.485 4.121 22.403-.031z"/><path fill="#C79284" d="M1119.344 522.922l6.984.683 1.621-124.757z"/><path fill="#41909F" d="M1097.816 725.207l-3.402-2.227 4.871 8.942z"/><path fill="#4195A0" d="M1087.773 737.121l3.688 4.582 7.824-9.781z"/><path fill="#358E9C" d="M1094.414 722.98l-6.641 14.141 11.512-5.199z"/><path fill="#A16F72" d="M1092.473 369.566l1.25 33.899 6.558-1.246z"/><path fill="#313340" d="M1112.414-86.047l-5.16.809 6.308 106.64z"/><path fill="#237EAD" d="M1115.863 535.891l-21.687 20.543 26.636-20.301z"/><path fill="#24251F" d="M931.227 496.625l162.949 59.809 16.785-22.204z"/><path fill="#4093A1" d="M1091.461 741.703l-56.473 19.242 72.387-15.375z"/><path fill="#529BAA" d="M1099.285 731.922l-7.824 9.781 15.914 3.867z"/><path fill="#A3827D" d="M1119.344 522.922l-8.383 11.308 8.594-9.398z"/><path fill="#C7ABAA" d="M1086.832 404.949l-155.605 91.676 179.734 37.605z"/><path fill="#025C98" d="M1034.988 760.945l50.41 150.352 41.223-16.379z"/><path fill="#272621" d="M1110.961 534.23l4.066-.332 4.528-9.066z"/><path fill="#C09585" d="M1126.328 523.605l1.93 5.293.156-1.886z"/><path fill="#272725" d="M1115.027 533.898l-4.066.332 4.902 1.661z"/><path fill="#277DAE" d="M1110.961 534.23l-16.785 22.204 21.687-20.543z"/><path fill="#4793A1" d="M1099.285 731.922l8.09 13.648 14.313-13.679z"/><path fill="#358D9B" d="M1123.848 736.621l-16.473 8.949 19.605-3.664z"/><path fill="#4493A0" d="M1122.625 730.152l-.937 1.739 2.16 4.73z"/><path fill="#CC968A" d="M1086.832 404.949l24.129 129.281 8.383-11.308z"/><path fill="#282723" d="M1115.027 533.898l.836 1.993 3.059-.621z"/><path fill="#3C8F9F" d="M1120.77 727.801l.918 4.09.937-1.739z"/><path fill="#BE6E7B" d="M1100.281 402.219l-6.558 1.246 25.621 119.457z"/><path fill="#2F8898" d="M1123.848 736.621l3.132 5.285.411-4.105z"/><path fill="#454D58" d="M1123.926 918.535l.039-.367.004-20.48z"/><path fill="#B86875" d="M1093.723 403.465l-6.891 1.484 32.512 117.973z"/><path fill="#398C9A" d="M1095.543 723.023l2.273 2.184 22.954 2.594z"/><path fill="#1E231C" d="M1256.785 660.395l-3.203-2.036 4.719 5.481z"/><path fill="#3A8998" d="M1097.816 725.207l1.469 6.715 21.485-4.121z"/><path fill="#30343D" d="M1109.23 909.582l14.696 8.953.043-20.847z"/><path fill="#5F819C" d="M1085.398 911.297l23.832-1.715 14.739-11.894z"/><path fill="#388E9D" d="M1122.625 730.152l1.223 6.469 3.543 1.18z"/><path fill="#4C96A3" d="M1127.391 737.801l-.411 4.105 1.985 7.676z"/><path fill="#4796A3" d="M1121.688 731.891l-14.313 13.679 16.473-8.949z"/><path fill="#3E94A1" d="M1126.98 741.906l-19.605 3.664 21.59 4.012z"/><path fill="#026491" d="M1107.375 745.57l19.246 149.348 2.344-145.336z"/><path fill="#BC9083" d="M1128.258 528.898l-1.219 4.286 7.469-5.582z"/><path fill="#BE968A" d="M1126.328 523.605l-6.773 1.227 8.703 4.066z"/><path fill="#B8796A" d="M1092.473 369.566l7.808 32.653 24.664-19.84z"/><path fill="#C4988B" d="M1126.328 523.605l2.086 3.407 6.094.59z"/><path fill="#BA9286" d="M1119.555 524.832l7.484 8.352 1.219-4.286z"/><path fill="#7C697F" d="M1124.945 382.379l-24.664 19.84 27.668-3.371z"/><path fill="#21221D" d="M1120.77 727.801l1.855 2.351 21.445-29.25z"/><path fill="#506C84" d="M1126.621 894.918l-2.695 23.617 22.398-10.039z"/><path fill="#394754" d="M1123.965 918.168l-.039.367 2.695-23.617z"/><path fill="#015B7E" d="M1107.375 745.57l-72.387 15.375 91.633 133.973z"/><path fill="#332C24" d="M1119.555 524.832l1.257 11.301 6.227-2.949z"/><path fill="#BC6F79" d="M1100.281 402.219l19.063 120.703 8.605-124.074z"/><path fill="#0279A1" d="M1140.508 526.105l-13.469 7.079 50.273 157.796z"/><path fill="#C69A8D" d="M1128.414 527.012l-.156 1.886 6.25-1.296z"/><path fill="#835D8E" d="M1092.473 369.566l32.472 12.813 28.028-69.781z"/><path fill="#6F385F" d="M1025.488 46.109l12.176 180.274 97.137 4.414z"/><path fill="#926F76" d="M1113.113 23.52l-87.625 22.589 109.313 184.688z"/><path fill="#C7998C" d="M1126.328 523.605l8.18 3.997 6-1.497z"/><path fill="#C29485" d="M1134.508 527.602l-7.469 5.582 13.469-7.079z"/><path fill="#CC9C90" d="M1127.949 398.848l-1.621 124.757 14.18 2.5z"/><path fill="#6877A2" d="M1134.801 230.797l-97.137-4.414 115.309 86.215z"/><path fill="#21221D" d="M1122.625 730.152l4.766 7.649 16.679-36.899z"/><path fill="#20211B" d="M1144.07 700.902l27.981 17.571.82-26.035z"/><path fill="#1E231C" d="M1094.176 556.434l-37.008 68.242 86.902 76.226z"/><path fill="#254159" d="M1057.168 624.676l38.375 98.347 48.527-22.121z"/><path fill="#232321" d="M1095.543 723.023l25.227 4.778 23.3-26.899z"/><path fill="#49657A" d="M1123.969 897.688l-.004 20.48 22.359-9.672z"/><path fill="#506C84" d="M1123.965 918.168l2.656-23.25 19.703 13.578z"/><path fill="#27506C" d="M1126.621 894.918l-2.652 2.77 22.355 10.808z"/><path fill="#4A3144" d="M1037.664 226.383l54.809 143.183 60.5-56.968z"/><path fill="#645E80" d="M1212.766 425.211l-84.817-26.363 85.301 27.597z"/><path fill="#242623" d="M1127.039 533.184l-6.227 2.949 56.5 154.847z"/><path fill="#21221D" d="M1172.051 718.473l-43.086 31.109 55.035-27.863z"/><path fill="#064151" d="M1184 721.719l-55.035 27.863 69.129 169.121z"/><path fill="#20211C" d="M1144.07 700.902l-16.679 36.899 44.66-19.328z"/><path fill="#014087" d="M1094.176 556.434l49.894 144.468 28.801-8.464z"/><path fill="#378C9E" d="M1127.391 737.801l1.574 11.781 43.086-31.109z"/><path fill="#4A5080" d="M1113.113 23.52l21.688 207.277 38.492-19.172z"/><path fill="#243144" d="M1094.176 556.434l78.695 136.004 4.441-1.458z"/><path fill="#705487" d="M1112.414-86.047l1.148 107.449 88.766-61.367z"/><path fill="#2B78B0" d="M1172.871 692.438l-.82 26.035 5.261-27.493z"/><path fill="#242925" d="M1120.812 536.133l-26.636 20.301 83.136 134.546z"/><path fill="#9193B9" d="M1202.328-39.965l-88.766 61.367 101.586-49.582z"/><path fill="#004980" d="M1128.965 749.582l-2.344 145.336 71.473 23.785z"/><path fill="#406077" d="M1126.621 894.918l19.703 13.578 51.77 10.207z"/><path fill="#A38DA4" d="M1173.293 211.625l-38.492 19.172 68.765 71.09z"/><path fill="#0276A9" d="M1177.312 690.98l76.27-32.621.199-1.351z"/><path fill="#423F5E" d="M1134.801 230.797l18.172 81.801 50.593-10.711z"/><path fill="#C78C84" d="M1127.949 398.848l12.559 127.257 72.742-99.66z"/><path fill="#0079A4" d="M1140.508 526.105l36.804 164.875 76.469-33.972z"/><path fill="#0277AC" d="M1177.312 690.98l6.688 30.739 61.395-20.77z"/><path fill="#BE849C" d="M1152.973 312.598l-28.028 69.781 87.821 42.832z"/><path fill="#394E7D" d="M1124.945 382.379l3.004 16.469 84.817 26.363z"/><path fill="#493E60" d="M1173.293 211.625l30.273 90.262 29.551-.633z"/><path fill="#906C90" d="M1238.875 312.102l-35.309-10.215 38.93 18.648z"/><path fill="#05576F" d="M1253.582 658.359l-8.187 42.59 12.906-37.109z"/><path fill="#907681" d="M1212.766 425.211l.484 1.234 30.809-27.07z"/><path fill="#C4C8D1" d="M1203.566 301.887l-50.593 10.711 91.086 86.777z"/><path fill="#426396" d="M1215.148-28.18l-101.586 49.582 128.137-27.336z"/><path fill="#A97383" d="M1233.117 301.254l-29.551.633 35.309 10.215z"/><path fill="#9E6592" d="M1293.531-58.859l50.938 162.562 1.269-.437z"/><path fill="#B199A7" d="M1173.293 211.625l59.824 89.629 10.301-118.254z"/><path fill="#282D30" d="M1241.699-5.934l-128.586 29.454 130.305 159.48z"/><path fill="#6E5D87" d="M1242.496 320.535l-38.93-18.648 40.493 97.488z"/><path fill="#BF867F" d="M1152.973 312.598l59.793 112.613 31.293-25.836z"/><path fill="#3A5F93" d="M1113.562 21.402l-.449 2.118 128.586-29.454z"/><path fill="#CECDD3" d="M1238.906 311.164l-.031.938 3.621 8.433z"/><path fill="#707DA9" d="M1113.113 23.52l60.18 188.105 70.125-28.625z"/><path fill="#CCC4D1" d="M1238.906 311.164l3.59 9.371 10.399-7.918z"/><path fill="#A77A99" d="M1238.906 311.164l13.989 1.453.988-9.828z"/><path fill="#0073A6" d="M1177.312 690.98l68.083 9.969 8.187-42.59z"/><path fill="#D0A89E" d="M1256.195 440.199l3.793 2.461 6.715-44.074z"/><path fill="#D2D1D6" d="M1233.117 301.254l5.789 9.91 14.977-8.375z"/><path fill="#4E537D" d="M1243.418 183l-10.301 118.254 20.766 1.535z"/><path fill="#282723" d="M1253.781 657.008l-.199 1.351 3.203 2.036z"/><path fill="#C79386" d="M1244.059 399.375l-30.809 27.07 42.945 13.754z"/><path fill="#154049" d="M1245.395 700.949l-61.395 20.77 76.281 188.355z"/><path fill="#003B63" d="M1184 721.719l14.094 196.984 62.187-8.629z"/><path fill="#67658A" d="M1244.059 399.375l12.136 40.824 10.508-41.613z"/><path fill="#C4A5AA" d="M1266.703 398.586l-6.715 44.074 14.914 17.77z"/><path fill="#CCCACF" d="M1256.195 440.199l-42.945-13.754 61.652 33.985z"/><path fill="#7DB4C9" d="M1342.043 102.711l-1.93 2.269 4.356-1.277z"/><path fill="#D5A194" d="M1377.926 384.355l-56.457 5.563 57.179 54.086z"/><path fill="#CB9287" d="M1213.25 426.445l-72.742 99.66 134.394-65.675z"/><path fill="#445A8B" d="M1266.703 398.586l9.399-11.191.804-5.083z"/><path fill="#C88D7B" d="M1335.77 354.902l42.156 29.453 21.566-23.253z"/><path fill="#D39983" d="M1140.508 526.105l113.273 130.903 21.121-196.578z"/><path fill="#D8CFD4" d="M1259.988 442.66l-3.793-2.461 18.707 20.231z"/><path fill="#445686" d="M1244.059 399.375l22.644-.789 10.203-16.274z"/><path fill="#BDBACB" d="M1243.418 183l10.465 119.789 29.523 14.516z"/><path fill="#C48C8B" d="M1242.496 320.535l1.563 78.84 32.847-17.063z"/><path fill="#A77380" d="M1242.496 320.535l34.41 61.777 6.5-65.007z"/><path fill="#63517B" d="M1253.883 302.789l-.988 9.828 30.511 4.688z"/><path fill="#53527C" d="M1252.895 312.617l-10.399 7.918 40.91-3.23z"/><path fill="#CA9082" d="M1283.406 317.305l-6.5 65.007 19.156-14.808z"/><path fill="#BB8E88" d="M1276.906 382.312l-.804 5.083 19.96-19.891z"/><path fill="#7BB5CB" d="M1340.113 104.98l-1.98 6.411 6.336-7.688z"/><path fill="#76A6BD" d="M1330.035 109.371l-86.617 73.629 89.008-69.852z"/><path fill="#60A0A9" d="M1425.848 616.922l6.23 17.074.238-16.23z"/><path fill="#D0937E" d="M1425.242 361.973l-14.828 9.707 17.742-1.078z"/><path fill="#B58078" d="M1296.062 367.504l-19.96 19.891 45.367 2.523z"/><path fill="#72AFC4" d="M1333.977 108.176l-1.551 4.972 5.707-1.757z"/><path fill="#76B0C6" d="M1330.035 109.371l2.391 3.777 1.551-4.972z"/><path fill="#C89C91" d="M1266.703 398.586l8.199 61.844 46.567-70.512z"/><path fill="#525781" d="M1276.102 387.395l-9.399 11.191 54.766-8.668z"/><path fill="#BC8686" d="M1243.418 183l39.988 134.305 49.02-204.157z"/><path fill="#4D6193" d="M1241.699-5.934l1.719 188.934 86.617-73.629z"/><path fill="#007196" d="M1258.301 663.84l-12.906 37.109 101.558 70.992z"/><path fill="#7DB5CC" d="M1330.035 109.371l3.942-1.195 2.273-4.199z"/><path fill="#AA7CA3" d="M1241.699-5.934l88.336 115.305 6.215-5.394z"/><path fill="#C39283" d="M1296.062 367.504l25.407 22.414 14.301-35.016z"/><path fill="#C77E5E" d="M1283.406 317.305l12.656 50.199 39.708-12.602z"/><path fill="#1C1D18" d="M1294.023 905.238l45.563 1.965 7.367-135.262z"/><path fill="#017D9F" d="M1276.551-37.27l-34.852 31.336 94.551 109.911z"/><path fill="#AB6C9B" d="M1276.551-37.27l65.492 139.981 3.695.555z"/><path fill="#7EB4CC" d="M1336.25 103.977l3.863 1.003 1.93-2.269z"/><path fill="#7CB2CA" d="M1336.25 103.977l-2.273 4.199 6.136-3.196z"/><path fill="#77B1C7" d="M1333.977 108.176l4.156 3.215 1.98-6.411z"/><path fill="#D09C8F" d="M1425.242 361.973l2.914 8.629 12.297-14.407z"/><path fill="#AC6A9A" d="M1276.551-37.27l59.699 141.247 5.793-1.266z"/><path fill="#CDA29C" d="M1321.469 389.918l-46.567 70.512 103.746-16.426z"/><path fill="#9E6590" d="M1293.531-58.859l48.512 161.57 2.426.992z"/><path fill="#74AEC6" d="M1344.469 103.703l-6.336 7.688 7.605-8.125z"/><path fill="#1C1D17" d="M1245.395 700.949l14.886 209.125 86.672-138.133z"/><path fill="#20201E" d="M1260.281 910.074l33.742-4.836 52.93-133.297z"/><path fill="#252724" d="M1411.059 644.684l1.093 4.308 2.172.254z"/><path fill="#937483" d="M1378.648 444.004l-103.746 16.426 107.629-7.157z"/><path fill="#252621" d="M1409.223 356.816l-9.731 4.286 10.922 10.578z"/><path fill="#1C1E19" d="M1346.953 771.941l-7.367 135.262 33.742-5.379z"/><path fill="#CB8A78" d="M1399.492 361.102l-21.566 23.253 32.488-12.675z"/><path fill="#CCBE97" d="M1253.781 657.008l160.449-27.961 6.067-12.203z"/><path fill="#C57E5E" d="M1335.77 354.902l-14.301 35.016 56.457-5.563z"/><path fill="#1E1F1A" d="M1346.953 771.941l26.375 129.883 5.481.496z"/><path fill="#CEAB8D" d="M1274.902 460.43l-21.121 196.578 166.516-40.164z"/><path fill="#26261E" d="M1411.059 644.684l-152.758 19.156 153.851-14.848z"/><path fill="#2F2F31" d="M1413.73 353.922l8.094-2.895 1.949-1.027z"/><path fill="#222723" d="M1420.297 616.844l-6.067 12.203 7.735 5.543z"/><path fill="#415D82" d="M1293.531-58.859l52.207 162.125 87.051-116.555z"/><path fill="#A2A789" d="M1258.301 663.84l88.652 108.101 65.199-122.949z"/><path fill="#CABB94" d="M1256.785 660.395l154.274-15.711 3.171-15.637z"/><path fill="#C0B08C" d="M1253.781 657.008l3.004 3.387 157.445-31.348z"/><path fill="#303231" d="M1409.223 356.816l4.5-1.925.007-.969z"/><path fill="#282923" d="M1256.785 660.395l1.516 3.445 152.758-19.156z"/><path fill="#262523" d="M1409.223 356.816l1.191 14.864 3.309-16.789z"/><path fill="#D6C3C9" d="M1335.77 354.902l63.722 6.2 14.238-7.18z"/><path fill="#2D2D2D" d="M1399.492 361.102l9.731-4.286 4.507-2.894z"/><path fill="#312927" d="M1440.516 338.52l-2.774 5.332 4.168-1.813z"/><path fill="#383129" d="M1437.742 343.852l-4.68 2.148 7.391 10.195z"/><path fill="#CD937F" d="M1382.531 453.273l-107.629 7.157 145.395 156.414z"/><path fill="#2B2724" d="M1423.773 350l-1.949 1.027 3.418 10.946z"/><path fill="#222421" d="M1414.23 629.047l-3.171 15.637 10.906-10.094z"/><path fill="#2A2E2D" d="M1413.73 353.922l-.007.969 8.101-3.864z"/><path fill="#302B27" d="M1433.062 346l-9.289 4 16.68 6.195z"/><path fill="#262825" d="M1421.965 634.59l-10.906 10.094 14.105-5.563z"/><path fill="#292927" d="M1411.059 644.684l3.265 4.562 10.84-10.125z"/><path fill="#232824" d="M1425.848 616.922l-3.883 17.668 10.113-.594z"/><path fill="#94737E" d="M1435.668 401.91l-53.137 51.363 66.403 29.606z"/><path fill="#976D9D" d="M1447.859-15.68l-15.07 2.391 34.285 51.019z"/><path fill="#BC8F89" d="M1413.723 354.891l-3.309 16.789 14.828-9.707z"/><path fill="#252928" d="M1421.824 351.027l-8.101 3.864 11.519 7.082z"/><path fill="#143838" d="M1420.297 616.844l1.668 17.746 3.883-17.668z"/><path fill="#22241F" d="M1421.965 634.59l3.199 4.531 6.914-5.125z"/><path fill="#46628A" d="M1342.043 102.711l-48.512-161.57 139.258 45.57z"/><path fill="#D3D4D9" d="M1345.738 103.266l-3.695-.555 90.746-116z"/><path fill="#AFB5C3" d="M1276.551-37.27l69.187 140.536 87.051-116.555z"/><path fill="#5599A4" d="M1435.961 618.25l-3.883 15.746 10.309-9.285z"/><path fill="#BC7A60" d="M1378.648 444.004l3.883 9.269 53.137-51.363z"/><path fill="#2F2B22" d="M1441.91 342.039l-4.168 1.813 5.391 10.492z"/><path fill="#CA9A90" d="M1423.773 350l1.469 11.973 15.211-5.778z"/><path fill="#D49F91" d="M1428.156 370.602l-17.742 1.078 25.254 30.23z"/><path fill="#D4AEA3" d="M1377.926 384.355l.722 59.649 57.02-42.094z"/><path fill="#CC9B94" d="M1410.414 371.68l-32.488 12.675 57.742 17.555z"/><path fill="#63A3AC" d="M1432.316 617.766l-.238 16.23 3.883-15.746z"/><path fill="#CB8049" d="M1433.062 346l7.454-7.48 1.754-6.735z"/><path fill="#3D2F2C" d="M1433.062 346l4.68-2.148 2.774-5.332z"/><path fill="#C4907B" d="M1437.742 343.852l2.711 12.343 2.68-1.851z"/><path fill="#C79282" d="M1335.77 354.902l77.96-.98 28.54-22.137z"/><path fill="#44312B" d="M1413.73 353.922l10.043-3.922 18.497-18.215z"/><path fill="#CF7B57" d="M1283.406 317.305l52.364 37.597 106.5-23.117z"/><path fill="#7E5444" d="M1423.773 350l9.289-4 9.208-14.215z"/><path fill="#1A2D29" d="M1420.297 616.844l5.551.078 25.66-15.758z"/><path fill="#5397A4" d="M1435.961 618.25l6.426 6.461.66-7.93z"/><path fill="#134061" d="M1378.809 902.32l69.996.981 1.937-12.512z"/><path fill="#252724" d="M1425.164 639.121l-10.84 10.125 32.047-7.039z"/><path fill="#22241F" d="M1432.078 633.996l-6.914 5.125 21.207 3.086z"/><path fill="#222625" d="M1442.387 624.711l-10.309 9.285 14.293 8.211z"/><path fill="#1E2628" d="M1346.953 771.941l31.856 130.379 71.933-11.531z"/><path fill="#203433" d="M1425.848 616.922l6.468.844 19.192-16.602z"/><path fill="#5F839B" d="M1345.738 103.266l-7.605 8.125 120.117 68.55z"/><path fill="#CB947F" d="M1382.531 453.273l37.766 163.571 32.18-55.539z"/><path fill="#144D56" d="M1432.316 617.766l3.645.484 15.547-17.086z"/><path fill="#174248" d="M1435.961 618.25l7.086-1.469 8.461-15.617z"/><path fill="#D08A71" d="M1448.934 482.879l-66.403-29.606 69.946 108.032z"/><path fill="#222421" d="M1420.297 616.844l31.211-15.68.969-39.859z"/><path fill="#D89F8E" d="M1428.156 370.602l7.512 31.308 18.453-34.797z"/><path fill="#CC917F" d="M1440.453 356.195l-12.297 14.407 25.965-3.489z"/><path fill="#007377" d="M1414.324 649.246l-2.172-.254 45.868 77.969z"/><path fill="#1F1E19" d="M1458.02 726.961l-111.067 44.98 112.742-41.336z"/><path fill="#1F201B" d="M1412.152 648.992l-65.199 122.949 111.067-44.98z"/><path fill="#577A98" d="M1338.133 111.391l-5.707 1.757 125.824 66.793z"/><path fill="#C3C7D0" d="M1283.406 317.305l158.864 14.48 15.98-151.844z"/><path fill="#AD8CA9" d="M1332.426 113.148l-49.02 204.157 174.844-137.364z"/><path fill="#1E1F1A" d="M1459.695 730.605l-112.742 41.336 120.883-27.003z"/><path fill="#599BA7" d="M1414.324 649.246l43.696 77.715 4.105-45.527z"/><path fill="#252724" d="M1446.371 642.207l-32.047 7.039 47.801 32.188z"/><path fill="#D09380" d="M1454.121 367.113l-18.453 34.797 28.066-25.086z"/><path fill="#232929" d="M1432.789-13.289l-87.051 116.555 121.336-65.536z"/><path fill="#335382" d="M1467.074 37.73l-121.336 65.536 128.02-45.852z"/><path fill="#385A80" d="M1346.953 771.941l103.789 118.848 31.57-119.144z"/><path fill="#3B6D8E" d="M1467.836 744.938l-120.883 27.003 135.359-.296z"/><path fill="#926F8F" d="M1473.758 57.414l-128.02 45.852 138.746-3.414z"/><path fill="#546486" d="M1345.738 103.266l112.512 76.675 26.234-80.089z"/><path fill="#D18867" d="M1483.867 421.727l-48.199-19.817 50.031 40.813z"/><path fill="#AB7B77" d="M1435.668 401.91l13.266 80.969 36.765-40.156z"/><path fill="#CB8E72" d="M1463.734 376.824l-28.066 25.086 53.195 1.891z"/><path fill="#D38861" d="M1435.668 401.91l48.199 19.817 4.996-17.926z"/></svg>