<svg xmlns="http://www.w3.org/2000/svg" width="1440" height="900" viewBox="0 0 1440 900"><path fill="#1F1F1F" d="M0 0h1440v900h-1440z"/><path fill="#8B9DB3" d="M-38.617 258.711l.32 63.832 137.434 7.816z"/><path fill="#292824" d="M-7.941-2.469l-53.621 91.649 64.691-97.473z"/><path fill="#577287" d="M197.082-52.469l-8.035.727 13.519 117.18z"/><path fill="#2D6483" d="M-64.887 848.363l27.016 51.864 67.57 30.246z"/><path fill="#0084AF" d="M-66.895 812.879l2.008 35.484 94.586 82.11z"/><path fill="#252B2B" d="M-47.648 412.996l-12.61 54.777 159.395-137.414z"/><path fill="#5B748A" d="M189.047-51.742l-17.078-4.43 30.597 121.61z"/><path fill="#9BA2BE" d="M-47.676 397.766l.028 15.23 146.785-82.637z"/><path fill="#22373A" d="M-38.297 322.543l-9.379 75.223 146.813-67.407z"/><path fill="#5E7386" d="M171.969-56.172l-33.582-2.996 64.179 124.606z"/><path fill="#003267" d="M-36.746 659.199l-30.149 153.68 179.536 116.394z"/><path fill="#049" d="M-34.164 656.094l-2.582 3.105 149.387 270.074z"/><path fill="#115268" d="M-66.895 812.879l96.594 117.594 82.942-1.2z"/><path fill="#003577" d="M-34.164 656.094l146.805 273.179 20.996 1.938z"/><path fill="#272D2B" d="M-61.562 89.18l-1.25 25.355 265.378-49.097z"/><path fill="#272B2A" d="M3.129-8.293l-64.691 97.473 264.128-23.742z"/><path fill="#506C81" d="M199.691-52.785l-2.609.316 5.484 117.907z"/><path fill="#282C2B" d="M-62.812 114.535l24.195 144.176 241.183-193.273z"/><path fill="#1C2F2B" d="M-38.617 258.711l137.754 71.648 103.429-264.921z"/><path fill="#322E2B" d="M41.352-46.602l-38.223 38.309 199.437 73.731z"/><path fill="#2D2E32" d="M138.387-59.168l-97.035 12.566 161.214 112.04z"/><path fill="#3F586E" d="M199.691-52.785l2.875 118.223 3.032-121.09z"/><path fill="#5C7589" d="M205.598-55.652l-3.032 121.09 46.954-128.051z"/><path fill="#959BB1" d="M249.52-62.613l-46.954 128.051 50.129-128.04z"/><path fill="#007CA0" d="M202.566 65.438l-103.429 264.921 150.609-95.816z"/><path fill="#596F86" d="M270.207 246.137l-20.461-11.594 20.988 13.543z"/><path fill="#262C2A" d="M-60.258 467.773l-3.113 58.672 325.598-11.941z"/><path fill="#0C88BB" d="M99.137 330.359l-159.395 137.414 322.485 46.731z"/><path fill="#013775" d="M-63.371 526.445l29.207 129.649 296.391-141.59z"/><path fill="#0098B8" d="M202.566 65.438l47.18 169.105 20.461 11.594z"/><path fill="#214658" d="M249.746 234.543l-150.609 95.816 171.597-82.273z"/><path fill="#379DC3" d="M99.137 330.359l163.09 184.145 8.507-266.418z"/><path fill="#283C3B" d="M252.695-62.602l-50.129 128.04 88.153-125.512z"/><path fill="#242625" d="M270.207 246.137l.527 1.949 39.774 18.18z"/><path fill="#191F1D" d="M290.719-60.074l-88.153 125.512 114.032-129z"/><path fill="#4992B2" d="M270.734 248.086l-8.507 266.418 48.281-248.238z"/><path fill="#363C5C" d="M202.566 65.438l67.641 180.699 40.301 20.129z"/><path fill="#1E1E1E" d="M300.68 935.27l73.207-33.352.211-183.539z"/><path fill="#41576E" d="M316.598-63.562l-114.032 129 145.551-129.903z"/><path fill="#1D2120" d="M266.82 938.887l33.86-3.617 73.418-216.891z"/><path fill="#172B46" d="M-34.164 656.094l167.801 275.117 240.461-212.832z"/><path fill="#68A2AE" d="M262.227 514.504l-296.391 141.59 408.262 62.285z"/><path fill="#1B1C17" d="M133.637 931.211l133.183 7.676 107.278-220.508z"/><path fill="#1D1E19" d="M374.098 718.379l-.211 183.539 6.25-.672z"/><path fill="#6E7F91" d="M202.566 65.438l107.942 200.828 90.453-327.399z"/><path fill="#708195" d="M348.117-64.465l-145.551 129.903 198.395-126.571z"/><path fill="#1E1F19" d="M374.098 718.379l33.668 185.5 16.613 6.988z"/><path fill="#1C1B16" d="M374.098 718.379l6.039 182.867 27.629 2.633z"/><path fill="#026294" d="M571.402 706.254l-37.761 243.203 38.285 12.277z"/><path fill="#22272A" d="M400.961-61.133l-90.453 327.399 167.449-306.235z"/><path fill="#8993AE" d="M477.957-39.969l-167.449 306.235 174.699-307.575z"/><path fill="#264063" d="M485.207-41.309l-174.699 307.575 244.183-308.625z"/><path fill="#016191" d="M446.34 923.195l87.301 26.262 37.761-243.203z"/><path fill="#0098B8" d="M310.508 266.266l-48.281 248.238 309.175 191.75z"/><path fill="#398EB5" d="M262.227 514.504l111.871 203.875 197.304-12.125z"/><path fill="#1D2120" d="M429.367 913.297l16.973 9.898 125.062-216.941z"/><path fill="#1F232E" d="M374.098 718.379l50.281 192.488 147.023-204.613z"/><path fill="#1C1E19" d="M424.379 910.867l4.988 2.43 142.035-207.043z"/><path fill="#476194" d="M554.691-42.359l-244.183 308.625 292.207-303.52z"/><path fill="#005C8D" d="M571.402 706.254l.524 255.48 55.98-3.066z"/><path fill="#1B1C16" d="M571.402 706.254l56.504 252.414 135.086-39.504z"/><path fill="#3F598C" d="M813.246-23.258l-210.531-13.996 212.746 406.547z"/><path fill="#B678A7" d="M602.715-37.254l-292.207 303.52 504.953 103.027z"/><path fill="#3776AC" d="M310.508 266.266l260.894 439.988 244.059-336.961z"/><path fill="#975096" d="M815.461 369.293l-244.059 336.961 248.012-330.527z"/><path fill="#8D91AA" d="M874.125-14.41l-9.785 24.996 16.703-3.617z"/><path fill="#33578B" d="M813.246-23.258l2.215 392.551 48.879-358.707z"/><path fill="#A1A6B9" d="M848.852-6.008l-35.606-17.25 51.094 33.844z"/><path fill="#A6A9BC" d="M848.852-6.008l15.488 16.594 9.785-24.996z"/><path fill="#989CB5" d="M894.57-12.145l-13.527 19.114 51.027-20.352z"/><path fill="#9A9FB3" d="M874.125-14.41l6.918 21.379 13.527-19.114z"/><path fill="#006C9A" d="M762.992 919.164l56.149 17.836 112.086-440.375z"/><path fill="#1D1A15" d="M819.414 375.727l-248.012 330.527 359.825-209.629z"/><path fill="#1D1C17" d="M571.402 706.254l191.59 212.91 168.235-422.539z"/><path fill="#016D9B" d="M931.227 496.625l-112.086 440.375 114.855-7.703z"/><path fill="#814277" d="M815.461 369.293l3.953 6.434 155.375-13.313z"/><path fill="#486698" d="M864.34 10.586l-48.879 358.707 159.328-6.879z"/><path fill="#4D6394" d="M881.043 6.969l-16.703 3.617 110.449 351.828z"/><path fill="#283F6B" d="M819.414 375.727l111.813 120.898 43.562-134.211z"/><path fill="#033848" d="M931.227 496.625l2.769 432.672 60.602-14.813z"/><path fill="#B26F92" d="M974.789 362.414l-43.562 134.211 75.625-6.961z"/><path fill="#003F8E" d="M931.227 496.625l63.371 417.859 12.254-424.82z"/><path fill="#1F201A" d="M1006.852 489.664l-12.254 424.82 45.379-1.644z"/><path fill="#305572" d="M1085.398 911.297l38.571-13.609 2.652-2.77z"/><path fill="#4D6782" d="M1039.977 912.84l45.421-1.543 41.223-16.379z"/><path fill="#506C84" d="M1126.621 894.918l-2.695 23.617 22.398-10.039z"/><path fill="#24231F" d="M1006.852 489.664l33.125 423.176 86.644-17.922z"/><path fill="#5F819C" d="M1085.398 911.297l23.832-1.715 14.739-11.894z"/><path fill="#454D58" d="M1123.926 918.535l.039-.367.004-20.48z"/><path fill="#394754" d="M1123.965 918.168l-.039.367 2.695-23.617z"/><path fill="#30343D" d="M1109.23 909.582l14.696 8.953.043-20.847z"/><path fill="#27506C" d="M1126.621 894.918l-2.652 2.77 22.355 10.808z"/><path fill="#506C84" d="M1123.965 918.168l2.656-23.25 19.703 13.578z"/><path fill="#A47F90" d="M932.07-13.383l-51.027 20.352 253.758 223.828z"/><path fill="#212524" d="M881.043 6.969l93.746 355.445 160.012-131.617z"/><path fill="#49657A" d="M1123.969 897.688l-.004 20.48 22.359-9.672z"/><path fill="#34588A" d="M1107.254-85.238l-97.852 17.156 157.2 184.207z"/><path fill="#5A5B7A" d="M932.07-13.383l202.731 244.18 31.801-114.672z"/><path fill="#645C8D" d="M1009.402-68.082l-77.332 54.699 234.532 129.508z"/><path fill="#A33759" d="M1166.602 116.125l-31.801 114.672 38.492-19.172z"/><path fill="#975D90" d="M1166.602 116.125l6.691 95.5 65.68-34.145z"/><path fill="#3E608E" d="M1107.254-85.238l59.348 201.363 22.687-137.953z"/><path fill="#406077" d="M1126.621 894.918l19.703 13.578 51.77 10.207z"/><path fill="#143046" d="M1198.094 918.703l62.187-8.629 6.696-202.519z"/><path fill="#C9B78F" d="M1274.902 460.43l-7.925 247.125 16.793-9.926z"/><path fill="#004875" d="M1126.621 894.918l71.473 23.785 68.883-211.148z"/><path fill="#BA5577" d="M1238.973 177.48l-65.68 34.145 70.125-28.625z"/><path fill="#21221D" d="M1006.852 489.664l119.769 405.254 140.356-187.363z"/><path fill="#4E3747" d="M1243.418 183l-70.125 28.625 82.902 228.574z"/><path fill="#B16268" d="M1173.293 211.625l-38.492 19.172 121.394 209.402z"/><path fill="#AE6485" d="M974.789 362.414l32.063 127.25 249.343-49.465z"/><path fill="#A16076" d="M1134.801 230.797l-160.012 131.617 281.406 77.785z"/><path fill="#6275A0" d="M1238.973 177.48l4.445 5.52 63.902-182.109z"/><path fill="#25241F" d="M1292.543 699.09l-4.68-2.43 5.942 5.188z"/><path fill="#345969" d="M1283.77 697.629l7.308 21.656 2.727-17.437z"/><path fill="#CE9880" d="M1006.852 489.664l260.125 217.891 7.925-247.125z"/><path fill="#252621" d="M1287.863 696.66l-4.093.969 10.035 4.219z"/><path fill="#D1978C" d="M1256.195 440.199l-249.343 49.465 268.05-29.234z"/><path fill="#D8CFD4" d="M1259.988 442.66l-3.793-2.461 18.707 20.231z"/><path fill="#606191" d="M1306.102-16.121l-18.493-17.106 19.711 34.118z"/><path fill="#1D1C17" d="M1283.77 697.629l4.093-.969.403-1.371z"/><path fill="#CDB790" d="M1274.902 460.43l8.868 237.199 4.496-2.34z"/><path fill="#09739A" d="M1283.77 697.629l-16.793 9.926 24.101 11.73z"/><path fill="#262823" d="M1288.266 695.289l-.403 1.371 4.68 2.43z"/><path fill="#916080" d="M1287.609-33.227l-9.152-1.554 28.863 35.672z"/><path fill="#263532" d="M1293.805 701.848l-2.727 17.437 3.93-18.015z"/><path fill="#1F201A" d="M1266.977 707.555l-6.696 202.519 30.797-190.789z"/><path fill="#22251E" d="M1292.543 699.09l1.262 2.758 1.203-.578z"/><path fill="#21262A" d="M1291.078 719.285l-30.797 190.789 33.742-4.836z"/><path fill="#21211F" d="M1478.723 618.977l-183.715 82.293 189.023-55.133z"/><path fill="#00789B" d="M1189.289-21.828l-22.687 137.953 140.718-115.234z"/><path fill="#4B6598" d="M1234.719-34.883l-45.43 13.055 118.031 22.719z"/><path fill="#91657E" d="M1278.457-34.781l-17.273-2.168 46.136 37.84z"/><path fill="#5F618A" d="M1166.602 116.125l72.371 61.355 68.347-176.589z"/><path fill="#976F89" d="M1261.184-36.949l-26.465 2.066 72.601 35.774z"/><path fill="#4A6193" d="M1306.102-16.121l1.218 17.012.5-17.52z"/><path fill="#496595" d="M1307.82-16.629l-.5 17.52 14.68-26.434z"/><path fill="#1F201B" d="M1291.078 719.285l2.945 185.953 45.563 1.965z"/><path fill="#7C7060" d="M1295.008 701.27l-3.93 18.015 176.758 25.653z"/><path fill="#1D1E18" d="M1291.078 719.285l48.508 187.918 33.742-5.379z"/><path fill="#AA75A3" d="M1447.859-15.68l-21.121 20.969 21.403 12.859z"/><path fill="#232520" d="M1295.008 701.27l172.828 43.668 16.195-98.801z"/><path fill="#222F35" d="M1430.711 18.742l16.035 1 1.395-1.594z"/><path fill="#B672A3" d="M1328.148-46.098l98.59 51.387 6.051-18.578z"/><path fill="#C6C9D2" d="M1322-25.543l-14.68 26.434 119.418 4.398z"/><path fill="#282D30" d="M1426.738 5.289l-119.418-4.398 123.391 17.851z"/><path fill="#273746" d="M1426.738 5.289l3.973 13.453 17.43-.594z"/><path fill="#455B8D" d="M1328.148-46.098l-6.148 20.555 104.738 30.832z"/><path fill="#0190B8" d="M1430.711 18.742l-123.391-17.851 128.707 28.382z"/><path fill="#252722" d="M1288.266 695.289l190.457-76.312 2.109-49.122z"/><path fill="#AF8998" d="M1243.418 183l192.844 6.617 2.554-8.07z"/><path fill="#A1657E" d="M1243.418 183l12.777 257.199 180.067-250.582z"/><path fill="#CB9B8D" d="M1256.195 440.199l3.793 2.461 176.274-253.043z"/><path fill="#5F9BB5" d="M1307.32.891l-63.902 182.109 195.398-1.453z"/><path fill="#4B6799" d="M1436.027 29.273l-128.707-28.382 131.496 180.656z"/><path fill="#1A3A4F" d="M1430.711 18.742l5.316 10.531 10.719-9.531z"/><path fill="#C27EA5" d="M1432.789-13.289l-6.051 18.578 21.121-20.969z"/><path fill="#8880A5" d="M1438.816 181.547l-2.554 8.07 21.988-9.676z"/><path fill="#0083A2" d="M1446.746 19.742l-10.719 9.531 31.047 8.457z"/><path fill="#134061" d="M1378.809 902.32l69.996.981 1.937-12.512z"/><path fill="#302B27" d="M1274.902 460.43l13.364 234.859 192.566-125.434z"/><path fill="#133234" d="M1467.074 37.73l-31.047-8.457 37.731 28.141z"/><path fill="#1B201C" d="M1373.328 901.824l5.481.496 89.027-157.382z"/><path fill="#1C1D18" d="M1291.078 719.285l82.25 182.539 94.508-156.886z"/><path fill="#CC917F" d="M1274.902 460.43l205.93 109.425 5.313-31.445z"/><path fill="#8680A4" d="M1458.25 179.941l-21.988 9.676 48.09 16.676z"/><path fill="#CB8770" d="M1274.902 460.43l211.243 77.98 6.39-42.383z"/><path fill="#619BA6" d="M1288.266 695.289l4.277 3.801 186.18-80.113z"/><path fill="#57939E" d="M1292.543 699.09l2.465 2.18 183.715-82.293z"/><path fill="#A07B83" d="M1483.867 421.727l-208.965 38.703 210.797-17.707z"/><path fill="#9F7D8B" d="M1485.699 442.723l-210.797 17.707 217.633 35.597z"/><path fill="#1D2728" d="M1378.809 902.32l71.933-11.531 31.57-119.144z"/><path fill="#24292F" d="M1467.836 744.938l-89.027 157.382 103.503-130.675z"/><path fill="#39476C" d="M1473.758 57.414l-37.731-28.141 48.457 70.579z"/><path fill="#CA9B91" d="M1259.988 442.66l14.914 17.77 214.286-67.825z"/><path fill="#BD6892" d="M1438.816 181.547l19.434-1.606 26.234-80.089z"/><path fill="#5FA7BF" d="M1436.027 29.273l2.789 152.274 45.668-81.695z"/><path fill="#D4A18C" d="M1274.902 460.43l208.965-38.703 5.321-29.122z"/><path fill="#3B5586" d="M1496.801 221.137l-60.539-31.52 64.136 162.477z"/><path fill="#6D7CA5" d="M1484.352 206.293l-48.09-16.676 60.539 31.52z"/><path fill="#BC6844" d="M1436.262 189.617l-176.274 253.043 240.41-90.566z"/><path fill="#D29E90" d="M1259.988 442.66l229.2-50.055 11.21-40.511z"/></svg>