<svg xmlns="http://www.w3.org/2000/svg" width="1440" height="900" viewBox="0 0 1440 900"><path d="M0 0h1440v900h-1440z"/><path fill="#F9E8D4" d="M25.68 345.879l-5.707 2.328 8.277 1.227z"/><path fill="#C6B8AD" d="M633.789 82.719l-6.676 11.918 13.449-4.633z"/><path fill="#FAE9D5" d="M19.973 348.207l-6.5 7.176 14.777-5.949z"/><path fill="#0D1508" d="M-61.414 603.043l92.488 282.754 2.641-.129z"/><path fill="#67512A" d="M72.676 346.266l.668 1.265 2.375-10.984z"/><path fill="#F7E6D2" d="M-51.215 324.402l22.399 5.828 85.777-15.843z"/><path fill="#F8E7D3" d="M19.414 343.809l6.266 2.07 11.082-4.024z"/><path fill="#F4E2CC" d="M56.961 314.387l8.387 17.269 6.73 1.211z"/><path fill="#F8E7D3" d="M42.059 343.996l1.011 1.957 10.649-6.637z"/><path fill="#3A2F29" d="M-2.539 363.23l-43.984 66.461 59.996-74.308z"/><path fill="#FAE9D5" d="M19.414 343.809l.559 4.398 5.707-2.328z"/><path fill="#FBECD7" d="M-8.625 346.133l6.086 17.097 16.012-7.847z"/><path fill="#FAE9D7" d="M19.414 343.809l-5.941 11.574 6.5-7.176z"/><path fill="#F8E5D4" d="M72.078 332.867l.598 13.399 3.043-9.719z"/><path fill="#FAE9D7" d="M-28.816 330.23l20.191 15.903 28.039-2.324zM-8.625 346.133l22.098 9.25 5.941-11.574z"/><path fill="#232E0E" d="M-61.414 603.043l-9.137 3.312 101.625 279.442z"/><path fill="#202811" d="M-70.551 606.355l-23.64 10.629 125.265 268.813z"/><path fill="#0D230E" d="M-94.191 616.984l-12.395.414 137.66 268.399z"/><path fill="#162413" d="M-106.586 617.398l-15.555-4.707 153.215 273.106z"/><path fill="#0A1109" d="M-122.141 612.691l-57.859 437.309 211.074-164.203z"/><path fill="#F8E7D3" d="M25.68 345.879l2.57 3.555 8.512-7.579z"/><path fill="#F7E5D1" d="M36.762 341.855l16.957-2.539 2.203-16.64z"/><path fill="#F8E7D3" d="M42.059 343.996l-5.297-2.141 6.308 4.098z"/><path fill="#F9E8D4" d="M36.762 341.855l-8.512 7.579 14.82-3.481z"/><path fill="#392117" d="M-46.523 429.691l-17.442 36.211 137.309-118.371z"/><path fill="#80654A" d="M13.473 355.383l-59.996 74.308 119.867-82.16z"/><path fill="#F6E5D1" d="M36.762 341.855l5.297 2.141 11.66-4.68z"/><path fill="#F5E3CD" d="M56.961 314.387l3.816 15.285 4.571 1.984z"/><path fill="#F8E7D3" d="M53.719 339.316l-10.649 6.637 12.852-4.918z"/><path fill="#EBDAC8" d="M-180-150l128.785 474.402 108.176-10.015z"/><path fill="#F5E3CD" d="M56.961 314.387l-1.039 8.289 4.855 6.996z"/><path fill="#F6E4CE" d="M55.922 322.676l-2.203 16.64 7.058-9.644z"/><path fill="#F6E4D0" d="M60.777 329.672l-4.855 11.363 9.426-9.379z"/><path fill="#F7E6D2" d="M19.414 343.809l17.348-1.954 20.199-27.468z"/><path fill="#F6E4D0" d="M36.762 341.855l19.16-19.179 1.039-8.289z"/><path fill="#F7E6D2" d="M-28.816 330.23l48.23 13.579 37.547-29.422z"/><path fill="#F7E5D1" d="M53.719 339.316l2.203 1.719 4.855-11.363z"/><path fill="#F1DFC7" d="M72.078 332.867l-6.73-1.211 7.328 14.61z"/><path fill="#F3E1CB" d="M65.348 331.656l-9.426 9.379 16.754 5.231z"/><path fill="#422D1C" d="M-63.965 465.902l2.551 137.141 134.758-255.512z"/><path fill="#F5E3CD" d="M56.961 314.387l15.117 18.48 3.641 3.68z"/><path fill="#F9E7D3" d="M55.922 341.035l-12.852 4.918 30.274 1.578z"/><path fill="#AF7641" d="M72.676 346.266l-16.754-5.231 17.422 6.496z"/><path fill="#F9E8D6" d="M43.07 345.953l-14.82 3.481 45.094-1.903z"/><path fill="#F5E4D0" d="M28.25 349.434l-14.777 5.949 59.871-7.852z"/><path fill="#0E2012" d="M31.074 885.797l-211.074 164.203 287.266-107.344z"/><path fill="#0D170C" d="M33.715 885.668l-2.641.129 76.192 56.859z"/><path fill="#222A13" d="M33.715 885.668l73.551 56.988 202.273-586.168z"/><path fill="#7D6B57" d="M-61.414 603.043l95.129 282.625 275.824-529.18z"/><path fill="#D3C2A8" d="M75.719 336.547l-2.375 10.984 236.195 8.957z"/><path fill="#4F4134" d="M73.344 347.531l-134.758 255.512 370.953-246.555z"/><path fill="#F2E0CC" d="M56.961 314.387l18.758 22.16 233.82 19.941z"/><path fill="#0C180C" d="M107.266 942.656l55.046 52.719 147.227-638.887z"/><path fill="#D2C5B5" d="M309.539 356.488l305.399-259.66 1.339-36.656z"/><path fill="#E4D2BE" d="M56.961 314.387l252.578 42.101 306.738-296.316z"/><path fill="#DDCCBC" d="M-180-150l236.961 464.387 559.316-254.215z"/><path fill="#CABCB1" d="M614.938 96.828l12.175-2.191 6.676-11.918z"/><path fill="#CABDB5" d="M616.277 60.172l17.512 22.547 1.883-38.117z"/><path fill="#613D2D" d="M627.113 94.637l-4.91 9.254 18.359-13.887z"/><path fill="#C6B9B3" d="M616.277 60.172l19.395-15.57 84.328-194.602z"/><path fill="#DAC7B8" d="M614.938 96.828l-305.399 259.66 312.664-252.597z"/><path fill="#CBBBAE" d="M614.938 96.828l7.265 7.063 4.91-9.254z"/><path fill="#CCBEB3" d="M616.277 60.172l-1.339 36.656 18.851-14.109z"/><path fill="#D2C1B7" d="M-180-150l796.277 210.172 103.723-210.172z"/><path fill="#CABDB5" d="M635.672 44.602l-1.883 38.117 6.773 7.285z"/><path fill="#C5BAB4" d="M789.875 80.34l2.008 5.445 4.828 2.215z"/><path fill="#635A49" d="M309.539 356.488l-147.227 638.887 557.688 54.625z"/><path fill="#C6B8AF" d="M635.672 44.602l4.89 45.402 145.61-23.297z"/><path fill="#C7B9B0" d="M720-150l-84.328 194.602 150.5 22.105z"/><path fill="#C4B9B5" d="M791.883 85.785l-3.754-4.023 3.871 9.336z"/><path fill="#BFB1A8" d="M786.172 66.707l-145.61 23.297 146.364-16.172z"/><path fill="#C5BAB6" d="M786.926 73.832l1.203 7.93.703-3.61z"/><path fill="#C4B9B3" d="M788.832 78.152l-.703 3.61 1.746-1.422z"/><path fill="#AF9C95" d="M786.926 73.832l-146.364 16.172 147.567-8.242z"/><path fill="#C8BBB5" d="M788.129 81.762l-147.567 8.242 151.438 1.094z"/><path fill="#C8B9B2" d="M786.172 66.707l.754 7.125 1.906 4.32z"/><path fill="#C4B9B5" d="M789.875 80.34l-1.746 1.422 3.754 4.023z"/><path fill="#C6BBB7" d="M788.832 78.152l1.043 2.188 6.836 7.66z"/><path fill="#C7BCB6" d="M786.172 66.707l2.66 11.445 7.879 9.848z"/><path fill="#C6B6A9" d="M808.121 111.102l-3.34 6.695 8.235 10.973z"/><path fill="#C5BAB6" d="M791.883 85.785l.117 5.313 4.711-3.098z"/><path fill="#B7A798" d="M796.711 88l-4.711 3.098 8.207 11.007z"/><path fill="#C6B9B1" d="M802.883 107.848l.75 1.789 4.488 1.465zM804.707 112.719l-1.074-3.082 1.148 8.16z"/><path fill="#C7B9AE" d="M803.633 109.637l-.75-1.789 1.898 9.949z"/><path fill="#653728" d="M792 91.098l-151.438-1.094 164.219 27.793z"/><path fill="#C7B9B0" d="M800.207 102.105l-8.207-11.007 12.781 26.699z"/><path fill="#C6B7B2" d="M802.883 107.848l-2.676-5.743 4.574 15.692z"/><path fill="#C6B7B0" d="M804.707 112.719l.074 5.078 3.34-6.695z"/><path fill="#C6B8AD" d="M813.016 128.77l2.082 4.457 6.55 6.566z"/><path fill="#C6B9B0" d="M803.633 109.637l1.074 3.082 3.414-1.617z"/><path fill="#C3B9B0" d="M796.711 88l3.496 14.105 7.914 8.997z"/><path fill="#C5B8B0" d="M800.207 102.105l2.676 5.743 5.238 3.254z"/><path fill="#BDA99E" d="M813.016 128.77l-8.235-10.973 10.317 15.43z"/><path fill="#C7B9AE" d="M815.098 133.227l-10.317-15.43 11.985 19.762z"/><path fill="#5A3628" d="M640.562 90.004l-18.359 13.887 194.563 33.668z"/><path fill="#633828" d="M804.781 117.797l-164.219-27.793 176.204 47.555z"/><path fill="#C8BAB1" d="M808.121 111.102l4.895 17.668 8.632 11.023zM815.098 133.227l1.668 4.332 4.882 2.234z"/><path fill="#C9B9AC" d="M821.648 139.793l-4.882-2.234 15.351 22.714z"/><path fill="#C8BAB1" d="M832.117 160.273l-15.351-22.714 16.902 26.332z"/><path fill="#513328" d="M816.766 137.559l-194.563-33.668 211.465 60z"/><path fill="#736653" d="M865.047 224.312l-145.047 825.688 391.031-127.188z"/><path fill="#C0BABA" d="M821.648 139.793l10.469 20.48 787.883-310.273z"/><path fill="#6F5E40" d="M309.539 356.488l410.461 693.512 145.047-825.688z"/><path fill="#D6C6B7" d="M622.203 103.891l-312.664 252.597 555.508-132.176z"/><path fill="#CBBAB0" d="M833.668 163.891l-211.465-60 242.844 120.421z"/><path fill="#514535" d="M865.047 224.312l245.984 698.5 337.114-368.925z"/><path fill="#CBBEAE" d="M865.047 224.312l583.098 329.575 10.128-15.504z"/><path fill="#2B291D" d="M1507.188 754.383l-284.317 223.535 284.848-192.176z"/><path fill="#CBBEAE" d="M865.047 224.312l593.226 314.071 3.422-1.434z"/><path fill="#20250E" d="M1111.031 922.812l111.84 55.106 284.317-223.535z"/><path fill="#807768" d="M1448.145 553.887l-337.114 368.925 396.157-168.429z"/><path fill="#1F2113" d="M1500.934 884.211l-278.063 93.707 284.957-77.23z"/><path fill="#232518" d="M1507.719 785.742l-284.848 192.176 287.434-170.727z"/><path fill="#222A15" d="M1222.871 977.918l278.063-93.707 9.371-77.02z"/><path fill="#BFB9B9" d="M796.711 88l11.41 23.102 811.879-261.102z"/><path fill="#C0BABA" d="M808.121 111.102l13.527 28.691 798.352-289.793z"/><path fill="#C5BDBA" d="M865.047 224.312l596.648 312.637 158.305-686.949z"/><path fill="#C0BABA" d="M832.117 160.273l1.551 3.618 786.332-313.891z"/><path fill="#C4BBBC" d="M833.668 163.891l31.379 60.421 754.953-374.312z"/><path fill="#B7B2B6" d="M720-150l66.172 216.707 833.828-216.707z"/><path fill="#BCB7B4" d="M786.172 66.707l10.539 21.293 823.289-238z"/></svg>