<svg xmlns="http://www.w3.org/2000/svg" width="1080" height="680" viewBox="0 0 1080 680"><path fill="#1F1F1F" d="M0 0h1080v680h-1080z"/><path fill="#54492D" d="M-4.84 545.23l-3.183 11.18 17.609-2.156z"/><path fill="#9C7C56" d="M143.449 351.258l-33.652 12.804 33.91-11.167z"/><path fill="#866C49" d="M109.797 364.062l-62.274 151.719 96.184-162.886z"/><path fill="#A69464" d="M34.039 514.258l-24.453 39.996 37.937-38.473z"/><path fill="#584F3E" d="M47.523 515.781l-37.937 38.473 165.961 151.035z"/><path fill="#221F16" d="M143.449 351.258l162.192 28.844 7.039-118.68z"/><path fill="#3D3727" d="M-8.023 556.41l-5.868 16.52 23.477-18.676z"/><path fill="#2E2017" d="M-9.035 231.652l118.832 132.41 33.652-12.804z"/><path fill="#906F4C" d="M-44.074 356.742l15.789 174.61 62.324-17.094z"/><path fill="#A39169" d="M-28.285 531.352l14.375 6.515 47.949-23.609z"/><path fill="#A49167" d="M-4.84 545.23l14.426 9.024 24.453-39.996z"/><path fill="#A79067" d="M-13.91 537.867l9.07 7.363 38.879-30.972z"/><path fill="#F2E0CA" d="M-7.918 195.168l-1.117 36.484 152.484 119.606z"/><path fill="#CEB29A" d="M-17.934 251.906l-14.242 87.352 141.973 24.804z"/><path fill="#EAD9BF" d="M-13.43 246.27l-4.504 5.636 127.731 112.156z"/><path fill="#8C6E4C" d="M34.039 514.258l13.484 1.523 62.274-151.719z"/><path fill="#FAEAD3" d="M-9.035 231.652l-4.395 14.618 123.227 117.792z"/><path fill="#8D6F4B" d="M-44.074 356.742l78.113 157.516 75.758-150.196z"/><path fill="#9C8058" d="M-32.176 339.258l-11.898 17.484 153.871 7.32z"/><path fill="#EBDAC6" d="M-7.918 195.168l151.367 156.09 169.231-89.836z"/><path fill="#242619" d="M9.586 554.254l-23.477 18.676 189.438 132.359z"/><path fill="#0F170A" d="M-13.891 572.93l-58.843 259.726 248.281-127.367z"/><path fill="#A08F5B" d="M47.523 515.781l223.508 178.293 34.61-313.972z"/><path fill="#5B4B3B" d="M47.523 515.781l128.024 189.508 95.484-11.215z"/><path fill="#82694A" d="M143.707 352.895l-96.184 162.886 258.118-135.679z"/><path fill="#8E7451" d="M143.449 351.258l.258 1.637 161.934 27.207z"/><path fill="#332115" d="M312.68 261.422l-7.039 118.68 25.648 6.511z"/><path fill="#AA967B" d="M305.641 380.102l-34.61 313.972 60.258-307.461z"/><path fill="#745248" d="M312.68 261.422l18.609 125.191 15.816.078z"/><path fill="#6A593F" d="M347.105 386.691l109.79 119.582 1.406-123.531z"/><path fill="#634638" d="M312.68 261.422l34.425 125.269 111.196-3.949z"/><path fill="#E0CFBF" d="M-7.918 195.168l320.598 66.254 104.636-296.973z"/><path fill="#DCCBBB" d="M-360-260l321.781 448.406 455.535-223.957z"/><path fill="#E2D0BC" d="M-38.219 188.406l30.301 6.762 425.234-230.719z"/><path fill="#72684F" d="M271.031 694.074l50.93 8.68 134.934-196.481z"/><path fill="#968662" d="M331.289 386.613l-60.258 307.461 185.864-187.801z"/><path fill="#6D5742" d="M458.301 382.742l-1.406 123.531 8.453-5.644z"/><path fill="#86794F" d="M321.961 702.754l50.277-4.18 84.657-192.301z"/><path fill="#6E5D3F" d="M347.105 386.691l-15.816-.078 125.606 119.66z"/><path fill="#726749" d="M414.688 690.676l19.089-4.797 23.118-179.606z"/><path fill="#CFB787" d="M372.238 698.574l42.45-7.898 42.207-184.403z"/><path fill="#6D583B" d="M458.301 382.742l7.047 117.887 24.797-6.461z"/><path fill="#C0A695" d="M417.316-35.551l-104.636 296.973 172.269-295.574z"/><path fill="#A6927A" d="M465.348 500.629l-8.453 5.644 33.25-12.105z"/><path fill="#6D664C" d="M554.992 694.898l2.41.313 5.399-22.941z"/><path fill="#76594B" d="M693.945 226.863l-14.933-6.707 15.758 8.914z"/><path fill="#676046" d="M492.117 712.223l62.875-17.325 7.809-22.628z"/><path fill="#6E634F" d="M433.777 685.879l9.184 7.91 119.84-21.519z"/><path fill="#907B50" d="M442.961 693.789l49.156 18.434 70.684-39.953z"/><path fill="#6B654B" d="M557.402 695.211l4.805.406.594-23.347z"/><path fill="#7A5D3B" d="M490.145 494.168l-33.25 12.105 105.906 165.997z"/><path fill="#736643" d="M456.895 506.273l-23.118 179.606 129.024-13.609z"/><path fill="#5B4025" d="M490.145 494.168l72.656 178.102 34.949-171.805z"/><path fill="#796753" d="M562.801 672.27l-.594 23.347 16.848-1.937z"/><path fill="#5E5745" d="M562.801 672.27l58.75 19.636 4.285-176.601z"/><path fill="#6D593E" d="M458.301 382.742l31.844 111.426 107.605 6.297z"/><path fill="#394424" d="M1068.988 606.371l-89.738 78.5 90.801-76.141z"/><path fill="#6D6348" d="M562.801 672.27l16.254 21.41 17.343-2.102z"/><path fill="#4A3E30" d="M597.75 500.465l-34.949 171.805 63.035-156.965z"/><path fill="#C5AF9A" d="M711.27 263.457l-32.258-43.301 32.695 44.418z"/><path fill="#686252" d="M625.836 515.305l116.719 84.875 4.957-12.465z"/><path fill="#7C6F4D" d="M562.801 672.27l33.597 19.308 25.153.328z"/><path fill="#817461" d="M684.098 484.523l-58.262 30.782 121.676 72.41z"/><path fill="#B9AA95" d="M732.996 199.762l-4.84-1.887 12.992 15.34z"/><path fill="#6B3A29" d="M484.949-34.152l-172.269 295.574 366.332-41.266z"/><path fill="#673627" d="M532.801-30.27l-47.852-3.882 194.063 254.308z"/><path fill="#7B5643" d="M312.68 261.422l145.621 121.32 220.711-162.586z"/><path fill="#998A75" d="M597.75 500.465l28.086 14.84 58.262-30.782z"/><path fill="#B8A094" d="M599.867-17.605l-67.066-12.665 146.211 250.426z"/><path fill="#C8BAAF" d="M620.207-7.895l-20.34-9.71 79.145 237.761z"/><path fill="#D4C4B5" d="M758.031 239.922l-46.324 24.652 54.258-12.578z"/><path fill="#D3C3B6" d="M728.156 197.875l-33.386 31.195 46.378-15.855z"/><path fill="#CAB296" d="M679.012 220.156l-220.711 162.586 253.406-118.168z"/><path fill="#6A5947" d="M458.301 382.742l139.449 117.723 113.957-235.891z"/><path fill="#66563F" d="M597.75 500.465l86.348-15.942 27.609-219.949z"/><path fill="#D7C4B5" d="M705.09 243.035l-26.078-22.879 32.258 43.301z"/><path fill="#A27E70" d="M694.77 229.07l-15.758-8.914 26.078 22.879z"/><path fill="#C1AE9D" d="M620.207-7.895l58.805 228.051 49.144-22.281z"/><path fill="#D3C3B4" d="M679.012 220.156l14.933 6.707 34.211-28.988z"/><path fill="#262E19" d="M1099.078 645.758l-21.148-26.289 22.566 43.804z"/><path fill="#D2C1B1" d="M693.945 226.863l.825 2.207 33.386-31.195z"/><path fill="#CEBCB2" d="M620.207-7.895l107.949 205.77 4.84 1.887z"/><path fill="#D4C2B6" d="M694.77 229.07l10.32 13.965 36.058-29.82z"/><path fill="#7E704D" d="M625.836 515.305l-4.285 176.601 121.004-91.726z"/><path fill="#776D4A" d="M621.551 691.906l10.34 8.641 110.664-100.367z"/><path fill="#595240" d="M631.891 700.547l22.656 22.359 88.008-122.726z"/><path fill="#D4C4B5" d="M741.148 213.215l-36.058 29.82 44.828-15.601zM705.09 243.035l6.18 20.422 38.648-36.023z"/><path fill="#DBC9B3" d="M711.707 264.574l-27.609 219.949 81.867-232.527z"/><path fill="#333726" d="M979.25 684.871l51.816 10.555 38.985-86.696z"/><path fill="#6C6143" d="M747.512 587.715l-4.957 12.465 12.441-6.106z"/><path fill="#4B4E3B" d="M1072.164 490.691l-3.176 115.68 6.254-8.566z"/><path fill="#444732" d="M878.156 671.742l101.094 13.129 89.738-78.5z"/><path fill="#D3C3B6" d="M749.918 227.434l-38.648 36.023 46.761-23.535z"/><path fill="#D5C5B5" d="M711.27 263.457l.437 1.117 46.324-24.652z"/><path fill="#48462F" d="M742.555 600.18l-88.008 122.726 223.609-51.164z"/><path fill="#58503B" d="M754.996 594.074l-12.441 6.106 135.601 71.562z"/><path fill="#1F2312" d="M878.156 671.742l-223.609 51.164 236.742 50.668z"/><path fill="#222A15" d="M878.156 671.742l13.133 101.832 87.961-88.703z"/><path fill="#8F836B" d="M684.098 484.523l63.414 103.192 324.652-97.024z"/><path fill="#84755E" d="M747.512 587.715l7.484 6.359 317.168-103.383z"/><path fill="#6B5F4F" d="M878.156 671.742l190.832-65.371 3.176-115.68z"/><path fill="#757666" d="M754.996 594.074l123.16 77.668 194.008-181.051z"/><path fill="#3E3923" d="M1083.891 609.383l-5.961 10.086 6.445 1.476z"/><path fill="#5B4E3D" d="M765.965 251.996l-81.867 232.527 388.066 6.168z"/><path fill="#707362" d="M1075.242 597.805l17.778-12.91.761-24.633z"/><path fill="#514A2E" d="M1070.051 608.73l7.879 10.739 5.961-10.086z"/><path fill="#5C5A45" d="M1075.242 597.805l-5.191 10.925 13.84.653z"/><path fill="#707066" d="M1068.988 606.371l1.063 2.359 5.191-10.925z"/><path fill="#504E35" d="M1083.348 594.801l-8.106 3.004 8.649 11.578z"/><path fill="#3E4028" d="M1070.051 608.73l-38.985 86.696 46.864-75.957z"/><path fill="#796154" d="M765.965 251.996l306.199 238.695 12.695-123.058z"/><path fill="#D3C3B4" d="M758.031 239.922l7.934 12.074 321.73 112.242z"/><path fill="#CAB8AA" d="M765.965 251.996l318.894 115.637 2.836-3.395z"/><path fill="#D2C2B5" d="M741.148 213.215l8.77 14.219 337.777 136.804z"/><path fill="#D1C4B4" d="M732.996 199.762l8.152 13.453 346.547 151.023z"/><path fill="#D3C3B4" d="M749.918 227.434l8.113 12.488 329.664 124.316z"/><path fill="#90805F" d="M1072.164 490.691l3.078 107.114 18.539-37.543z"/><path fill="#1C2512" d="M1077.93 619.469l-46.864 75.957 69.43-32.153z"/><path fill="#977255" d="M1088.969 487.664l-16.805 3.027 21.609 2.684z"/><path fill="#827C6C" d="M1075.242 597.805l8.106-3.004 9.672-9.906z"/><path fill="#3D4021" d="M1084.375 620.945l-6.445-1.476 21.148 26.289z"/><path fill="#313326" d="M1031.066 695.426l65.715-6.508 3.715-25.645z"/><path fill="#705A45" d="M1072.164 490.691l16.805-3.027 15.543-11.316z"/><path fill="#847D6B" d="M1093.773 493.375l-21.609-2.684 30.848 27.969z"/><path fill="#8F8674" d="M1072.164 490.691l21.617 69.571 9.231-41.602z"/><path fill="#51493C" d="M1084.859 367.633l-12.695 123.058 32.348-14.343z"/><path fill="#C4BDB7" d="M732.996 199.762l354.699 164.476 352.305-624.238z"/><path fill="#C2BCBC" d="M620.207-7.895l112.789 207.657 707.004-459.762z"/></svg>