<svg xmlns="http://www.w3.org/2000/svg" width="1440" height="900" viewBox="0 0 1440 900"><path d="M0 0h1440v900h-1440z"/><path fill="#FAEBD8" d="M-28.816 330.23l4.843 9.579 114.594 47.429z"/><path fill="#0D170C" d="M33.715 885.668l-2.641.129 76.192 56.859z"/><path fill="#11190C" d="M-.266 636l31.34 249.797 2.641-.129z"/><path fill="#0E1A0E" d="M-.266 636l-35.281 6.301 66.621 243.496z"/><path fill="#0D1B0E" d="M-35.547 642.301l-71.039-24.903 137.66 268.399z"/><path fill="#162413" d="M-106.586 617.398l-15.555-4.707 153.215 273.106z"/><path fill="#0A1109" d="M-122.141 612.691l-57.859 437.309 211.074-164.203z"/><path fill="#261F15" d="M-4.32 393.789l-42.203 35.902 109.875-27.421z"/><path fill="#3F2F20" d="M-9.664 374.211l4.422 12.484 68.594 15.575z"/><path fill="#362919" d="M-46.523 429.691l-17.442 36.211 127.317-63.632z"/><path fill="#4D341E" d="M-63.965 465.902l58.559 148.18 68.758-211.812z"/><path fill="#221B11" d="M-5.242 386.695l.922 7.094 67.672 8.481z"/><path fill="#0E2012" d="M31.074 885.797l-211.074 164.203 287.266-107.344z"/><path fill="#B39C7A" d="M366.176 455.324l-138.653 170.457 154.145 119.446z"/><path fill="#FBEEDB" d="M-23.973 339.809l7.793 21.82 106.801 25.609z"/><path fill="#83604A" d="M-16.18 361.629l6.516 12.582 100.285 13.027z"/><path fill="#342B22" d="M-9.664 374.211l73.016 28.059 27.269-15.032z"/><path fill="#4D3823" d="M-5.406 614.082l5.14 21.918 227.789-10.219z"/><path fill="#060C08" d="M107.266 942.656l55.046 52.719 159.551-215.605z"/><path fill="#EBDAC8" d="M-180-150l151.184 480.23 187.461 37.61z"/><path fill="#775933" d="M-28.816 330.23l119.437 57.008 68.024-19.398z"/><path fill="#776757" d="M63.352 402.27l-68.758 211.812 232.929 11.699z"/><path fill="#A6865F" d="M90.621 387.238l-27.269 15.032 164.171 223.511z"/><path fill="#1C240F" d="M-.266 636l33.981 249.668 193.808-259.887z"/><path fill="#A08357" d="M158.645 367.84l-68.024 19.398 136.902 238.543z"/><path fill="#4B2B1E" d="M365.969 447.438l-16.907 7.398 17.114.488z"/><path fill="#080D07" d="M33.715 885.668l73.551 56.988 214.597-162.886z"/><path fill="#2D1F14" d="M349.062 454.836l-25.355 8.059 42.469-7.571z"/><path fill="#261F15" d="M323.449 461.258l.258 1.637 7.934-8.571z"/><path fill="#0A1409" d="M227.523 625.781l-193.808 259.887 288.148-105.898z"/><path fill="#392D21" d="M321.191 752.07l-93.668-126.289 94.34 153.989z"/><path fill="#E5D4C0" d="M506.535 371.203l-13.855.219 13.957 24.57z"/><path fill="#2E2216" d="M323.449 461.258l-164.804-93.418 165.062 95.055z"/><path fill="#907653" d="M158.645 367.84l68.878 257.941 96.184-162.886z"/><path fill="#2A1D15" d="M158.645 367.84l164.804 93.418 8.192-6.934z"/><path fill="#221E13" d="M158.645 367.84l172.996 86.484 9.875-7.57z"/><path fill="#492D22" d="M341.516 446.754l-9.875 7.57 17.421.512z"/><path fill="#291F13" d="M331.641 454.324l-7.934 8.571 25.355-8.059z"/><path fill="#36241A" d="M341.516 446.754l7.546 8.082.008-7.125z"/><path fill="#5D5240" d="M479.043 465.293l-112.867-9.969 119.465 34.778z"/><path fill="#7B6744" d="M366.176 455.324l15.492 289.903 103.973-255.125z"/><path fill="#3F3327" d="M321.191 752.07l54.973-2.851 5.504-3.992z"/><path fill="#91725D" d="M349.07 447.711l-.008 7.125 16.907-7.398z"/><path fill="#8B6E4C" d="M323.707 462.895l-96.184 162.886 138.653-170.457z"/><path fill="#3C2E21" d="M321.191 752.07l.672 27.7 47.817-24.305z"/><path fill="#0C160B" d="M162.312 995.375l-.289.398 207.657-240.308z"/><path fill="#C6B8AF" d="M665.762-6.051l-.207 20.156 2.398-19.679z"/><path fill="#443727" d="M321.191 752.07l48.489 3.395 6.484-6.246z"/><path fill="#CDB398" d="M492.68 371.422l13.855-.219 45.985-208.695z"/><path fill="#E5D5BE" d="M492.68 371.422l2.14 33.238 11.817-8.668z"/><path fill="#33371C" d="M227.523 625.781l93.668 126.289 60.477-6.843z"/><path fill="#E1D0BC" d="M581.277 397.676l-4.351 24.144 40.019-23.312z"/><path fill="#776C4E" d="M376.164 749.219l-6.484 6.246 11.988-10.238z"/><path fill="#4D2F24" d="M365.969 447.438l.207 7.886 112.867 9.969z"/><path fill="#31241B" d="M349.07 447.711l16.899-.273 126.711-76.016z"/><path fill="#EAD6BD" d="M492.68 371.422l-126.711 76.016 128.851-42.778z"/><path fill="#B59A87" d="M574.168 432.281l9.891 34.657 32.886-68.43z"/><path fill="#F1DFC9" d="M158.645 367.84l182.871 78.914 151.164-75.332z"/><path fill="#3F2B20" d="M341.516 446.754l7.554.957 143.61-76.289z"/><path fill="#9B8560" d="M381.668 745.227l-11.988 10.238 168.523 67.945z"/><path fill="#4E3227" d="M365.969 447.438l113.074 17.855 15.777-60.633z"/><path fill="#10210F" d="M369.68 755.465l-207.657 240.308 376.18-172.363z"/><path fill="#716044" d="M485.641 490.102l-103.973 255.125 129.621-248.614z"/><path fill="#826D50" d="M479.043 465.293l6.598 24.809 25.648 6.511z"/><path fill="#162810" d="M321.863 779.77l-159.551 215.605 375.891-171.965z"/><path fill="#10210F" d="M162.312 995.375l207.368-239.91 168.523 67.945z"/><path fill="#AB9475" d="M369.68 755.465l-47.817 24.305 216.34 43.64z"/><path fill="#E7D5C1" d="M158.645 367.84l334.035 3.582 59.84-208.914z"/><path fill="#E2CFC0" d="M-180-150l338.645 517.84 393.875-205.332z"/><path fill="#E6D4BE" d="M573.992 419.352l.176 12.929 2.758-10.461z"/><path fill="#3B271E" d="M574.168 432.281l-62.879 64.332 72.77-29.675z"/><path fill="#E4D2BC" d="M572.074 414.102l4.852 7.718 4.351-24.144z"/><path fill="#E6D4BE" d="M573.992 419.352l-1.918-5.25 2.094 18.179z"/><path fill="#E8D6C0" d="M506.637 395.992l-11.817 8.668 79.348 27.621z"/><path fill="#674A3C" d="M479.043 465.293l32.246 31.32 62.879-64.332z"/><path fill="#6F4F44" d="M494.82 404.66l-15.777 60.633 95.125-33.012z"/><path fill="#E6D4BE" d="M572.074 414.102l-65.437-18.11 67.531 36.289z"/><path fill="#E3D1BB" d="M506.637 395.992l65.437 18.11 9.203-16.426z"/><path fill="#E5D3BD" d="M572.074 414.102l1.918 5.25 2.934 2.468z"/><path fill="#E2D0BC" d="M552.52 162.508l-45.985 208.695 74.742 26.473z"/><path fill="#E4D3BF" d="M506.535 371.203l.102 24.789 74.64 1.684z"/><path fill="#E4D2BE" d="M576.926 421.82l-2.758 10.461 42.777-33.773z"/><path fill="#877756" d="M622.266 661.973l7.675 5.289 8.055-17.907z"/><path fill="#927651" d="M616.945 398.508l150.125 41.449 1.039-15.305z"/><path fill="#A18C6D" d="M511.289 496.613l-129.621 248.614 240.598-83.254z"/><path fill="#7C7058" d="M622.266 661.973l-240.598 83.254 243.078-70.942z"/><path fill="#776C4C" d="M381.668 745.227l156.535 78.183 86.543-149.125z"/><path fill="#C8BBB3" d="M635.672 44.602l28.031-23.286.609-3.207z"/><path fill="#B5864E" d="M622.266 661.973l2.48 12.312 5.195-7.023z"/><path fill="#97673F" d="M1118.977 524.809l-.004 20.406 20.925-4.75z"/><path fill="#AC977C" d="M511.289 496.613l110.977 165.36 15.73-12.618z"/><path fill="#6C583F" d="M584.059 466.938l-72.77 29.675 126.707 152.742z"/><path fill="#B79F92" d="M635.672 44.602l-83.152 117.906 90.371-.145z"/><path fill="#D7C5B7" d="M552.52 162.508l28.757 235.168 61.614-235.313z"/><path fill="#DECCB6" d="M581.277 397.676l35.668.832 25.946-236.145z"/><path fill="#D5C5B8" d="M-180-150l732.52 312.508 103.585-170.699z"/><path fill="#CBBEB6" d="M552.52 162.508l83.152-117.906 20.433-52.793z"/><path fill="#0C130B" d="M538.203 823.41l-376.18 172.363 557.977 54.227z"/><path fill="#CEBDB3" d="M635.672 44.602l7.219 117.761 17.047-127.718z"/><path fill="#C3B2A0" d="M656.105-8.191l8.207 26.3 1.243-4.004z"/><path fill="#C9BCB4" d="M635.672 44.602l24.266-9.957 1.714-6.622z"/><path fill="#6C5B3F" d="M584.059 466.938l53.937 182.417 97.152-42.605z"/><path fill="#C7BDB4" d="M635.672 44.602l25.98-16.579 2.051-6.707z"/><path fill="#613D31" d="M757.18 167.633l5.105 19.32 4.395-7.152z"/><path fill="#583C30" d="M656.105-8.191l-20.433 52.793 28.64-26.493z"/><path fill="#C7B8B1" d="M660.656-6.555l4.899 20.66.207-20.156z"/><path fill="#C6B9B1" d="M660.656-6.555l-4.551-1.636 9.45 22.296z"/><path fill="#D4C4B4" d="M912.996 309.762l19.969 108.554 4.207-.793z"/><path fill="#C6B9B0" d="M664.312 18.109l-.609 3.207 1.852-7.211z"/><path fill="#6D6452" d="M864.098 594.523l58.457 115.657 4.957-12.465z"/><path fill="#5A412D" d="M637.996 649.355l-8.055 17.907 105.207-60.512z"/><path fill="#D7C6B4" d="M769.047 284.141l41.555 114.648 102.394-89.027z"/><path fill="#B7A291" d="M771.891 206.32l-9.606-19.367 13.367 36.02z"/><path fill="#CAB9A7" d="M762.285 186.953l-119.394-24.59 132.761 60.61z"/><path fill="#4C3428" d="M642.891 162.363l119.707 128.449 13.054-67.839z"/><path fill="#4C2F1F" d="M659.938 34.645l-17.047 127.718 114.289 5.27z"/><path fill="#CEBCAE" d="M779.648 246.812l-10.601 37.329 13.609-29.946z"/><path fill="#705D4F" d="M1118.977 524.809l36.871 20.043 6.199-154.02z"/><path fill="#C7B5A7" d="M771.055 187.957l-8.77-1.004 9.274 11.024z"/><path fill="#5B3423" d="M642.891 162.363l-25.946 236.145 145.653-107.696z"/><path fill="#CEBEB1" d="M757.18 167.633l-114.289-5.27 119.394 24.59z"/><path fill="#DDCDB4" d="M616.945 398.508l151.164 26.144 4.543-21.363z"/><path fill="#DCC7B4" d="M762.598 290.812l-145.653 107.696 155.707 4.781z"/><path fill="#916E52" d="M777.906 417.133l-9.797 7.519 11.914-3.136z"/><path fill="#D0C0B1" d="M775.652 222.973l-13.054 67.839 17.05-44z"/><path fill="#4C342A" d="M785.332 422.402l-18.262 17.555 21.68 67.777z"/><path fill="#57372A" d="M616.945 398.508l-32.886 68.43 183.011-26.981z"/><path fill="#D4C4B4" d="M912.996 309.762l24.176 107.761 65.945 27.52z"/><path fill="#C7B6A6" d="M771.559 197.977l-9.274-11.024 9.606 19.367z"/><path fill="#C9B6A8" d="M766.68 179.801l-4.395 7.152 8.77 1.004z"/><path fill="#613626" d="M663.703 21.316l-2.051 6.707 113.192-38.031z"/><path fill="#C8BAB1" d="M821.648 139.793l5.379 17.586.598 1.254z"/><path fill="#C5B8B0" d="M667.953-5.574l-2.398 19.679 109.289-24.113z"/><path fill="#593827" d="M665.555 14.105l-1.852 7.211 111.141-31.324z"/><path fill="#5E3225" d="M661.652 28.023l-1.714 6.622 114.906-44.653z"/><path fill="#472F25" d="M767.07 439.957l-183.011 26.981 204.691 40.796z"/><path fill="#846F52" d="M772.652 403.289l-4.543 21.363 9.797-7.519z"/><path fill="#CDBAA9" d="M762.598 290.812l6.449-6.671 10.601-37.329z"/><path fill="#DAC9B5" d="M791.469 412.781l-6.137 9.621 18.246-6.605z"/><path fill="#D8C5B4" d="M762.598 290.812l10.054 112.477 4.371-2.187z"/><path fill="#BBA492" d="M779.648 246.812l3.008 7.383 4.285-46.16z"/><path fill="#CAB9AF" d="M757.18 167.633l21.14 9.664 7.231-30.934z"/><path fill="#82684F" d="M768.109 424.652l-1.039 15.305 12.953-18.441z"/><path fill="#CFBBA2" d="M772.652 403.289l5.254 13.844.918-8.172z"/><path fill="#CFB79F" d="M777.023 401.102l-4.371 2.187 6.172 5.672z"/><path fill="#CCBFAF" d="M757.18 167.633l9.5 12.168 11.64-2.504z"/><path fill="#C9BCAC" d="M771.055 187.957l.504 10.02 7.5-19.356z"/><path fill="#D0BEB0" d="M766.68 179.801l4.375 8.156 8.004-9.336z"/><path fill="#C3B0A1" d="M778.32 177.297l-11.64 2.504 12.379-1.18z"/><path fill="#DAC9B5" d="M777.023 401.102l11.973 8.878 21.606-11.191z"/><path fill="#695844" d="M584.059 466.938l151.089 139.812 53.602-99.016z"/><path fill="#C8BBB5" d="M774.844-10.008l-114.906 44.653 125.613 111.718z"/><path fill="#523223" d="M659.938 34.645l97.242 132.988 28.371-21.27z"/><path fill="#8E6F50" d="M780.023 421.516l-12.953 18.441 18.262-17.555z"/><path fill="#CFBEB4" d="M779.059 178.621l-7.5 19.356 15.382 10.058z"/><path fill="#887056" d="M777.906 417.133l2.117 4.383 5.309.886z"/><path fill="#CBBAB0" d="M778.32 177.297l.739 1.324 6.492-32.258z"/><path fill="#CFBEB4" d="M775.652 222.973l3.996 23.839 7.293-38.777z"/><path fill="#CDBFB2" d="M771.891 206.32l3.761 16.653 11.289-14.938z"/><path fill="#82694B" d="M785.332 422.402l3.418 85.332 14.828-91.937z"/><path fill="#635645" d="M788.75 507.734l75.348 86.789 68.867-176.207z"/><path fill="#BAA496" d="M771.559 197.977l.332 8.343 15.05 1.715z"/><path fill="#8C745A" d="M777.906 417.133l7.426 5.269 3.664-12.422z"/><path fill="#D9C8B4" d="M778.824 408.961l-.918 8.172 11.09-7.153z"/><path fill="#CCB8A0" d="M788.996 409.98l-3.664 12.422 6.137-9.621z"/><path fill="#D9C7B3" d="M777.023 401.102l1.801 7.859 10.172 1.019z"/><path fill="#D5C4B2" d="M769.047 284.141l-6.449 6.671 48.004 107.977z"/><path fill="#C7AF95" d="M762.598 290.812l14.425 110.29 33.579-2.313z"/><path fill="#CCBBB3" d="M827.027 157.379l-47.968 21.242 48.566-19.988z"/><path fill="#DDCAB9" d="M791.469 412.781l12.109 3.016 7.024-17.008z"/><path fill="#D4C2AA" d="M788.996 409.98l2.473 2.801 19.133-13.992z"/><path fill="#64563C" d="M788.75 507.734l-53.602 99.016 128.95-12.227z"/><path fill="#C7BAB2" d="M774.844-10.008l10.707 156.371 27.465-17.593z"/><path fill="#C8BAB1" d="M813.016 128.77l-27.465 17.593 29.547-13.136z"/><path fill="#C8BAAF" d="M815.098 133.227l-29.547 13.136 31.215-8.804z"/><path fill="#C7BAB4" d="M774.844-10.008l38.172 138.778 8.632 11.023z"/><path fill="#C6B8AD" d="M813.016 128.77l2.082 4.457 6.55 6.566z"/><path fill="#C8BAB1" d="M815.098 133.227l1.668 4.332 4.882 2.234z"/><path fill="#B79683" d="M782.656 254.195l-13.609 29.946 143.949 25.621z"/><path fill="#BAA496" d="M785.551 146.363l-6.492 32.258 46.031-25.187z"/><path fill="#B5A397" d="M821.648 139.793l-4.882-2.234 8.324 15.875z"/><path fill="#B7A398" d="M816.766 137.559l-31.215 8.804 39.539 7.071z"/><path fill="#C6B9B1" d="M821.648 139.793l3.442 13.641 1.937 3.945z"/><path fill="#BFAC9E" d="M825.09 153.434l-46.031 25.187 47.968-21.242z"/><path fill="#D2C4B7" d="M912.996 309.762l90.121 135.281 152.192-57.68z"/><path fill="#B9A799" d="M779.059 178.621l7.882 29.414 40.684-49.402z"/><path fill="#CEBEAF" d="M786.941 208.035l-4.285 46.16 130.34 55.567z"/><path fill="#CCBEB1" d="M827.625 158.633l-40.684 49.402 126.055 101.727z"/><path fill="#948250" d="M624.746 674.285l-86.543 149.125 375.199-87.351z"/><path fill="#3B392D" d="M538.203 823.41l181.797 226.59 193.402-313.941z"/><path fill="#81654F" d="M803.578 415.797l-14.828 91.937 144.215-89.418z"/><path fill="#1C240F" d="M1058.156 781.742l-31.246 8.594 44.379 93.238z"/><path fill="#938361" d="M864.098 594.523l-128.95 12.227 178.254 129.309z"/><path fill="#63523E" d="M735.148 606.75l-105.207 60.512 283.461 68.797z"/><path fill="#705C39" d="M629.941 667.262l-5.195 7.023 288.656 61.774z"/><path fill="#5A5D4A" d="M864.098 594.523l49.304 141.536 9.153-25.879z"/><path fill="#D4C3B1" d="M912.996 309.762l-102.394 89.027 122.363 19.527z"/><path fill="#D9C8B4" d="M810.602 398.789l-7.024 17.008 129.387 2.519zM937.172 417.523l-4.207.793 70.152 26.727z"/><path fill="#5A523D" d="M922.555 710.18l-9.153 25.879 21.594-31.985z"/><path fill="#6C6143" d="M927.512 697.715l-4.957 12.465 12.441-6.106z"/><path fill="#734B3F" d="M1191.84 359.656l3.168 8.875 1.883-4.176z"/><path fill="#756C4F" d="M927.512 697.715l7.484 6.359 160.695-181.207z"/><path fill="#4B4632" d="M1026.91 790.336l-113.508-54.277 157.887 147.515z"/><path fill="#432D20" d="M932.965 418.316l-68.867 176.207 139.019-149.48z"/><path fill="#7F7154" d="M934.996 704.074l-21.594 31.985 113.508 54.277z"/><path fill="#1A2612" d="M913.402 736.059l-193.402 313.941 351.289-166.426z"/><path fill="#58573B" d="M934.996 704.074l91.914 86.262 31.246-8.594z"/><path fill="#857963" d="M864.098 594.523l63.414 103.192 168.179-174.848z"/><path fill="#605041" d="M1003.117 445.043l-139.019 149.48 231.593-71.656z"/><path fill="#161A0C" d="M1071.289 883.574l-351.289 166.426 380.309-38.793z"/><path fill="#CAB9A7" d="M1155.309 387.363l-36.332 137.446 43.07-133.977z"/><path fill="#835E41" d="M1095.691 522.867l23.282 22.348.004-20.406z"/><path fill="#CEBDAD" d="M1347.391 522.215l106.367 14.996 166.242-87.211z"/><path fill="#7A725D" d="M934.996 704.074l123.16 77.668 60.817-236.527z"/><path fill="#61503E" d="M1095.691 522.867l-160.695 181.207 183.977-158.859z"/><path fill="#9E6F43" d="M1139.898 540.465l-20.925 4.75 36.875-.363z"/><path fill="#D3C2B2" d="M1003.117 445.043l92.574 77.824 59.618-135.504z"/><path fill="#6C5E51" d="M1095.691 522.867l23.286 1.942 36.332-137.446z"/><path fill="#9B7244" d="M1118.977 524.809l20.921 15.656 15.95 4.387z"/><path fill="#1C1A0B" d="M1071.289 883.574l29.02 127.633 122.562-33.289z"/><path fill="#918A78" d="M1281.855 594.539l60.625 108.633 4.844-107.543z"/><path fill="#5A5343" d="M1245.051 539.121l71.965.59 21.468-13.445z"/><path fill="#D2C2B3" d="M1155.309 387.363l6.738 3.469 12.805-30.152z"/><path fill="#CFC2B2" d="M912.996 309.762l242.313 77.601 19.543-26.683z"/><path fill="#CCBEB1" d="M827.625 158.633l85.371 151.129 266.805 48.863z"/><path fill="#CEC2B6" d="M912.996 309.762l261.856 50.918 4.949-2.055z"/><path fill="#CBBFB1" d="M1174.852 360.68l2.41-.832 2.539-1.223z"/><path fill="#C7BAB1" d="M821.648 139.793l5.977 18.84 352.176 199.992z"/><path fill="#CBBDB4" d="M821.648 139.793l358.153 218.832 6.613-.617z"/><path fill="#C4BBB4" d="M774.844-10.008l46.804 149.801 364.766 218.215z"/><path fill="#CCBEB1" d="M1186.414 358.008l-6.613.617 9.824.469zM1179.801 358.625l-2.539 1.223 12.363-.754z"/><path fill="#CBBDB2" d="M1186.414 358.008l3.211 1.086 2.215.562z"/><path fill="#CCBEB1" d="M1189.625 359.094l-12.363.754 14.578-.192z"/><path fill="#715446" d="M1174.852 360.68l-12.805 30.152 32.961-22.301z"/><path fill="#C2AD9C" d="M1177.262 359.848l-2.41.832 20.156 7.851z"/><path fill="#CABEAE" d="M1191.84 359.656l-14.578.192 17.746 8.683z"/><path fill="#5A5746" d="M1415.945 539.5l-53.785 21.375 64.18 17.418z"/><path fill="#724B3A" d="M1155.848 544.852l-36.875.363 113.797 83.535z"/><path fill="#C0A87C" d="M1118.973 545.215l-60.817 236.527 174.614-152.992z"/><path fill="#765C4F" d="M1162.047 390.832l-6.199 154.02 89.203-5.731z"/><path fill="#684A3F" d="M1195.008 368.531l-32.961 22.301 83.004 148.289z"/><path fill="#4C4636" d="M1245.051 539.121l-89.203 5.731 96.316 55.839z"/><path fill="#554E3E" d="M1268.969 597.664l12.886-3.125 2.657-8.191z"/><path fill="#464334" d="M1155.848 544.852l76.922 83.898 19.394-28.059z"/><path fill="#87806D" d="M1252.164 600.691l-19.394 28.059 36.199-31.086z"/><path fill="#635A49" d="M1245.051 539.121l7.113 61.57 16.805-3.027z"/><path fill="#A38F77" d="M1268.969 597.664l-36.199 31.086 49.085-34.211z"/><path fill="#D2C3B0" d="M1195.008 368.531l50.043 170.59 93.433-12.855z"/><path fill="#4E4838" d="M1245.051 539.121l23.918 58.543 15.543-11.316z"/><path fill="#544C3F" d="M1245.051 539.121l39.461 47.227 32.504-46.637z"/><path fill="#615144" d="M1284.512 586.348l-2.657 8.191 65.469 1.09z"/><path fill="#3A3F28" d="M1232.77 628.75l-174.614 152.992 284.324-78.57z"/><path fill="#272C16" d="M1058.156 781.742l13.133 101.832 271.191-180.402z"/><path fill="#404026" d="M1071.289 883.574l151.582 94.344 119.609-274.746z"/><path fill="#545047" d="M1347.391 522.215l14.769 38.66 53.785-21.375z"/><path fill="#A99D8D" d="M1281.855 594.539l-49.085 34.211 109.71 74.422z"/><path fill="#564F3F" d="M1317.016 539.711l-32.504 46.637 62.812 9.281z"/><path fill="#CFBEAC" d="M1195.008 368.531l143.476 157.735 8.907-4.051z"/><path fill="#898772" d="M1347.324 595.629l-4.844 107.543 6.133-107.57z"/><path fill="#4F493D" d="M1347.324 595.629l1.289-.027 13.547-34.727z"/><path fill="#CBBEAE" d="M1196.891 364.355l-1.883 4.176 152.383 153.684z"/><path fill="#514C46" d="M1338.484 526.266l-21.468 13.445 45.144 21.164z"/><path fill="#585141" d="M1317.016 539.711l30.308 55.918 14.836-34.754z"/><path fill="#4D4A43" d="M1347.391 522.215l-8.907 4.051 23.676 34.609z"/><path fill="#565040" d="M1362.16 560.875l-13.547 34.727 77.727-17.309z"/><path fill="#858271" d="M1348.613 595.602l-6.133 107.57 83.86-124.879z"/><path fill="#1D2613" d="M1342.48 703.172l99.879 124.933.274-22.683z"/><path fill="#5C5948" d="M1415.945 539.5l10.395 38.793 21.805-24.406z"/><path fill="#454136" d="M1342.48 703.172l-119.609 274.746 219.488-149.813z"/><path fill="#222711" d="M1446.125 849.941l-223.254 127.977 233.258-116.992z"/><path fill="#83796F" d="M1426.34 578.293l-83.86 124.879 101.317 16.883z"/><path fill="#646D50" d="M1342.48 703.172l100.153 102.25 1.32-65.621z"/><path fill="#3A3F29" d="M1443.797 720.055l-101.317-16.883 101.473 36.629z"/><path fill="#1F2911" d="M1442.359 828.105l-219.488 149.813 223.254-127.977z"/><path fill="#535349" d="M1450.324 537.984l-34.379 1.516 35.094 4.641z"/><path fill="#535047" d="M1415.945 539.5l32.2 14.387 2.894-9.746z"/><path fill="#4E4B46" d="M1448.145 553.887l-21.805 24.406 22.508 10.148z"/><path fill="#8D8673" d="M1426.34 578.293l17.457 141.762 5.051-131.614z"/><path fill="#5E5D49" d="M1347.391 522.215l68.554 17.285 37.813-2.289z"/><path fill="#CCBCAC" d="M1196.891 364.355l150.5 157.86 272.609-72.215z"/><path fill="#665B49" d="M1453.758 537.211l-37.813 2.289 43.254.75z"/><path fill="#151B0F" d="M1456.129 860.926l-233.258 116.992 242.356-106.012z"/><path fill="#C4BCB9" d="M1191.84 359.656l5.051 4.699 423.109-514.355z"/><path fill="#59574A" d="M1415.945 539.5l34.379-1.516 41.231 55.977z"/><path fill="#645B4A" d="M1459.199 540.25l-43.254-.75 75.61 54.461z"/><path fill="#1F240E" d="M1465.227 871.906l-242.356 106.012 284.957-77.23z"/><path fill="#C5BBB9" d="M1186.414 358.008l5.426 1.648 428.16-509.656z"/><path fill="#C0B8B6" d="M1620-150l-423.109 514.355 423.109 85.645z"/><path fill="#C6C0C0" d="M774.844-10.008l411.57 368.016 433.586-508.008z"/></svg>