<svg xmlns="http://www.w3.org/2000/svg" width="1440" height="900" viewBox="0 0 1440 900"><path fill="#1F1F1F" d="M0 0h1440v900h-1440z"/><path fill="#41321D" d="M1420 450.5l-24.336 453.5 24.336 13z"/><path fill="#3B351B" d="M1395.664 904l-484.746-10.016 509.082 23.016z"/><path fill="#807474" d="M354.285 360.926l182.449 394.258 28.633 2.687z"/><path fill="#2B190D" d="M20-16v933l70.277-314.762z"/><path fill="#D0D1D3" d="M191.984 295.652l21.262 18.793 22.207-142.957z"/><path fill="#3E2F18" d="M156.141 723.879l-90.075 178.094 98.02-163.129z"/><path fill="#8B945D" d="M90.277 602.238l-70.277 314.762 136.141-193.121z"/><path fill="#160F07" d="M20 917l46.066-15.027 90.075-178.094z"/><path fill="#8A7862" d="M183.977 738.859l2.398 5.266 1.434-5.715z"/><path fill="#796D47" d="M169.324 738.984l10.637 7.512 4.016-7.637z"/><path fill="#835C35" d="M156.141 723.879l7.945 14.965 5.238.14z"/><path fill="#F6F5F0" d="M20-16l70.277 618.238 85.914-267.129z"/><path fill="#4D422C" d="M164.086 738.844l-98.02 163.129 113.895-155.477z"/><path fill="#80644E" d="M169.324 738.984l-5.238-.14 15.875 7.652z"/><path fill="#6A4A24" d="M183.977 738.859l-4.016 7.637 6.414-2.371z"/><path fill="#CFCECA" d="M176.191 335.109l13.61-29.269 2.183-10.188z"/><path fill="#6A5C41" d="M156.141 723.879l13.183 15.105 14.653-.125z"/><path fill="#E0E0E0" d="M20-16l156.191 351.109 15.793-39.457z"/><path fill="#6F778E" d="M20-16l215.453 187.488 46.699-50.804z"/><path fill="#1F1C15" d="M90.277 602.238l65.864 121.641 31.668 14.531z"/><path fill="#634F2E" d="M156.141 723.879l27.836 14.98 3.832-.449z"/><path fill="#8C5E46" d="M187.809 738.41l-1.434 5.715 10.773 12.285z"/><path fill="#70593A" d="M186.375 744.125l-6.414 2.371 17.187 9.914z"/><path fill="#A7ACB2" d="M20-16l171.984 311.652 43.469-124.164z"/><path fill="#FBF6F0" d="M213.246 314.445l-5.277 13.059 146.316 33.422z"/><path fill="#594C3B" d="M179.961 746.496l-113.895 155.477 131.082-145.563z"/><path fill="#1A1512" d="M176.191 335.109l-85.914 267.129 117.692-274.734z"/><path fill="#27140D" d="M536.734 755.184l-273.011 145.691 301.644-143.004z"/><path fill="#E3E5E2" d="M189.801 305.84l-13.61 29.269 31.778-7.605z"/><path fill="#F7F6F2" d="M189.801 305.84l18.168 21.664 3.082-14.098z"/><path fill="#BCC1C5" d="M191.984 295.652l-2.183 10.188 21.25 7.566z"/><path fill="#BFC3C6" d="M191.984 295.652l19.067 17.754 2.195 1.039z"/><path fill="#FBFCF7" d="M211.051 313.406l-3.082 14.098 5.277-13.059z"/><path fill="#271B01" d="M197.148 756.41l-131.082 145.563 192.856-2.606z"/><path fill="#33302B" d="M1263.809 393.352l-15.465 216.992 171.656-159.844z"/><path fill="#1A110A" d="M258.922 899.367l-192.856 2.606 197.657-1.098z"/><path fill="#2F1F08" d="M197.148 756.41l61.774 142.957 4.801 1.508z"/><path fill="#302020" d="M207.969 327.504l-117.692 274.734 264.008-241.312z"/><path fill="#39383D" d="M90.277 602.238l97.532 136.172 166.476-377.484z"/><path fill="#292114" d="M830.457 752.688l-265.09 5.183 345.551 136.113z"/><path fill="#B9BBC7" d="M235.453 171.488l-22.207 142.957 141.039 46.481z"/><path fill="#D7DBDE" d="M282.152 120.684l-46.699 50.804 118.832 189.438z"/><path fill="#8F8A87" d="M354.285 360.926l-166.476 377.484 217.218 6.465z"/><path fill="#786851" d="M187.809 738.41l9.339 18 207.879-11.535z"/><path fill="#574709" d="M197.148 756.41l66.575 144.465 141.304-156z"/><path fill="#382F1E" d="M405.027 744.875l-141.304 156 173.371-146.816z"/><path fill="#29200F" d="M437.094 754.059l-173.371 146.816 185.609-145.687z"/><path fill="#8E8986" d="M354.285 360.926l50.742 383.949 72.34 6.031z"/><path fill="#5F553C" d="M405.027 744.875l32.067 9.184 40.273-3.153z"/><path fill="#372517" d="M437.094 754.059l12.238 1.129 28.035-4.282z"/><path fill="#ABA398" d="M354.285 360.926l123.082 389.98 59.367 4.278z"/><path fill="#35260F" d="M449.332 755.188l-185.609 145.687 273.011-145.691z"/><path fill="#3B271E" d="M477.367 750.906l-28.035 4.282 87.402-.004z"/><path fill="#AAAEB9" d="M720-16l-437.848 136.684 504.793 20.211z"/><path fill="#A5ADB8" d="M1420-16l-27.445 404.805 27.445 61.695z"/><path fill="#51392F" d="M1392.555 388.805l4.058 13.25 23.387 48.445z"/><path fill="#909AA4" d="M20-16l262.152 136.684 437.848-136.684z"/><path fill="#DFDFD3" d="M886.027 346.508l8.457 9.668 13.555.105z"/><path fill="#DFE1E0" d="M282.152 120.684l72.133 240.242 432.66-220.031z"/><path fill="#211006" d="M565.367 757.871l-301.644 143.004 647.195-6.891z"/><path fill="#634D36" d="M894.484 356.176l-34.476 397.429 48.031-397.324z"/><path fill="#C0C1C6" d="M720-16l66.945 156.895 54.875-7.004z"/><path fill="#644E41" d="M1086.309 682.402l-4.856 6.715 15.086 1.832z"/><path fill="#D5D6DB" d="M841.82 133.891l-54.875 7.004 90.688 101.828z"/><path fill="#B9BDC9" d="M877.633 242.723l8.394 103.785 17.254-98.41z"/><path fill="#D4D3D9" d="M877.633 242.723l-90.688-101.828 99.082 205.613z"/><path fill="#564420" d="M354.285 360.926l211.082 396.945 320.66-411.363z"/><path fill="#BAC1CB" d="M786.945 140.895l-432.66 220.031 531.742-14.418z"/><path fill="#978D72" d="M565.367 757.871l265.09-5.183 64.027-396.512z"/><path fill="#665231" d="M886.027 346.508l-320.66 411.363 329.117-401.695z"/><path fill="#6D5B33" d="M830.457 752.688l29.551.917 34.476-397.429z"/><path fill="#292210" d="M937.746 767.82l-26.828 126.164 48.031-118.324z"/><path fill="#D4D4D6" d="M841.82 133.891l35.813 108.832 25.648 5.375z"/><path fill="#E3DFD4" d="M917.785 354.117l-9.746 2.164 72.887 2.891z"/><path fill="#352317" d="M860.008 753.605l-29.551-.917 80.461 141.296z"/><path fill="#33292A" d="M1396.613 402.055l-132.804-8.703 156.191 57.148z"/><path fill="#B3B6BF" d="M903.281 248.098l-17.254 98.41 31.758 7.609z"/><path fill="#E3DCD4" d="M886.027 346.508l22.012 9.773 9.746-2.164z"/><path fill="#A4A8B3" d="M903.281 248.098l14.504 106.019 63.141 5.055z"/><path fill="#C4C2C5" d="M903.281 248.098l77.645 111.074 128.031-80.164z"/><path fill="#2F221A" d="M860.008 753.605l50.91 140.379 26.828-126.164z"/><path fill="#5B5944" d="M1081.453 689.117l-122.504 86.543 137.59-84.711z"/><path fill="#281C10" d="M937.746 767.82l21.203 7.84 122.504-86.543z"/><path fill="#5A4729" d="M860.008 753.605l221.445-64.488 4.856-6.715z"/><path fill="#3D2A1B" d="M860.008 753.605l77.738 14.215 143.707-78.703z"/><path fill="#4A4037" d="M908.039 356.281l-48.031 397.324 226.301-71.203z"/><path fill="#525125" d="M980.926 359.172l-72.887-2.891 178.27 326.121z"/><path fill="#DADADC" d="M841.82 133.891l61.461 114.207 205.676 30.91z"/><path fill="#342721" d="M1210.59 635.996l-1.406-.543 34.121 88.492z"/><path fill="#524131" d="M1209.184 635.453l-112.645 55.496 146.766 32.996z"/><path fill="#E0E0E2" d="M841.82 133.891l267.137 145.117 119.441-193.461z"/><path fill="#292621" d="M1248.344 610.344l-3.817 7.597 24.442 101.18z"/><path fill="#5F4A39" d="M980.926 359.172l105.383 323.23 122.875-46.949z"/><path fill="#422B19" d="M1086.309 682.402l10.23 8.547 112.645-55.496z"/><path fill="#FEFEFE" d="M720-16l121.82 149.891 386.578-48.344z"/><path fill="#C1C4C9" d="M1228.398 85.547l164.157 303.258 27.445-404.805z"/><path fill="#2D2109" d="M958.949 775.66l-48.031 118.324 332.387-170.039z"/><path fill="#382715" d="M1096.539 690.949l-137.59 84.711 284.356-51.715z"/><path fill="#1E1A19" d="M1392.555 388.805l-128.746 4.547 132.804 8.703z"/><path fill="#583C2E" d="M1255.863 383.926l-46.679 251.527 54.625-242.101z"/><path fill="#2E2619" d="M1210.59 635.996l33.937-18.055 3.817-7.597z"/><path fill="#1F1B12" d="M1209.184 635.453l1.406.543 37.754-25.652z"/><path fill="#483725" d="M1209.184 635.453l39.16-25.109 15.465-216.992z"/><path fill="#CFD0D4" d="M1228.398 85.547l-119.441 193.461 146.906 104.918z"/><path fill="#9CA2B0" d="M1108.957 279.008l-128.031 80.164 274.937 24.754z"/><path fill="#453736" d="M980.926 359.172l228.258 276.281 46.679-251.527z"/><path fill="#2C1D16" d="M1210.59 635.996l32.715 87.949 25.664-4.824z"/><path fill="#2D2D15" d="M1244.527 617.941l-33.937 18.055 58.379 83.125z"/><path fill="#A0A1A6" d="M1255.863 383.926l7.946 9.426 128.746-4.547z"/><path fill="#BDC0C5" d="M1228.398 85.547l27.465 298.379 136.692 4.879z"/><path fill="#45372E" d="M1248.344 610.344l20.625 108.777 151.031-268.621z"/><path fill="#1A0B10" d="M1268.969 719.121l126.695 184.879 24.336-453.5z"/><path fill="#565044" d="M1243.305 723.945l-332.387 170.039 484.746 10.016z"/><path fill="#281F18" d="M1268.969 719.121l-25.664 4.824 152.359 180.055z"/><path fill="#fff" d="M720-16l508.398 101.547 191.602-101.547z"/></svg>