<svg xmlns="http://www.w3.org/2000/svg" width="1440" height="900" viewBox="0 0 1440 900"><path fill="#1F1F1F" d="M0 0h1440v900h-1440z"/><path fill="#607443" d="M33.707 748.5l2.305 8.711 1.082-9.133z"/><path fill="#6B7253" d="M1406.406 592.211l-2.781 163.144 16.375 161.645z"/><path fill="#2C361D" d="M33.707 748.5l-2.031 111.742 3.078-23.84z"/><path fill="#604228" d="M35.203 844.863l-3.527 15.379 7.625-6.808z"/><path fill="#FAFBF5" d="M608.004 346.621l114.516 4.172 3.902-5.492z"/><path fill="#260704" d="M1399.156 791.352l-12.547 12.343 33.391 113.305z"/><path fill="#101204" d="M1386.609 803.695l-19.675 74.215 53.066 39.09z"/><path fill="#3D390C" d="M1366.934 877.91l.355 7.445 52.711 31.645z"/><path fill="#2A1709" d="M34.754 836.402l-3.078 23.84 3.527-15.379z"/><path fill="#261606" d="M20 917l11.676-56.758 2.031-111.742z"/><path fill="#522F11" d="M20 450.5l17.23 84.039 3.633 5.688z"/><path fill="#9C7E58" d="M36.012 757.211l-1.258 79.191 2.992-73.789z"/><path fill="#76543B" d="M33.707 748.5l1.047 87.902 1.258-79.191z"/><path fill="#887B75" d="M31.676 860.242l-11.676 56.758 19.301-63.566z"/><path fill="#351903" d="M20 450.5l13.707 298 3.523-213.961z"/><path fill="#716C42" d="M45.23 758.102l8.504 10.765 1.758-10.289z"/><path fill="#262729" d="M37.23 534.539l16.27 76.738 1.344-13.918z"/><path fill="#2A1C11" d="M34.754 836.402l.449 8.461 4.098 8.571z"/><path fill="#DCE1DB" d="M55.973 309.891l-35.973 140.609 56.645-142.043z"/><path fill="#E2E4E3" d="M141.953 157.199l-50.5 139.516 52.445-33.996z"/><path fill="#544725" d="M45.367 772.039l-10.613 64.363 18.031-54.238z"/><path fill="#6E5630" d="M55.492 758.578l-1.758 10.289 5.028 27.879z"/><path fill="#664B2D" d="M37.746 762.613l6.551 6.582.933-11.093z"/><path fill="#513C0D" d="M36.012 757.211l1.734 5.402 7.484-4.511z"/><path fill="#855C3E" d="M44.297 769.195l-6.551-6.582 7.621 9.426z"/><path fill="#807547" d="M37.746 762.613l-2.992 73.789 10.613-64.363z"/><path fill="#3E3E4A" d="M40.863 540.227l-3.633-5.688 17.614 62.82z"/><path fill="#AA988C" d="M36.012 757.211l9.218.891.844-3.567z"/><path fill="#2C2829" d="M33.707 748.5l3.387-.422 16.406-136.801z"/><path fill="#9C987F" d="M37.094 748.078l-1.082 9.133 10.062-2.676z"/><path fill="#7C6C39" d="M53.734 768.867l-.949 13.297 5.977 14.582z"/><path fill="#64471F" d="M46.074 754.535l-.844 3.567 10.262.476z"/><path fill="#3C3D41" d="M37.23 534.539l-3.523 213.961 19.793-137.223z"/><path fill="#AA8863" d="M45.367 772.039l7.418 10.125.949-13.297z"/><path fill="#3B3736" d="M54.844 597.359l-1.344 13.918 36.777-9.039z"/><path fill="#7E5C39" d="M45.23 758.102l-.933 11.093 9.437-.328z"/><path fill="#AA8656" d="M44.297 769.195l1.07 2.844 8.367-3.172z"/><path fill="#321F10" d="M37.094 748.078l8.98 6.457 9.418 4.043z"/><path fill="#140903" d="M39.301 853.434l-19.301 63.566 184.676-19.391z"/><path fill="#E4E5E0" d="M20-16v466.5l35.973-140.609z"/><path fill="#A7A359" d="M55.492 758.578l3.27 38.168 85.629-101.242z"/><path fill="#6F778E" d="M20-16l121.953 173.199 35.942-35.191z"/><path fill="#DFDFDD" d="M55.973 309.891l35.48-13.176 50.5-139.516z"/><path fill="#241706" d="M34.754 836.402l4.547 17.032 19.461-56.688z"/><path fill="#635C42" d="M52.785 782.164l-18.031 54.238 24.008-39.656z"/><path fill="#DCDDD8" d="M20-16l35.973 325.891 85.98-152.692z"/><path fill="#443514" d="M1367.289 885.355l.004 2.348 52.707 29.297z"/><path fill="#563B2A" d="M273.312 678.859l7.102-.808.508-36.973z"/><path fill="#242021" d="M40.863 540.227l13.981 57.132 35.433 4.879z"/><path fill="#B6BFC6" d="M143.898 262.719l84.793 61.125 8.754-35.059z"/><path fill="#F9F9F7" d="M55.973 309.891l20.672-1.434 14.808-11.742z"/><path fill="#49484E" d="M90.277 602.238l-36.777 9.039 90.891 84.227z"/><path fill="#272322" d="M53.5 611.277l-16.406 136.801 107.297-52.574z"/><path fill="#875B3E" d="M37.094 748.078l18.398 10.5 88.899-63.074z"/><path fill="#777D93" d="M20-16l157.895 138.008 104.257-1.324z"/><path fill="#22210D" d="M58.762 796.746l145.914 100.863 56.414-112.601z"/><path fill="#371E08" d="M58.762 796.746l-19.461 56.688 165.375 44.175z"/><path fill="#EAEBE6" d="M143.898 262.719l-52.445 33.996 137.238 27.129z"/><path fill="#000100" d="M76.645 308.457l-56.645 142.043 208.691-126.656z"/><path fill="#FBFBFB" d="M91.453 296.715l-14.808 11.742 152.046 15.387z"/><path fill="#7E6256" d="M20 450.5l20.863 89.727 187.828-216.383z"/><path fill="#201815" d="M40.863 540.227l49.414 62.011 138.414-278.394z"/><path fill="#DFDFE1" d="M177.895 122.008l-35.942 35.191 95.492 131.586z"/><path fill="#FFFFFD" d="M141.953 157.199l1.945 105.52 93.547 26.066z"/><path fill="#2A1814" d="M319.832 768.668l6.184 89.719 18.261-74.383z"/><path fill="#F3F3F3" d="M307.098 160.594l-.641-.34 2.231 13.387z"/><path fill="#B2977C" d="M144.391 695.504l-85.629 101.242 202.328-11.738z"/><path fill="#856741" d="M144.391 695.504l116.699 89.504 1.484-55.965z"/><path fill="#A89D7F" d="M273.312 678.859l-10.738 50.184 17.84-50.992z"/><path fill="#382514" d="M144.391 695.504l118.183 33.539 10.738-50.184z"/><path fill="#2B1F09" d="M320.465 767.43l-.633 1.238 24.445 15.336z"/><path fill="#35271A" d="M280.414 678.051l40.051 89.379 23.812 16.574z"/><path fill="#452C0D" d="M344.277 784.004l36.524 65.289 179.109-46.223z"/><path fill="#504E4F" d="M144.391 695.504l128.921-16.645 7.61-37.781z"/><path fill="#3F2D23" d="M283.02 628.742l-2.098 12.336 2.539-1.012z"/><path fill="#120B05" d="M280.922 641.078l-.508 36.973 3.047-37.985z"/><path fill="#160C0B" d="M228.691 323.844l-138.414 278.394 192.743 26.504z"/><path fill="#A4ABB3" d="M306.457 160.254l-128.562-38.246 130.793 51.633z"/><path fill="#F9F9F7" d="M177.895 122.008l59.55 166.777 71.243-115.144z"/><path fill="#42382F" d="M90.277 602.238l54.114 93.266 138.629-66.762z"/><path fill="#595951" d="M144.391 695.504l136.531-54.426 2.098-12.336z"/><path fill="#A3A8AE" d="M282.152 120.684l24.305 39.57.641.34z"/><path fill="#767E93" d="M282.152 120.684l-104.257 1.324 128.562 38.246z"/><path fill="#2B1F13" d="M380.801 849.293l-21.809 41.758 33.985-22.207z"/><path fill="#473D33" d="M280.414 678.051l-17.84 50.992 53.418 37.769z"/><path fill="#4F3B34" d="M262.574 729.043l-1.484 55.965 54.902-18.196z"/><path fill="#463525" d="M315.992 766.812l-54.902 18.196 58.742-16.34z"/><path fill="#FCFCFA" d="M356.211 329.285l6.133 23.305 4.383-23.778z"/><path fill="#492E1D" d="M315.992 766.812l3.84 1.856.633-1.238z"/><path fill="#63500E" d="M280.414 678.051l35.578 88.761 4.473.618z"/><path fill="#170900" d="M326.016 858.387l-121.34 39.222 121.5-38.464z"/><path fill="#131007" d="M326.176 859.145l-121.5 38.464 154.316-6.558z"/><path fill="#1B170C" d="M319.832 768.668l-58.742 16.34 64.926 73.379z"/><path fill="#3B3220" d="M261.09 785.008l-56.414 112.601 121.34-39.222z"/><path fill="#A0AAB4" d="M366.727 328.812l109.992 55.45 37.687-166.555z"/><path fill="#1F120A" d="M326.016 858.387l.16.758 18.101-75.141z"/><path fill="#C6C7CC" d="M308.688 173.641l-71.243 115.144 118.766 40.5z"/><path fill="#53321F" d="M283.461 640.066l-3.047 37.985 63.863 105.953z"/><path fill="#BCBFC6" d="M308.688 173.641l47.523 155.644 10.516-.473z"/><path fill="#F8F7F5" d="M356.211 329.285l-127.52-5.441 133.653 28.746z"/><path fill="#F8F9F4" d="M237.445 288.785l-8.754 35.059 127.52 5.441z"/><path fill="#C2C7CD" d="M552.34 152.762l-37.934 64.945 93.598 128.914z"/><path fill="#130E08" d="M1367.293 887.703l-18.238 15.629 70.945 13.668z"/><path fill="#F2F3ED" d="M455.18 104.91l-148.082 55.684 165.922-2.77z"/><path fill="#6C5F32" d="M228.691 323.844l54.329 304.898 79.324-276.152z"/><path fill="#fff" d="M307.098 160.594l1.59 13.047 164.332-15.817z"/><path fill="#1B0D04" d="M344.277 784.004l-18.101 75.141 54.625-9.852z"/><path fill="#271A12" d="M326.176 859.145l32.816 31.906 21.809-41.758z"/><path fill="#D7D7D9" d="M308.688 173.641l58.039 155.171 106.293-170.988z"/><path fill="#BDC0C5" d="M552.34 152.762l155.195-3.996 12.465-164.766z"/><path fill="#777F96" d="M20-16l262.152 136.684 173.028-15.774z"/><path fill="#ADB1BC" d="M282.152 120.684l24.946 39.91 148.082-55.684z"/><path fill="#F6F5F1" d="M366.727 328.812l-4.383 23.778 114.375 31.672z"/><path fill="#DBDBDB" d="M473.02 157.824l-106.293 170.988 147.679-111.105z"/><path fill="#342C21" d="M362.344 352.59l-79.324 276.152 193.699-244.48z"/><path fill="#A6AAB6" d="M455.18 104.91l97.16 47.852 167.66-168.762z"/><path fill="#9CA2AE" d="M20-16l435.18 120.91 264.82-120.91z"/><path fill="#1B100C" d="M476.719 384.262l-193.699 244.48 256.64-152.472z"/><path fill="#EEEEEC" d="M473.02 157.824l41.386 59.883 37.934-64.945z"/><path fill="#525355" d="M283.02 628.742l.441 11.324 263.262-156.062z"/><path fill="#E1E7DD" d="M539.66 476.27l-256.64 152.472 263.703-144.738z"/><path fill="#A4A7AE" d="M455.18 104.91l17.84 52.914 79.32-5.062z"/><path fill="#573D22" d="M631.098 642.344l-71.188 160.726 107.559 10.961z"/><path fill="#170E09" d="M539.66 476.27l7.063 7.734 6.64-1.133z"/><path fill="#F4F3EE" d="M604.73 362.219l.442.933 2.832-16.531z"/><path fill="#BCBBB6" d="M578.336 481.246l-17.555 2.578 70.317 158.52z"/><path fill="#1F0D03" d="M380.801 849.293l12.176 19.551 166.933-65.774z"/><path fill="#BAB9BE" d="M514.406 217.707l-37.687 166.555 131.285-37.641z"/><path fill="#190F0D" d="M553.363 482.871l-6.64 1.133 14.058-.18z"/><path fill="#413E39" d="M539.66 476.27l13.703 6.601 24.547-26.715z"/><path fill="#423930" d="M476.719 384.262l101.191 71.894 11.746-75.988z"/><path fill="#A0A0A2" d="M476.719 384.262l62.941 92.008 38.25-20.114z"/><path fill="#3D3131" d="M576.648 472.75l1.688 8.496.41-15.266z"/><path fill="#4D484E" d="M577.91 456.156l-17.129 27.668 17.965-17.844z"/><path fill="#312624" d="M553.363 482.871l7.418.953 17.129-27.668z"/><path fill="#3A302F" d="M560.781 483.824l15.867-11.074 2.098-6.77z"/><path fill="#EDECE8" d="M589.656 380.168l15.074-17.949 3.274-15.598z"/><path fill="#3B322B" d="M576.648 472.75l-15.867 11.074 17.555-2.578z"/><path fill="#CED9DD" d="M476.719 384.262l112.937-4.094 18.348-33.547z"/><path fill="#D6DADB" d="M604.73 362.219l-15.074 17.949 15.516-17.016z"/><path fill="#4C3E35" d="M589.656 380.168l-11.746 75.988 27.262-93.004z"/><path fill="#F3F3F1" d="M552.34 152.762l55.664 193.859 99.531-197.855z"/><path fill="#7E7674" d="M546.723 484.004l-263.262 156.062 347.637 2.278z"/><path fill="#28150F" d="M283.461 640.066l60.816 143.938 286.821-141.66z"/><path fill="#3F3124" d="M344.277 784.004l215.633 19.066 71.188-160.726z"/><path fill="#342D1A" d="M1403.625 755.355l-4.469 35.997 20.844 125.648z"/><path fill="#A28D70" d="M762.957 495.605l11.77 8.61 4.136-1.922z"/><path fill="#D8D7D3" d="M560.781 483.824l-14.058.18 84.375 158.34z"/><path fill="#B9C0CA" d="M707.535 148.766l-99.531 197.855 118.418-1.32z"/><path fill="#545051" d="M578.336 481.246l52.762 161.098 52.824-38.739z"/><path fill="#483723" d="M683.922 603.605l-52.824 38.739 54.687-32.078z"/><path fill="#5C442A" d="M754.664 513.762l5.731-2.192 2.562-15.965z"/><path fill="#3D2D20" d="M767.824 480.77l-4.867 14.835 15.906 6.688z"/><path fill="#837D7D" d="M578.336 481.246l105.586 122.359 9.504-4.363z"/><path fill="#D5C4B0" d="M683.922 603.605l1.863 6.661 7.641-11.024z"/><path fill="#392820" d="M700.082 897.512l-307.105-28.668 327.023 48.156z"/><path fill="#4A3021" d="M760.395 511.57l-5.731 2.192 7.57 8.398z"/><path fill="#2F2212" d="M559.91 803.07l-166.933 65.774 307.105 28.668z"/><path fill="#3A281A" d="M729.988 772.379l2.086 6.527 16.735 3.731z"/><path fill="#281B0A" d="M667.469 814.031l-107.559-10.961 140.738 85.735z"/><path fill="#381F1A" d="M559.91 803.07l140.172 94.442.566-8.707z"/><path fill="#3B2316" d="M392.977 868.844l-33.985 22.207 361.008 25.949z"/><path fill="#565342" d="M700.648 888.805l-.566 8.707 8.52-.094z"/><path fill="#2B2823" d="M1360.277 533.344l8.164 57.937 37.965.93z"/><path fill="#6C6014" d="M708.602 897.418l-8.52.094 19.918 19.488z"/><path fill="#3A2917" d="M769.656 684.547l-39.668 87.832 56.137 4.035z"/><path fill="#E2E2E0" d="M608.004 346.621l-2.832 16.531 117.348-12.359z"/><path fill="#1F1619" d="M605.172 363.152l-27.262 93.004 144.61-105.363z"/><path fill="#382916" d="M732.074 778.906l-31.426 109.899 48.161-106.168z"/><path fill="#2B200E" d="M729.988 772.379l-62.519 41.652 64.605-35.125z"/><path fill="#785A42" d="M578.746 465.98l184.211 29.625 4.867-14.835z"/><path fill="#4A3B34" d="M631.098 642.344l36.371 171.687 62.519-41.652z"/><path fill="#3E3232" d="M577.91 456.156l.836 9.824 189.078 14.79z"/><path fill="#6F573B" d="M667.469 814.031l33.179 74.774 31.426-109.899z"/><path fill="#45331F" d="M700.648 888.805l7.954 8.613 40.207-114.781z"/><path fill="#4C4026" d="M762.957 495.605l-2.562 15.965 9.917-7.41z"/><path fill="#5E5220" d="M578.746 465.98l-.41 15.266 176.328 32.516z"/><path fill="#271A12" d="M578.336 481.246l115.09 117.996 61.238-85.48z"/><path fill="#3C3228" d="M754.664 513.762l-61.238 85.48 68.808-77.082z"/><path fill="#7E694C" d="M774.727 504.215l-12.493 17.945 16.629-19.867z"/><path fill="#D7C8AB" d="M722.52 350.793l-144.61 105.363 189.914 24.614z"/><path fill="#3B3118" d="M578.746 465.98l175.918 47.782 8.293-18.157z"/><path fill="#685334" d="M770.312 504.16l-8.078 18 12.493-17.945z"/><path fill="#5B5438" d="M762.957 495.605l7.355 8.555 4.415.055z"/><path fill="#35241A" d="M786.125 776.414l-37.316 6.223 38.464-1.797z"/><path fill="#534B24" d="M762.234 522.16l-68.808 77.082 76.23 85.305z"/><path fill="#67512A" d="M693.426 599.242l-7.641 11.024 83.871 74.281z"/><path fill="#7C5A3E" d="M685.785 610.266l-54.687 32.078 138.558 42.203z"/><path fill="#423026" d="M631.098 642.344l98.89 130.035 39.668-87.832z"/><path fill="#967B60" d="M830.934 449.797l-19.793.832 21.738 6.125z"/><path fill="#211C18" d="M760.395 511.57l1.839 10.59 8.078-18z"/><path fill="#1C110B" d="M729.988 772.379l18.821 10.258 37.316-6.223z"/><path fill="#382924" d="M748.809 782.637l-40.207 114.781 78.671-116.578z"/><path fill="#48362C" d="M708.602 897.418l11.398 19.582 67.273-136.16z"/><path fill="#473622" d="M905.059 500.652l-52.485 8.485 62.864-6.942z"/><path fill="#D6DEE1" d="M707.535 148.766l18.887 196.535 60.523-204.406z"/><path fill="#B7BAC3" d="M720-16l-12.465 164.766 79.41-7.871z"/><path fill="#463730" d="M893.719 492.418l11.34 8.234 10.379 1.543z"/><path fill="#EDE7DB" d="M877.633 242.723l-44.973 192.324 53.352-11.02z"/><path fill="#382F20" d="M767.824 480.77l11.039 21.523 32.278-51.664z"/><path fill="#4C4241" d="M722.52 350.793l45.304 129.977 43.317-30.141z"/><path fill="#604743" d="M726.422 345.301l-3.902 5.492 97.328 94.16z"/><path fill="#64523A" d="M722.52 350.793l88.621 99.836 8.707-5.676z"/><path fill="#5F4A35" d="M824.059 444.965l-4.211-.012 11.086 4.844z"/><path fill="#74624C" d="M819.848 444.953l-8.707 5.676 19.793-.832z"/><path fill="#4F3D29" d="M893.719 492.418l-35.524 13.008 46.864-4.774z"/><path fill="#C0C1C6" d="M720-16l66.945 156.895 54.875-7.004z"/><path fill="#816C3D" d="M819.848 444.953l12.175-8.039.637-1.867z"/><path fill="#615040" d="M726.422 345.301l93.426 99.652 12.812-9.906z"/><path fill="#625038" d="M819.848 444.953l4.211.012 7.964-8.051z"/><path fill="#615235" d="M824.059 444.965l6.875 4.832 1.089-12.883z"/><path fill="#6C5631" d="M832.66 435.047l-.637 1.867.856 19.84z"/><path fill="#836950" d="M832.023 436.914l-1.089 12.883 1.945 6.957z"/><path fill="#443122" d="M836.609 491.277l-57.746 11.016 73.711 6.844z"/><path fill="#8C6B3E" d="M832.879 456.754l3.73 34.523 10.641-10.285z"/><path fill="#352211" d="M1158.145 676.449l-.067 2.676 2.984-2.937z"/><path fill="#5A524F" d="M832.879 456.754l-21.738-6.125 25.468 40.648z"/><path fill="#100806" d="M811.141 450.629l-32.278 51.664 57.746-11.016z"/><path fill="#463929" d="M1041.52 746.074l-117.489-19.883 125.629 37.782z"/><path fill="#F8F9F4" d="M762.234 522.16l7.422 162.387 82.918-175.41z"/><path fill="#545033" d="M778.863 502.293l-16.629 19.867 90.34-13.023z"/><path fill="#524229" d="M836.609 491.277l15.965 17.86 5.621-3.711z"/><path fill="#574435" d="M847.25 480.992l-10.641 10.285 21.586 14.149z"/><path fill="#926F53" d="M832.879 456.754l14.371 24.238 38.762-56.965z"/><path fill="#797279" d="M832.66 435.047l.219 21.707 53.133-32.727z"/><path fill="#CBCCC7" d="M726.422 345.301l106.238 89.746 44.973-192.324z"/><path fill="#EAEAEA" d="M786.945 140.895l-60.523 204.406 151.211-102.578z"/><path fill="#D5D6DB" d="M841.82 133.891l-54.875 7.004 90.688 101.828z"/><path fill="#534329" d="M769.656 684.547l150.383 44.832 3.992-3.188z"/><path fill="#584534" d="M886.012 424.027l15.246 10.047 2.734-10.199z"/><path fill="#624A32" d="M847.25 480.992l10.945 24.434 35.524-13.008z"/><path fill="#D4D4D6" d="M841.82 133.891l35.813 108.832 25.648 5.375z"/><path fill="#241913" d="M1089.371 547.492l2.02.258.035-4.91z"/><path fill="#6C532B" d="M847.25 480.992l46.469 11.426 7.539-58.344z"/><path fill="#3A302F" d="M886.012 424.027l-38.762 56.965 54.008-46.918z"/><path fill="#55472D" d="M858.195 505.426l-5.621 3.711 52.485-8.485z"/><path fill="#615025" d="M852.574 509.137l-82.918 175.41 154.375 41.644z"/><path fill="#3F302D" d="M920.039 729.379l-132.766 51.461 170.598 123.129z"/><path fill="#7B6146" d="M901.258 434.074l-7.539 58.344 21.719 9.777z"/><path fill="#6A5552" d="M939.996 393l9.02-1.711 4.988-8.246z"/><path fill="#ADADB7" d="M903.281 248.098l36.715 144.902 14.008-9.957z"/><path fill="#1B100A" d="M787.273 780.84l-67.273 136.16 237.871-13.031z"/><path fill="#1E180A" d="M769.656 684.547l16.469 91.867 133.914-47.035z"/><path fill="#1E0C00" d="M786.125 776.414l1.148 4.426 132.766-51.461z"/><path fill="#E1DAD2" d="M877.633 242.723l8.379 181.304 53.984-31.027z"/><path fill="#ABAFBB" d="M903.281 248.098l-25.648-5.375 62.363 150.277z"/><path fill="#4A433D" d="M886.012 424.027l17.98-.152 36.004-30.875z"/><path fill="#6D5749" d="M903.992 423.875l-2.734 10.199 38.738-41.074z"/><path fill="#483934" d="M939.996 393l-38.738 41.074 47.758-42.785z"/><path fill="#565553" d="M901.258 434.074l14.18 68.121 33.578-110.906z"/><path fill="#353F1C" d="M1394.965 790.082l4.191 1.27 4.469-35.997z"/><path fill="#211B0F" d="M1029.922 898.082l-4.731 4.473 9.907.519z"/><path fill="#B0B2AF" d="M954.004 383.043l-4.988 8.246 12.761-7.824z"/><path fill="#2B1A12" d="M1088 540.293l1.371 7.199 2.055-4.652z"/><path fill="#B3B2B8" d="M903.281 248.098l50.723 134.945 7.773.422z"/><path fill="#645433" d="M1079.105 492.18l-20.226-13.032 21.156 15.067z"/><path fill="#312016" d="M1379.07 672.125l-31.328-10.766 55.508 90.899z"/><path fill="#5B5652" d="M920.039 729.379l37.832 174.59 10.176-2.149z"/><path fill="#2C1F16" d="M915.438 502.195l-62.864 6.942 141.008 144.765z"/><path fill="#635725" d="M852.574 509.137l71.457 217.054 69.551-72.289z"/><path fill="#3B4312" d="M968.047 901.82l57.144.735 4.731-4.473z"/><path fill="#39271B" d="M993.582 653.902l43.762-2.398 21.84-17.051z"/><path fill="#210F01" d="M1029.922 898.082l24.66.414 3.606-126.215z"/><path fill="#26150B" d="M1049.66 763.973l-19.738 134.109 28.266-125.801z"/><path fill="#3F352C" d="M924.031 726.191l-3.992 3.188 129.621 34.594z"/><path fill="#4C3C2D" d="M1037.344 651.504l-43.762 2.398 47.938 92.172z"/><path fill="#45301F" d="M993.582 653.902l-69.551 72.289 117.489 19.883z"/><path fill="#36312B" d="M1161.902 380.141l-24.652 125.562 70.98-126.328z"/><path fill="#121003" d="M1148.941 891.27l.043 3.328.164-1.536z"/><path fill="#4A3F1F" d="M920.039 729.379l48.008 172.441 81.613-137.847z"/><path fill="#3B3714" d="M968.047 901.82l61.875-3.738 19.738-134.109z"/><path fill="#848478" d="M1029.922 898.082l5.176 4.992 19.484-4.578z"/><path fill="#4F4333" d="M1035.098 903.074l3.433 1.649 16.051-6.227z"/><path fill="#504A1A" d="M1075.27 765.355l-17.082 6.926 20.808-1.996z"/><path fill="#705F41" d="M1091.391 547.75l-32.207 86.703 62.504-10.387z"/><path fill="#8F6B47" d="M949.016 391.289l-33.578 110.906 143.441-23.047z"/><path fill="#473D3B" d="M961.777 383.465l-12.761 7.824 109.863 87.859z"/><path fill="#3D3327" d="M1121.688 624.066l36.457 52.383 2.917-.261z"/><path fill="#47321F" d="M1041.52 746.074l8.14 17.899 25.61 1.382z"/><path fill="#5A4F3B" d="M1049.66 763.973l8.528 8.308 17.082-6.926z"/><path fill="#453327" d="M1176.754 674.012l-10.793 8.234 12.855-7.308z"/><path fill="#251C15" d="M1138.23 735.953l9.743 136.41 103.246-88.437z"/><path fill="#2F2E0F" d="M1058.188 772.281l-3.606 126.215 24.414-128.211z"/><path fill="#382C20" d="M1088 540.293l3.426 2.547 20.234-31.535z"/><path fill="#594930" d="M1080.035 494.215l7.965 46.078 23.66-28.988z"/><path fill="#BBB9C4" d="M903.281 248.098l58.496 135.367 200.125-3.324z"/><path fill="#634C3C" d="M1080.035 494.215l-21.156-15.067 29.121 61.145z"/><path fill="#393124" d="M1088 540.293l-94.418 113.609 95.789-106.41z"/><path fill="#3D3332" d="M915.438 502.195l78.144 151.707 94.418-113.609z"/><path fill="#7D6C50" d="M1058.879 479.148l-143.441 23.047 172.562 38.098z"/><path fill="#595343" d="M993.582 653.902l65.602-19.449 30.187-86.961z"/><path fill="#241615" d="M1089.371 547.492l-30.187 86.961 32.207-86.703z"/><path fill="#685B31" d="M1178.816 674.938l-12.855 7.308 23.973 4.875z"/><path fill="#B5A79E" d="M1111.66 511.305l15.227-.606 10.363-4.996z"/><path fill="#4E4546" d="M1079.105 492.18l.93 2.035 31.625 17.09z"/><path fill="#241B16" d="M1091.391 547.75l30.297 76.316 5.199-113.367z"/><path fill="#413424" d="M1111.66 511.305l-20.234 31.535 35.461-32.141z"/><path fill="#5B493D" d="M1091.426 542.84l-.035 4.91 35.496-37.051z"/><path fill="#594C44" d="M961.777 383.465l97.102 95.683 103.023-99.007z"/><path fill="#624837" d="M1079.105 492.18l32.555 19.125 25.59-5.602z"/><path fill="#48321A" d="M1243.305 723.945l8.574 31.961 2.426-10.051z"/><path fill="#453A24" d="M1075.27 765.355l62.96-29.402 6.551-23.281z"/><path fill="#2C2723" d="M1075.27 765.355l3.726 4.93 59.234-34.332z"/><path fill="#3D2D1D" d="M1037.344 651.504l4.176 94.57 103.261-33.402z"/><path fill="#584534" d="M1059.184 634.453l-21.84 17.051 107.437 61.168z"/><path fill="#503F2D" d="M1041.52 746.074l33.75 19.281 69.511-52.683z"/><path fill="#676968" d="M1138.23 735.953l-59.234 34.332 68.977 102.078z"/><path fill="#905430" d="M1078.996 770.285l-24.414 128.211 93.391-26.133z"/><path fill="#292218" d="M1148.941 891.27l-94.359 7.226 94.402-3.898z"/><path fill="#302C0F" d="M1054.582 898.496l-16.051 6.227 110.453-10.125z"/><path fill="#140B06" d="M1305.289 894.902l2.906-.168 1.559-2.484z"/><path fill="#1F1808" d="M1147.973 872.363l-93.391 26.133 94.359-7.226z"/><path fill="#3C1F00" d="M1295.059 877.609l10.23 17.293 4.465-2.652z"/><path fill="#3D3125" d="M1121.688 624.066l-62.504 10.387 90.789 67.809z"/><path fill="#4A3D1D" d="M1059.184 634.453l85.597 78.219 5.192-10.41z"/><path fill="#362720" d="M1149.973 702.262l-5.192 10.41 10.848-4.543z"/><path fill="#392D1F" d="M1144.781 712.672l-6.551 23.281 17.399-27.824z"/><path fill="#4F3F1B" d="M1165.961 682.246l-8.426 19.902 18.531 5.465z"/><path fill="#4D3B2D" d="M1079.105 492.18l58.145 13.523 24.652-125.562z"/><path fill="#53423B" d="M1058.879 479.148l20.226 13.032 82.797-112.039z"/><path fill="#302418" d="M1149.973 702.262l5.656 5.867 1.906-5.981z"/><path fill="#371C13" d="M1149.973 702.262l8.105-23.137.067-2.676z"/><path fill="#8E6523" d="M1149.973 702.262l7.562-.114.543-23.023z"/><path fill="#594D23" d="M1121.688 624.066l28.285 78.196 8.172-25.813z"/><path fill="#413117" d="M1165.961 682.246l10.105 25.367 13.868-20.492z"/><path fill="#674313" d="M1233.117 585.035l-2.668 6.61 4.735-8.09z"/><path fill="#806E40" d="M1158.078 679.125l-.543 23.023 8.426-19.902z"/><path fill="#9F7418" d="M1161.062 676.188l-2.984 2.937 7.883 3.121z"/><path fill="#352D16" d="M1157.535 702.148l-1.906 5.981 20.437-.516z"/><path fill="#2D1E19" d="M1235.184 583.555l21.976 6.191 6.188-22.055z"/><path fill="#43301F" d="M1155.629 708.129l-17.399 27.824 37.836-28.34z"/><path fill="#524518" d="M1161.062 676.188l4.899 6.058 10.793-8.234z"/><path fill="#1B120D" d="M1213.004 561.875l8.855 6.215 1.293-.598z"/><path fill="#382720" d="M1121.688 624.066l39.374 52.122 15.692-2.176z"/><path fill="#19110F" d="M1212.809 555.039l-85.922-44.34 86.117 51.176z"/><path fill="#E5E5E5" d="M841.82 133.891l61.461 114.207 325.117-162.551z"/><path fill="#7B5C23" d="M1233.297 582.766l-.18 2.269 2.067-1.48z"/><path fill="#1B1110" d="M1212.809 555.039l.195 6.836 10.148 5.617z"/><path fill="#C8C7CC" d="M1161.902 380.141l46.328-.766 20.168-293.828z"/><path fill="#453C3D" d="M1137.25 505.703l-10.363 4.996 85.922 44.34z"/><path fill="#242112" d="M1251.879 755.906l10.273 16.442.504-2.457z"/><path fill="#1C1211" d="M1126.887 510.699l-5.199 113.367 91.316-62.191z"/><path fill="#D1D1D3" d="M903.281 248.098l258.621 132.043 66.496-294.594z"/><path fill="#16110B" d="M1379.07 672.125l24.18 80.133 3.156-160.047z"/><path fill="#FEFEFE" d="M720-16l121.82 149.891 386.578-48.344z"/><path fill="#463517" d="M1213.004 561.875l-91.316 62.191 95.992-33.351z"/><path fill="#3D322C" d="M1176.754 674.012l2.062.926 38.864-84.223z"/><path fill="#2F271A" d="M1121.688 624.066l55.066 49.946 40.926-83.297z"/><path fill="#19110E" d="M1213.004 561.875l4.676 28.84 4.179-22.625z"/><path fill="#262014" d="M1223.152 567.492l-1.293.598 11.438 14.676z"/><path fill="#5F3E1B" d="M1217.68 590.715l15.437-5.68.18-2.269z"/><path fill="#20160D" d="M1217.68 590.715l-38.864 84.223 51.633-83.293z"/><path fill="#281F16" d="M1178.816 674.938l11.118 12.183 40.515-95.476z"/><path fill="#615142" d="M1221.859 568.09l-4.179 22.625 15.617-7.949z"/><path fill="#3B3513" d="M1217.68 590.715l12.769.93 2.668-6.61z"/><path fill="#231B0E" d="M1264.836 767.238l-2.684 5.11 9.996-7.536z"/><path fill="#382217" d="M1223.152 567.492l10.145 15.274 1.887.789z"/><path fill="#825047" d="M1208.23 379.375l53.395 53.398 20.996-45.976z"/><path fill="#645C38" d="M1189.934 687.121l-13.868 20.492 67.239 16.332z"/><path fill="#4F380C" d="M1275.371 893.609l-126.387.989 128.243 7.168z"/><path fill="#423B1F" d="M1251.879 755.906l12.957 11.332 7.312-2.426z"/><path fill="#30231D" d="M1223.152 567.492l12.032 16.063 28.164-15.864z"/><path fill="#563C1B" d="M1138.23 735.953l112.989 47.973.66-28.02z"/><path fill="#463F39" d="M1176.066 707.613l-37.836 28.34 113.649 19.953z"/><path fill="#45351C" d="M1137.25 505.703l75.559 49.336 38.773-42.23z"/><path fill="#CACBCF" d="M1228.398 85.547l-20.168 293.828 74.391 7.422z"/><path fill="#3D301D" d="M1243.305 723.945l-67.239-16.332 75.813 48.293z"/><path fill="#664631" d="M1137.25 505.703l114.332 7.106 10.043-80.036z"/><path fill="#0D0F01" d="M1308.195 894.734l-.383 5.914 1.942-8.398z"/><path fill="#392919" d="M1212.809 555.039l10.343 12.453 30.004-47.703z"/><path fill="#543F22" d="M1251.582 512.809l-38.773 42.23 40.347-35.25z"/><path fill="#301B08" d="M1235.184 583.555l-4.735 8.09 26.711-1.899z"/><path fill="#463E27" d="M1251.879 755.906l10.777 13.985 2.18-2.653z"/><path fill="#362A12" d="M1230.449 591.645l-40.515 95.476 67.226-97.375z"/><path fill="#A37856" d="M1295.059 877.609l14.695 14.641 2.344-13.152z"/><path fill="#2E2311" d="M1268.969 719.121l-14.664 26.734 28.215 9.793z"/><path fill="#2B1A20" d="M1208.23 379.375l-70.98 126.328 124.375-72.93z"/><path fill="#764638" d="M1251.879 755.906l-.66 28.02 10.933-11.578z"/><path fill="#291B18" d="M1265.828 590.977l-8.668-1.231 11.809 129.375z"/><path fill="#35271A" d="M1243.305 723.945l11 21.91 14.664-26.734z"/><path fill="#292114" d="M1257.16 589.746l-67.226 97.375 79.035 32z"/><path fill="#3E2B1D" d="M1253.156 519.789l-30.004 47.703 40.196.199z"/><path fill="#573A28" d="M1189.934 687.121l53.371 36.824 25.664-4.824z"/><path fill="#251812" d="M1262.656 769.891l-.504 2.457 2.684-5.11z"/><path fill="#84755E" d="M1272.148 764.812l3.508-1.042 6.864-8.122z"/><path fill="#4C3E0F" d="M1263.348 567.691l-6.188 22.055 8.668 1.231z"/><path fill="#281E15" d="M1254.305 745.855l-2.426 10.051 20.269 8.906z"/><path fill="#2D2518" d="M1148.941 891.27l.207 1.792 126.223.547z"/><path fill="#2C2515" d="M1149.148 893.062l-.164 1.536 126.387-.989z"/><path fill="#292313" d="M1147.973 872.363l.968 18.907 126.43 2.339z"/><path fill="#5D4225" d="M1263.348 567.691l2.48 23.286 31.797 8.722z"/><path fill="#563419" d="M1147.973 872.363l127.398 21.246 5.516-13.007z"/><path fill="#5C4911" d="M1251.219 783.926l-103.246 88.437 132.914 8.239z"/><path fill="#40422A" d="M1272.148 764.812l-9.996 7.536 13.504-8.578z"/><path fill="#4C5B3C" d="M1148.984 894.598l-110.453 10.125 238.696-2.957z"/><path fill="#614C3B" d="M1347.742 661.359l22.328 125.575 33.18-34.676z"/><path fill="#9199A6" d="M1360.277 533.344l46.129 58.867 13.594-608.211z"/><path fill="#624909" d="M1312.098 879.098l9.855 5.851 10.676-3.691z"/><path fill="#2A2118" d="M1254.305 745.855l17.843 18.957 10.372-9.164z"/><path fill="#422709" d="M1251.219 783.926l29.668 96.676 14.172-2.993z"/><path fill="#2A2A1E" d="M1262.152 772.348l-10.933 11.578 43.84 93.683z"/><path fill="#1D140D" d="M1275.656 763.77l-13.504 8.578 32.907 105.261z"/><path fill="#301B00" d="M1321.953 884.949l7.176 5.348 3.5-9.039z"/><path fill="#2A2118" d="M1265.828 590.977l3.141 128.144 28.656-119.422z"/><path fill="#2C2417" d="M1360.77 848.281l-.262 6.61 1.762 9.968z"/><path fill="#251C0A" d="M1280.887 880.602l-5.516 13.007 29.918 1.293z"/><path fill="#312E1D" d="M1295.059 877.609l-14.172 2.993 24.402 14.3z"/><path fill="#070C05" d="M1275.371 893.609l1.856 8.157 28.062-6.864z"/><path fill="#313D0B" d="M1305.289 894.902l-28.062 6.864 30.585-1.118z"/><path fill="#5E5A1B" d="M1362.27 864.859l-5.325 11.844 9.989 1.207z"/><path fill="#191B03" d="M1312.098 879.098l-2.344 13.152 3.25-11.398z"/><path fill="#0D0D03" d="M1305.289 894.902l2.523 5.746.383-5.914z"/><path fill="#1D140B" d="M1339.688 561.367l-28.266 6.512 29.394-5.922z"/><path fill="#312114" d="M1253.156 519.789l10.192 47.902 48.074.188z"/><path fill="#2B2120" d="M1263.348 567.691l34.277 32.008 13.797-31.82z"/><path fill="#1B0102" d="M1342.352 884.895l-13.223 5.402 14.004.555z"/><path fill="#626343" d="M1343.133 890.852l-14.004-.555 19.926 13.035z"/><path fill="#7E6C16" d="M1321.953 884.949l-3.066.192 10.242 5.156z"/><path fill="#4E492B" d="M1332.629 881.258l9.723 3.637 3.128-15.899z"/><path fill="#1A1303" d="M1313.004 880.852l-3.25 11.398 9.133-7.109z"/><path fill="#210102" d="M1318.887 885.141l-9.133 7.109 19.375-1.953z"/><path fill="#2A1800" d="M1313.004 880.852l5.883 4.289 3.066-.192z"/><path fill="#131700" d="M1312.098 879.098l.906 1.754 8.949 4.097z"/><path fill="#3A2719" d="M1311.422 567.879l-13.797 31.82 43.191-37.742z"/><path fill="#1D1403" d="M1347.102 865.266l-1.622 3.73 2.235-1.41z"/><path fill="#1F250B" d="M1309.754 892.25l-1.942 8.398 21.317-10.351z"/><path fill="#8E8C28" d="M1342.352 884.895l.781 5.957 13.812-14.149z"/><path fill="#382517" d="M1339.688 561.367l1.128.59 19.461-28.613z"/><path fill="#705858" d="M1355.695 869.059l-7.98-1.473 9.23 9.117z"/><path fill="#310F05" d="M1347.715 867.586l-2.235 1.41 11.465 7.707z"/><path fill="#323405" d="M1345.48 868.996l-3.128 15.899 14.593-8.192z"/><path fill="#35301C" d="M1354.434 864.648l-6.719 2.938 7.98 1.473z"/><path fill="#1A220D" d="M1332.629 881.258l-3.5 9.039 13.223-5.402z"/><path fill="#726634" d="M1329.129 890.297l-21.317 10.351 41.243 2.684z"/><path fill="#21161C" d="M1360.277 533.344l-19.461 28.613 27.625 29.324z"/><path fill="#69543F" d="M1282.621 386.797l-20.996 45.976 98.652 100.571z"/><path fill="#5D5411" d="M1312.098 879.098l20.531 2.16 12.851-12.262z"/><path fill="#130000" d="M1347.102 865.266l13.406-10.375.262-6.61z"/><path fill="#7B5D27" d="M1347.102 865.266l7.332-.618 6.074-9.757z"/><path fill="#171403" d="M1312.098 879.098l33.382-10.102 1.622-3.73z"/><path fill="#483B32" d="M1251.582 512.809l1.574 6.98 107.121 13.555z"/><path fill="#453B2F" d="M1268.969 719.121l13.551 36.527 65.222-94.289z"/><path fill="#2B221B" d="M1297.625 599.699l-28.656 119.422 78.773-57.762z"/><path fill="#AAAEB7" d="M1282.621 386.797l77.656 146.547 59.723-549.344z"/><path fill="#261E1C" d="M1261.625 432.773l-10.043 80.036 108.695 20.535z"/><path fill="#180E05" d="M1347.102 865.266l.613 2.32 6.719-2.938z"/><path fill="#332313" d="M1311.422 567.879l28.266-6.512 20.589-28.023z"/><path fill="#59270C" d="M1403.25 752.258l-33.18 34.676 33.555-31.579z"/><path fill="#2C1A0E" d="M1370.07 786.934l24.895 3.148 8.66-34.727z"/><path fill="#ABAFBB" d="M1228.398 85.547l54.223 301.25 137.379-402.797z"/><path fill="#483612" d="M1253.156 519.789l58.266 48.09 48.855-34.535z"/><path fill="#222700" d="M1355.695 869.059l1.25 7.644 5.325-11.844z"/><path fill="#868028" d="M1360.508 854.891l-6.074 9.757 7.836.211z"/><path fill="#AE9B4E" d="M1275.656 763.77l19.403 113.839 65.711-29.328z"/><path fill="#2D1F05" d="M1295.059 877.609l17.039 1.489 48.672-30.817z"/><path fill="#1B280A" d="M1312.098 879.098l35.004-13.832 13.668-16.985z"/><path fill="#494134" d="M1297.625 599.699l50.117 61.66 20.699-70.078z"/><path fill="#181601" d="M1354.434 864.648l1.261 4.411 6.575-4.2z"/><path fill="#502F1C" d="M1367.289 885.355l-10.344-8.652 10.348 11z"/><path fill="#4E2D0C" d="M1356.945 876.703l-13.812 14.149 24.16-3.149z"/><path fill="#2C2219" d="M1403.25 752.258l.375 3.097 2.781-163.144z"/><path fill="#fff" d="M720-16l508.398 101.547 191.602-101.547z"/><path fill="#5B5D52" d="M1366.934 877.91l-9.989-1.207 10.344 8.652z"/><path fill="#302505" d="M1340.816 561.957l-43.191 37.742 70.816-8.418z"/><path fill="#252412" d="M1343.133 890.852l5.922 12.48 18.238-15.629z"/><path fill="#1E0C02" d="M1347.742 661.359l-65.222 94.289 87.55 31.286z"/><path fill="#20211C" d="M1368.441 591.281l-20.699 70.078 31.328 10.766z"/><path fill="#272500" d="M1394.965 790.082l-8.356 13.613 12.547-12.343z"/><path fill="#272405" d="M1282.52 755.648l-6.864 8.122 94.414 23.164z"/><path fill="#271509" d="M1275.656 763.77l85.114 84.511 9.3-61.347z"/><path fill="#453D0E" d="M1360.77 848.281l1.5 16.578 24.339-61.164z"/><path fill="#858C85" d="M1362.27 864.859l4.664 13.051 19.675-74.215z"/><path fill="#98965D" d="M1370.07 786.934l16.539 16.761 8.356-13.613z"/><path fill="#9F4D1D" d="M1370.07 786.934l-9.3 61.347 25.839-44.586z"/><path fill="#2E201F" d="M1368.441 591.281l10.629 80.844 27.336-79.914z"/></svg>