<svg xmlns="http://www.w3.org/2000/svg" width="1440" height="900" viewBox="0 0 1440 900"><path fill="#1F1F1F" d="M0 0h1440v900h-1440z"/><path fill="#0C0000" d="M1342.914 705.977l46.078 184.085 31.008 26.938z"/><path fill="#E8E9E3" d="M76.645 308.457l14.808-11.742 1.227-140.961z"/><path fill="#AFB6BC" d="M552.34 152.762l132.894 45.715 22.301-49.711z"/><path fill="#20210F" d="M1345.875 691.391l-2.961 14.586 77.086 211.023z"/><path fill="#607443" d="M33.707 748.5l2.305 8.711 1.082-9.133z"/><path fill="#302009" d="M33.707 748.5l-13.707 168.5 16.012-159.789z"/><path fill="#C9CBCA" d="M20-16l56.645 324.457 16.035-152.703z"/><path fill="#201404" d="M36.012 757.211l-16.012 159.789 17.746-154.387z"/><path fill="#2D322E" d="M44.691 704.133l-10.984 44.367 11.262-42.922z"/><path fill="#312624" d="M101.629 331.66l28.258 191.371 42.16-112.336z"/><path fill="#544143" d="M46.438 708.945l-9.344 39.133 12.781-38.793z"/><path fill="#AA988C" d="M36.012 757.211l9.218.891.844-3.567z"/><path fill="#443522" d="M172.047 410.695l-42.16 112.336 45.035-106.011z"/><path fill="#513C0D" d="M36.012 757.211l1.734 5.402 7.484-4.511z"/><path fill="#9C987F" d="M37.094 748.078l-1.082 9.133 10.062-2.676z"/><path fill="#4E494D" d="M44.969 705.578l-11.262 42.922 12.731-39.555z"/><path fill="#4E4A47" d="M33.707 748.5l3.387-.422 9.344-39.133z"/><path fill="#484445" d="M44.691 704.133l.278 1.445 4.906 3.707z"/><path fill="#2F2629" d="M44.969 705.578l1.469 3.367 3.437.34z"/><path fill="#4D3626" d="M49.875 709.285l-3.801 45.25 49.254-6.312z"/><path fill="#423C30" d="M37.094 748.078l8.98 6.457 3.801-45.25z"/><path fill="#B6C9D0" d="M20-16l13.707 764.5 42.938-440.043z"/><path fill="#252328" d="M33.707 748.5l10.984-44.367 31.954-395.676z"/><path fill="#CDD1D4" d="M92.68 155.754l-1.227 140.961 22.766 9.082z"/><path fill="#452B10" d="M138.879 520.234l-8.992 2.797 12.863 5.367z"/><path fill="#7B5D41" d="M46.074 754.535l-.844 3.567 50.098-9.879z"/><path fill="#231910" d="M142.34 888.117l-122.34 28.883 127.844-25.078z"/><path fill="#272924" d="M219.555 565.785l-38.754-20.176 45.371 31.137z"/><path fill="#826140" d="M49.875 709.285l45.453 38.938 5.32-.649z"/><path fill="#F6F9F2" d="M91.453 296.715l-14.808 11.742 24.984 23.203z"/><path fill="#D3DEE0" d="M101.629 331.66l.539.09 12.051-25.953z"/><path fill="#755836" d="M100.648 747.574l-5.32.649 12.606 2.574z"/><path fill="#F5F6F0" d="M91.453 296.715l10.176 34.945 12.59-25.863z"/><path fill="#241E1E" d="M180.801 545.609l19.179 128.297 26.192-97.16z"/><path fill="#25160F" d="M187.648 802.547l8.457-1.77.102-2.722z"/><path fill="#55565A" d="M142.75 528.398l-7.289 18.954 21.918-8.985z"/><path fill="#1E100D" d="M195.887 796.355l-8.239 6.192 8.559-4.492z"/><path fill="#363940" d="M76.645 308.457l-31.954 395.676 85.196-181.102z"/><path fill="#201B1F" d="M101.629 331.66l-24.984-23.203 53.242 214.574z"/><path fill="#716664" d="M230.254 576.031l10.625 7.989.031-8.829z"/><path fill="#1D1610" d="M129.887 523.031l-85.196 181.102 90.77-156.781z"/><path fill="#5D565E" d="M129.887 523.031l5.574 24.321 7.289-18.954z"/><path fill="#1D1513" d="M254.418 401.43l-5.949 2.308 6.832.766z"/><path fill="#837E7B" d="M264.844 541.297l-16.766 40.019 30.793-42.015z"/><path fill="#828685" d="M178.871 410.531l-3.949 6.489 10.019-11.852z"/><path fill="#5D5437" d="M37.746 762.613l-17.746 154.387 122.34-28.883z"/><path fill="#383621" d="M102.168 331.75l69.879 78.945 12.894-5.527z"/><path fill="#564823" d="M45.23 758.102l-7.484 4.511 112.039 37.582z"/><path fill="#503D2C" d="M37.746 762.613l104.594 125.504 7.445-87.922z"/><path fill="#524228" d="M107.934 750.797l-12.606-2.574 54.457 51.972z"/><path fill="#786348" d="M95.328 748.223l-50.098 9.879 104.555 42.093z"/><path fill="#7B7873" d="M138.879 520.234l3.871 8.164 14.629 9.969z"/><path fill="#C2CCD5" d="M102.168 331.75l-.539-.09 70.418 79.035z"/><path fill="#251E18" d="M129.887 523.031l8.992-2.797 36.043-103.214z"/><path fill="#CCD7D9" d="M114.219 305.797l-12.051 25.953 82.773 73.418z"/><path fill="#44332B" d="M196.105 800.777l-8.457 1.77 17.028 95.062z"/><path fill="#70788D" d="M20-16l72.68 171.754 85.215-33.746z"/><path fill="#635E65" d="M172.047 410.695l2.875 6.325 3.949-6.489z"/><path fill="#39291A" d="M296.762 748.996l-2.653 31.156 4.911-6.476z"/><path fill="#51452D" d="M187.648 802.547l-39.804 89.375 56.832 5.687z"/><path fill="#515257" d="M157.379 538.367l-21.918 8.985 45.34-1.743z"/><path fill="#FEFEFE" d="M243.199 310.836l-1.984 12.809 6.121-5.165z"/><path fill="#050100" d="M147.844 891.922l-127.844 25.078 184.676-19.391z"/><path fill="#382922" d="M328.16 715.176l12.125 4.187.188-5.09z"/><path fill="#78583F" d="M172.047 410.695l6.824-.164 6.07-5.363z"/><path fill="#110300" d="M149.785 800.195l-7.445 87.922 45.308-85.57z"/><path fill="#4E4429" d="M142.34 888.117l5.504 3.805 39.804-89.375z"/><path fill="#45342C" d="M135.461 547.352l62.949 129.765 1.57-3.211z"/><path fill="#725744" d="M149.785 800.195l37.863 2.352 8.239-6.192z"/><path fill="#101100" d="M107.934 750.797l41.851 49.398 46.102-3.84z"/><path fill="#AD9378" d="M49.875 709.285l50.773 38.289 97.762-70.457z"/><path fill="#9A7852" d="M100.648 747.574l7.286 3.223 90.476-73.68z"/><path fill="#2A201E" d="M44.691 704.133l5.184 5.152 148.535-32.168z"/><path fill="#302C2D" d="M135.461 547.352l-90.77 156.781 153.719-27.016z"/><path fill="#9D7A5E" d="M107.934 750.797l87.953 45.558 2.523-119.238z"/><path fill="#18100D" d="M180.801 545.609l-45.34 1.743 64.519 126.554z"/><path fill="#ADB0B9" d="M177.895 122.008l29.886 53.742 18.168-16.066z"/><path fill="#979FAA" d="M177.895 122.008l-85.215 33.746 115.101 19.996z"/><path fill="#E9EAE5" d="M92.68 155.754l21.539 150.043 93.562-130.047z"/><path fill="#B0B5B9" d="M366.727 328.812l29.195 1.274 5.332-44.801z"/><path fill="#3D3413" d="M340.285 719.363l-4.512 9.571 8.504 55.07z"/><path fill="#FFFEFC" d="M114.219 305.797l126.996 17.848 1.984-12.809z"/><path fill="#574531" d="M184.941 405.168l-10.019 11.852 51.281 44.222z"/><path fill="#030000" d="M224.902 893.285l-20.226 4.324 22.207-2.656z"/><path fill="#150E08" d="M157.379 538.367l23.422 7.242 45.402-84.367z"/><path fill="#140C09" d="M138.879 520.234l18.5 18.133 68.824-77.125z"/><path fill="#27160F" d="M196.105 800.777l8.571 96.832 20.226-4.324z"/><path fill="#272320" d="M174.922 417.02l-36.043 103.214 87.324-58.992z"/><path fill="#382D1B" d="M253.773 413.844l-6.816 33.468 11.961-2.328z"/><path fill="#221B13" d="M268.434 456.363l7.988 7.266.562-5.262z"/><path fill="#8B8381" d="M240.91 575.191l1.774 2.172 5.394 3.953z"/><path fill="#2E272C" d="M230.254 576.031l3 12.188 1.465-.168z"/><path fill="#150E06" d="M226.203 461.242l-45.402 84.367 48.902-82.617z"/><path fill="#67432B" d="M267.184 443.051l-8.266 1.933 9.516 11.379z"/><path fill="#F4F4F2" d="M225.949 159.684l-18.168 16.066 27.672-4.262z"/><path fill="#1F1714" d="M219.555 565.785l10.699 10.246 10.656-.84z"/><path fill="#2B2B2B" d="M219.555 565.785l6.617 10.961 4.082-.715z"/><path fill="#181413" d="M230.254 576.031l-4.082.715 7.082 11.473z"/><path fill="#3B363A" d="M226.172 576.746l-26.192 97.16 33.274-85.687z"/><path fill="#1C0E05" d="M261.09 785.008l-.305 10.91 9.539 1.66z"/><path fill="#2C2827" d="M233.254 588.219l-33.274 85.687 34.739-85.855z"/><path fill="#F0EFEB" d="M207.781 175.75l-93.562 130.047 128.98 5.039z"/><path fill="#3B322B" d="M184.941 405.168l62.016 42.144 1.512-43.574z"/><path fill="#EFEFED" d="M235.453 171.488l-27.672 4.262 35.418 135.086z"/><path fill="#0F0A06" d="M277.562 462.09l-1.14 1.539 2.183-.254z"/><path fill="#313538" d="M230.254 576.031l4.465 12.02 6.16-4.031z"/><path fill="#CDD7D6" d="M114.219 305.797l70.722 99.371 56.274-81.523z"/><path fill="#7E7E7C" d="M240.91 575.191l-.031 8.829 1.805-6.657z"/><path fill="#48482E" d="M195.887 796.355l.32 1.7 48.231 13.418z"/><path fill="#24170E" d="M196.207 798.055l-.102 2.722 48.333 10.696z"/><path fill="#655B42" d="M196.105 800.777l28.797 92.508 19.536-81.812z"/><path fill="#D0EBE2" d="M260.785 795.918l14.063 13.863.117-1.91z"/><path fill="#362418" d="M244.438 811.473l-19.536 81.812 34.02 6.082z"/><path fill="#200B08" d="M224.902 893.285l1.981 1.668 32.039 4.414z"/><path fill="#878380" d="M240.91 575.191l7.168 6.125 16.766-40.019z"/><path fill="#6F5A3D" d="M184.941 405.168l41.262 56.074 20.754-13.93z"/><path fill="#6C5038" d="M226.203 461.242l3.5 1.75 17.254-15.68z"/><path fill="#1A1917" d="M248.469 403.738l5.304 10.106 1.528-9.34z"/><path fill="#0E0C00" d="M270.324 797.578l-9.539-1.66 14.18 11.953z"/><path fill="#7E7D79" d="M242.684 577.363l-1.805 6.657 7.199-2.704z"/><path fill="#2C251B" d="M270.324 797.578l4.641 10.293 15.629-21.25z"/><path fill="#F8F8F6" d="M324.148 313.984l-18.394 15.164 20.027-13.863z"/><path fill="#7B797C" d="M240.879 584.02l-6.16 4.031 13.359-6.735z"/><path fill="#221E1B" d="M248.469 403.738l-1.512 43.574 6.816-33.468z"/><path fill="#1B1B1B" d="M241.215 323.645l-56.274 81.523 63.528-1.43z"/><path fill="#5F4E3A" d="M253.773 413.844l5.145 31.14 8.266-1.933z"/><path fill="#1F1C15" d="M241.215 323.645l7.254 80.093 5.949-2.308z"/><path fill="#989390" d="M219.555 565.785l21.355 9.406 23.934-33.894z"/><path fill="#120E05" d="M229.703 462.992l-48.902 82.617 84.043-4.312z"/><path fill="#C3D2D9" d="M281.742 327.395l-27.324 74.035 47.426-53.641z"/><path fill="#2C1F17" d="M258.922 899.367l-54.246-1.758 59.047 3.266z"/><path fill="#1A0D05" d="M226.883 894.953l-22.207 2.656 54.246 1.758z"/><path fill="#22150C" d="M244.438 811.473l16.347-15.555.305-10.91z"/><path fill="#17100A" d="M195.887 796.355l48.551 15.118 16.652-26.465z"/><path fill="#60441C" d="M198.41 677.117l-2.523 119.238 65.203-11.347z"/><path fill="#282715" d="M204.676 897.609l-184.676 19.391 243.723-16.125z"/><path fill="#F3F3F3" d="M307.098 160.594l-.641-.34 2.231 13.387z"/><path fill="#59514E" d="M180.801 545.609l38.754 20.176 45.289-24.488z"/><path fill="#68583E" d="M335.309 703.684l3.496 5.382 6.168-18.878z"/><path fill="#211000" d="M338.805 709.066l-10.645 6.11 12.313-.903z"/><path fill="#C8C8C8" d="M243.199 310.836l4.137 7.644 19.613-2.855z"/><path fill="#ECEDE8" d="M306.457 160.254l-71.004 11.234 73.235 2.153z"/><path fill="#342E1E" d="M278.605 463.375l-2.183.254 2.449 75.672z"/><path fill="#191011" d="M255.301 404.504l-1.528 9.34 13.411 29.207z"/><path fill="#5E492A" d="M246.957 447.312l-17.254 15.68 38.731-6.629z"/><path fill="#49401F" d="M258.918 444.984l-11.961 2.328 21.477 9.051z"/><path fill="#2A1416" d="M276.422 463.629l-11.578 77.668 14.027-1.996z"/><path fill="#14080A" d="M276.984 458.367l.578 3.723 1.043 1.285z"/><path fill="#91847E" d="M244.438 811.473l14.484 87.894 15.926-89.586z"/><path fill="#3E2A23" d="M258.922 899.367l4.801 1.508 11.125-91.094z"/><path fill="#7D8399" d="M177.895 122.008l48.054 37.676 56.203-39z"/><path fill="#130802" d="M260.785 795.918l-16.347 15.555 30.41-1.692z"/><path fill="#21120B" d="M229.703 462.992l35.141 78.305 11.578-77.668z"/><path fill="#513B23" d="M268.434 456.363l-38.731 6.629 46.719.637z"/><path fill="#B2B2BA" d="M225.949 159.684l9.504 11.804 46.699-50.804z"/><path fill="#777D93" d="M20-16l157.895 138.008 104.257-1.324z"/><path fill="#51482B" d="M267.184 443.051l1.25 13.312 8.55 2.004z"/><path fill="#0F0A07" d="M276.984 458.367l-.562 5.262 1.14-1.539z"/><path fill="#2C1A0C" d="M577.707 782.574l11.488-5.613 3.942-11.781z"/><path fill="#CAD8DB" d="M241.215 323.645l13.203 77.785 27.324-74.035z"/><path fill="#E1E2E4" d="M247.336 318.48l-6.121 5.165 40.527 3.75z"/><path fill="#FBFBF9" d="M266.949 315.625l-19.613 2.855 34.406 8.915z"/><path fill="#1D100A" d="M335.773 728.934l-15.308 38.496 23.812 16.574z"/><path fill="#333810" d="M261.09 785.008l33.019-4.856 2.653-31.156z"/><path fill="#140D05" d="M274.965 807.871l-.117 1.91 15.746-23.16z"/><path fill="#23160E" d="M261.09 785.008l9.234 12.57 20.27-10.957z"/><path fill="#F4F3EF" d="M448.234 355.996l7.957 11.688.344-11.27z"/><path fill="#3B3128" d="M381.379 454.605l.766 4.786 4.894.671z"/><path fill="#191305" d="M261.09 785.008l29.504 1.613 3.515-6.469z"/><path fill="#1A1004" d="M198.41 677.117l62.68 107.891 35.672-36.012z"/><path fill="#594928" d="M199.98 673.906l-1.57 3.211 98.352 71.879z"/><path fill="#403229" d="M455.059 405.297l-.946 10.109 1.137-10.125z"/><path fill="#FFFEFC" d="M395.922 330.086l53.129 12.383 7.137-13.688z"/><path fill="#574632" d="M378.164 421.105l3.215 33.5 5.66 5.457z"/><path fill="#3E3027" d="M254.418 401.43l.883 3.074 46.543-56.715z"/><path fill="#CBD7D7" d="M366.727 328.812l5.886 90.629 23.309-89.355z"/><path fill="#A3A8AE" d="M282.152 120.684l24.305 39.57.641.34z"/><path fill="#F8F9F4" d="M281.742 327.395l24.012 1.753 12.172-23.414z"/><path fill="#FFFFFD" d="M281.742 327.395l20.102 20.394 3.91-18.641z"/><path fill="#959FA8" d="M282.152 120.684l-46.699 50.804 71.004-11.234z"/><path fill="#1D0807" d="M319.832 768.668l-10.012 8.941 34.457 6.395z"/><path fill="#B9C0C6" d="M266.949 315.625l50.977-9.891 22.863-69.925z"/><path fill="#432B1F" d="M299.02 773.676l-4.911 6.476 15.711-2.543z"/><path fill="#35241C" d="M294.109 780.152l-3.515 6.469 19.226-9.012z"/><path fill="#F7F9F4" d="M266.949 315.625l14.793 11.77 36.184-21.661z"/><path fill="#30231B" d="M299.02 773.676l10.8 3.933 6.172-10.797z"/><path fill="#2C1F0F" d="M296.762 748.996l2.258 24.68 16.972-6.864z"/><path fill="#E9E9E7" d="M308.688 173.641l-73.235-2.153 105.336 64.321z"/><path fill="#534015" d="M328.16 715.176l7.613 13.758 4.512-9.571z"/><path fill="#C7CBCC" d="M243.199 310.836l23.75 4.789 73.84-79.816z"/><path fill="#3F2806" d="M315.992 766.812l-6.172 10.797 10.012-8.941z"/><path fill="#492E1D" d="M315.992 766.812l3.84 1.856.633-1.238z"/><path fill="#221109" d="M296.762 748.996l19.23 17.816 4.473.618z"/><path fill="#F7F6F2" d="M317.926 305.734l-12.172 23.414 18.394-15.164z"/><path fill="#170A02" d="M274.848 809.781l-11.125 91.094 80.554-116.871z"/><path fill="#DBDBDB" d="M317.926 305.734l6.222 8.25 1.633 1.301z"/><path fill="#CACFD5" d="M235.453 171.488l7.746 139.348 97.59-75.027z"/><path fill="#3F3327" d="M328.16 715.176l-31.398 33.82 39.011-20.062z"/><path fill="#5D494A" d="M199.98 673.906l96.782 75.09 31.398-33.82z"/><path fill="#949590" d="M234.719 588.051l-34.739 85.855 135.329 29.778z"/><path fill="#584F28" d="M199.98 673.906l128.18 41.27 7.149-11.492z"/><path fill="#3C291A" d="M296.762 748.996l23.703 18.434 15.308-38.496z"/><path fill="#3A2C23" d="M248.078 581.316l-13.359 6.735 100.59 115.633z"/><path fill="#240D05" d="M335.309 703.684l-7.149 11.492 10.645-6.11z"/><path fill="#1D100A" d="M309.82 777.609l-19.226 9.012 53.683-2.617z"/><path fill="#3E2D25" d="M290.594 786.621l-15.746 23.16 69.429-25.777z"/><path fill="#766146" d="M660.008 674.379l18.562 4.637 2.215-1.871z"/><path fill="#664F3D" d="M382.145 459.391l-.622 4.961 5.516-4.29z"/><path fill="#2B1F09" d="M320.465 767.43l-.633 1.238 24.445 15.336z"/><path fill="#DFE0DA" d="M423.926 356.312l24.308-.316.817-13.527z"/><path fill="#CDD9D9" d="M395.922 330.086l28.004 26.226 25.125-13.843z"/><path fill="#746F73" d="M278.871 539.301l-30.793 42.015 96.895 108.872z"/><path fill="#503F37" d="M248.078 581.316l87.231 122.368 9.664-13.496z"/><path fill="#26130D" d="M338.805 709.066l1.668 5.207 4.5-24.085z"/><path fill="#E9EAE5" d="M305.754 329.148l-3.91 18.641 54.367-18.504z"/><path fill="#F9FAF5" d="M325.781 315.285l-20.027 13.863 50.457.137z"/><path fill="#F4F3EE" d="M449.051 342.469l-.817 13.527 8.301.418z"/><path fill="#322711" d="M267.184 443.051l9.8 15.316 80.801-.683z"/><path fill="#CAD5D9" d="M366.727 328.812l-10.516.473 16.402 90.156z"/><path fill="#3F302B" d="M381.379 454.605l.297 4.68.469.106z"/><path fill="#877456" d="M278.605 463.375l.266 75.926 78.914-81.617z"/><path fill="#0F0B0A" d="M276.984 458.367l1.621 5.008 79.18-5.691z"/><path fill="#BCCBD2" d="M356.211 329.285l-54.367 18.504 70.769 71.652z"/><path fill="#2B2724" d="M255.301 404.504l11.883 38.547 105.429-23.61z"/><path fill="#5A4439" d="M301.844 347.789l-46.543 56.715 117.312 14.937z"/><path fill="#5F5A3C" d="M267.184 443.051l90.601 14.633 14.828-38.243z"/><path fill="#53432A" d="M357.785 457.684l12.332-7.489 2.496-30.754z"/><path fill="#776A59" d="M372.613 419.441l-2.496 30.754 8.047-29.09z"/><path fill="#524A25" d="M378.164 421.105l.527 33.079 2.688.421z"/><path fill="#523B1C" d="M378.164 421.105l-8.047 29.09 8.574 3.989z"/><path fill="#282117" d="M378.691 454.184l2.832 10.168.153-5.067z"/><path fill="#261F17" d="M370.117 450.195l-12.332 7.489 23.738 6.668z"/><path fill="#4D3C34" d="M378.691 454.184l-8.574-3.989 11.406 14.157z"/><path fill="#CFCECA" d="M431.875 531.266l-3.027.859 4.621 3.023z"/><path fill="#695240" d="M381.676 459.285l-.153 5.067.622-4.961z"/><path fill="#29211E" d="M357.785 457.684l-78.914 81.617 102.652-74.949z"/><path fill="#2C231C" d="M381.379 454.605l-2.688-.421 2.985 5.101z"/><path fill="#E1E3E2" d="M456.188 328.781l-7.137 13.688 7.484 13.945z"/><path fill="#C7D1D3" d="M395.922 330.086l-23.309 89.355 51.313-63.129z"/><path fill="#ACB4BE" d="M317.926 305.734l7.855 9.551 75.473-30z"/><path fill="#B4BCC6" d="M340.789 235.809l-22.863 69.925 83.328-20.449z"/><path fill="#ACB3B9" d="M325.781 315.285l30.43 14 45.043-44z"/><path fill="#ACB4BE" d="M356.211 329.285l10.516-.473 34.527-43.527z"/><path fill="#5F5049" d="M465.633 409.305l17.004 8.054 26.738-58.437z"/><path fill="#2B1A0A" d="M427.418 542.125l2.707 1.648 3.344-8.625z"/><path fill="#665937" d="M372.613 419.441l5.551 1.664 45.762-64.793z"/><path fill="#897F7D" d="M278.871 539.301l66.102 150.887 82.445-148.063z"/><path fill="#19140E" d="M381.523 464.352l-102.652 74.949 148.547 2.824z"/><path fill="#2B1C17" d="M387.039 460.062l41.809 72.063 3.027-.859z"/><path fill="#1B0D0C" d="M381.523 464.352l45.895 77.773 1.43-10z"/><path fill="#2C251D" d="M387.039 460.062l-5.516 4.29 47.325 67.773z"/><path fill="#493828" d="M455.25 405.281l-1.137 10.125 11.52-6.101z"/><path fill="#6F5548" d="M344.973 690.188l-4.5 24.085 108.859 40.915z"/><path fill="#7D7E80" d="M427.418 542.125l-82.445 148.063 85.152-146.415z"/><path fill="#A9A8A6" d="M428.848 532.125l-1.43 10 6.051-6.977z"/><path fill="#473833" d="M340.473 714.273l-.188 5.09 109.047 35.825z"/><path fill="#E4E6E3" d="M307.098 160.594l207.308 57.113 37.934-64.945z"/><path fill="#513E37" d="M456.191 367.684l-.941 37.597 10.383 4.024z"/><path fill="#312610" d="M340.285 719.363l3.992 64.641 105.055-28.816z"/><path fill="#4B4138" d="M493.211 429.27l-39.098-13.864 42.274 22.864z"/><path fill="#785541" d="M387.039 460.062l44.836 71.204 22.238-115.86z"/><path fill="#A4A2A7" d="M378.164 421.105l8.875 38.957 67.074-44.656z"/><path fill="#584B38" d="M533.055 399.023l-12.782 11.899 17.539-2.141z"/><path fill="#775D3A" d="M344.973 690.188l104.359 65 13.887-25.09z"/><path fill="#7F6242" d="M378.164 421.105l75.949-5.699.946-10.109z"/><path fill="#544B3A" d="M423.926 356.312l-45.762 64.793 76.895-15.808z"/><path fill="#B9B7BC" d="M401.254 285.285l-5.332 44.801 60.266-1.305z"/><path fill="#B3956F" d="M454.113 415.406l-22.238 115.86 64.512-92.996z"/><path fill="#95A1AF" d="M514.406 217.707l-5.031 141.215 6.668.426z"/><path fill="#5A4937" d="M534.879 389.152l-1.824 9.871 4.757 9.758z"/><path fill="#23221E" d="M455.059 405.297l.191-.016.941-37.597z"/><path fill="#FAF6F3" d="M448.234 355.996l-24.308.316 32.265 11.372z"/><path fill="#D1D6DA" d="M423.926 356.312l31.133 48.985 1.132-37.613z"/><path fill="#C7BFBC" d="M430.125 543.773l-85.152 146.415 118.246 39.91z"/><path fill="#3B3B05" d="M475.668 801.707l-6.602 3.938 7.071-3.536z"/><path fill="#6D7351" d="M469.066 805.645l.727 3.179 6.344-6.715z"/><path fill="#2C210D" d="M476.137 802.109l-6.344 6.715 14.082 4.098z"/><path fill="#393021" d="M463.219 730.098l12.449 71.609.469.402z"/><path fill="#362314" d="M463.219 730.098l-13.887 25.09 26.336 46.519z"/><path fill="#26130D" d="M469.066 805.645l-124.789-21.641 125.516 24.82z"/><path fill="#251506" d="M449.332 755.188l-105.055 28.816 124.789 21.641z"/><path fill="#28150E" d="M344.277 784.004l-80.554 116.871 206.07-92.051z"/><path fill="#251204" d="M449.332 755.188l19.734 50.457 6.602-3.938z"/><path fill="#C5C5C7" d="M282.152 120.684l24.946 39.91 245.242-7.832z"/><path fill="#5C462E" d="M465.633 409.305l-11.52 6.101 28.524 1.953z"/><path fill="#180F0A" d="M431.875 531.266l1.594 3.882 62.918-96.878z"/><path fill="#2C231C" d="M482.637 417.359l-28.524-1.953 39.098 13.864z"/><path fill="#2A160D" d="M469.793 808.824l-206.07 92.051 220.152-87.953z"/><path fill="#A49D95" d="M575.129 569.457l1.375 10.398.555-5.765z"/><path fill="#FBFAF6" d="M456.188 328.781l.347 27.633 52.84 2.508z"/><path fill="#D4D8DB" d="M456.191 367.684l9.442 41.621 43.742-50.383z"/><path fill="#A0AAB6" d="M456.188 328.781l53.187 30.141 5.031-141.215z"/><path fill="#ADB5C0" d="M401.254 285.285l54.934 43.496 58.218-111.074z"/><path fill="#524E4B" d="M537.812 408.781l-17.539 2.141 23.2 33.422z"/><path fill="#D0D8DA" d="M456.535 356.414l-.344 11.27 53.184-8.762z"/><path fill="#EAEAEA" d="M307.098 160.594l1.59 13.047 205.718 44.066z"/><path fill="#BCC5CC" d="M308.688 173.641l32.101 62.168 173.617-18.102z"/><path fill="#B0BAC3" d="M340.789 235.809l60.465 49.476 113.152-67.578z"/><path fill="#685340" d="M509.375 358.922l-26.738 58.437 37.636-6.437z"/><path fill="#281E1C" d="M482.637 417.359l10.574 11.911 27.062-18.348z"/><path fill="#2D241F" d="M493.211 429.27l3.176 9 23.886-27.348z"/><path fill="#806F55" d="M653.133 664.594l6.875 9.785 20.777 2.766z"/><path fill="#392B1E" d="M520.273 410.922l-23.886 27.348 47.086 6.074z"/><path fill="#4A3731" d="M520.273 410.922l12.782-11.899 1.824-9.871z"/><path fill="#DAE0E0" d="M509.375 358.922l10.898 52 14.606-21.77z"/><path fill="#D5DDDF" d="M516.043 359.348l-6.668-.426 25.504 30.23z"/><path fill="#A39D9D" d="M563.645 636.945l-3.29-.742 5.997 5.711z"/><path fill="#B7BAC3" d="M720-16l-12.465 164.766 79.41-7.871z"/><path fill="#E3DCD4" d="M886.027 346.508l22.012 9.773 9.746-2.164z"/><path fill="#E8E8E6" d="M707.535 148.766l-8.316 67.793 87.726-75.664z"/><path fill="#675541" d="M662.836 427.293l39.469-10.348 20.215-66.152z"/><path fill="#5E4A43" d="M702.305 416.945l-2.571 14.766 4.262-4.367z"/><path fill="#1F0D01" d="M476.137 802.109l7.738 10.813 76.035-9.852z"/><path fill="#463614" d="M463.219 730.098l12.918 72.011 83.773.961z"/><path fill="#6A6851" d="M463.219 730.098l114.488 52.476 15.43-17.394z"/><path fill="#A18756" d="M560.355 636.203l-97.136 93.895 103.133-88.184z"/><path fill="#59494A" d="M430.125 543.773l130.23 92.43 7.903-71.273z"/><path fill="#545045" d="M430.125 543.773l33.094 186.325 97.136-93.895z"/><path fill="#26150E" d="M433.469 535.148l-3.344 8.625 138.133 21.157z"/><path fill="#130B08" d="M543.473 444.344l-47.086-6.074 71.871 126.66z"/><path fill="#57473A" d="M496.387 438.27l-62.918 96.878 134.789 29.782z"/><path fill="#7D5329" d="M566.352 641.914l-103.133 88.184 129.918 35.082z"/><path fill="#C5C9D2" d="M685.234 198.477l-77.23 148.144 91.215-130.062z"/><path fill="#5A4740" d="M560.355 636.203l3.29.742 12.859-57.09z"/><path fill="#554234" d="M662.836 427.293l-1.125 10.684 4.391-5.172z"/><path fill="#C0C1BB" d="M575.129 569.457l-6.871-4.527 8.246 14.925z"/><path fill="#574F4C" d="M563.645 636.945l2.707 4.969 10.152-62.059z"/><path fill="#6E675D" d="M568.258 564.93l-7.903 71.273 16.149-56.348z"/><path fill="#392A17" d="M463.219 730.098l96.691 72.972 17.797-20.496z"/><path fill="#D6DEE0" d="M516.043 359.348l18.836 29.804 73.125-42.531z"/><path fill="#32291A" d="M577.707 782.574l-17.797 20.496 29.285-26.109z"/><path fill="#D4D8DB" d="M534.879 389.152l2.933 19.629 70.192-62.16z"/><path fill="#887E74" d="M653.133 664.594l27.652 12.551.176-163.872z"/><path fill="#93A0B3" d="M514.406 217.707l1.637 141.641 91.961-12.727z"/><path fill="#403436" d="M576.504 579.855l-10.152 62.059 86.781 22.68z"/><path fill="#6E6158" d="M566.352 641.914l26.785 123.266 59.996-100.586z"/><path fill="#5E4E3E" d="M660.008 674.379l2.461 7.199 16.101-2.562z"/><path fill="#D8D3CF" d="M543.473 444.344l118.238-6.367 1.125-10.684z"/><path fill="#61492F" d="M673.684 711.387l14.507 3.07 2.071-7.387z"/><path fill="#4E4438" d="M537.812 408.781l5.661 35.563 119.363-17.051z"/><path fill="#694525" d="M660.008 674.379l-6.875-9.785 9.336 16.984z"/><path fill="#53423B" d="M653.133 664.594l-59.996 100.586 69.332-83.602z"/><path fill="#3B3128" d="M576.504 579.855l76.629 84.739 27.828-151.321z"/><path fill="#BDC0C5" d="M552.34 152.762l155.195-3.996 12.465-164.766z"/><path fill="#453A34" d="M608.004 346.621l-70.192 62.16 125.024 18.512z"/><path fill="#4D4543" d="M577.059 574.09l-.555 5.765 104.457-66.582z"/><path fill="#220B03" d="M662.469 681.578l-69.332 83.602 80.547-53.793z"/><path fill="#CFD9DB" d="M608.004 346.621l54.832 80.672 59.684-76.5z"/><path fill="#634D1C" d="M680.961 513.273l-.176 163.872 5.535 4.054z"/><path fill="#39270F" d="M678.57 679.016l7.528 7.027.222-4.844z"/><path fill="#9B9DA9" d="M282.152 120.684l270.188 32.078 167.66-168.762z"/><path fill="#5F5D5E" d="M575.129 569.457l1.93 4.633 103.902-60.817z"/><path fill="#645F66" d="M568.258 564.93l6.871 4.527 105.832-56.184z"/><path fill="#3A322F" d="M661.711 437.977l-118.238 6.367 137.488 68.929z"/><path fill="#4B2B16" d="M686.098 686.043l-12.414 25.344 16.578-4.317z"/><path fill="#291C13" d="M543.473 444.344l24.785 120.586 112.703-51.657z"/><path fill="#fff" d="M552.34 152.762l-37.934 64.945 170.828-19.23z"/><path fill="#BFC2CB" d="M514.406 217.707l93.598 128.914 77.23-148.144z"/><path fill="#5A4528" d="M678.57 679.016l-16.101 2.562 23.629 4.465z"/><path fill="#55350C" d="M680.785 677.145l-2.215 1.871 7.75 2.183z"/><path fill="#332115" d="M662.469 681.578l11.215 29.809 12.414-25.344z"/><path fill="#503929" d="M593.137 765.18l-3.942 11.781 98.996-62.504z"/><path fill="#91763F" d="M673.684 711.387l-80.547 53.793 95.054-50.723z"/><path fill="#909AA4" d="M20-16l262.152 136.684 437.848-136.684z"/><path fill="#262217" d="M1420 450.5l-74.125 240.891 74.125 225.609z"/><path fill="#420" d="M1388.992 890.062l6.672 13.938 24.336 13z"/><path fill="#575651" d="M666.102 432.805l-4.391 5.172 32.008 7.312z"/><path fill="#fff" d="M685.234 198.477l13.985 18.082 8.316-67.793z"/><path fill="#50382C" d="M686.098 686.043l4.164 21.027 4.086-.648z"/><path fill="#3E2C16" d="M686.32 681.199l-.222 4.844 38.566 13.219z"/><path fill="#4D3A2B" d="M690.262 707.07l-2.071 7.387 6.157-8.035z"/><path fill="#523722" d="M661.711 437.977l19.25 75.296 15.523-60.609z"/><path fill="#695647" d="M693.719 445.289l-32.008-7.312 34.773 14.687z"/><path fill="#9B8A83" d="M666.102 432.805l27.617 12.484 6.015-13.578z"/><path fill="#3C3334" d="M666.102 432.805l33.632-1.094 2.571-14.766z"/><path fill="#585755" d="M693.719 445.289l2.765 7.375 3.25-20.953z"/><path fill="#C7C6C2" d="M662.836 427.293l3.266 5.512 36.203-15.86z"/><path fill="#DADEDF" d="M722.52 350.793l-20.215 66.152 43.601-64.211z"/><path fill="#44351E" d="M722.449 715.758l21.508 17.476.172-17.097z"/><path fill="#FEFFFF" d="M699.734 431.711l-3.25 20.953 7.512-25.32z"/><path fill="#534217" d="M694.348 706.422l28.101 9.336 2.215-16.496z"/><path fill="#66532B" d="M694.348 706.422l-6.157 8.035 34.258 1.301z"/><path fill="#47361A" d="M724.664 699.262l-2.215 16.496 21.68.379z"/><path fill="#413630" d="M799.219 479.527l-3.133 1.082 7.144 9.055z"/><path fill="#ABB8C1" d="M699.219 216.559l27.203 128.742 19.484 7.433z"/><path fill="#564416" d="M686.098 686.043l8.25 20.379 30.316-7.16z"/><path fill="#3A2718" d="M722.449 715.758l-34.258-1.301 55.766 18.777z"/><path fill="#FAFBF5" d="M608.004 346.621l114.516 4.172 3.902-5.492z"/><path fill="#433824" d="M824.059 444.965l-24.84 34.562 37.39 11.75z"/><path fill="#A5ADBA" d="M699.219 216.559l-91.215 130.062 118.418-1.32z"/><path fill="#FFFFFB" d="M858.508 541.379l-21.629 103.445 27.48-103.781z"/><path fill="#553B2E" d="M688.191 714.457l-98.996 62.504 154.762-43.727z"/><path fill="#1A0502" d="M724.664 699.262l19.465 16.875 5.137-1.317z"/><path fill="#F9FAF5" d="M726.422 345.301l-3.902 5.492 23.386 1.941z"/><path fill="#241917" d="M858.914 519.352l-.406 22.027 1.496-4.039z"/><path fill="#25140A" d="M749.266 714.82l-5.137 1.317 5.91.383z"/><path fill="#32261A" d="M847.066 663.879l-16.609 88.809 29.551.917z"/><path fill="#38240C" d="M744.129 716.137l-.172 17.097 6.082-16.714z"/><path fill="#342218" d="M743.957 733.234l44.875 119.078 5.012-8.867z"/><path fill="#7C6845" d="M817.254 436.172l2.594 8.781 4.211.012z"/><path fill="#514946" d="M589.195 776.961l-29.285 26.109 228.922 49.242z"/><path fill="#64483D" d="M483.875 812.922l-220.152 87.953 525.109-48.563z"/><path fill="#645639" d="M559.91 803.07l-76.035 9.852 304.957 39.39z"/><path fill="#ADB1BD" d="M1420-16l-57.297 398.332 57.297 68.168z"/><path fill="#382720" d="M743.957 733.234l-154.762 43.727 199.637 75.351z"/><path fill="#7E664E" d="M836.879 644.824l10.187 19.055 17.293-122.836z"/><path fill="#5D542B" d="M796.086 480.609l-115.125 32.664 122.269-23.609z"/><path fill="#1D120E" d="M696.484 452.664l-15.523 60.609 115.125-32.664z"/><path fill="#7B5842" d="M703.996 427.344l-7.512 25.32 99.602 27.945z"/><path fill="#907D6C" d="M799.219 479.527l4.011 10.137 33.379 1.613z"/><path fill="#24170F" d="M860.004 537.34l-1.496 4.039 5.851-.336z"/><path fill="#785339" d="M819.848 444.953l-20.629 34.574 24.84-34.562z"/><path fill="#B9BDC9" d="M877.633 242.723l8.394 103.785 17.254-98.41z"/><path fill="#544737" d="M745.906 352.734l-43.601 64.211 115.48 4.41z"/><path fill="#866146" d="M703.996 427.344l92.09 53.265 19.836-38.195z"/><path fill="#6C522D" d="M817.254 436.172l-1.332 6.242 3.926 2.539z"/><path fill="#856443" d="M815.922 442.414l-19.836 38.195 19.984-36.195z"/><path fill="#826A46" d="M796.086 480.609l3.133-1.082 16.851-35.113z"/><path fill="#665E5C" d="M703.996 427.344l113.258 8.828.531-14.817z"/><path fill="#4F4546" d="M703.996 427.344l111.926 15.07 1.332-6.242z"/><path fill="#3F3128" d="M702.305 416.945l1.691 10.399 113.789-5.989z"/><path fill="#534832" d="M815.922 442.414l.148 2 3.778.539z"/><path fill="#7C5E42" d="M816.07 444.414l-16.851 35.113 20.629-34.574z"/><path fill="#654934" d="M836.879 644.824l-87.613 69.996 97.8-50.941z"/><path fill="#4D392E" d="M830.457 752.688l-36.613 90.757 66.164-89.84z"/><path fill="#888037" d="M749.266 714.82l.773 1.7 97.027-52.641z"/><path fill="#3C2925" d="M750.039 716.52l-6.082 16.714 86.5 19.454z"/><path fill="#1E1711" d="M743.957 733.234l49.887 110.211 36.613-90.757z"/><path fill="#2E1F1C" d="M817.785 421.355l-.531 14.817 14.73-14.387z"/><path fill="#9F9069" d="M817.254 436.172l6.805 8.793 7.925-23.18z"/><path fill="#48300C" d="M680.961 513.273l5.359 167.926 150.559-36.375z"/><path fill="#C4A435" d="M686.32 681.199l38.344 18.063 112.215-54.438z"/><path fill="#332A25" d="M803.23 489.664l-122.269 23.609 155.918 131.551z"/><path fill="#371D20" d="M724.664 699.262l24.602 15.558 87.613-69.996z"/><path fill="#2E2111" d="M750.039 716.52l80.418 36.168 16.609-88.809z"/><path fill="#C0C1C6" d="M720-16l66.945 156.895 54.875-7.004z"/><path fill="#1B120D" d="M1213.004 561.875l8.855 6.215 1.293-.598z"/><path fill="#3A281A" d="M852.574 509.137l5.934 32.242.406-22.027z"/><path fill="#3C281D" d="M836.609 491.277l-33.379-1.613 49.344 19.473z"/><path fill="#B3B6BF" d="M903.281 248.098l-17.254 98.41 31.758 7.609z"/><path fill="#937E51" d="M824.059 444.965l12.55 46.312 21.586 14.149z"/><path fill="#DEDDD9" d="M958.207 427.402l-18.402 21.633 101.402-5.527z"/><path fill="#524229" d="M836.609 491.277l15.965 17.86 5.621-3.711z"/><path fill="#201710" d="M803.23 489.664l33.649 155.16 21.629-103.445z"/><path fill="#453525" d="M852.574 509.137l-49.344-19.473 55.278 51.715z"/><path fill="#655D5A" d="M1044.402 425.004l-1.679 11.344 9.339-2.618z"/><path fill="#645433" d="M1079.105 492.18l-20.226-13.032 21.156 15.067z"/><path fill="#66582B" d="M858.195 505.426l-5.621 3.711 6.34 10.215z"/><path fill="#0D0206" d="M858.914 519.352l1.09 17.988 4.355 3.703z"/><path fill="#565042" d="M908.039 356.281l-76.055 65.504 98.746 3.824z"/><path fill="#D4D4D6" d="M841.82 133.891l35.813 108.832 25.648 5.375z"/><path fill="#C0C4CD" d="M699.219 216.559l46.687 136.175 131.727-110.011z"/><path fill="#F2F2F2" d="M786.945 140.895l-87.726 75.664 178.414 26.164z"/><path fill="#D5D6DB" d="M841.82 133.891l-54.875 7.004 90.688 101.828z"/><path fill="#534E4A" d="M745.906 352.734l71.879 68.621 68.242-74.847z"/><path fill="#484236" d="M817.785 421.355l14.199.43 54.043-75.277z"/><path fill="#504645" d="M952.637 423.941l-5.266 10.008 10.836-6.547z"/><path fill="#B6B5BD" d="M877.633 242.723l-131.727 110.011 140.121-6.226z"/><path fill="#EAEAE8" d="M886.027 346.508l-54.043 75.277 76.055-65.504z"/><path fill="#DCDDD8" d="M917.785 354.117l-9.746 2.164 22.691 69.328z"/><path fill="#795235" d="M824.059 444.965l34.136 60.461 72.535-79.817z"/><path fill="#695C53" d="M831.984 421.785l-7.925 23.18 106.671-19.356z"/><path fill="#A4A8B3" d="M903.281 248.098l14.504 106.019 63.141 5.055z"/><path fill="#655941" d="M952.637 423.941l5.57 3.461 22.719-68.23z"/><path fill="#5A4029" d="M858.195 505.426l.719 13.926 80.891-70.317z"/><path fill="#7A5E36" d="M930.73 425.609l-72.535 79.817 81.61-56.391z"/><path fill="#4B3D23" d="M858.914 519.352l5.445 21.691 75.446-92.008z"/><path fill="#3D2F2C" d="M930.73 425.609l9.075 23.426 2.976-13.277z"/><path fill="#746B64" d="M942.781 435.758l-2.976 13.277 7.566-15.086z"/><path fill="#67564C" d="M930.73 425.609l12.051 10.149 4.59-1.809z"/><path fill="#644F32" d="M930.73 425.609l16.641 8.34 5.266-10.008z"/><path fill="#50463C" d="M917.785 354.117l12.945 71.492 21.907-1.668z"/><path fill="#E2E4DF" d="M917.785 354.117l34.852 69.824 28.289-64.769z"/><path fill="#5D5845" d="M980.926 359.172l52.523 68.586 10.953-2.754z"/><path fill="#2C2827" d="M947.371 433.949l-7.566 15.086 18.402-21.633z"/><path fill="#C1A892" d="M1039.836 436.551l1.371 6.957 1.516-7.16z"/><path fill="#6D624C" d="M980.926 359.172l-22.719 68.23 75.242.356z"/><path fill="#6A4B37" d="M1039.836 436.551l-6.387-8.793 7.758 15.75z"/><path fill="#695B5A" d="M1039.836 436.551l2.887-.203 1.679-11.344z"/><path fill="#574D4C" d="M1033.449 427.758l6.387 8.793 4.566-11.547z"/><path fill="#8B775C" d="M1042.723 436.348l-1.516 7.16 10.855-9.778z"/><path fill="#6E6A5F" d="M1059.184 634.453l109.761-45.344 2.071-28.136z"/><path fill="#594F45" d="M1080.035 494.215l-20.851 140.238 111.832-73.48z"/><path fill="#685A57" d="M1033.449 427.758l-75.242-.356 83 16.106z"/><path fill="#583E25" d="M1179.871 763.105l-1.734 8.688 3.402 6.008z"/><path fill="#2F1E16" d="M847.066 663.879l12.942 89.726 197.129-106.375z"/><path fill="#2F221A" d="M1058.879 479.148l-194.52 61.895 194.825 93.41z"/><path fill="#5D4914" d="M1057.137 647.23l1.535.723.512-13.5z"/><path fill="#5E4B44" d="M1052.062 433.73l-10.855 9.778 17.672 35.64z"/><path fill="#2E2013" d="M847.066 663.879l210.071-16.649 2.047-12.777z"/><path fill="#70521E" d="M864.359 541.043l-17.293 122.836 212.118-29.426z"/><path fill="#64492C" d="M1079.105 492.18l.93 2.035 3.711-26.238z"/><path fill="#865E3B" d="M1041.207 443.508l-101.402 5.527 119.074 30.113z"/><path fill="#736248" d="M939.805 449.035l-75.446 92.008 194.52-61.895z"/><path fill="#62492B" d="M1058.879 479.148l20.226 13.032 4.641-24.203z"/><path fill="#413833" d="M1052.062 433.73l6.817 45.418 24.867-11.171z"/><path fill="#EDEBDC" d="M1044.402 425.004l7.66 8.726 56.895-154.722z"/><path fill="#DADADC" d="M841.82 133.891l61.461 114.207 205.676 30.91z"/><path fill="#534B27" d="M1059.184 634.453l-.512 13.5 14.078-1.199z"/><path fill="#C0BFC4" d="M980.926 359.172l63.476 65.832 64.555-145.996z"/><path fill="#251A18" d="M1058.879 479.148l.305 155.305 20.851-140.238z"/><path fill="#6A6339" d="M1057.137 647.23l-197.129 106.375 226.301-71.203z"/><path fill="#624630" d="M1058.672 647.953l-1.535-.723 29.172 35.172z"/><path fill="#443226" d="M1072.75 646.754l-14.078 1.199 27.637 34.449z"/><path fill="#433B38" d="M1206.027 435.078l20.176 6.793 1.567.035z"/><path fill="#6B5315" d="M1222.102 898.188l12.941-6.965 2.019-4.68z"/><path fill="#C4C2C5" d="M903.281 248.098l77.645 111.074 128.031-80.164z"/><path fill="#3D371D" d="M1179.871 763.105l1.668 14.696 16.328-.789z"/><path fill="#2B291C" d="M1201.859 776.047l-3.992.965 5.821 6.843z"/><path fill="#3D2A1C" d="M1059.184 634.453l13.566 12.301 84.895-24.231z"/><path fill="#614B34" d="M1072.75 646.754l13.559 35.648 71.336-59.879z"/><path fill="#5D2806" d="M1059.184 634.453l98.461-11.93 11.3-33.414z"/><path fill="#201501" d="M1237.062 886.543l-2.019 4.68 8.961-2.567z"/><path fill="#2A190F" d="M1217.68 590.715l-48.735-1.606 52.95 19.786z"/><path fill="#4A3534" d="M1086.309 682.402l-226.301 71.203 311.336 18.168z"/><path fill="#525753" d="M1176.852 569.863l-5.836-8.89 6.035 11.918z"/><path fill="#251A16" d="M1080.035 494.215l94.809 64.902 11.765-7.297z"/><path fill="#120D09" d="M1178.137 771.793l-6.793-.02 10.195 6.028z"/><path fill="#291E1A" d="M1080.035 494.215l90.981 66.758 3.828-1.856z"/><path fill="#655241" d="M1083.746 467.977l-3.711 26.238 106.574 57.605z"/><path fill="#1D1210" d="M1174.844 559.117l-3.828 1.856 5.836 8.89z"/><path fill="#977025" d="M1168.945 589.109l40.239 46.344 12.711-26.558z"/><path fill="#584B43" d="M1171.016 560.973l-2.071 28.136 8.106-16.218z"/><path fill="#291F16" d="M1171.344 771.773l6.793.02 1.734-8.688z"/><path fill="#130A0B" d="M1174.844 559.117l2.008 10.746 1.757-10.82z"/><path fill="#403823" d="M1157.645 622.523l-71.336 59.879 93.562 80.703z"/><path fill="#4E4F41" d="M1086.309 682.402l85.035 89.371 8.527-8.668z"/><path fill="#221912" d="M1196.719 557.73l-3.699-.812 7.332 8.484z"/><path fill="#21181B" d="M1174.844 559.117l3.765-.074 8-7.223z"/><path fill="#2B1C15" d="M1157.645 622.523l22.226 140.582 26.07-122.003z"/><path fill="#1F1611" d="M1178.609 559.043l-1.757 10.82 16.168-12.945z"/><path fill="#483026" d="M1186.609 551.82l-8 7.223 14.411-2.125z"/><path fill="#807B1F" d="M1235.043 891.223l-1.949 11.972 10.91-14.539z"/><path fill="#261B17" d="M1200.809 551.262l-4.09 6.468 5.051 6.243z"/><path fill="#2A1E20" d="M1193.02 556.918l3.699.812 4.09-6.468z"/><path fill="#211515" d="M1212.809 555.039l-11.039 8.934 11.234-2.098z"/><path fill="#635317" d="M1197.867 777.012l-16.328.789 22.149 6.054z"/><path fill="#2D2324" d="M1176.852 569.863l.199 3.028 23.301-7.489z"/><path fill="#494343" d="M1193.02 556.918l-16.168 12.945 23.5-4.461z"/><path fill="#3B453C" d="M1196.719 557.73l3.633 7.672 1.418-1.429z"/><path fill="#2C2306" d="M1197.867 777.012l3.992-.965 5.477-17.574z"/><path fill="#313012" d="M1179.871 763.105l17.996 13.907 9.469-18.539z"/><path fill="#2B2821" d="M1186.609 551.82l6.411 5.098 7.789-5.656z"/><path fill="#3D3F29" d="M1201.859 776.047l1.829 7.808 3.648-25.382z"/><path fill="#40391F" d="M1222.102 898.188l-433.27-45.876 444.262 50.883z"/><path fill="#382217" d="M1223.152 567.492l10.145 15.274 1.887.789z"/><path fill="#221711" d="M1209.184 635.453l1.406.543 11.305-27.101z"/><path fill="#21120F" d="M1213.004 561.875l-12.652 3.527 21.507 2.688z"/><path fill="#433119" d="M1205.941 641.102l-26.07 122.003 27.465-4.632z"/><path fill="#5B5152" d="M1052.062 433.73l31.684 34.247 122.281-32.899z"/><path fill="#FDF9F0" d="M1108.957 279.008l-56.895 154.722 153.965 1.348z"/><path fill="#4A4118" d="M1209.184 635.453l-3.243 5.649 4.649-5.106z"/><path fill="#6B4D31" d="M1083.746 467.977l102.863 83.843 19.418-116.742z"/><path fill="#2D221C" d="M1157.645 622.523l48.296 18.579 3.243-5.649z"/><path fill="#26180D" d="M1168.945 589.109l-11.3 33.414 51.539 12.93z"/><path fill="#767B77" d="M1201.77 563.973l-1.418 1.429 12.652-3.527z"/><path fill="#3E3820" d="M1243.203 877.586l-6.141 8.957 6.942 2.113z"/><path fill="#1B1110" d="M1212.809 555.039l.195 6.836 10.148 5.617z"/><path fill="#281E1D" d="M1200.809 551.262l.961 12.711 11.039-8.934z"/><path fill="#4B3827" d="M1177.051 572.891l-8.106 16.218 48.735 1.606z"/><path fill="#513520" d="M1200.352 565.402l-23.301 7.489 40.629 17.824z"/><path fill="#7B5C23" d="M1233.297 582.766l-.18 2.269 2.067-1.48z"/><path fill="#6A5043" d="M1239.773 445.051l-4.328 17.203 6.993-17.102z"/><path fill="#4A2F26" d="M1200.352 565.402l17.328 25.313 4.179-22.625z"/><path fill="#090502" d="M1203.688 783.855l-22.149-6.054 40.563 120.387z"/><path fill="#1C1D17" d="M793.844 843.445l-5.012 8.867 433.27 45.876z"/><path fill="#3A3320" d="M860.008 753.605l-66.164 89.84 428.258 54.743z"/><path fill="#B5BA46" d="M1171.344 771.773l-311.336-18.168 362.094 144.583z"/><path fill="#4E450E" d="M1181.539 777.801l-10.195-6.028 50.758 126.415z"/><path fill="#443724" d="M1217.68 590.715l4.215 18.18 8.554-17.25z"/><path fill="#E0E0E2" d="M841.82 133.891l267.137 145.117 119.441-193.461z"/><path fill="#FEFEFE" d="M720-16l121.82 149.891 386.578-48.344z"/><path fill="#8C8281" d="M1327.066 530.059l18.809 161.332 74.125-240.891z"/><path fill="#674313" d="M1233.117 585.035l-2.668 6.61 4.735-8.09z"/><path fill="#423A37" d="M1265.828 590.977l5.723 12.832 26.074-4.11z"/><path fill="#805B4B" d="M1227.77 441.906l-1.567-.035 9.242 20.383z"/><path fill="#483C30" d="M1243.203 877.586l.801 11.07 9.508-4.422z"/><path fill="#4B494C" d="M1226.203 441.871l-20.176-6.793 29.418 27.176z"/><path fill="#584F52" d="M1362.703 382.332l1.375 2.223 55.922 65.945z"/><path fill="#262014" d="M1223.152 567.492l-1.293.598 11.438 14.676z"/><path fill="#5F3E1B" d="M1217.68 590.715l15.437-5.68.18-2.269z"/><path fill="#3B3513" d="M1217.68 590.715l12.769.93 2.668-6.61z"/><path fill="#615142" d="M1221.859 568.09l-4.179 22.625 15.617-7.949z"/><path fill="#534522" d="M1200.809 551.262l12 3.777 22.636-92.785z"/><path fill="#3D3A11" d="M1222.102 898.188l10.992 5.007 1.949-11.972z"/><path fill="#C2C5CA" d="M1228.398 85.547l13.782 110.887 36.672-36.946z"/><path fill="#1D1604" d="M1235.184 583.555l15.765 10.203 6.211-4.012z"/><path fill="#5B4921" d="M1186.609 551.82l14.2-.558 34.636-89.008z"/><path fill="#7A6645" d="M1206.027 435.078l-19.418 116.742 48.836-89.566z"/><path fill="#C0C3C8" d="M1228.398 85.547l8.965 113.781 4.817-2.894z"/><path fill="#746733" d="M1248.344 610.344l-3.817 7.597 27.024-14.132z"/><path fill="#53432C" d="M1230.449 591.645l17.895 18.699 2.605-16.586z"/><path fill="#443C18" d="M1222.102 898.188l14.96-11.645 6.141-8.957z"/><path fill="#4E4D1D" d="M1235.184 583.555l-4.735 8.09 20.5 2.113z"/><path fill="#3D3B3C" d="M1206.027 435.078l21.743 6.828 22.136-5.511z"/><path fill="#252412" d="M1310.008 686.664l-7.559 7.219 7.68-3.168z"/><path fill="#9A774D" d="M1305.582 486.508l8.488-1.781.684-4.075z"/><path fill="#D5D6DB" d="M1228.398 85.547l-119.441 193.461 128.406-79.68z"/><path fill="#7A5F44" d="M1249.906 436.395l-2.515 7.679 42.14 1.594z"/><path fill="#6D5249" d="M1227.77 441.906l7.675 20.348 4.328-17.203z"/><path fill="#402F28" d="M1289.531 445.668l-42.14-1.594 50.781 25.633z"/><path fill="#372821" d="M1247.391 444.074l-11.946 18.18 62.727 7.453z"/><path fill="#D4CFB1" d="M1203.688 783.855l18.414 114.333 21.101-20.602z"/><path fill="#231C16" d="M1221.895 608.895l-11.305 27.101 33.937-18.055z"/><path fill="#412702" d="M1223.152 567.492l12.032 16.063 21.976 6.191z"/><path fill="#695D5D" d="M1227.77 441.906l12.003 3.145 10.133-8.656z"/><path fill="#664A3E" d="M1242.438 445.152l-6.993 17.102 11.946-18.18z"/><path fill="#3C3B1F" d="M1221.895 608.895l22.632 9.046 3.817-7.597z"/><path fill="#3A281E" d="M1230.449 591.645l-8.554 17.25 26.449 1.449z"/><path fill="#514C50" d="M1242.438 445.152l4.953-1.078 2.515-7.679z"/><path fill="#352B29" d="M1239.773 445.051l2.665.101 7.468-8.757z"/><path fill="#130D01" d="M1203.688 783.855l39.515 93.731 10.309 6.648z"/><path fill="#939AAC" d="M1362.703 382.332l-6.078 2.664 7.453-.441z"/><path fill="#2E2222" d="M1356.625 384.996l-37.23 63.734 44.683-64.175z"/><path fill="#43310D" d="M1244.004 888.656l-10.91 14.539 20.418-18.961z"/><path fill="#1D1B0F" d="M1311.422 567.879l27.226 118.219 7.227 5.293z"/><path fill="#52471A" d="M1257.16 589.746l-6.211 4.012 14.879-2.781z"/><path fill="#4E453E" d="M1307.145 476.152l-1.563 10.356 9.172-5.856z"/><path fill="#43322B" d="M1212.809 555.039l10.343 12.453 79.711-16.672z"/><path fill="#A3ABB5" d="M1303.055 188.922l7.355 197.43 10.762.722z"/><path fill="#393126" d="M1265.828 590.977l-14.879 2.781 20.602 10.051z"/><path fill="#AEB3B9" d="M1278.852 159.488l-36.672 36.946 53.605-17.36z"/><path fill="#BCC1C7" d="M1303.055 188.922l-65.692 10.406 73.047 187.024z"/><path fill="#221F16" d="M1250.949 593.758l-2.605 16.586 23.207-6.535z"/><path fill="#241915" d="M1249.906 436.395l39.625 9.273 20.879-59.316z"/><path fill="#FAFAF8" d="M1242.18 196.434l-4.817 2.894 65.692-10.406z"/><path fill="#3D2D2D" d="M1307.145 476.152l6.523 1.25 5.727-28.672z"/><path fill="#312816" d="M1244.527 617.941l57.922 75.942 7.559-7.219z"/><path fill="#3D2E2B" d="M1298.172 469.707l8.973 6.445 12.25-27.422z"/><path fill="#886A50" d="M1313.668 477.402l-6.523-1.25 7.609 4.5z"/><path fill="#261710" d="M1325.16 694.285l-8.812 4.356 9.027-1.477z"/><path fill="#393532" d="M1205.941 641.102l1.395 117.371 95.113-64.59z"/><path fill="#211A14" d="M1210.59 635.996l-4.649 5.106 96.508 52.781z"/><path fill="#251E18" d="M1244.527 617.941l-33.937 18.055 91.859 57.887z"/><path fill="#35201F" d="M1223.152 567.492l34.008 22.254 45.703-38.926z"/><path fill="#813F0B" d="M1257.16 589.746l8.668 1.231 37.035-40.157z"/><path fill="#8B6F48" d="M1298.172 469.707l7.41 16.801 1.563-10.356z"/><path fill="#3E3724" d="M1302.863 550.82l-37.035 40.157 45.594-23.098z"/><path fill="#51411F" d="M1212.809 555.039l90.054-4.219 1.469-62.8z"/><path fill="#FAFAF8" d="M1295.785 179.074l-53.605 17.36 60.875-7.512z"/><path fill="#3D2F2E" d="M1289.531 445.668l8.641 24.039 21.223-20.977z"/><path fill="#4D3B23" d="M1298.172 469.707l-62.727-7.453 68.887 25.766z"/><path fill="#20160D" d="M1235.445 462.254l-22.636 92.785 91.523-67.019z"/><path fill="#26130C" d="M1338.246 688.91l-12.871 8.254 13.27 7.652z"/><path fill="#343434" d="M1298.172 469.707l6.16 18.313 1.25-1.512z"/><path fill="#5E4540" d="M1206.027 435.078l43.879 1.317 60.504-50.043z"/><path fill="#B7BAC1" d="M1237.363 199.328l-128.406 79.68 201.453 107.344z"/><path fill="#50491B" d="M1297.625 599.699l-26.074 4.11 38.457 82.855z"/><path fill="#242418" d="M1271.551 603.809l-27.024 14.132 65.481 68.723z"/><path fill="#AFAEB3" d="M1108.957 279.008l97.07 156.07 104.383-48.726z"/><path fill="#332928" d="M1310.41 386.352l8.985 62.378 1.777-61.656z"/><path fill="#5D502D" d="M1302.449 693.883l-95.113 64.59 109.012-59.832z"/><path fill="#413736" d="M1265.828 590.977l31.797 8.722 13.797-31.82z"/><path fill="#322016" d="M1207.336 758.473l-3.648 25.382 112.66-85.214z"/><path fill="#322E25" d="M1316.348 698.641l-112.66 85.214 134.957-79.039z"/><path fill="#E5E5E5" d="M1321.031 145.664l41.672 236.668 57.297-398.332z"/><path fill="#85776A" d="M1304.332 488.02l22.734 42.039.75-37.684z"/><path fill="#31302E" d="M1305.582 486.508l-1.25 1.512 9.738-3.293z"/><path fill="#2C1D16" d="M1310.129 690.715l-7.68 3.168 13.899 4.758z"/><path fill="#2A201E" d="M1310.41 386.352l-20.879 59.316 29.864 3.062z"/><path fill="#59452A" d="M1314.07 484.727l-9.738 3.293 23.484 4.355z"/><path fill="#594113" d="M1310.129 690.715l6.219 7.926 8.812-4.356z"/><path fill="#382C20" d="M1310.008 686.664l.121 4.051 15.031 3.57z"/><path fill="#BDC0C5" d="M1295.785 179.074l7.27 9.848 17.976-43.258z"/><path fill="#BAC2C5" d="M1228.398 85.547l50.454 73.941 42.179-13.824z"/><path fill="#A7ADB9" d="M1278.852 159.488l16.933 19.586 25.246-33.41z"/><path fill="#0D0000" d="M1327.816 492.375l-.75 37.684 92.934-79.559z"/><path fill="#6F5031" d="M1314.754 480.652l-.684 4.075 13.746 7.648z"/><path fill="#221A0D" d="M1203.688 783.855l49.824 100.379 85.133-179.418z"/><path fill="#A0A1A5" d="M1343.641 386.004l-22.469 1.07 24.523.074z"/><path fill="#312112" d="M1302.863 550.82l8.559 17.059 15.644-37.82z"/><path fill="#25160F" d="M1304.332 488.02l-1.469 62.8 24.203-20.761z"/><path fill="#BBC3CE" d="M1228.398 85.547l92.633 60.117 98.969-161.664z"/><path fill="#5E4830" d="M1313.668 477.402l1.086 3.25 13.062 11.723z"/><path fill="#4F3F30" d="M1319.395 448.73l-5.727 28.672 14.148 14.973z"/><path fill="#2B170E" d="M1310.008 686.664l15.152 7.621 4.746-6.59z"/><path fill="#231F16" d="M1297.625 599.699l12.383 86.965 19.898 1.031z"/><path fill="#231B18" d="M1297.625 599.699l32.281 87.996 7.477-1.531z"/><path fill="#20190F" d="M1297.625 599.699l39.758 86.465 1.265-.066z"/><path fill="#160D06" d="M1325.16 694.285l.215 2.879 12.871-8.254z"/><path fill="#442419" d="M1329.906 687.695l-4.746 6.59 13.086-5.375z"/><path fill="#130C06" d="M1325.375 697.164l-9.027 1.477 22.297 6.175z"/><path fill="#212212" d="M1337.383 686.164l-7.477 1.531 8.34 1.215z"/><path fill="#1E130D" d="M1337.383 686.164l.863 2.746.402-2.812z"/><path fill="#545327" d="M1311.422 567.879l-13.797 31.82 41.023 86.399z"/><path fill="#4D342F" d="M1321.172 387.074l-1.777 61.656 26.3-61.582z"/><path fill="#392318" d="M1327.066 530.059l-15.644 37.82 34.453 123.512z"/><path fill="#A6A9B8" d="M1303.055 188.922l18.117 198.152 22.469-1.07z"/><path fill="#fff" d="M720-16l508.398 101.547 191.602-101.547z"/><path fill="#1F3010" d="M1253.512 884.234l-20.418 18.961 115.961.137z"/><path fill="#412F2B" d="M1364.078 384.555l-44.683 64.175 100.605 1.77z"/><path fill="#201C13" d="M1338.648 686.098l-.402 2.812 7.629 2.481z"/><path fill="#322C20" d="M1338.246 688.91l.399 15.906 7.23-13.425z"/><path fill="#271509" d="M1338.645 704.816l4.269 1.161 2.961-14.586z"/><path fill="#3B3130" d="M1345.695 387.148l-26.3 61.582 37.23-63.734z"/><path fill="#999BAA" d="M1343.641 386.004l2.054 1.144 10.93-2.152z"/><path fill="#B5B8C1" d="M1321.031 145.664l-17.976 43.258 59.648 193.41z"/><path fill="#8F99A3" d="M1343.641 386.004l12.984-1.008 6.078-2.664z"/><path fill="#B1B4BB" d="M1303.055 188.922l40.586 197.082 19.062-3.672z"/><path fill="#897A1D" d="M1388.613 894.688l-2.008-1.286 9.059 10.598z"/><path fill="#998D7F" d="M1388.992 890.062l-.379 4.626 7.051 9.312z"/><path fill="#2B1404" d="M1253.512 884.234l95.543 19.098 18.234-17.977z"/><path fill="#595A14" d="M1367.289 885.355l-18.234 17.977 18.238-15.629z"/><path fill="#4B320A" d="M1338.645 704.816l-85.133 179.418 113.777 1.121z"/><path fill="#36322F" d="M1342.914 705.977l-4.269-1.161 28.644 180.539z"/><path fill="#311605" d="M1367.289 885.355l.004 2.348 19.312 5.699z"/><path fill="#A4A71C" d="M1386.605 893.402l2.008 1.286.379-4.626z"/><path fill="#2B3B0E" d="M1367.293 887.703l-18.238 15.629 37.55-9.93z"/><path fill="#302728" d="M1319.395 448.73l8.421 43.645 92.184-41.875z"/><path fill="#A25C07" d="M1367.289 885.355l19.316 8.047 2.387-3.34z"/><path fill="#1B0200" d="M1342.914 705.977l24.375 179.378 21.703 4.707z"/><path fill="#1A0E00" d="M1386.605 893.402l-37.55 9.93 46.609.668z"/></svg>