<svg xmlns="http://www.w3.org/2000/svg" width="1440" height="900" viewBox="0 0 1440 900"><path fill="#1F1F1F" d="M0 0h1440v900h-1440z"/><path fill="#354346" d="M1369.402 687.246l-414.488-84.871 500.086 235.625z"/><path fill="#696683" d="M40.414 582.34l-5.344 6.765 7.797-4.238z"/><path fill="#334247" d="M497.57 576.812l.457 21.247 2.27 3.214z"/><path fill="#AA9F9D" d="M1439.961 418.82l-69.656 262.821 84.695 156.359z"/><path fill="#202F32" d="M1370.305 681.641l-.903 5.605 85.598 150.754z"/><path fill="#A97492" d="M9.398 617.527l-23.398 220.473 24.707-218.184z"/><path fill="#AD758E" d="M10.707 619.816l-24.707 218.184 53.652-240.953z"/><path fill="#655B7E" d="M35.07 589.105l4.582 7.942 3.215-12.18z"/><path fill="#626681" d="M35.07 589.105l-25.672 28.422 30.254-20.48z"/><path fill="#51516D" d="M9.398 617.527l1.309 2.289 28.945-22.769z"/><path fill="#051218" d="M-14 61l23.398 556.527 31.016-35.187z"/><path fill="#535772" d="M9.398 617.527l25.672-28.422 5.344-6.765z"/><path fill="#6A647C" d="M40.414 582.34l2.453 2.527 129.145-107.34z"/><path fill="#19282D" d="M-14 61l54.414 521.34 131.598-104.813z"/><path fill="#635F78" d="M172.012 477.527l-129.145 107.34 131.496-105.687z"/><path fill="#605855" d="M191.957 473.648l-17.594 5.532 19.547 5.504z"/><path fill="#0C0C0C" d="M172.012 477.527l2.351 1.653 17.594-5.532z"/><path fill="#1A292E" d="M-14 61l186.012 416.527 19.945-3.879z"/><path fill="#807A94" d="M42.867 584.867l-3.215 12.18 154.258-112.363z"/><path fill="#4B4B65" d="M174.363 479.18l-131.496 105.687 151.043-100.183z"/><path fill="#BEAEAE" d="M489.492 592.945l-295.582-108.261 296.215 121.183z"/><path fill="#585975" d="M193.91 484.684l-154.258 112.363 450.473 8.82z"/><path fill="#160014" d="M39.652 597.047l-53.652 240.953 504.125-232.133z"/><path fill="#21383D" d="M191.957 473.648l301.129 99.813 227.414-512.461z"/><path fill="#324146" d="M490.125 605.867l5.34-1.457.539-2.422z"/><path fill="#2D3C41" d="M498.027 598.059l-2.023 3.929 4.293-.715z"/><path fill="#223136" d="M496.004 601.988l-.539 2.422 4.832-3.137z"/><path fill="#584257" d="M191.957 473.648l1.953 11.036 299.176 88.777z"/><path fill="#F3F2EE" d="M193.91 484.684l295.582 108.261 3.594-19.484z"/><path fill="#132227" d="M489.492 592.945l.633 12.922 3.578-9.168z"/><path fill="#1B282E" d="M497.57 576.812l-3.867 19.887 4.324 1.36z"/><path fill="#1B2A2F" d="M-14 61l205.957 412.648 528.543-412.648z"/><path fill="#48575C" d="M493.703 596.699l-3.578 9.168 5.879-3.879z"/><path fill="#303B3F" d="M954.914 602.375l-196.246 2.961 696.332 232.664z"/><path fill="#1B2A2F" d="M493.086 573.461l-3.594 19.484 8.078-16.133z"/><path fill="#17262B" d="M489.492 592.945l4.211 3.754 3.867-19.887z"/><path fill="#1A292E" d="M493.703 596.699l2.301 5.289 2.023-3.929z"/><path fill="#0D554A" d="M758.668 605.336l-772.668 232.664h1469z"/><path fill="#243336" d="M1301.098 444.609l138.863-25.789 15.039-357.82z"/><path fill="#101F24" d="M490.125 605.867l-504.125 232.133 772.668-232.664z"/><path fill="#373B3A" d="M720.5 61l-227.414 512.461 373.434-174.844z"/><path fill="#1C2B30" d="M497.57 576.812l2.727 24.461 258.371 4.063z"/><path fill="#213035" d="M495.465 604.41l-5.34 1.457 268.543-.531z"/><path fill="#1A292E" d="M500.297 601.273l-4.832 3.137 263.203.926z"/><path fill="#F6F6F6" d="M493.086 573.461l4.484 3.351 368.95-178.195z"/><path fill="#747A78" d="M497.57 576.812l261.098 28.524 107.852-206.719z"/><path fill="#565B5F" d="M951.477 597.59l-192.809 7.746 196.246-2.961z"/><path fill="#2D3F3F" d="M1124.449 357.031l176.649 87.578 153.902-383.609z"/><path fill="#88918E" d="M866.52 398.617l-107.852 206.719 123.309-199.719z"/><path fill="#6D726C" d="M881.977 405.617l-123.309 199.719 192.809-7.746z"/><path fill="#948F8C" d="M1101.301 493.641l1.914-.043 21.234-136.567z"/><path fill="#314343" d="M720.5 61l146.02 337.617 208.671-46.527z"/><path fill="#384B49" d="M866.52 398.617l15.457 7 193.214-53.527z"/><path fill="#988F8A" d="M1075.191 352.09l26.11 141.551 23.148-136.61z"/><path fill="#878380" d="M881.977 405.617l69.5 191.973 138.898-82.469z"/><path fill="#27302D" d="M1124.449 357.031l-21.234 136.567 197.883-48.989z"/><path fill="#6B6F6E" d="M951.477 597.59l3.437 4.785 142.859-62.57z"/><path fill="#B4B4B4" d="M1090.375 515.121l-138.898 82.469 146.296-57.785z"/><path fill="#5E6668" d="M1092.863 515.602l-2.488-.481 7.398 24.684z"/><path fill="#233134" d="M1075.191 352.09l-193.214 53.527 219.324 88.024z"/><path fill="#797E78" d="M881.977 405.617l208.398 109.504 10.926-21.48z"/><path fill="#666F6C" d="M1090.375 515.121l2.488.481 8.438-21.961z"/><path fill="#3D4945" d="M1092.863 515.602l4.91 24.203 5.442-46.207z"/><path fill="#4A4E4D" d="M1101.301 493.641l-8.438 21.961 10.352-22.004z"/><path fill="#16252A" d="M1097.773 539.805l271.629 147.441.903-5.605z"/><path fill="#1A1F23" d="M1301.098 444.609l69.207 237.032 69.656-262.821z"/><path fill="#222A2A" d="M1103.215 493.598l-5.442 46.207 203.325-95.196z"/><path fill="#141C1C" d="M1301.098 444.609l-203.325 95.196 272.532 141.836z"/><path fill="#1D3439" d="M720.5 61l354.691 291.09 379.809-291.09z"/><path fill="#5E7072" d="M1097.773 539.805l-142.859 62.57 414.488 84.871z"/><path fill="#2B3D3F" d="M1075.191 352.09l49.258 4.941 330.551-296.031z"/></svg>