<svg xmlns="http://www.w3.org/2000/svg" width="1440" height="900" viewBox="0 0 1440 900"><path d="M0 0h1440v900h-1440z"/><path fill="#B19F93" d="M3.48 798.844l-.574 5.699.871 2.43z"/><path fill="#89D5D3" d="M-29.766 93.383l-2.918 6.894 229.485-2.621z"/><path fill="#AC9487" d="M2.199 806.836l1.18 8.672.398-8.535z"/><path fill="#96887D" d="M-17.957 798.777l20.156 8.059.707-2.293z"/><path fill="#786E65" d="M-7.867 814.824l5.547-.058 4.519-7.93z"/><path fill="#AD9C92" d="M-17.957 798.777l10.09 16.047 10.066-7.988z"/><path fill="#5C4D46" d="M2.199 806.836l-4.519 7.93 5.699.742z"/><path fill="#8F746D" d="M-2.32 814.766l-5.547.058 11.246.684z"/><path fill="#BCB3AC" d="M-63.098 945.109l60.629 33.352 5.848-162.953z"/><path fill="#BEB9B6" d="M-7.867 814.824l-55.231 130.285 66.477-129.601z"/><path fill="#B2A7A1" d="M-8.113 781.863l-9.844 16.914 21.437.067z"/><path fill="#9E8D83" d="M-17.957 798.777l20.863 5.766.574-5.699z"/><path fill="#C7B7AA" d="M2.906 804.543l-.707 2.293 1.578.137z"/><path fill="#B4A69D" d="M3.379 815.508l-5.848 162.953 69.352-28.488z"/><path fill="#B5ABA2" d="M3.777 806.973l-.398 8.535 107.363 138.465z"/><path fill="#A08F88" d="M3.379 815.508l63.504 134.465 43.859 4z"/><path fill="#A0958F" d="M3.48 798.844l.297 8.129 106.965 147z"/><path fill="#88DAD4" d="M-39.73 480.855l10.445 165.383 170.691-35.82z"/><path fill="#98DDD8" d="M-29.285 646.238l14.277 128.067 156.414-163.887z"/><path fill="#A4E2DF" d="M-15.008 774.305l6.895 7.558 149.519-171.445z"/><path fill="#C48977" d="M-8.113 781.863l11.593 16.981 137.926-188.426z"/><path fill="#ACE4E3" d="M-39.73 480.855l181.136 129.563 14.758-32.219z"/><path fill="#9EDFD9" d="M227.102-95.684l-30.301 193.34 41.508-193.582z"/><path fill="#A5E2DD" d="M-32.684 100.277l-23.531 44.02 253.016-46.641z"/><path fill="#96DBD6" d="M-50.48-60.391l20.714 153.774 226.567 4.273z"/><path fill="#A9E1DE" d="M37.508-145.234l-87.988 84.843 247.281 158.047z"/><path fill="#A0DEDB" d="M-56.215 144.297l-8.937 127.82 261.953-174.461z"/><path fill="#A0DED9" d="M37.508-145.234l159.293 242.89 30.301-193.34z"/><path fill="#A4E2DD" d="M-61.66 314.238l1.566 8.649 307.852 70.172z"/><path fill="#A5E2DB" d="M196.801 97.656l-261.953 174.461 312.91 120.942z"/><path fill="#47C9C1" d="M-60.094 322.887l20.364 157.968 287.488-87.796z"/><path fill="#73D7CD" d="M-39.73 480.855l195.894 97.344 91.594-185.14z"/><path fill="#A3E1DC" d="M-65.152 272.117l3.492 42.121 309.418 78.821z"/><path fill="#B7A9A6" d="M328.559 879.387l-15.793 67.496 20.152-55.531z"/><path fill="#C4BFBB" d="M110.742 953.973l202.024-7.09 15.793-67.496z"/><path fill="#99DED9" d="M238.309-95.926l-41.508 193.582 129.719-149.101z"/><path fill="#D1D5D8" d="M493.793 860.824l-4.375 1.957 9.531 4.621z"/><path fill="#2DC9BC" d="M156.164 578.199l-14.758 32.219 187.153 268.969z"/><path fill="#BCB8AF" d="M141.406 610.418l-137.926 188.426 325.079 80.543z"/><path fill="#B1ACA9" d="M3.48 798.844l107.262 155.129 217.817-74.586z"/><path fill="#A9A09B" d="M332.918 891.352l12.969 21.019.336-10.035z"/><path fill="#CDC8C5" d="M328.559 879.387l4.359 11.965 13.305 10.984z"/><path fill="#96918E" d="M493.793 860.824l7.07-.969 12.93-15.878z"/><path fill="#ADA9A0" d="M332.918 891.352l-20.152 55.531 33.121-34.512z"/><path fill="#72D3CC" d="M326.52-51.445l-129.719 149.101 152.394-119.472z"/><path fill="#3EC5BE" d="M349.195-21.816l-152.394 119.472 167.683-110.902z"/><path fill="#D6D6D4" d="M380.438-19.828l-12.563 6.359 31.805 13.657z"/><path fill="#A6E1DF" d="M196.801 97.656l50.957 295.403 151.922-392.871z"/><path fill="#DDDCD8" d="M367.875-13.469l-3.391.223 35.196 13.434z"/><path fill="#ADE4DF" d="M364.484-13.246l-167.683 110.902 202.879-97.468z"/><path fill="#BBB6BA" d="M380.438-19.828l19.242 20.016 19.648-42.985z"/><path fill="#CECECC" d="M419.328-42.797l-19.648 42.985 30.765-31.696z"/><path fill="#CFD0D2" d="M430.445-31.508l-30.765 31.696 41.683-23.598z"/><path fill="#D7DBDC" d="M493.793 860.824l5.156 6.578.028-7.164z"/><path fill="#DBE0E3" d="M507.641 544.93l3.394 31.976 4.438-30.109z"/><path fill="#CBD1E1" d="M511.035 576.906l-182.476 302.481 185.234-35.41z"/><path fill="#D6DADB" d="M383.188 923.801l42.394 39.902 63.836-100.922z"/><path fill="#E3E9E9" d="M500.863 859.855l8.61 5.938 1.863-6.441z"/><path fill="#E7EBEA" d="M328.559 879.387l17.664 22.949 143.195-39.555z"/><path fill="#D4D8D9" d="M346.223 902.336l36.965 21.465 106.23-61.02z"/><path fill="#D8DCDD" d="M425.582 963.703l40.887 28.477 32.48-124.778z"/><path fill="#623C2F" d="M328.559 879.387l160.859-16.606 24.375-18.804z"/><path fill="#D8DEDE" d="M489.418 862.781l-63.836 100.922 73.367-96.301z"/><path fill="#C6CCCC" d="M493.793 860.824l5.184-.586 1.886-.383z"/><path fill="#939389" d="M489.418 862.781l4.375-1.957 20-16.847z"/><path fill="#C4C8CB" d="M500.863 859.855l10.473-.503 2.457-15.375z"/><path fill="#DAE2E2" d="M498.977 860.238l-.028 7.164 1.914-7.547z"/><path fill="#90DDD7" d="M247.758 393.059l-91.594 185.14 351.477-33.269z"/><path fill="#DFE5E5" d="M500.863 859.855l-1.914 7.547 10.524-1.609z"/><path fill="#DCE0DF" d="M507.641 544.93l-351.477 33.269 354.871-1.293z"/><path fill="#D6E0DF" d="M511.336 859.352l8.961 16.246.039-34.063z"/><path fill="#DEDDD9" d="M399.68.188l-151.922 392.871 259.883 151.871z"/><path fill="#78D5CD" d="M156.164 578.199l172.395 301.188 182.476-302.481z"/><path fill="#BABCB9" d="M513.793 843.977l-2.457 15.375 9-17.817z"/><path fill="#DAE2E2" d="M509.473 865.793l-10.524 1.609 21.348 8.196z"/><path fill="#DAE0E0" d="M498.949 867.402l-32.48 124.778 53.828-116.582z"/><path fill="#D6D7D9" d="M511.336 859.352l-1.863 6.441 10.824 9.805z"/><path fill="#DBDFE0" d="M520.297 875.598l-53.828 116.582 72.015-1.828z"/><path fill="#DADEE1" d="M399.68.188l107.961 544.742 42.589-2.028z"/><path fill="#DBE4E1" d="M441.363-23.41l-41.683 23.598 150.55 542.714z"/><path fill="#D9DEE1" d="M507.641 544.93l7.832 1.867 34.757-3.895z"/><path fill="#DBE1E1" d="M515.473 546.797l-4.438 30.109 39.195-34.004z"/><path fill="#002339" d="M550.23 542.902l-39.195 34.004 66.906 151.739z"/><path fill="#DADFE2" d="M513.793 843.977l6.543-2.442 57.605-112.89z"/><path fill="#597487" d="M511.035 576.906l2.758 267.071 64.148-115.332z"/><path fill="#DCE0E1" d="M520.297 875.598l18.187 114.754 62.434 3.746z"/><path fill="#D8DEDE" d="M520.297 875.598l80.621 118.5 22.352-3.211z"/><path fill="#D9DEE1" d="M577.941 728.645l-57.605 112.89 130.937 152.379z"/><path fill="#DAE0E0" d="M520.336 841.535l-.039 34.063 130.976 118.316z"/><path fill="#D9DFDF" d="M520.297 875.598l102.973 115.289 28.003 3.027z"/><path fill="#001922" d="M550.23 542.902l27.711 185.743 98.563-169.907z"/><path fill="#D9DEE1" d="M674.73 555.473l-4.894-5.692 6.668 8.957z"/><path fill="#D9DDE0" d="M673.738 550.391l-3.902-.61 4.894 5.692z"/><path fill="#001E29" d="M669.836 549.781l-119.606-6.879 126.274 15.836z"/><path fill="#D9DEE1" d="M673.738 550.391l.992 5.082 1.774 3.265z"/><path fill="#D9DFDF" d="M577.941 728.645l73.332 265.269 48.895-.43z"/><path fill="#D9DEE1" d="M577.941 728.645l122.227 264.839 73.644-25z"/><path fill="#C9C9C9" d="M799.273-66.41l-262.187-1.828 269.684 80.183z"/><path fill="#A4000B" d="M550.23 542.902l119.606 6.879 136.934-537.836z"/><path fill="#D4D4D4" d="M537.086-68.238l-95.723 44.828 365.407 35.355z"/><path fill="#FF211C" d="M441.363-23.41l108.867 566.312 256.54-530.957z"/><path fill="#C9C9C9" d="M799.273-66.41l7.497 78.355 7.429-21.211z"/><path fill="#022425" d="M814.199-9.266l-7.429 21.211 16.316-13.32z"/><path fill="#D5DADD" d="M577.941 728.645l195.871 239.839 77.356-29.148z"/><path fill="#012730" d="M823.086-1.375l-16.316 13.32 49.222-17.058z"/><path fill="#022A34" d="M928.504 21.875l-121.734-9.93 122.476 234.27z"/><path fill="#A8000D" d="M929.246 246.215l-259.41 303.566 260.812-291.258z"/><path fill="#021416" d="M669.836 549.781l3.902.61 256.91-291.868zM673.738 550.391l2.766 8.347 254.144-300.215z"/><path fill="#00252E" d="M855.992-5.113l-49.222 17.058 121.734 9.93zM901.145-11.738l-45.153 6.625 72.512 26.988z"/><path fill="#0C2732" d="M926.34-12.113l-25.195.375 27.359 33.613z"/><path fill="#132531" d="M927.664-12.344l-1.324.231 2.164 33.988z"/><path fill="#670F0E" d="M806.77 11.945l-136.934 537.836 259.41-303.566z"/><path fill="#8F020B" d="M927.664-12.344l.84 34.219 48.41-22.637z"/><path fill="#ADA3A1" d="M973.805 701.637l-122.637 237.699 135.285 31.926z"/><path fill="#73D7CD" d="M973.41 700.305l.395 1.332 5.082-.035z"/><path fill="#83DCD8" d="M930.648 258.523l42.762 441.782 5.477 1.297z"/><path fill="#847771" d="M973.41 700.305l-122.242 239.031 122.637-237.699z"/><path fill="#D7DBDE" d="M676.504 558.738l-98.563 169.907 395.469-28.34z"/><path fill="#D4DADA" d="M577.941 728.645l273.227 210.691 122.242-239.031z"/><path fill="#70494E" d="M930.648 258.523l-254.144 300.215 296.906 141.567z"/><path fill="#ACA090" d="M978.887 701.602l-5.082.035 12.648 269.625z"/><path fill="#940111" d="M985.16-26.969l-8.246 26.207 16.113 3.309z"/><path fill="#DC0006" d="M976.914-.762l-48.41 22.637 64.523-19.328z"/><path fill="#072C3E" d="M928.504 21.875l.742 224.34 63.781-243.668z"/><path fill="#91000D" d="M985.16-26.969l7.867 29.516 10.317-11.91z"/><path fill="#A6A19B" d="M978.887 701.602l7.566 269.66 98.235-48.356z"/><path fill="#A2E3DF" d="M1003.344-9.363l-10.317 11.91 118.871 213.195z"/><path fill="#7DD4CC" d="M929.246 246.215l1.402 12.308 181.25-42.781z"/><path fill="#5CD1C8" d="M993.027 2.547l-63.781 243.668 182.652-30.473z"/><path fill="#8CDBD5" d="M1003.344-9.363l108.554 225.105 83.735-225.73z"/><path fill="#7DD8D3" d="M1474.938 275.914l-54.629 95.918 55.984-76.672z"/><path fill="#74D4D0" d="M1420.309 371.832l-136.067 83.844 152.512-6.809z"/><path fill="#02161D" d="M930.648 258.523l48.239 443.079 305.355-245.926z"/><path fill="#77D3CE" d="M1111.898 215.742l-181.25 42.781 353.594 197.153z"/><path fill="#A3DED8" d="M1284.242 455.676l100.922 115.515 51.59-122.324z"/><path fill="#81DBD1" d="M1195.633-9.988l262.066 53.648 2.883-159.894z"/><path fill="#7CD6D4" d="M1284.242 455.676l-305.355 245.926 406.277-130.411z"/><path fill="#79D5D2" d="M1385.164 571.191l31.668 106.442 1.996-6.528z"/><path fill="#64D1CB" d="M1385.164 571.191l-406.277 130.411 437.945-23.969z"/><path fill="#92D5CE" d="M1416.832 677.633l-437.945 23.969 440.207 4.906z"/><path fill="#89816C" d="M1084.688 922.906l171.273 36.125 163.133-252.523z"/><path fill="#A89889" d="M1255.961 959.031l131.844 16.102 31.289-268.625z"/><path fill="#5E423E" d="M978.887 701.602l105.801 221.304 334.406-216.398z"/><path fill="#7ED7D1" d="M1111.898 215.742l172.344 239.934 136.067-83.844z"/><path fill="#84D9D4" d="M1467.422 242.23l-47.113 129.602 54.629-95.918z"/><path fill="#7CD7D0" d="M1462.32 82.254l-350.422 133.488 355.524 26.488z"/><path fill="#5ACFC6" d="M1475.797 705.801l-56.703.707 63.261 37.094z"/><path fill="#85DCD4" d="M1111.898 215.742l308.411 156.09 47.113-129.602z"/><path fill="#89DCD2" d="M1195.633-9.988l-83.735 225.73 350.422-133.488z"/><path fill="#A2E0DD" d="M1457.699 43.66l-262.066-53.648 266.687 92.242z"/><path fill="#63D2CC" d="M1418.828 671.105l-1.996 6.528 58.965 28.168z"/><path fill="#67D2CC" d="M1416.832 677.633l2.262 28.875 56.703-.707z"/><path fill="#64CECA" d="M1482.355 743.602l-63.261-37.094 67.515 42.867z"/><path fill="#77D7CC" d="M1476.293 295.16l-55.984 76.672 67.582-36.535z"/><path fill="#392D2D" d="M1486.609 749.375l-67.515-42.867 74.781 148.344z"/><path fill="#A59385" d="M1419.094 706.508l-31.289 268.625 106.07-120.281z"/><path fill="#7FDAD1" d="M1487.891 335.297l-67.582 36.535 82.484 6.375z"/><path fill="#80DAD1" d="M1420.309 371.832l16.445 77.035 66.039-70.66z"/><path fill="#92DDD9" d="M1436.754 448.867l-51.59 122.324 142.758 6.332z"/><path fill="#67D5CC" d="M1418.828 671.105l102.117-25.144 6.977-68.438z"/><path fill="#78D9D2" d="M1385.164 571.191l33.664 99.914 109.094-93.582z"/><path fill="#66D3CD" d="M1418.828 671.105l56.969 34.696 45.148-59.84z"/><path fill="#67D4CE" d="M1502.793 378.207l-66.039 70.66 93.461-49.226z"/><path fill="#B3ABA8" d="M1387.805 975.133l159.929 173.023 2.071-284.48z"/><path fill="#80DBD2" d="M1557.008 449.699l-120.254-.832 134.82 74.996z"/><path fill="#A0958F" d="M1493.875 854.852l-106.07 120.281 162-111.457z"/><path fill="#79D8D2" d="M1436.754 448.867l91.168 128.656 43.652-53.66z"/><path fill="#78D9D0" d="M1530.215 399.641l-93.461 49.226 120.254.832z"/></svg>