<svg xmlns="http://www.w3.org/2000/svg" width="1440" height="900" viewBox="0 0 1440 900"><path fill="#1F1F1F" d="M0 0h1440v900h-1440z"/><path fill="#00A594" d="M73.543 12.207l-22.238 7.09 27.578-2.938z"/><path fill="#9DDEDA" d="M51.305 19.297l-51.813 82.015 79.391-84.953z"/><path fill="#9E8D83" d="M-17.957 798.777l20.863 5.766.574-5.699z"/><path fill="#C0917F" d="M-8.113 781.863l32.652 14.801 12.848-141.625z"/><path fill="#A2E1D9" d="M-25.094 233.227l16.11 42.675 20.617-44.125z"/><path fill="#786E65" d="M-7.867 814.824l5.547-.058 4.519-7.93z"/><path fill="#8BDAD4" d="M-50.48-60.391l101.785 79.688 7.121-39.715z"/><path fill="#97DEDA" d="M-17.934 183.02l-7.16 50.207 36.727-1.45z"/><path fill="#AD9C92" d="M-17.957 798.777l10.09 16.047 10.066-7.988z"/><path fill="#96DCDA" d="M11.895 399.117l8.742 7.09 15.457-84.719z"/><path fill="#96887D" d="M-17.957 798.777l20.156 8.059.707-2.293z"/><path fill="#B2A7A1" d="M-8.113 781.863l-9.844 16.914 21.437.067z"/><path fill="#BCB3AC" d="M-63.098 945.109l60.629 33.352 5.848-162.953z"/><path fill="#BEB9B6" d="M-7.867 814.824l-55.231 130.285 66.477-129.601z"/><path fill="#8F746D" d="M-2.32 814.766l-5.547.058 11.246.684z"/><path fill="#5C4D46" d="M2.199 806.836l-4.519 7.93 5.699.742z"/><path fill="#958271" d="M3.777 806.973l-.398 8.535 14.394-9.082z"/><path fill="#C7B7AA" d="M2.906 804.543l-.707 2.293 1.578.137z"/><path fill="#AC9487" d="M2.199 806.836l1.18 8.672.398-8.535z"/><path fill="#80D7D1" d="M-83.395 441.207l43.665 39.648 49.843-80.773z"/><path fill="#97DED6" d="M-60.094 322.887l-23.301 118.32 93.508-41.125z"/><path fill="#A3E1DC" d="M-5.824 316.477l-54.27 6.41 70.207 77.195z"/><path fill="#94D6D4" d="M-.508 101.312l-17.426 81.708 29.567 48.757z"/><path fill="#56CBC3" d="M-39.73 480.855l136.695 72.536 8.39-9.571z"/><path fill="#A1957F" d="M2.906 804.543l.871 2.43 13.996-.547z"/><path fill="#9A8872" d="M3.48 798.844l-.574 5.699 14.867 1.883z"/><path fill="#AAE2DF" d="M-.508 101.312l12.141 130.465 67.25-215.418z"/><path fill="#89DAD4" d="M10.113 400.082l-49.843 80.773 60.367-74.648z"/><path fill="#58CBC4" d="M11.895 399.117l-1.782.965 10.524 6.125z"/><path fill="#C4B3A9" d="M3.48 798.844l14.293 7.582 6.766-9.762z"/><path fill="#C2B4AB" d="M-8.113 781.863l11.593 16.981 21.059-2.18z"/><path fill="#8FDBD7" d="M-8.984 275.902l3.16 40.575 41.918 5.011z"/><path fill="#88D7D1" d="M11.633 231.777l-20.617 44.125 45.078 45.586z"/><path fill="#A3E0D9" d="M-5.824 316.477l15.937 83.605 25.981-78.594z"/><path fill="#9DE0D9" d="M10.113 400.082l1.782-.965 24.199-77.629z"/><path fill="#C59788" d="M-16.988 774.359l8.875 7.504 45.5-126.824z"/><path fill="#7FD6CE" d="M-44.668 722.211l27.68 52.148 54.375-119.32z"/><path fill="#81D7D4" d="M-3.984 644.316l-40.684 77.895 82.055-67.172z"/><path fill="#8BD5D4" d="M-29.766 93.383l29.258 7.929 51.813-82.015z"/><path fill="#85D0CC" d="M-50.48-60.391l20.714 153.774 81.071-74.086z"/><path fill="#B4A69D" d="M3.379 815.508l-5.848 162.953 69.352-28.488z"/><path fill="#AFA59B" d="M17.773 806.426l-14.394 9.082 63.504 134.465z"/><path fill="#9ADBD5" d="M58.426-20.418l-7.121 39.715 22.035-9.242z"/><path fill="#60DDCF" d="M73.34 10.055l-22.035 9.242 22.238-7.09z"/><path fill="#95DAD5" d="M73.34 10.055l.203 2.152 5.34 4.152z"/><path fill="#7DD9D8" d="M105.355 543.82l-8.39 9.571 14.156-5.262z"/><path fill="#6BD3CA" d="M20.637 406.207l-60.367 74.648 145.085 62.965z"/><path fill="#8BDAD5" d="M-39.73 480.855l35.746 163.461 100.949-90.925z"/><path fill="#98DDD8" d="M-3.984 644.316l41.371 10.723 59.578-101.648z"/><path fill="#9ADCD8" d="M73.34 10.055l5.543 6.304 33.183-27.457z"/><path fill="#ACA499" d="M17.773 806.426l49.11 143.547 43.859 4z"/><path fill="#B5A69F" d="M24.539 796.664l-6.766 9.762 92.969 147.547z"/><path fill="#AEE2DE" d="M58.426-20.418l14.914 30.473 38.726-21.153z"/><path fill="#54D1C9" d="M219.211 650.176l-8.418 6.707 11.328 1.215z"/><path fill="#7BDCD3" d="M96.965 553.391l-59.578 101.648 173.406 1.844z"/><path fill="#98E0DC" d="M111.121 548.129l-14.156 5.262 113.828 103.492z"/><path fill="#8CD8D4" d="M37.387 655.039l-12.848 141.625 186.254-139.781z"/><path fill="#C7B9B0" d="M24.539 796.664l86.203 157.309 100.051-297.09z"/><path fill="#B1E8E2" d="M112.066-11.098l-33.183 27.457 157.179-.117z"/><path fill="#9DE3DB" d="M111.121 548.129l99.672 108.754 8.418-6.707z"/><path fill="#73CEC9" d="M233.652-1.91l-22.441-18.672 24.851 36.824z"/><path fill="#DBD8D3" d="M399.68.188l-34.395 10.355 35.363 260.164z"/><path fill="#D7D6D2" d="M359.547 778.395l-2.82 10.804 23.043 14.703z"/><path fill="#91DCD7" d="M78.883 16.359l-67.25 215.418 224.429-215.535z"/><path fill="#A9E4E0" d="M211.211-20.582l-99.145 9.484 123.996 27.34z"/><path fill="#96DDD7" d="M233.652-1.91l2.41 18.152 88.446-29.363z"/><path fill="#D5D5D3" d="M359.121 763.016l-2.394 26.183 2.82-10.804z"/><path fill="#7BD5CC" d="M361.594 8.371l-125.532 7.871 129.223-5.699z"/><path fill="#8C7A6C" d="M222.121 658.098l134.606 131.101 2.394-26.183z"/><path fill="#4F463F" d="M354.934-1.629l-8.266-4.437 14.926 14.437z"/><path fill="#7B474B" d="M346.668-6.066l-15.781-5.457 30.707 19.894z"/><path fill="#BBAEA6" d="M210.793 656.883l-100.051 297.09 245.985-164.774z"/><path fill="#94DFD8" d="M222.121 658.098l-11.328-1.215 145.934 132.316z"/><path fill="#B7B2AF" d="M110.742 953.973l202.024-7.09 43.961-157.684z"/><path fill="#A59C93" d="M312.766 946.883l35.726-18.031 8.235-139.653z"/><path fill="#61D0C7" d="M36.094 321.488l-15.457 84.719 338.297-27.215z"/><path fill="#97DED6" d="M20.637 406.207l84.718 137.613 253.579-164.828z"/><path fill="#7ED9D2" d="M105.355 543.82l5.766 4.309 247.813-169.137z"/><path fill="#6BD6CE" d="M111.121 548.129l108.09 102.047 139.723-271.184z"/><path fill="#A4E1DA" d="M324.508-13.121l-88.446 29.363 125.532-7.871z"/><path fill="#68C9C0" d="M330.887-11.523l-6.379-1.598 37.086 21.492z"/><path fill="#DEDFDA" d="M379.77 803.902l-22.84 122.246 26.258-2.347z"/><path fill="#EBE1E2" d="M354.934-1.629l6.66 10 2.89-21.617z"/><path fill="#E30103" d="M675.305 113.953l-21.746 31.512 68.648 114.859z"/><path fill="#DDD9D6" d="M361.594 8.371l3.691 2.172 2.59-24.012z"/><path fill="#DDD9D8" d="M364.484-13.246l-2.89 21.617 6.281-21.84z"/><path fill="#D8DDE0" d="M520.336 841.535l-.039 34.063 17.797-75.004z"/><path fill="#CFD0CB" d="M356.727 789.199l-8.235 139.653 31.278-124.95z"/><path fill="#D8D7D3" d="M348.492 928.852l8.438-2.704 22.84-122.246z"/><path fill="#85DCD4" d="M36.094 321.488l322.84 57.504 41.714-108.285z"/><path fill="#B0E2E1" d="M365.285 10.543l-129.223 5.699 164.586 254.465z"/><path fill="#BEC2CE" d="M396.09 796.109l-16.32 7.793 23.484-1.195z"/><path fill="#978676" d="M379.77 803.902l3.418 119.899 20.066-121.094z"/><path fill="#96949F" d="M379.77 803.902l16.32-7.793 2.137-7.066z"/><path fill="#D0D0CE" d="M359.547 778.395l20.223 25.507 18.457-14.859z"/><path fill="#DBDAD8" d="M359.121 763.016l.426 15.379 38.68 10.648z"/><path fill="#69D4CA" d="M236.062 16.242l-224.429 215.535 389.015 38.93z"/><path fill="#BDE7E6" d="M11.633 231.777l24.461 89.711 364.554-50.781z"/><path fill="#D6D6D4" d="M380.438-19.828l-12.563 6.359 31.805 13.657z"/><path fill="#DAD9D5" d="M367.875-13.469l-2.59 24.012 34.395-10.355z"/><path fill="#BBB6BA" d="M380.438-19.828l19.242 20.016 19.648-42.985z"/><path fill="#C6CED8" d="M398.227 789.043l-2.137 7.066 7.164 6.598z"/><path fill="#CECECC" d="M419.328-42.797l-19.648 42.985 30.765-31.696z"/><path fill="#DCE0E1" d="M400.648 270.707l135.329-25.223 7.218-6.539z"/><path fill="#D9DDDE" d="M399.68.188l.968 270.519 142.547-31.762z"/><path fill="#CFD0D2" d="M430.445-31.508l-30.765 31.696 41.683-23.598z"/><path fill="#876365" d="M358.934 378.992l-139.723 271.184 239.781-67.297z"/><path fill="#97DCD9" d="M219.211 650.176l2.91 7.922 236.871-75.219z"/><path fill="#B9A8A1" d="M222.121 658.098l137 104.918 99.871-180.137z"/><path fill="#D8DDE1" d="M458.992 582.879l-99.871 180.137 112.531-118.778z"/><path fill="#D5DADD" d="M359.121 763.016l39.106 26.027 73.425-144.805z"/><path fill="#D9DEE1" d="M458.992 582.879l12.66 61.359 21.551-24.14z"/><path fill="#D6E0DF" d="M511.336 859.352l8.961 16.246.039-34.063z"/><path fill="#443025" d="M403.254 802.707l106.219 63.086 1.863-6.441z"/><path fill="#D6D7D9" d="M511.336 859.352l-1.863 6.441 10.824 9.805z"/><path fill="#C5C6C8" d="M398.227 789.043l5.027 13.664 134.84-2.113z"/><path fill="#513124" d="M403.254 802.707l-20.066 121.094 126.285-58.008z"/><path fill="#D8DCDD" d="M383.188 923.801l42.394 39.902 83.891-97.91z"/><path fill="#402E20" d="M403.254 802.707l108.082 56.645 9-17.817z"/><path fill="#D9DDE0" d="M543.195 238.945l-7.218 6.539 20.988 108.59z"/><path fill="#D8DCDD" d="M441.363-23.41l-41.683 23.598 143.515 238.757z"/><path fill="#D7DBDC" d="M425.582 963.703l40.887 28.477 53.828-116.582z"/><path fill="#D8DEDE" d="M509.473 865.793l-83.891 97.91 94.715-88.105z"/><path fill="#CDC6C0" d="M403.254 802.707l117.082 38.828 17.758-40.941z"/><path fill="#EEEDF3" d="M471.652 644.238l-73.425 144.805 138.027-69.734z"/><path fill="#DBE0E3" d="M547.891 368.047l8.379-12.102.695-1.871z"/><path fill="#00252B" d="M398.227 789.043l139.867 11.551 1.324-72.219z"/><path fill="#012E4D" d="M493.203 620.098l-21.551 24.14 64.602 75.071z"/><path fill="#021E33" d="M536.254 719.309l-138.027 69.734 141.191-60.668z"/><path fill="#DBDFE0" d="M520.297 875.598l-53.828 116.582 72.015-1.828z"/><path fill="#D9DDDE" d="M400.648 270.707l-41.714 108.285 188.957-10.945z"/><path fill="#D7DCDF" d="M556.965 354.074l-.578 6.367 35.937 29.719z"/><path fill="#011313" d="M493.203 620.098l43.051 99.211 18.281-8.805z"/><path fill="#DBE0E3" d="M556.27 355.945l.117 4.496.578-6.367z"/><path fill="#DCE1E4" d="M556.27 355.945l-8.379 12.102 8.496-7.606z"/><path fill="#DDE1E2" d="M400.648 270.707l147.243 97.34 9.074-13.973z"/><path fill="#D9DEE1" d="M554.535 710.504l-18.281 8.805 20.246 6.836z"/><path fill="#D6DBDE" d="M536.254 719.309l3.164 9.066 17.082-2.23zM539.418 728.375l-1.324 72.219 18.406-74.449z"/><path fill="#DBDEE3" d="M535.977 245.484l-135.329 25.223 156.317 83.367z"/><path fill="#DEE2E5" d="M547.891 368.047l-188.957 10.945 210.086 122.281z"/><path fill="#D8DCDD" d="M358.934 378.992l100.058 203.887 110.028-81.606z"/><path fill="#DCE1E4" d="M458.992 582.879l34.211 37.219 75.817-118.825z"/><path fill="#D9DFDF" d="M556.5 726.145l-18.406 74.449 39.847-71.949z"/><path fill="#D8DEDE" d="M554.535 710.504l1.965 15.641 21.441 2.5z"/><path fill="#D5D9DA" d="M547.891 368.047l21.129 133.226 23.304-111.113z"/><path fill="#D9DDE0" d="M556.387 360.441l-8.496 7.606 44.433 22.113z"/><path fill="#DCE0E1" d="M520.297 875.598l18.187 114.754 62.434 3.746z"/><path fill="#D4DADA" d="M538.094 800.594l-17.797 75.004 102.973 115.289z"/><path fill="#D8DEDE" d="M520.297 875.598l80.621 118.5 22.352-3.211z"/><path fill="#DADFE2" d="M554.535 710.504l23.406 18.141 65.5-115.594z"/><path fill="#DADEDF" d="M441.363-23.41l101.832 262.355 94.594-89.285z"/><path fill="#D8DAD9" d="M537.086-68.238l-95.723 44.828 196.426 173.07z"/><path fill="#ED0001" d="M637.789 149.66l-94.594 89.285 103.731-84.019z"/><path fill="#022C45" d="M569.02 501.273l-75.817 118.825 150.238-7.047z"/><path fill="#00141F" d="M493.203 620.098l61.332 90.406 88.906-97.453z"/><path fill="#D9DEE1" d="M643.441 613.051l-65.5 115.594 81.805-111.512z"/><path fill="#F40007" d="M722.043 271.895l-165.078 82.179 167.043-65.679z"/><path fill="#A70007" d="M543.195 238.945l178.848 32.95.164-11.571z"/><path fill="#DFBDBC" d="M637.789 149.66l9.137 5.266 6.633-9.461z"/><path fill="#DAE0E0" d="M538.094 800.594l85.176 190.293 28.003 3.027z"/><path fill="#DDDFDE" d="M673.773 105.734l1.532 8.219 29.902-31.762z"/><path fill="#00171C" d="M569.02 501.273l74.421 111.778 16.305 4.082z"/><path fill="#DBDFE0" d="M673.773 105.734l-20.214 39.731 21.746-31.512z"/><path fill="#DCE0E1" d="M637.789 149.66l15.77-4.195 20.214-39.731z"/><path fill="#DBDFE0" d="M537.086-68.238l100.703 217.898 35.984-43.926z"/><path fill="#DF0000" d="M556.965 354.074l35.359 36.086 131.684-101.765z"/><path fill="#DBDFE0" d="M538.094 800.594l113.179 193.32 48.895-.43z"/><path fill="#D6DAD9" d="M537.086-68.238l136.687 173.972 31.434-23.543z"/><path fill="#B50104" d="M646.926 154.926l-103.731 84.019 179.012 21.379z"/><path fill="#FD0100" d="M653.559 145.465l-6.633 9.461 75.281 105.398z"/><path fill="#4C0201" d="M722.207 260.324l2.77 12.34 5.418-5.441z"/><path fill="#7B030D" d="M722.043 271.895l1.965 16.5 1.461-1.368z"/><path fill="#DCE0E3" d="M543.195 238.945l13.77 115.129 165.078-82.179z"/><path fill="#650F10" d="M722.207 260.324l-.164 11.571 2.934.769z"/><path fill="#53090A" d="M724.977 272.664l1.929 12.949 3.489-18.39z"/><path fill="#6C090E" d="M724.977 272.664l-2.934-.769 4.863 13.718z"/><path fill="#7D0312" d="M722.043 271.895l3.426 15.132 1.437-1.414z"/><path fill="#FF2119" d="M675.305 113.953l46.902 146.371 18.066-183.379z"/><path fill="#D8DCDD" d="M705.207 82.191l-29.902 31.762 64.968-37.008z"/><path fill="#D1D5D6" d="M705.207 82.191l35.066-5.246 37.446-95.375z"/><path fill="#D8DDE1" d="M577.941 728.645l-39.847 71.949 235.718 167.89z"/><path fill="#D7DDDD" d="M538.094 800.594l162.074 192.89 73.644-25z"/><path fill="#C4C3BE" d="M537.086-68.238l168.121 150.429 72.512-100.621z"/><path fill="#92000D" d="M726.906 285.613l-1.437 1.414 77.668 209.028z"/><path fill="#8B010E" d="M725.469 287.027l-1.461 1.368 79.129 207.66z"/><path fill="#C10001" d="M724.008 288.395l-131.684 101.765 210.813 105.895z"/><path fill="#032E50" d="M592.324 390.16l-23.304 111.113 234.117-5.218z"/><path fill="#BDC6CD" d="M569.02 501.273l90.726 115.86 143.391-121.078z"/><path fill="#D7DBDA" d="M777.719-18.43l-37.446 95.375 66.497-65z"/><path fill="#001317" d="M726.906 285.613l76.231 210.442 2.746.972z"/><path fill="#022425" d="M814.199-9.266l-7.429 21.211 16.316-13.32z"/><path fill="#CCD0CF" d="M777.719-18.43l29.051 30.375 7.429-21.211z"/><path fill="#48D4C9" d="M1092.414 443.418l3.961 1.355 3.215-16.043z"/><path fill="#E0DDD8" d="M805.883 497.027l-2.746-.972 36.675 66.429z"/><path fill="#D3D8DB" d="M803.137 496.055l-143.391 121.078 180.066-54.649z"/><path fill="#DADBD6" d="M805.883 497.027l33.929 65.457 2.5-2.515z"/><path fill="#012730" d="M823.086-1.375l-16.316 13.32 49.222-17.058z"/><path fill="#00090D" d="M901.145-11.738l-45.153 6.625 47 186.23z"/><path fill="#00151B" d="M935.598 488.184l3.976-.094 32.215-48.067z"/><path fill="#011315" d="M855.992-5.113l-49.222 17.058 96.222 169.172z"/><path fill="#A9E0DB" d="M842.312 559.969l-2.5 2.515 62.047 158.653z"/><path fill="#D1D7D7" d="M839.812 562.484l-180.066 54.649 242.113 104.004z"/><path fill="#D7DCE0" d="M659.746 617.133l-81.805 111.512 323.918-7.508z"/><path fill="#D7DCDF" d="M577.941 728.645l195.871 239.839 128.047-247.347z"/><path fill="#DDDCD8" d="M773.812 968.484l77.356-29.148 50.691-218.199z"/><path fill="#620E0E" d="M722.207 260.324l8.188 6.899 172.597-86.106z"/><path fill="#660D0F" d="M740.273 76.945l-18.066 183.379 180.785-79.207z"/><path fill="#3A211D" d="M806.77 11.945l-66.497 65 162.719 104.172z"/><path fill="#6F0A0E" d="M730.395 267.223l-3.489 18.39 176.086-104.496z"/><path fill="#001212" d="M939.574 488.09l-5.183 2.426 7.363-.344z"/><path fill="#001216" d="M805.883 497.027l129.715-8.843 36.191-48.161z"/><path fill="#001113" d="M805.883 497.027l128.508-6.511 1.207-2.332z"/><path fill="#6FD4CE" d="M842.312 559.969l59.547 161.168 29.008-218.66z"/><path fill="#044E4F" d="M934.391 490.516l-3.524 11.961 10.887-12.305z"/><path fill="#2E2020" d="M805.883 497.027l36.429 62.942 88.555-57.492z"/><path fill="#001212" d="M726.906 285.613l78.977 211.414 165.906-57.004z"/><path fill="#7ADBD2" d="M805.883 497.027l124.984 5.45 3.524-11.961z"/><path fill="#011317" d="M935.598 488.184l-1.207 2.332 5.183-2.426z"/><path fill="#89D8D2" d="M908.762 182.668l80.883 70.25 6.031-5.856z"/><path fill="#887D77" d="M901.859 721.137l-50.691 218.199 136.355-4.234z"/><path fill="#9A000C" d="M927.664-12.344l-1.324.231 41.168 30.023z"/><path fill="#755141" d="M902.992 181.117l5.77 1.551 58.746-164.758z"/><path fill="#801728" d="M926.34-12.113l-25.195.375 66.363 29.648z"/><path fill="#001A1B" d="M901.145-11.738l1.847 192.855 64.516-163.207z"/><path fill="#001415" d="M939.574 488.09l2.18 2.082 30.035-50.149z"/><path fill="#91000A" d="M927.664-12.344l39.844 30.254 9.406-18.672z"/><path fill="#76D5D1" d="M995.676 247.062l23.996 14.395.344-9.457z"/><path fill="#940111" d="M985.16-26.969l-8.246 26.207 16.113 3.309z"/><path fill="#74D5CE" d="M726.906 285.613l244.883 154.41 17.856-187.105z"/><path fill="#621110" d="M902.992 181.117l-176.086 104.496 262.739-32.695z"/><path fill="#8CDCD3" d="M908.762 182.668l-5.77-1.551 86.653 71.801z"/><path fill="#8DDCD9" d="M1091.02 445.656l3.941 11.332 1.414-12.215z"/><path fill="#80000D" d="M976.914-.762l-9.406 18.672 25.519-15.363z"/><path fill="#91000D" d="M985.16-26.969l7.867 29.516 10.317-11.91z"/><path fill="#74D5CE" d="M989.645 252.918l-17.856 187.105 47.883-178.566z"/><path fill="#64CFC7" d="M995.676 247.062l-6.031 5.856 30.027 8.539z"/><path fill="#00B4AD" d="M1089.895 441.715l2.519 1.703 7.176-14.688z"/><path fill="#4AD8CC" d="M1091.02 445.656l-8.165 6.383 10.145 4.688z"/><path fill="#85D4CF" d="M993.027 2.547l-25.519 15.363 115.535 112.035z"/><path fill="#021927" d="M1082.855 452.039l1.145 3.504 9 1.184z"/><path fill="#07BBB2" d="M1088.07 441.984l1.825-.269 9.695-12.985z"/><path fill="#002740" d="M971.789 440.023l116.281 1.961 11.52-13.254z"/><path fill="#93DFD3" d="M995.676 247.062l24.34 4.938 63.027-122.055z"/><path fill="#41C9BF" d="M1089.895 441.715l-1.825.269 2.95 3.672z"/><path fill="#84D6D2" d="M967.508 17.91l-58.746 164.758 174.281-52.723z"/><path fill="#7DD8D1" d="M908.762 182.668l86.914 64.394 87.367-117.117z"/><path fill="#73D2CE" d="M1088.07 441.984l-5.215 10.055 8.165-6.383z"/><path fill="#53D1C3" d="M1003.344-9.363l-10.317 11.91 90.016 127.398z"/><path fill="#8BD3CF" d="M1013.074-26.387l-9.73 17.024 79.699 139.308z"/><path fill="#80D7CE" d="M1092.414 443.418l-1.394 2.238 5.355-.883z"/><path fill="#00151A" d="M971.789 440.023l-30.035 50.149 142.246-34.629z"/><path fill="#00181D" d="M1082.855 452.039l-111.066-12.016 112.211 15.52z"/><path fill="#30CABE" d="M1019.672 261.457l-47.883 178.566 127.801-11.293z"/><path fill="#03202E" d="M971.789 440.023l111.066 12.016 5.215-10.055z"/><path fill="#84D7CF" d="M1089.895 441.715l1.125 3.941 1.394-2.238z"/><path fill="#79D4CD" d="M1091.02 445.656l1.98 11.071 1.961.261z"/><path fill="#9ADFDC" d="M1094.961 456.988l-1.961-.261 5.027 3.82z"/><path fill="#00223A" d="M1098.027 460.547l-14.027-5.004 23.488 254.941z"/><path fill="#6ED3CB" d="M1096.375 444.773l-1.414 12.215 3.066 3.559z"/><path fill="#00B6AA" d="M1093 456.727l-9-1.184 14.027 5.004z"/><path fill="#0A1C20" d="M1114.168 709.812l-6.68.672 21.16 149.164z"/><path fill="#69CCC9" d="M1096.375 444.773l1.652 15.774 1.563-31.817z"/><path fill="#53CCC5" d="M930.867 502.477l-29.008 218.66 205.629-10.653z"/><path fill="#777068" d="M987.523 935.102l97.165-12.196 43.96-63.258z"/><path fill="#4ACCC4" d="M941.754 490.172l-10.887 12.305 176.621 208.007z"/><path fill="#0C2833" d="M1084 455.543l-142.246 34.629 165.734 220.312z"/><path fill="#81D2CC" d="M1013.074-26.387l69.969 156.332 45.57-199.925z"/><path fill="#57C8C2" d="M1107.488 710.484l-205.629 10.653 226.789 138.511z"/><path fill="#8D7F76" d="M901.859 721.137l85.664 213.965 141.125-75.454z"/><path fill="#7BD6D1" d="M1083.043 129.945l-63.027 122.055 100.164-49.754z"/><path fill="#7FD9D0" d="M1020.016 252l-.344 9.457 100.508-59.211z"/><path fill="#89DBD7" d="M1019.672 261.457l79.918 167.273 20.59-226.484z"/><path fill="#87735B" d="M1114.168 709.812l14.48 149.836 44.016 16.762z"/><path fill="#ABA49A" d="M1172.664 876.41l-44.016-16.762 53.575 59z"/><path fill="#A49B92" d="M1128.648 859.648l-43.96 63.258 97.535-4.258z"/><path fill="#6FD7D0" d="M1098.027 460.547l124.196 68.582.605-34.516z"/><path fill="#83D8D1" d="M1128.613-69.98l-45.57 199.925 112.59-139.933z"/><path fill="#5BCEC9" d="M1120.18 202.246l-20.59 226.484 103.836-33.367z"/><path fill="#6DD2CC" d="M1099.59 428.73l-1.563 31.817 105.399-65.184z"/><path fill="#63D2CB" d="M1098.027 460.547l9.461 249.937 99.422-82.257z"/><path fill="#66D4C9" d="M1107.488 710.484l6.68-.672 92.742-81.585z"/><path fill="#88DBD1" d="M1203.426 395.363l-105.399 65.184 124.801 34.066z"/><path fill="#74D5CE" d="M1098.027 460.547l108.883 167.68 15.313-99.098z"/><path fill="#A2958C" d="M1252.887 887.953l-17.692-12.574 19.836 41.289z"/><path fill="#9B8882" d="M1245.059 868.961l-9.864 6.418 17.692 12.574z"/><path fill="#A29B93" d="M1172.664 876.41l9.559 42.238 52.972-43.269z"/><path fill="#A59E98" d="M1235.195 875.379l-52.972 43.269 72.808-1.98z"/><path fill="#77D8CD" d="M1120.18 202.246l83.246 193.117 39.73-268.699z"/><path fill="#AC9F99" d="M1172.664 876.41l62.531-1.031 9.864-6.418z"/><path fill="#6DD8CE" d="M1195.633-9.988l-112.59 139.933 160.113-3.281z"/><path fill="#52443B" d="M1114.168 709.812l58.496 166.598 72.395-7.449z"/><path fill="#80DAD0" d="M1083.043 129.945l37.137 72.301 122.976-75.582z"/><path fill="#72D7CF" d="M1222.828 494.613l-.605 34.516 63.867 3.105z"/><path fill="#9C8D86" d="M1245.059 868.961l7.828 18.992 43.187 26.832z"/><path fill="#7FDAD3" d="M1203.426 395.363l19.402 99.25 63.262 37.621z"/><path fill="#60D4CB" d="M1222.223 529.129l-15.313 99.098 79.18-95.993z"/><path fill="#A0968C" d="M1252.887 887.953l2.144 28.715 41.043-1.883z"/><path fill="#5B3D3D" d="M1344.594 766.941l4.937 14.098 3.457-20.348z"/><path fill="#81D8D0" d="M1206.91 628.227l137.684 138.714 8.394-6.25z"/><path fill="#968677" d="M1296.074 914.785l91.731 60.348 17.386-78.387z"/><path fill="#0BB6AD" d="M1206.91 628.227l-92.742 81.585 230.426 57.129z"/><path fill="#5C3635" d="M1114.168 709.812l130.891 159.149 99.535-102.02z"/><path fill="#5D3B39" d="M1344.594 766.941l-99.535 102.02 104.472-87.922z"/><path fill="#816E5D" d="M1245.059 868.961l51.015 45.824 53.457-133.746z"/><path fill="#A18E7F" d="M1349.531 781.039l-53.457 133.746 109.117-18.039z"/><path fill="#94E1D7" d="M1286.09 532.234l-79.18 95.993 178.254-57.036z"/><path fill="#89E0D7" d="M1385.164 571.191l-178.254 57.036 199.156 21.906z"/><path fill="#8EDDD8" d="M1420.309 371.832l-134.219 160.402 150.664-83.367z"/><path fill="#7BD6CD" d="M1206.91 628.227l146.078 132.464 53.078-110.558z"/><path fill="#8EDBD5" d="M1243.156 126.664l166.43 35.461 48.113-118.465z"/><path fill="#6CD7CF" d="M1243.156 126.664l-39.73 268.699 206.16-233.238z"/><path fill="#77D6CE" d="M1286.09 532.234l99.074 38.957 51.59-122.324z"/><path fill="#75D6CD" d="M1195.633-9.988l47.523 136.652 214.543-83.004z"/><path fill="#81DBD1" d="M1195.633-9.988l262.066 53.648 2.883-159.894z"/><path fill="#83DAD4" d="M1406.066 650.133l-53.078 110.558 65.84-89.586z"/><path fill="#75D6CF" d="M1409.586 162.125l-206.16 233.238 216.883-23.531z"/><path fill="#7AD9D1" d="M1203.426 395.363l82.664 136.871 134.219-160.402z"/><path fill="#80D7CF" d="M1457.699 43.66l-48.113 118.465 52.734-79.871z"/><path fill="#A2846C" d="M1352.988 760.691l-3.457 20.348 107.446-2.656z"/><path fill="#783F46" d="M1456.977 778.383l-107.446 2.656 109.098 1.496z"/><path fill="#49C6C0" d="M1459.664 206.691l-50.078-44.566 57.836 80.105z"/><path fill="#7ADACF" d="M1409.586 162.125l10.723 209.707 47.113-129.602z"/><path fill="#B39579" d="M1352.988 760.691l109.305 6.801 4.535-11.551z"/><path fill="#9D8B7F" d="M1405.191 896.746l64.731-42.836.887-19.258z"/><path fill="#65D2CC" d="M1418.828 671.105l-65.84 89.586 113.84-4.75z"/><path fill="#8B6B5C" d="M1352.988 760.691l103.989 17.692 5.316-10.891z"/><path fill="#6B5351" d="M1458.629 782.535l-109.098-1.496 121.278 53.613z"/><path fill="#84D9D4" d="M1467.422 242.23l-47.113 129.602 54.629-95.918z"/><path fill="#9C8B79" d="M1349.531 781.039l55.66 115.707 65.618-62.094z"/><path fill="#7DD8D3" d="M1474.938 275.914l-54.629 95.918 55.984-76.672z"/><path fill="#76D1CA" d="M1418.828 671.105l48 84.836 8.969-50.14z"/><path fill="#73D4CD" d="M1409.586 162.125l50.078 44.566 21.246-20.535z"/><path fill="#83D8D3" d="M1409.586 162.125l74.855-13.641 3.114-28.207z"/><path fill="#77D7CC" d="M1476.293 295.16l-55.984 76.672 67.582-36.535z"/><path fill="#A0DED9" d="M1409.586 162.125l71.324 24.031 3.531-37.672z"/><path fill="#9BDED7" d="M1462.32 82.254l-52.734 79.871 77.969-41.848z"/><path fill="#867D76" d="M1469.922 853.91l-64.731 42.836 88.684-41.894z"/><path fill="#9C8782" d="M1405.191 896.746l-17.386 78.387 106.07-120.281z"/><path fill="#7FDAD1" d="M1487.891 335.297l-67.582 36.535 82.484 6.375z"/><path fill="#80DAD1" d="M1420.309 371.832l16.445 77.035 66.039-70.66z"/><path fill="#75D4D0" d="M1406.066 650.133l114.879-4.172 6.977-68.438z"/><path fill="#75DBD0" d="M1385.164 571.191l20.902 78.942 121.856-72.61z"/><path fill="#92DDD9" d="M1436.754 448.867l-51.59 122.324 142.758 6.332z"/><path fill="#66D3CD" d="M1418.828 671.105l56.969 34.696 45.148-59.84z"/><path fill="#62D2C4" d="M1406.066 650.133l12.762 20.972 102.117-25.144z"/><path fill="#67D4CE" d="M1502.793 378.207l-66.039 70.66 93.461-49.226z"/><path fill="#B3ABA8" d="M1387.805 975.133l159.929 173.023 2.071-284.48z"/><path fill="#80DBD2" d="M1557.008 449.699l-120.254-.832 134.82 74.996z"/><path fill="#A0958F" d="M1493.875 854.852l-106.07 120.281 162-111.457z"/><path fill="#79D8D2" d="M1436.754 448.867l91.168 128.656 43.652-53.66z"/><path fill="#78D9D0" d="M1530.215 399.641l-93.461 49.226 120.254.832z"/></svg>