<svg xmlns="http://www.w3.org/2000/svg" width="1440" height="900" viewBox="0 0 1440 900"><path fill="#1F1F1F" d="M0 0h1440v900h-1440z"/><path fill="#7EDACF" d="M-5.824 316.477l17.719 82.64 33.339-127.004z"/><path fill="#7CD7D0" d="M44.586 187.316l-32.953 44.461 33.601 40.336z"/><path fill="#6CCDC4" d="M-5.824 316.477l15.937 83.605 1.782-.965z"/><path fill="#A3E1DC" d="M-5.824 316.477l-54.27 6.41 70.207 77.195z"/><path fill="#9ADFDA" d="M263.363 355.027l-122.371 92.953 125.32-26.976z"/><path fill="#A4DFDB" d="M-17.934 183.02l29.567 48.757 32.953-44.461z"/><path fill="#A2E1D9" d="M-25.094 233.227l16.11 42.675 20.617-44.125z"/><path fill="#80D7D1" d="M-83.395 441.207l43.665 39.648 49.843-80.773z"/><path fill="#97DED6" d="M-60.094 322.887l-23.301 118.32 93.508-41.125z"/><path fill="#97DEDA" d="M-17.934 183.02l-7.16 50.207 36.727-1.45zM-39.73 480.855l10.445 165.383 95.344 1.762z"/><path fill="#8FDBD7" d="M-39.73 480.855l105.789 167.145 55.738-175.289z"/><path fill="#AEE5E0" d="M-.508 101.312l-17.426 81.708 62.52 4.296z"/><path fill="#A5E2DD" d="M-8.984 275.902l3.16 40.575 51.058-44.364z"/><path fill="#90DBD4" d="M11.633 231.777l-20.617 44.125 54.218-3.789z"/><path fill="#7BD8CD" d="M-31.875 737.082l11.242 11.965 86.692-101.047z"/><path fill="#8BDAD4" d="M-29.285 646.238l-2.59 90.844 97.934-89.082z"/><path fill="#B9AEAA" d="M-56.551 808.586l-6.547 136.523 129.981 4.864z"/><path fill="#B5AAA4" d="M-28.68 764.609l-27.871 43.977 123.434 141.387z"/><path fill="#00A096" d="M152.809 655.836l-47.633-8.906 102.371 121.117z"/><path fill="#8ADBD4" d="M105.176 646.93l-125.809 102.117 228.18 19z"/><path fill="#98DAD8" d="M-50.48-60.391l49.972 161.703 86.731-172.578z"/><path fill="#7DD8D1" d="M131.266 475.441l-9.469-2.73 19.609 137.707z"/><path fill="#8CD0D1" d="M66.059 648l-86.692 101.047 125.809-102.117z"/><path fill="#50C9C4" d="M131.266 475.441l10.14 134.977 52.91-89.277z"/><path fill="#81DAD4" d="M10.113 400.082l-49.843 80.773 161.527-8.144z"/><path fill="#A5E3E0" d="M11.895 399.117l-1.782.965 111.684 72.629z"/><path fill="#91DBDA" d="M45.234 272.113l-33.339 127.004 120.371 40.785z"/><path fill="#97E0D9" d="M11.895 399.117l109.902 73.594 10.469-32.809z"/><path fill="#51CFC3" d="M121.797 472.711l9.469 2.73 9.726-27.461z"/><path fill="#7CD5CF" d="M132.266 439.902l-10.469 32.809 19.195-24.731z"/><path fill="#80D7CF" d="M66.059 648l39.117-1.07 36.23-36.512z"/><path fill="#97DFDB" d="M121.797 472.711l-55.738 175.289 75.347-37.582z"/><path fill="#74D5CE" d="M141.406 610.418l-36.23 36.512 47.633 8.906z"/><path fill="#7CD7CE" d="M263.363 355.027l2.949 65.977 7.094-32.93z"/><path fill="#82D4CE" d="M-.508 101.312l45.094 86.004 102.961-126.3z"/><path fill="#78D1CD" d="M86.223-71.266l-86.731 172.578 148.055-40.296z"/><path fill="#96DEDA" d="M140.992 447.98l-9.726 27.461 63.05 45.7z"/><path fill="#AAE5DF" d="M147.547 61.016l-102.961 126.3 152.215-89.66z"/><path fill="#73CEC9" d="M233.652-1.91l-22.441-18.672 24.851 36.824z"/><path fill="#99E0DA" d="M196.801 97.656l-152.215 89.66 159.43-83.625z"/><path fill="#66CFCA" d="M44.586 187.316l.648 84.797 158.782-168.422z"/><path fill="#A3E0D9" d="M86.223-71.266l61.324 132.282 63.664-81.598z"/><path fill="#D1D4D9" d="M404.684 720.207l-17.391 8.703 21.293 4.547z"/><path fill="#B0A8A5" d="M238.047 805.148l-127.305 148.825 132.801-140.594z"/><path fill="#AB9995" d="M-28.68 764.609l95.563 185.364 141.168-179.235z"/><path fill="#81D8D0" d="M211.211-20.582l-63.664 81.598 88.515-44.774z"/><path fill="#C7BFBC" d="M207.547 768.047l-228.18-19 228.684 21.691z"/><path fill="#66D3CD" d="M266.312 421.004l-71.996 100.137 73.137 80.918z"/><path fill="#96DFD8" d="M147.547 61.016l49.254 36.64 39.261-81.414z"/><path fill="#B7AEA9" d="M66.883 949.973l43.859 4 97.309-183.235z"/><path fill="#C0A59A" d="M-20.633 749.047l-8.047 15.562 236.731 6.129z"/><path fill="#A2E0DB" d="M196.801 97.656l7.215 6.035 9.394-4.765z"/><path fill="#BDB4AF" d="M207.547 768.047l.504 2.691 29.996 34.41z"/><path fill="#BDA193" d="M207.547 768.047l30.5 37.101 7.039-148.464z"/><path fill="#955D44" d="M213.41 98.926l-9.394 4.765 59.347 251.336z"/><path fill="#B5ACA5" d="M208.051 770.738l-97.309 183.235 127.305-148.825z"/><path fill="#9EE1DA" d="M196.801 97.656l16.609 1.27 22.652-82.684z"/><path fill="#6FD4CE" d="M152.809 655.836l54.738 112.211 37.539-111.363z"/><path fill="#6CCFCA" d="M141.406 610.418l11.403 45.418 92.277.848z"/><path fill="#90DDD5" d="M140.992 447.98l53.324 73.161 71.996-100.137z"/><path fill="#B7B2AF" d="M243.543 813.379l-132.801 140.594 137.985-131.2z"/><path fill="#83D9D0" d="M132.266 439.902l8.726 8.078 122.371-92.953z"/><path fill="#89DAD1" d="M45.234 272.113l87.032 167.789 131.097-84.875z"/><path fill="#98E1D8" d="M204.016 103.691l-158.782 168.422 218.129 82.914z"/><path fill="#76D7D0" d="M141.406 610.418l103.68 46.266 22.367-54.625z"/><path fill="#74D7D4" d="M194.316 521.141l-52.91 89.277 126.047-8.359z"/><path fill="#A5E2DB" d="M263.363 355.027l10.043 33.047.449.11z"/><path fill="#92DBD4" d="M273.406 388.074l-7.094 32.93 7.543-32.82z"/><path fill="#BFB9B9" d="M248.727 822.773l-137.985 131.2 202.024-7.09z"/><path fill="#B8B5B0" d="M248.727 822.773l64.039 124.11 15.793-67.496z"/><path fill="#A9A09B" d="M332.918 891.352l12.969 21.019.336-10.035z"/><path fill="#B7A9A6" d="M328.559 879.387l-15.793 67.496 20.152-55.531z"/><path fill="#8FDCD4" d="M233.652-1.91l2.41 18.152 98.008-44.304zM334.07-28.062l-98.008 44.304 102.922-38.574z"/><path fill="#A4E1DC" d="M236.062 16.242l-22.652 82.684 125.574-121.258z"/><path fill="#CED3D6" d="M387.293 728.91l13.418 14.199 7.875-9.652z"/><path fill="#A69D96" d="M248.727 822.773l79.832 56.614 15.421-14.731z"/><path fill="#ADA9A0" d="M332.918 891.352l-20.152 55.531 33.121-34.512z"/><path fill="#E1DAD0" d="M372.574 897.777l9.668 27.145.946-1.121z"/><path fill="#A9A097" d="M343.98 864.656l-15.421 14.731 28.214 3.347z"/><path fill="#ADA090" d="M332.918 891.352l22.965-3.282.89-5.336z"/><path fill="#ADA49F" d="M328.559 879.387l4.359 11.965 23.855-8.618z"/><path fill="#AEA5A0" d="M332.918 891.352l13.305 10.984 9.66-14.266z"/><path fill="#DDDCD8" d="M355.883 888.07l16.691 9.707 1.438-7.91z"/><path fill="#DDDFDA" d="M370.746 881.484l3.266 8.383 9.371-8.683z"/><path fill="#D5D6D1" d="M343.98 864.656l12.793 18.078 13.973-1.25z"/><path fill="#D1D0CE" d="M345.887 912.371l11.043 13.777 15.644-28.371z"/><path fill="#D5DADD" d="M409.441 721.613l-.855 11.844 4.945-10.086z"/><path fill="#D8D7D3" d="M343.98 864.656l26.766 16.828 12.637-.3z"/><path fill="#DAD2D0" d="M346.223 902.336l-.336 10.035 26.687-14.594z"/><path fill="#D4D0CD" d="M355.883 888.07l-9.66 14.266 26.351-4.559z"/><path fill="#D9D8D4" d="M356.773 882.734l-.89 5.336 14.863-6.586z"/><path fill="#DCDDD8" d="M370.746 881.484l-14.863 6.586 18.129 1.797z"/><path fill="#D5DADD" d="M409.441 721.613l4.09 1.758 2.68-27.066z"/><path fill="#402A1D" d="M213.41 98.926l49.953 256.101 137.285-84.32z"/><path fill="#D8D7D3" d="M372.574 897.777l-15.644 28.371 25.312-1.226z"/><path fill="#DCDCDA" d="M380.438-19.828l-24.352-3.551 43.594 23.567z"/><path fill="#E0E2DF" d="M374.012 889.867l-1.438 7.91 10.809-16.593z"/><path fill="#BBB6BA" d="M380.438-19.828l19.242 20.016 19.648-42.985z"/><path fill="#DBDAD8" d="M356.086-23.379l-17.102 1.047 60.696 22.52z"/><path fill="#C1B5A5" d="M238.047 805.148l5.496 8.231 143.75-84.469z"/><path fill="#74514B" d="M245.086 656.684l-7.039 148.464 149.246-76.238z"/><path fill="#BAAC9F" d="M243.543 813.379l5.184 9.394 138.566-93.863z"/><path fill="#A89A91" d="M248.727 822.773l95.253 41.883 43.313-135.746z"/><path fill="#7A4D4A" d="M245.086 656.684l142.207 72.226 3.98-49.125z"/><path fill="#86D8D4" d="M267.453 602.059l-22.367 54.625 146.187 23.101z"/><path fill="#8DDCD6" d="M338.984-22.332l-125.574 121.258 186.27-98.738z"/><path fill="#D8DAD5" d="M387.293 728.91l-43.313 135.746 56.731-121.547z"/><path fill="#CDCDCB" d="M343.98 864.656l39.403 16.528 17.328-138.075z"/><path fill="#8ED9D5" d="M263.363 355.027l10.492 33.157 126.793-117.477z"/><path fill="#DDE3E3" d="M458.992 582.879l28.34 11.648 5.762-2.336z"/><path fill="#E1DDDE" d="M267.453 602.059l123.82 77.726 18.344-31.16z"/><path fill="#CBCBD5" d="M391.273 679.785l-3.98 49.125 17.391-8.703z"/><path fill="#D6DBDE" d="M413.531 723.371l-4.945 10.086 7.199-8.75z"/><path fill="#DEE0DF" d="M372.574 897.777l10.614 26.024 22.98-29.723z"/><path fill="#DBDDDA" d="M383.383 881.184l-10.809 16.593 33.594-3.699z"/><path fill="#CECECC" d="M419.328-42.797l-19.648 42.985 30.765-31.696z"/><path fill="#D6DCDC" d="M391.273 679.785l24.938 16.52 3.555-20.965z"/><path fill="#D5DBDB" d="M404.684 720.207l3.902 13.25.855-11.844z"/><path fill="#D5DADE" d="M404.684 720.207l4.757 1.406 6.77-25.308z"/><path fill="#D2D7DA" d="M391.273 679.785l13.411 40.422 11.527-23.902z"/><path fill="#C5CED3" d="M415.785 724.707l-7.199 8.75 8.285 2.773z"/><path fill="#CFD4D7" d="M408.586 733.457l-7.875 9.652 16.16-6.879z"/><path fill="#D6DBDE" d="M413.531 723.371l2.254 1.336.426-28.402z"/><path fill="#D4D9DC" d="M409.617 648.625l-18.344 31.16 28.493-4.445z"/><path fill="#CFD0D2" d="M430.445-31.508l-30.765 31.696 41.683-23.598z"/><path fill="#D4D8D7" d="M406.168 894.078l-22.98 29.723 42.394 39.902z"/><path fill="#D8DDE0" d="M523.297 801.359l-2.961 40.176 17.758-40.941z"/><path fill="#FC0017" d="M796.273 64.574l-10.359 14.492 12.629-8.718z"/><path fill="#D7DBDC" d="M493.793 860.824l5.156 6.578.028-7.164z"/><path fill="#C4C8CB" d="M500.863 859.855l10.473-.503 2.457-15.375z"/><path fill="#81D6CF" d="M266.312 421.004l1.141 181.055 191.539-19.18z"/><path fill="#D4D0D1" d="M267.453 602.059l142.164 46.566 49.375-65.746z"/><path fill="#D6DCDC" d="M458.992 582.879l-49.375 65.746 77.715-54.098z"/><path fill="#DAE2E2" d="M498.977 860.238l-.028 7.164 1.914-7.547z"/><path fill="#D7DBDC" d="M476.445 234.23l-75.797 36.477 85.282-36.082z"/><path fill="#8D706A" d="M400.711 743.109l-17.328 138.075 98.305-41.649z"/><path fill="#432E1D" d="M383.383 881.184l22.785 12.894 75.52-54.543z"/><path fill="#283859" d="M416.871 736.23l-16.16 6.879 80.977 96.426z"/><path fill="#4A3427" d="M508.062 820.191l-26.374 19.344 32.105 4.442z"/><path fill="#D7DCDF" d="M409.617 648.625l10.149 26.715 67.566-80.813z"/><path fill="#342A21" d="M400.648 270.707l75.797-36.477 10.883-55.875z"/><path fill="#472F23" d="M476.445 234.23l9.485.395 1.398-56.27z"/><path fill="#D6E0DF" d="M511.336 859.352l8.961 16.246.039-34.063z"/><path fill="#DBD7D4" d="M213.41 98.926l187.238 171.781 86.68-92.352z"/><path fill="#392820" d="M481.688 839.535l19.175 20.32 12.93-15.878z"/><path fill="#342B1C" d="M481.688 839.535l7.73 23.246 4.375-1.957z"/><path fill="#D9D5D2" d="M399.68.188l-186.27 98.738 273.918 79.429z"/><path fill="#E3E9E9" d="M500.863 859.855l8.61 5.938 1.863-6.441z"/><path fill="#ABA3A1" d="M481.688 839.535l-75.52 54.543 83.25-31.297z"/><path fill="#D8DCDD" d="M406.168 894.078l19.414 69.625 63.836-100.922z"/><path fill="#D6D7D9" d="M511.336 859.352l-1.863 6.441 10.824 9.805z"/><path fill="#D8DCDD" d="M425.582 963.703l40.887 28.477 32.48-124.778z"/><path fill="#D8DDE0" d="M520.336 841.535l-.039 34.063 17.797-75.004z"/><path fill="#D8DEDE" d="M489.418 862.781l-63.836 100.922 73.367-96.301z"/><path fill="#C6CBCE" d="M458.992 582.879l34.102 9.312 14.547-47.261z"/><path fill="#D1D5D8" d="M493.793 860.824l-4.375 1.957 9.531 4.621z"/><path fill="#C6CCCC" d="M493.793 860.824l5.184-.586 1.886-.383z"/><path fill="#433729" d="M481.688 839.535l12.105 21.289 7.07-.969z"/><path fill="#DBE0E3" d="M511.035 576.906l3.871 6.379.567-36.488z"/><path fill="#DFE5E5" d="M500.863 859.855l-1.914 7.547 10.524-1.609z"/><path fill="#BABCB9" d="M513.793 843.977l-2.457 15.375 9-17.817z"/><path fill="#5A6D67" d="M400.648 270.707l-126.793 117.477 233.786 156.746z"/><path fill="#D5DBDB" d="M266.312 421.004l192.68 161.875 48.649-37.949z"/><path fill="#BFC7C9" d="M511.035 576.906l-17.941 15.285 21.812-8.906z"/><path fill="#7A484B" d="M273.855 388.184l-7.543 32.82 241.329 123.926z"/><path fill="#C3BCB4" d="M508.062 820.191l12.274 21.344 2.961-40.176z"/><path fill="#DFDFE1" d="M416.871 736.23l64.817 103.305 26.374-19.344z"/><path fill="#DBE0E3" d="M507.641 544.93l3.394 31.976 4.438-30.109z"/><path fill="#E5E9E8" d="M599.551 456.191l3.191.18 8.949-10.672z"/><path fill="#DCE0E1" d="M507.641 544.93l-14.547 47.261 17.941-15.285z"/><path fill="#D0D2D1" d="M578.715 257.113l-92.785-22.488 93.89 32.375z"/><path fill="#D9DDDE" d="M399.68.188l87.648 178.167 26.692-30.89z"/><path fill="#D4D8DB" d="M441.363-23.41l-41.683 23.598 114.34 147.277z"/><path fill="#96A6B6" d="M514.906 583.285l-21.812 8.906 25.09 1.606z"/><path fill="#DBE1E1" d="M514.02 147.465l42.253 1.285 8.27-3.703z"/><path fill="#DEE0DF" d="M537.086-68.238l-23.066 215.703 50.523-2.418z"/><path fill="#A2AEBE" d="M514.906 583.285l3.278 10.512 25.015-72.359z"/><path fill="#E1E6E9" d="M493.094 592.191l-5.762 2.336 30.852-.73z"/><path fill="#D8DDE0" d="M515.473 546.797l-.567 36.488 28.293-61.847z"/><path fill="#DBDFE0" d="M564.543 145.047l2.91 6.594.516-3.957z"/><path fill="#BEB8AC" d="M508.062 820.191l5.731 23.786 6.543-2.442z"/><path fill="#DAE2E2" d="M509.473 865.793l-10.524 1.609 21.348 8.196z"/><path fill="#DAE0E0" d="M498.949 867.402l-32.48 124.778 53.828-116.582z"/><path fill="#D1CBCB" d="M441.363-23.41l72.657 170.875 23.066-215.703z"/><path fill="#01100D" d="M416.871 736.23l106.426 65.129 33.203-75.214z"/><path fill="#0C2A35" d="M416.871 736.23l91.191 83.961 15.235-18.832z"/><path fill="#DBDFDE" d="M514.02 147.465l-26.692 30.89 68.945-29.605z"/><path fill="#DBDFE0" d="M520.297 875.598l-53.828 116.582 72.015-1.828z"/><path fill="#C78F80" d="M487.328 178.355l-1.398 56.27 70.343-85.875z"/><path fill="#DBE0E4" d="M507.641 544.93l7.832 1.867 27.726-25.359z"/><path fill="#DADEDF" d="M400.648 270.707l106.993 274.223 35.558-23.492z"/><path fill="#00192A" d="M415.785 724.707l1.086 11.523 139.629-10.085z"/><path fill="#003B5F" d="M416.211 696.305l-.426 28.402 140.715 1.438z"/><path fill="#031219" d="M419.766 675.34l-3.555 20.965 140.289 29.84z"/><path fill="#D8DDE0" d="M523.297 801.359l14.797-.765 18.406-74.449z"/><path fill="#9BB0C1" d="M588.285 485.586l15.473 4.027 4.328-3.136z"/><path fill="#021E33" d="M518.184 593.797l-30.852.73 69.168 131.618z"/><path fill="#002746" d="M487.332 594.527l-67.566 80.813 136.734 50.805z"/><path fill="#DFE0E2" d="M567.969 147.684l-.516 3.957 11.789 7.468z"/><path fill="#D9DEE1" d="M643.523 585.898l-.082 27.153 11.391-31.043z"/><path fill="#DCE1E4" d="M592.23 644.008l7.918-6.461 3.934-5.559z"/><path fill="#DBDFE2" d="M589.984 265.656l1.02 1.731 2.863-2.504z"/><path fill="#D9DFDF" d="M564.543 145.047l-8.27 3.703 11.18 2.891zM556.5 726.145l-18.406 74.449 39.847-71.949z"/><path fill="#DBE1E1" d="M569.02 501.273l-25.821 20.165 29.93-11.11z"/><path fill="#DBDEE5" d="M579.82 267l5.942-1.004.816-2.351z"/><path fill="#DBDFE2" d="M585.762 265.996l-5.942 1.004 8.832 4.727z"/><path fill="#D9E1E4" d="M605.77 428.879l-4.915-1.426 10.836 18.246z"/><path fill="#F2F2F4" d="M578.715 257.113l1.105 9.887 6.758-3.355z"/><path fill="#D9DEE1" d="M598.742 425.688l.809 30.503 1.304-28.738z"/><path fill="#DFE3E6" d="M600.855 427.453l-1.304 28.738 12.14-10.492z"/><path fill="#D6DBDE" d="M584.871 484.289l-15.851 16.984 19.265-15.687z"/><path fill="#F40002" d="M556.273 148.75l22.442 108.363.527-98.004z"/><path fill="#DCE0E1" d="M567.453 151.641l-11.18-2.891 22.969 10.359z"/><path fill="#E1E5E8" d="M653.598 572.602l-3.368 1.171 4.602 8.235z"/><path fill="#C70005" d="M579.242 159.109l-.527 98.004 25.258 4.625z"/><path fill="#3B2720" d="M556.273 148.75l-70.343 85.875 92.785 22.488z"/><path fill="#021E2A" d="M518.184 593.797l74.046 50.211 11.852-12.02z"/><path fill="#D9DEE1" d="M569.02 501.273l4.109 9.055 15.156-24.742z"/><path fill="#DBE0E6" d="M603.973 261.738l.644 4.11 1.184-1.868z"/><path fill="#DBDFE2" d="M603.973 261.738l1.828 2.242 1.847-2.273z"/><path fill="#DADEE1" d="M589.984 265.656l-4.222.34 5.242 1.391z"/><path fill="#D9DEE2" d="M586.578 263.645l-.816 2.351 4.222-.34z"/><path fill="#DBE0E3" d="M585.762 265.996l2.89 5.731 2.352-4.34z"/><path fill="#001C26" d="M518.184 593.797l38.316 132.348 35.73-82.137z"/><path fill="#DADFE2" d="M600.148 637.547l-7.918 6.461 11.493 17.801z"/><path fill="#D7DCDF" d="M598.742 425.688l-13.871 58.601 14.68-28.098z"/><path fill="#DBDFE2" d="M607.648 261.707l-1.847 2.273 10.148-1.335z"/><path fill="#DBDEE3" d="M605.801 263.98l.222 6 9.926-7.335z"/><path fill="#DBDFE2" d="M586.578 263.645l3.406 2.011 3.883-.773zM584.871 484.289l3.414 1.297 11.266-29.395zM598.742 425.688l2.113 1.765 4.915 1.426zM605.801 263.98l-1.184 1.868 1.406 4.132z"/><path fill="#DADFE2" d="M592.23 644.008l-35.73 82.137 47.223-64.336z"/><path fill="#DFE0E5" d="M586.578 263.645l7.289 1.238 5.184-2.293z"/><path fill="#DBE1E1" d="M485.93 234.625l-85.282 36.082 198.094 154.981z"/><path fill="#DCE1E4" d="M579.82 267l-93.89-32.375 112.812 191.063z"/><path fill="#DCE0E3" d="M400.648 270.707l142.551 250.731 55.543-95.75z"/><path fill="#D5DBDB" d="M543.199 521.438l25.821-20.165 29.722-75.585z"/><path fill="#D9DFDF" d="M569.02 501.273l15.851-16.984 13.871-58.601z"/><path fill="#D9DEE2" d="M588.285 485.586l-15.156 24.742 30.629-20.715z"/><path fill="#F2EFF8" d="M578.715 257.113l7.863 6.532 12.473-1.055z"/><path fill="#DCE0E1" d="M520.297 875.598l18.187 114.754 62.434 3.746z"/><path fill="#D9DEE1" d="M602.742 456.371l-3.191-.18 9.539 12.832z"/><path fill="#D3E1E1" d="M579.82 267l18.922 158.688 4.477-133.473z"/><path fill="#093552" d="M602.742 456.371l6.348 12.652 2.137-.109z"/><path fill="#DADFE2" d="M588.652 271.727l-8.832-4.727 23.399 25.215z"/><path fill="#DBE0E3" d="M604.617 265.848l-5.566-3.258 6.972 7.39z"/><path fill="#001D2F" d="M518.184 593.797l85.898 38.191 4.195-6.019z"/><path fill="#BF0005" d="M579.242 159.109l24.731 102.629 3.675-.031z"/><path fill="#DBDFE2" d="M598.742 425.688l7.028 3.191 1.761.262z"/><path fill="#002B44" d="M543.199 521.438l-25.015 72.359 90.093 32.172z"/><path fill="#02425E" d="M611.691 445.699l-.464 23.215 5.429 13.543z"/><path fill="#D9DEE1" d="M556.5 726.145l21.441 2.5 25.782-66.836z"/><path fill="#002C45" d="M602.742 456.371l8.485 12.543.464-23.215z"/><path fill="#D9DEE1" d="M603.723 661.809l-25.782 66.836 42.539-64.567z"/><path fill="#021E2C" d="M573.129 510.328l70.394 75.57 6.707-12.125z"/><path fill="#DBE1E1" d="M603.973 261.738l-4.922.852 5.566 3.258z"/><path fill="#DADDE2" d="M599.051 262.59l-5.184 2.293 12.156 5.097z"/><path fill="#DCE0E3" d="M599.051 262.59l4.922-.852 3.675-.031z"/><path fill="#F6F4F5" d="M578.715 257.113l20.336 5.477 8.597-.883z"/><path fill="#DADFE2" d="M588.652 271.727l14.567 20.488 2.804-22.235z"/><path fill="#DCE0E3" d="M593.867 264.883l-2.863 2.504 15.019 2.593z"/><path fill="#DBDFE2" d="M591.004 267.387l-2.352 4.34 17.371-1.747z"/><path fill="#13395E" d="M611.227 468.914l-2.137.109 7.566 13.434z"/><path fill="#88A2AF" d="M588.285 485.586l19.801.891 1.004-17.454z"/><path fill="#031E29" d="M573.129 510.328l-29.93 11.11 65.078 104.531z"/><path fill="#D9DEE1" d="M608.277 625.969l-4.195 6.019 5.895-2.121z"/><path fill="#DADFE2" d="M604.082 631.988l-3.934 5.559 9.829-7.68z"/><path fill="#D8DDE0" d="M599.551 456.191l-11.266 29.395 20.805-16.563z"/><path fill="#B60003" d="M579.242 159.109l36.707 103.536 4.485-.704z"/><path fill="#DBE0E3" d="M608.277 625.969l35.164-12.918.082-27.153z"/><path fill="#01253B" d="M573.129 510.328l35.148 115.641 35.246-40.071z"/><path fill="#97ADBA" d="M607.531 429.141l-1.761-.262 5.921 16.82z"/><path fill="#032C4A" d="M609.09 469.023l-1.004 17.454 8.57-4.02z"/><path fill="#BD0006" d="M579.242 159.109l28.406 102.598 8.301.938z"/><path fill="#001821" d="M608.086 486.477l-4.328 3.136 12.898-7.156z"/><path fill="#D9DDE0" d="M620.434 261.941l-4.485.704 5.922 1.054z"/><path fill="#DADFE2" d="M609.977 629.867l-9.829 7.68 20.332 26.531z"/><path fill="#D6DBDE" d="M600.148 637.547l3.575 24.262 16.757 2.269z"/><path fill="#DCE0E3" d="M624.777 267.797l-21.558 24.418 27.394-21.027z"/><path fill="#DDE1E2" d="M630.613 271.188l-27.394 21.027 35.902 7.621z"/><path fill="#DDE1E4" d="M621.871 263.699l-5.922-1.054 8.828 5.152z"/><path fill="#BEC6C6" d="M650.23 573.773l-6.707 12.125 11.309-3.89z"/><path fill="#DCE0E3" d="M615.949 262.645l-9.926 7.335 18.754-2.183z"/><path fill="#D4DADA" d="M538.094 800.594l-17.797 75.004 102.973 115.289z"/><path fill="#D8DEDE" d="M520.297 875.598l80.621 118.5 22.352-3.211z"/><path fill="#DADEE1" d="M606.023 269.98l-2.804 22.235 21.558-24.418z"/><path fill="#DCE0E1" d="M624.777 267.797l5.836 3.391 3.778-9.895z"/><path fill="#DCE0E3" d="M621.871 263.699l2.906 4.098 9.614-6.504z"/><path fill="#DADFE2" d="M620.434 261.941l1.437 1.758 12.52-2.406z"/><path fill="#DADCDB" d="M630.613 271.188l8.508 28.648 12.621-8.207z"/><path fill="#E3E6EB" d="M653.598 572.602l1.234 9.406 4.816-10.426z"/><path fill="#9E000E" d="M603.219 292.215l-4.477 133.473 40.379-125.852z"/><path fill="#FBFBFD" d="M598.742 425.688l8.789 3.453 31.59-129.305z"/><path fill="#D8DDE0" d="M653.07 567.844l15.325-3.766 1.441-14.297zM659.648 571.582l7.497-2.449 1.25-5.055zM608.277 625.969l1.7 3.898 33.464-16.816z"/><path fill="#DADFE2" d="M609.977 629.867l10.503 34.211 22.961-51.027z"/><path fill="#DBDFE0" d="M634.391 261.293l-3.778 9.895 21.129 20.441z"/><path fill="#DBDFE2" d="M682.871 537.109l-9.133 13.282 9.176.007z"/><path fill="#D9DEE1" d="M673.738 550.391l.992 5.082 8.184-5.075z"/><path fill="#DAE0E0" d="M538.094 800.594l85.176 190.293 28.003 3.027z"/><path fill="#A90008" d="M607.648 261.707l-3.675.031 49.586-116.273z"/><path fill="#022237" d="M573.129 510.328l77.101 63.445 2.84-5.929z"/><path fill="#002134" d="M603.758 489.613l-30.629 20.715 79.941 57.516z"/><path fill="#D9DDE0" d="M673.738 550.391l-3.902-.61 4.894 5.692z"/><path fill="#DBE1E1" d="M567.969 147.684l11.273 11.425 74.317-13.644z"/><path fill="#AC0205" d="M603.973 261.738l-25.258-4.625 74.844-111.648z"/><path fill="#B60108" d="M578.715 257.113l28.933 4.594 45.911-116.242z"/><path fill="#DBE0E3" d="M653.07 567.844l-2.84 5.929 3.368-1.171z"/><path fill="#D6DBDE" d="M643.441 613.051l-22.961 51.027 39.266-46.945z"/><path fill="#DBE1E1" d="M653.07 567.844l.528 4.758 6.05-1.02z"/><path fill="#DADFE3" d="M654.832 582.008l-11.391 31.043 16.305 4.082z"/><path fill="#E90101" d="M651.742 291.629l-12.621 8.207 23.106 3.641z"/><path fill="#A40106" d="M639.121 299.836l-31.59 129.305 54.696-125.664z"/><path fill="#DADFE2" d="M674.73 555.473l1.774 3.265 6.41-8.34z"/><path fill="#DDE1E4" d="M654.832 582.008l4.914 35.125 7.399-48z"/><path fill="#DCE0E1" d="M567.969 147.684l85.59-2.219 20.214-39.731z"/><path fill="#031926" d="M603.758 489.613l49.312 78.231 16.766-18.063z"/><path fill="#022640" d="M616.656 482.457l-12.898 7.156 66.078 60.168z"/><path fill="#D4DCDE" d="M659.648 571.582l-4.816 10.426 12.313-12.875z"/><path fill="#DBDFE0" d="M564.543 145.047l3.426 2.637 105.804-41.95z"/><path fill="#DCDDDF" d="M537.086-68.238l27.457 213.285 109.23-39.313z"/><path fill="#DADFE2" d="M653.07 567.844l6.578 3.738 8.747-7.504z"/><path fill="#DBDFE0" d="M673.773 105.734l-20.214 39.731 21.746-31.512z"/><path fill="#D8DDE0" d="M669.836 549.781l-1.441 14.297 6.335-8.605z"/><path fill="#A8010B" d="M651.742 291.629l10.485 11.848 14.003-132.856z"/><path fill="#B30000" d="M653.559 145.465l22.671 25.156 11.481-33.551z"/><path fill="#FF2519" d="M653.559 145.465l-74.317 13.644 96.988 11.512z"/><path fill="#FF0008" d="M579.242 159.109l41.192 102.832 55.796-91.32z"/><path fill="#A5010A" d="M634.391 261.293l17.351 30.336 24.488-121.008z"/><path fill="#AD0006" d="M620.434 261.941l13.957-.648 41.839-90.672z"/><path fill="#C0C4C3" d="M667.145 569.133l-7.399 48 16.758-58.395z"/><path fill="#D8DDE0" d="M668.395 564.078l-1.25 5.055 9.359-10.395z"/><path fill="#DADFE2" d="M674.73 555.473l-6.335 8.605 8.109-5.34z"/><path fill="#DADEE1" d="M669.836 549.781l3.902.61 9.133-13.282z"/><path fill="#E2E7EA" d="M676.504 558.738l-16.758 58.395 23.168-66.735z"/><path fill="#D9DEE1" d="M675.305 113.953l-21.746 31.512 34.152-8.395z"/><path fill="#D9DDDE" d="M675.305 113.953l12.406 23.117 17.496-54.879z"/><path fill="#DDDFDE" d="M673.773 105.734l1.532 8.219 29.902-31.762z"/><path fill="#D4DCDC" d="M669.836 549.781l13.035-12.672 5.195-12.074z"/><path fill="#022C45" d="M616.656 482.457l53.18 67.324 18.23-24.746z"/><path fill="#D7DADF" d="M688.066 525.035l-5.195 12.074 20.289-19.824z"/><path fill="#D7DCDF" d="M682.871 537.109l.043 13.289 20.246-33.113z"/><path fill="#DBDFE0" d="M538.094 800.594l113.179 193.32 48.895-.43z"/><path fill="#022744" d="M607.531 429.141l4.16 16.558 91.469 71.586z"/><path fill="#013354" d="M611.691 445.699l4.965 36.758 86.504 34.828z"/><path fill="#00202D" d="M616.656 482.457l71.41 42.578 15.094-7.75z"/><path fill="#D6DAD9" d="M537.086-68.238l136.687 173.972 31.434-23.543z"/><path fill="#692518" d="M800.605 81.066l-17.296 4.532 22.195 14.023z"/><path fill="#F30006" d="M763.801 85.586l3.254 6.414 2.027-3.992z"/><path fill="#D3D3D3" d="M740.273 76.945l13.711 12.977 1.239-16.945z"/><path fill="#C50102" d="M687.711 137.07l-11.481 33.551 78.043-76.027z"/><path fill="#DADCD9" d="M740.273 76.945l-35.066 5.246 49.066 12.403z"/><path fill="#EED6D2" d="M753.984 89.922l-13.711-12.977 14 17.649z"/><path fill="#D8DEDE" d="M705.207 82.191l-17.496 54.879 66.562-42.476z"/><path fill="#E5E1E0" d="M755.223 72.977l-1.239 16.945 9.817-4.336z"/><path fill="#D60103" d="M783.309 85.598l-16.254 6.402 38.449 7.621z"/><path fill="#FD1115" d="M763.801 85.586l-9.817 4.336 13.071 2.078z"/><path fill="#DADEDD" d="M761.586 74.141l-6.363-1.164 8.578 12.609z"/><path fill="#FD1113" d="M763.801 85.586l5.281 2.422 1.59-4.727z"/><path fill="#FE9582" d="M761.586 74.141l2.215 11.445 6.871-2.305z"/><path fill="#E20100" d="M753.984 89.922l.289 4.672 12.782-2.594z"/><path fill="#D8DDE1" d="M577.941 728.645l-39.847 71.949 235.718 167.89z"/><path fill="#D7DDDD" d="M538.094 800.594l162.074 192.89 73.644-25z"/><path fill="#D5DADD" d="M620.48 664.078l-42.539 64.567 195.871 239.839z"/><path fill="#BC0205" d="M823.938 354.16l4.21 26.883.418-22.902z"/><path fill="#D9DADC" d="M740.273 76.945l14.95-3.968 22.496-91.407z"/><path fill="#D1D5D6" d="M705.207 82.191l35.066-5.246 37.446-95.375z"/><path fill="#C4C3BE" d="M537.086-68.238l168.121 150.429 72.512-100.621z"/><path fill="#FC7F7B" d="M770.672 83.281l12.637 2.317 2.605-6.532z"/><path fill="#F8A698" d="M761.586 74.141l9.086 9.14 15.242-4.215z"/><path fill="#D00004" d="M769.082 88.008l-2.027 3.992 16.254-6.402z"/><path fill="#c00" d="M770.672 83.281l-1.59 4.727 14.227-2.41z"/><path fill="#D9DBDA" d="M777.719-18.43l-22.496 91.407 36.465-16.118z"/><path fill="#D7DBDA" d="M755.223 72.977l6.363 1.164 30.102-17.282z"/><path fill="#D9DDDC" d="M761.586 74.141l24.328 4.925 5.774-22.207z"/><path fill="#F0B3B2" d="M791.688 56.859l-5.774 22.207 10.359-14.492z"/><path fill="#EC000A" d="M785.914 79.066l-2.605 6.532 17.296-4.532z"/><path fill="#91081C" d="M798.543 70.348l-12.629 8.718 14.691 2z"/><path fill="#D3D5D4" d="M777.719-18.43l13.969 75.289 15.082-44.914z"/><path fill="#D90200" d="M754.273 94.594l-78.043 76.027 129.274-71z"/><path fill="#FC020C" d="M767.055 92l-12.782 2.594 51.231 5.027z"/><path fill="#052027" d="M791.688 56.859l4.585 7.715 10.497-52.629z"/><path fill="#00131C" d="M607.531 429.141l95.629 88.144 124.594-134.363z"/><path fill="#773A27" d="M800.605 81.066l4.899 18.555 3.742 1.348z"/><path fill="#571113" d="M823.938 354.16l-161.711-50.683 165.527 79.445z"/><path fill="#61120E" d="M809.246 100.969l50.016 133.23 1.929-3.578z"/><path fill="#CCD0CF" d="M777.719-18.43l29.051 30.375 7.429-21.211z"/><path fill="#33241D" d="M819.516 104.023l-10.27-3.054 51.945 129.652z"/><path fill="#9B000D" d="M823.938 354.16l3.816 28.762.394-1.879z"/><path fill="#061415" d="M798.543 70.348l2.062 10.718 27.665 14.254z"/><path fill="#022425" d="M814.199-9.266l-7.429 21.211 16.316-13.32z"/><path fill="#8F1419" d="M828.566 358.141l-.418 22.902 4.571-7.043z"/><path fill="#BF0005" d="M662.227 303.477l-54.696 125.664 220.223-46.219z"/><path fill="#864934" d="M809.246 100.969l10.27 3.054 8.754-8.703z"/><path fill="#02171C" d="M796.273 64.574l2.27 5.774 29.727 24.972z"/><path fill="#02171A" d="M806.77 11.945l-10.497 52.629 31.997 30.746z"/><path fill="#041C1E" d="M823.086-1.375l-16.316 13.32 21.5 83.375z"/><path fill="#5F3124" d="M800.605 81.066l8.641 19.903 19.024-5.649z"/><path fill="#C30109" d="M828.566 358.141l4.153 15.859.832-13.914z"/><path fill="#05181E" d="M823.086-1.375l5.184 96.695 7.668-103.277z"/><path fill="#89000C" d="M823.938 354.16l4.628 3.981 4.985 1.945z"/><path fill="#0A1416" d="M828.27 95.32l-8.754 8.703 15.718-.636z"/><path fill="#DFDCD7" d="M832.719 374l-4.571 7.043 13.36-9.551z"/><path fill="#114F4E" d="M828.148 381.043l-.394 1.879 13.754-11.43z"/><path fill="#A83E48" d="M833.551 360.086l-.832 13.914 8.789-2.508z"/><path fill="#5F0D0F" d="M859.262 234.199l7.086 30.606 1.949-18.813z"/><path fill="#D6DCDC" d="M620.48 664.078l153.332 304.406 77.356-29.148z"/><path fill="#704437" d="M915.148 127.051l12.914-4.414 1.059-5.696z"/><path fill="#31221D" d="M915.148 127.051l-79.914-23.664 81.86 41.718z"/><path fill="#740911" d="M861.191 230.621l-1.929 3.578 9.035 11.793z"/><path fill="#561211" d="M805.504 99.621l-129.274 71 183.032 63.578z"/><path fill="#2C2221" d="M809.246 100.969l-3.742-1.348 53.758 134.578z"/><path fill="#740A0E" d="M676.23 170.621l-14.003 132.856 197.035-69.278z"/><path fill="#5E0C0E" d="M662.227 303.477l161.711 50.683 35.324-119.961z"/><path fill="#673729" d="M835.234 103.387l-15.718.636 41.675 126.598z"/><path fill="#00171D" d="M835.938-7.957l-7.668 103.277 32.644-117.582z"/><path fill="#001516" d="M828.27 95.32l6.964 8.067 25.68-125.649z"/><path fill="#6E090D" d="M859.262 234.199l-35.324 119.961 42.41-89.355z"/><path fill="#C30004" d="M823.938 354.16l9.613 5.926 32.797-95.281z"/><path fill="#02161D" d="M827.754 382.922l86.547 118.016 5.828-125.094z"/><path fill="#009395" d="M841.508 371.492l-13.754 11.43 92.375-7.078z"/><path fill="#C7786B" d="M868.297 245.992l-1.949 18.813 10.234-3.434z"/><path fill="#72D7D3" d="M942.078 298.777l-8.101-4.746 11.609 8.516z"/><path fill="#78D7CF" d="M933.977 294.031l8.101 4.746 2.027.227z"/><path fill="#33251A" d="M835.234 103.387l25.957 127.234 55.903-85.516z"/><path fill="#00A798" d="M833.551 360.086l99.304 1.914 1.122-67.969z"/><path fill="#D5D6D1" d="M914.301 500.938l-231.387 49.46 249.313 156.309z"/><path fill="#001F24" d="M924.168-25.227l-3.484-.015 8.437 142.183z"/><path fill="#7FD8D4" d="M833.551 360.086l7.957 11.406 78.621 4.352z"/><path fill="#DCCFD6" d="M861.191 230.621l7.106 15.371 48.797-100.887z"/><path fill="#CCD0D1" d="M703.16 517.285l-20.246 33.113 231.387-49.46z"/><path fill="#001214" d="M827.754 382.922l-124.594 134.363 211.141-16.347z"/><path fill="#72D3CA" d="M866.348 264.805l-32.797 95.281 100.426-66.055z"/><path fill="#D8DDE0" d="M682.914 550.398l-23.168 66.735 272.481 89.574z"/><path fill="#93D9D7" d="M876.582 261.371l-10.234 3.434 67.629 29.226z"/><path fill="#A99C93" d="M1048.113 746.188l-12.082 124.785 19.067-117.114z"/><path fill="#A0E2DE" d="M932.227 706.707l8.703 7.148 4.777.778z"/><path fill="#05181C" d="M920.684-25.242l-59.77 2.98 68.207 139.203z"/><path fill="#6C4536" d="M915.148 127.051l1.946 18.054 10.968-22.468z"/><path fill="#012B2A" d="M860.914-22.262l-25.68 125.649 93.887 13.554z"/><path fill="#0B2931" d="M835.234 103.387l79.914 23.664 13.973-10.11z"/><path fill="#D2D7DA" d="M620.48 664.078l230.688 275.258 81.059-232.629z"/><path fill="#940111" d="M985.16-26.969l-8.246 26.207 16.113 3.309z"/><path fill="#CFD3D6" d="M659.746 617.133l-39.266 46.945 311.747 42.629z"/><path fill="#5FD1C9" d="M833.551 360.086l86.578 15.758 12.726-13.844z"/><path fill="#8EDDD7" d="M933.977 294.031l-1.122 67.969 12.731-59.453z"/><path fill="#787B60" d="M932.227 706.707l-81.059 232.629 89.762-225.481z"/><path fill="#A0DEDB" d="M944.105 299.004l-2.027-.227 3.508 3.77z"/><path fill="#4DB7B3" d="M954.094 297.586l-8.508 4.961 15.496.562z"/><path fill="#5CD1CB" d="M945.586 302.547l-12.731 59.453 28.227-58.891z"/><path fill="#72D6CE" d="M1017.348 575.051l2.554 27.761 1.325-16.816zM917.094 145.105l72.551 107.813 6.031-5.856z"/><path fill="#E6001A" d="M924.168-25.227l4.953 142.168 47.793-117.703z"/><path fill="#67D8D4" d="M944.105 299.004l9.989-1.418 2.961-7.793z"/><path fill="#7ECDD2" d="M933.977 294.031l10.128 4.973 12.95-9.211z"/><path fill="#70CCC9" d="M944.105 299.004l1.481 3.543 8.508-4.961z"/><path fill="#66D4CB" d="M957.055 289.793l4.027 13.316 18.047-38.851z"/><path fill="#7FDAD3" d="M970.371 532.715l25.067 10.191 6.636-5.992z"/><path fill="#0DC0BA" d="M957.055 289.793l-2.961 7.793 6.988 5.523z"/><path fill="#00161B" d="M920.129 375.844l-5.828 125.094 56.07 31.777z"/><path fill="#00171E" d="M1008.184 545.207l11.968 9.816 4.305.332z"/><path fill="#27C9BA" d="M914.301 500.938l17.926 205.769 38.144-173.992z"/><path fill="#61CEC8" d="M933.977 294.031l23.078-4.238 22.074-25.535z"/><path fill="#8ADBD4" d="M917.094 145.105l62.035 119.153 10.516-11.34z"/><path fill="#76D1CC" d="M868.297 245.992l8.285 15.379 102.547 2.887z"/><path fill="#99E0D8" d="M917.094 145.105l-48.797 100.887 110.832 18.266z"/><path fill="#8CDBD5" d="M876.582 261.371l57.395 32.66 45.152-29.773z"/><path fill="#01141A" d="M1034.211 588.387l-5.555 8.636 7.582-9.148z"/><path fill="#8FD6D2" d="M1005.629-15.176l6.68 30.379.765-41.59z"/><path fill="#91000D" d="M985.16-26.969l7.867 29.516 10.317-11.91z"/><path fill="#0FA9A7" d="M1064.754 735.98l-16.641 10.208 16.809.066z"/><path fill="#9E938D" d="M940.93 713.855l-89.762 225.481 136.355-4.234z"/><path fill="#5AD4C9" d="M1007.289 554.727l-36.918-22.012 46.977 42.336z"/><path fill="#001C20" d="M1029.84 576.535l-2.039.246 4.465 11.996z"/><path fill="#92DDD9" d="M1021.227 585.996l-1.325 16.816 2.211-1.496z"/><path fill="#001920" d="M1024.457 555.355l-4.305-.332 6.219 6.957z"/><path fill="#74D4D0" d="M1022.113 601.316l2.106 103.071 4.437-107.364z"/><path fill="#9ADFDC" d="M1094.961 456.988l-1.961-.261 5.027 3.82z"/><path fill="#98DDDA" d="M993.027 2.547l-16.113-3.309 28.305 15.621z"/><path fill="#5AD2C8" d="M995.438 542.906l-25.067-10.191 36.918 22.012z"/><path fill="#19C2BB" d="M995.438 542.906l11.851 11.821.895-9.52z"/><path fill="#7FDAD3" d="M1002.074 536.914l-6.636 5.992 12.746 2.301z"/><path fill="#98E1D8" d="M1003.344-9.363l-10.317 11.91 12.192 12.312z"/><path fill="#99D5D3" d="M976.914-.762l-47.793 117.703 76.098-102.082z"/><path fill="#011820" d="M1020.152 555.023l-2.804 20.028 9.023-13.071z"/><path fill="#58CDC5" d="M995.676 247.062l-6.031 5.856 25.835 13.523z"/><path fill="#55D2C4" d="M1023.57 587.102l-1.457 14.214 6.543-4.293z"/><path fill="#8ED9D4" d="M989.645 252.918l-10.516 11.34 36.351 2.183z"/><path fill="#79D4CF" d="M979.129 264.258l-18.047 38.851 54.398-36.668z"/><path fill="#97D9D5" d="M1003.344-9.363l1.875 24.222 7.09.344z"/><path fill="#7FCFCE" d="M1005.629-15.176l-2.285 5.813 8.965 24.566z"/><path fill="#005C63" d="M1027.801 576.781l-4.231 10.321 8.696 1.675z"/><path fill="#80E5E1" d="M1002.074 536.914l6.11 8.293 16.273 10.148z"/><path fill="#33C4BF" d="M1021.227 585.996l.886 15.32 1.457-14.214z"/><path fill="#00262F" d="M1026.371 561.98l-9.023 13.071 10.453 1.73z"/><path fill="#007D89" d="M1023.57 587.102l5.086 9.921 3.61-8.246z"/><path fill="#02191F" d="M1029.621 560.57l.219 15.965 6.398 11.34z"/><path fill="#74D9D3" d="M970.371 532.715l-38.144 173.992 87.675-103.895z"/><path fill="#80D6D3" d="M1017.348 575.051l-46.977-42.336 49.531 70.097z"/><path fill="#4ACDC5" d="M932.227 706.707l13.48 7.926 74.195-111.821z"/><path fill="#56CDC9" d="M1008.184 545.207l-.895 9.52 12.863.296z"/><path fill="#59D1C7" d="M1007.289 554.727l10.059 20.324 2.804-20.028z"/><path fill="#9DDFDD" d="M1022.113 601.316l-2.211 1.496 4.317 101.575z"/><path fill="#00161B" d="M1029.621 560.57l-3.25 1.41 3.469 14.555z"/><path fill="#03141C" d="M1032.266 588.777l1.945-.39 2.027-.512z"/><path fill="#01181E" d="M1029.84 576.535l2.426 12.242 3.972-.902z"/><path fill="#60D5CC" d="M1019.902 602.812l-74.195 111.821 78.512-10.246z"/><path fill="#01161B" d="M1026.371 561.98l1.43 14.801 2.039-.246z"/><path fill="#74DACF" d="M1021.227 585.996l2.343 1.106 4.231-10.321z"/><path fill="#70D4CC" d="M1017.348 575.051l3.879 10.945 6.574-9.215z"/><path fill="#00161C" d="M1024.457 555.355l1.914 6.625 3.25-1.41z"/><path fill="#48D4C9" d="M1092.414 443.418l3.961 1.355 3.215-16.043z"/><path fill="#9E917E" d="M940.93 713.855l46.593 221.247 48.508-64.129z"/><path fill="#AE9E8E" d="M945.707 714.633l-4.777-.778 95.101 157.118z"/><path fill="#00171E" d="M1032.266 588.777l-3.61 8.246 5.555-8.636z"/><path fill="#3CC4BA" d="M928.062 122.637l-10.968 22.468 123.511 17.52z"/><path fill="#4AC7BF" d="M917.094 145.105l78.582 101.957 44.929-84.437z"/><path fill="#66D1CB" d="M929.121 116.941l-1.059 5.696 112.543 39.988z"/><path fill="#97D9D8" d="M1005.219 14.859l-76.098 102.082 111.484 45.684z"/><path fill="#85DAD5" d="M1012.309 15.203l-7.09-.344 35.386 147.766z"/><path fill="#86D6D5" d="M995.676 247.062l19.804 19.379 25.125-103.816z"/><path fill="#9C8F87" d="M945.707 714.633l90.324 156.34 12.082-124.785z"/><path fill="#45C9BE" d="M1024.219 704.387l-78.512 10.246 102.406 31.555z"/><path fill="#62D4CA" d="M1015.48 266.441l71.137 168.313 12.973-6.024z"/><path fill="#91D9D8" d="M1048.113 746.188l6.985 7.671 9.824-7.605z"/><path fill="#55CCC6" d="M1064.922 746.254l-9.824 7.605 13.05 6.063z"/><path fill="#5DCFC5" d="M1024.219 704.387l23.894 41.801 16.641-10.208z"/><path fill="#7FD6CE" d="M1012.309 15.203l28.296 147.422 42.438-32.68z"/><path fill="#88D8D5" d="M1064.922 746.254l3.226 13.668 8.555 3.289z"/><path fill="#69D2CD" d="M1088.07 441.984l-8.226 1.164 11.176 2.508z"/><path fill="#B4B3A1" d="M1055.098 753.859l-19.067 117.114 32.117-111.051z"/><path fill="#91DED8" d="M1064.754 735.98l.168 10.274 11.781 16.957z"/><path fill="#B0A295" d="M1068.148 759.922l-32.117 111.051 40.672-107.762z"/><path fill="#9DDFDD" d="M961.082 303.109l118.227 136.114 7.308-4.469z"/><path fill="#01ACA6" d="M932.855 362l-12.726 13.844 159.18 63.379z"/><path fill="#001F32" d="M920.129 375.844l50.242 156.871 108.938-93.492z"/><path fill="#41C9BD" d="M961.082 303.109l-28.227 58.891 146.454 77.223z"/><path fill="#001214" d="M970.371 532.715l31.703 4.199 77.77-93.766z"/><path fill="#011313" d="M1079.309 439.223l-108.938 93.492 109.473-89.567z"/><path fill="#8EDDD8" d="M1015.48 266.441l-54.398 36.668 125.535 131.645z"/><path fill="#7DD7CE" d="M1013.074-26.387l-.765 41.59 69.671-17.07z"/><path fill="#07D7CA" d="M1086.617 434.754l-7.308 4.469 8.761 2.761z"/><path fill="#011826" d="M1079.309 439.223l.535 3.925 8.226-1.164z"/><path fill="#A7A29C" d="M1036.031 870.973l-48.508 64.129 97.165-12.196z"/><path fill="#ABA79E" d="M1076.703 763.211l-40.672 107.762 48.657 51.933z"/><path fill="#41C9BF" d="M1089.895 441.715l-1.825.269 2.95 3.672z"/><path fill="#6ED4C9" d="M1094.961 456.988l3.066 3.559 2.293-14.137z"/><path fill="#45E3D4" d="M1083.043 129.945l19.703-3.586 1.649-10.218z"/><path fill="#8FDBD7" d="M1096.375 444.773l-1.414 12.215 5.359-10.578z"/><path fill="#6AD2CB" d="M1105.047 117.754l-2.301 8.605 5.168-10.41z"/><path fill="#41E3D6" d="M1091.02 445.656l-11.176-2.508 13.156 13.579z"/><path fill="#66D1C9" d="M1086.617 434.754l1.453 7.23 1.825-.269z"/><path fill="#79D4CD" d="M1091.02 445.656l1.98 11.071 1.961.261z"/><path fill="#B0E9E2" d="M1099.59 428.73l-3.215 16.043 3.945 1.637z"/><path fill="#84D7CF" d="M1089.895 441.715l1.125 3.941 1.394-2.238z"/><path fill="#011820" d="M1002.074 536.914l22.383 18.441 68.543-98.628z"/><path fill="#02151C" d="M1079.844 443.148l-77.77 93.766 90.926-80.187z"/><path fill="#8DDCD9" d="M1091.02 445.656l3.941 11.332 1.414-12.215z"/><path fill="#80D7CE" d="M1092.414 443.418l-1.394 2.238 5.355-.883z"/><path fill="#7CD6CD" d="M1098.027 460.547l25.008 39.555 4.172-22.149z"/><path fill="#5BCEC7" d="M1120.18 202.246l-104.7 64.195 116.793-8.757z"/><path fill="#001C28" d="M1093 456.727l-68.543 98.628 73.57-94.808z"/><path fill="#00B4AD" d="M1089.895 441.715l2.519 1.703 7.176-14.688z"/><path fill="#41CCC5" d="M1086.617 434.754l3.278 6.961 9.695-12.985z"/><path fill="#56CFC0" d="M1084.98-.848l-3-1.019 22.415 118.008z"/><path fill="#93DCD5" d="M1012.309 15.203l70.734 114.742 21.352-13.804z"/><path fill="#70D4CA" d="M1081.98-1.867l-69.671 17.07 92.086 100.938z"/><path fill="#6BD0C8" d="M1104.395 116.141l-1.649 10.218 2.301-8.605z"/><path fill="#74D5CC" d="M1099.59 428.73l.73 17.68 8.703 3.184z"/><path fill="#98DAD8" d="M1104.395 116.141l.652 1.613 2.867-1.805z"/><path fill="#00BBAD" d="M1084.98-.848l19.415 116.989 3.519-.192z"/><path fill="#7CD8D3" d="M1100.32 446.41l-2.293 14.137 10.996-10.953z"/><path fill="#8ADBD5" d="M1099.59 428.73l9.433 20.864 7.684-1.719z"/><path fill="#62D0C7" d="M1120.18 202.246l13.578 53.953 17.984 1.758z"/><path fill="#67D2CA" d="M1040.605 162.625l-25.125 103.816 104.7-64.195z"/><path fill="#80D6CD" d="M1083.043 129.945l-42.438 32.68 79.575 39.621z"/><path fill="#7FD6CE" d="M1102.746 126.359l-19.703 3.586 37.137 72.301z"/><path fill="#7DD7CE" d="M1132.273 257.684l-32.683 171.046 52.152-170.773z"/><path fill="#0E1F33" d="M1029.621 560.57l6.617 27.305 86.797-87.773z"/><path fill="#8EDDD7" d="M1127.207 477.953l-4.172 22.149 22.836-6.012z"/><path fill="#021823" d="M1024.457 555.355l5.164 5.215 93.414-60.468z"/><path fill="#002339" d="M1098.027 460.547l-73.57 94.808 98.578-55.253z"/><path fill="#6AD3CC" d="M1116.707 447.875l-7.684 1.719 18.184 28.359z"/><path fill="#66D1CB" d="M1109.023 449.594l-10.996 10.953 29.18 17.406z"/><path fill="#61D3CB" d="M1015.48 266.441l84.11 162.289 32.683-171.046z"/><path fill="#73D7CF" d="M1120.18 202.246l12.093 55.438 1.485-1.485z"/><path fill="#7CDBD3" d="M1167.246 633.941l-6.879 2.856 9.418 15.527z"/><path fill="#93DEDA" d="M1147.66 646.043l4.934 22.441 3.347-2.699z"/><path fill="#A3E0D9" d="M1120.18 202.246l31.562 55.711 45.188-92.934z"/><path fill="#6FD8D3" d="M1160.367 636.797l1.809 17.164 7.609-1.637z"/><path fill="#5ACFC6" d="M1116.707 447.875l10.5 30.078 18.664 16.137z"/><path fill="#011724" d="M1028.656 597.023l-4.437 107.364 123.441-58.344z"/><path fill="#02131A" d="M1024.219 704.387l40.535 31.593 82.906-89.937z"/><path fill="#001A25" d="M1036.238 587.875l-7.582 9.148 119.004 49.02z"/><path fill="#021011" d="M1147.66 646.043l-82.906 89.937 87.84-67.496z"/><path fill="#8EDBD5" d="M1155.941 665.785l-3.347 2.699 6.855-1.679z"/><path fill="#8CDDD7" d="M1152.941 640.395l3.692-.891 3.734-2.707z"/><path fill="#53CBC2" d="M1133.758 256.199l-1.485 1.485 19.469.273z"/><path fill="#1F3C40" d="M1064.754 735.98l11.949 27.231 75.891-94.727z"/><path fill="#5BD4CD" d="M1169.785 652.324l6.817 3.817.171-1.836z"/><path fill="#00171F" d="M1036.238 587.875l111.422 58.168 5.281-5.648z"/><path fill="#002540" d="M1123.035 500.102l-86.797 87.773 116.703 52.52z"/><path fill="#95DAD7" d="M1162.176 653.961l-2.727 12.844 10.336-14.481z"/><path fill="#54CDC8" d="M1123.035 500.102l29.906 140.293 7.426-3.598z"/><path fill="#008972" d="M1186.543 645.605l-9.77 8.7 13.418.855z"/><path fill="#0B2B40" d="M1152.594 668.484l-75.891 94.727 82.746-96.406z"/><path fill="#7ED8CE" d="M1160.367 636.797l-3.734 2.707 5.543 14.457z"/><path fill="#74D8CC" d="M1147.66 646.043l8.281 19.742 6.235-11.824z"/><path fill="#7DD7D5" d="M1156.633 639.504l-3.692.891 9.235 13.566z"/><path fill="#8DDCD6" d="M1152.941 640.395l-5.281 5.648 14.516 7.918z"/><path fill="#67D0CB" d="M1155.941 665.785l3.508 1.02 2.727-12.844z"/><path fill="#72DAD3" d="M1123.035 500.102l37.332 136.695 6.879-2.856z"/><path fill="#80D5D0" d="M1169.785 652.324l-10.336 14.481 17.153-10.664z"/><path fill="#81DAD6" d="M1176.773 654.305l-.171 1.836 13.589-.981z"/><path fill="#5ACEC3" d="M1169.785 652.324l6.988 1.981 9.77-8.7z"/><path fill="#7EDDD5" d="M1167.246 633.941l2.539 18.383 16.758-6.719z"/><path fill="#8FDBD7" d="M1176.602 656.141l-17.153 10.664 30.742-11.645z"/><path fill="#7DD8D3" d="M1123.035 500.102l44.211 133.839 36.945-115.093z"/><path fill="#7ED7D3" d="M1084.98-.848l22.934 116.797 87.719-125.937z"/><path fill="#8FDAD3" d="M1107.914 115.949l-5.168 10.41 94.184 38.664z"/><path fill="#96DEDA" d="M1102.746 126.359l17.434 75.887 76.75-37.223z"/><path fill="#6DD5CE" d="M1145.871 494.09l-22.836 6.012 81.156 18.746z"/><path fill="#59CCC7" d="M1186.543 645.605l3.648 9.555 16.719-26.933z"/><path fill="#6FD4CC" d="M1167.246 633.941l19.297 11.664 20.367-17.378z"/><path fill="#69D2CB" d="M1204.191 518.848l-36.945 115.093 39.664-5.714z"/><path fill="#7CD5CF" d="M1204.191 518.848l2.719 109.379 15.313-99.098z"/><path fill="#81DBD1" d="M1195.633-9.988l262.066 53.648 2.883-159.894z"/><path fill="#61D0CA" d="M1339.055 707.883l-12.657 40.265 81.297-39.199z"/><path fill="#A0E2E0" d="M1195.633-9.988l-87.719 125.937 135.242 10.715z"/><path fill="#7DDAD0" d="M1107.914 115.949l89.016 49.074 46.226-38.359z"/><path fill="#5FCEC7" d="M1196.93 165.023l-45.188 92.934 94.496 153.719z"/><path fill="#84DBD3" d="M1145.871 494.09l58.32 24.758 42.047-107.172z"/><path fill="#7DD6D0" d="M1116.707 447.875l29.164 46.215 100.367-82.414z"/><path fill="#00B19E" d="M1099.59 428.73l17.117 19.145 129.531-36.199z"/><path fill="#84DED5" d="M1151.742 257.957l-52.152 170.773 146.648-17.054z"/><path fill="#72D1C9" d="M1407.695 708.949l39.485 59.192 3.535-7.278z"/><path fill="#B1A7A5" d="M1076.703 763.211l7.985 159.695 170.343-6.238z"/><path fill="#64D2C7" d="M1296.859 636.242l-89.949-8.015 91.348 18.531z"/><path fill="#85D7D3" d="M1222.223 529.129l-15.313 99.098 70.649-44.184z"/><path fill="#74D5CE" d="M1284.242 455.676l-62.019 73.453 63.867 3.105z"/><path fill="#7DD6D0" d="M1222.223 529.129l55.336 54.914 8.531-51.809z"/><path fill="#7ED5CF" d="M1206.91 628.227l-16.719 26.933 108.067-8.402z"/><path fill="#856151" d="M1317.125 778.152l-13.918-7.218 14.367 9.785z"/><path fill="#93DEDA" d="M1385.164 571.191l-46.109 136.692 68.64 1.066z"/><path fill="#85DAD3" d="M1246.238 411.676l-42.047 107.172 80.051-63.172z"/><path fill="#8CDDD6" d="M1204.191 518.848l18.032 10.281 62.019-73.453z"/><path fill="#AD8A76" d="M1322.395 769.191l-4.821 11.528 5.324 12.414z"/><path fill="#997865" d="M1303.207 770.934l13.918 7.218.324-2.972z"/><path fill="#6FD4CC" d="M1296.859 636.242l1.399 10.516 2.324.164z"/><path fill="#AA9989" d="M1296.074 914.785l91.731 60.348 36.941-162.449z"/><path fill="#7BD6CF" d="M1277.559 584.043l-70.649 44.184 89.949 8.015z"/><path fill="#72D6CC" d="M1298.258 646.758l-108.067 8.402 112.196 115.203z"/><path fill="#403F3A" d="M1076.703 763.211l178.328 153.457 47.356-146.305z"/><path fill="#011715" d="M1159.449 666.805l-82.746 96.406 225.684 7.152z"/><path fill="#61D2CC" d="M1190.191 655.16l-30.742 11.645 142.938 103.558z"/><path fill="#69D2CB" d="M1298.258 646.758l4.129 123.605 13.699-10.265z"/><path fill="#54413A" d="M1320.402 767.348l-2.953 7.832 4.946-5.989z"/><path fill="#A88774" d="M1302.387 770.363l.82.571 12.879-10.836z"/><path fill="#B48978" d="M1317.125 778.152l.449 2.567 4.821-11.528z"/><path fill="#8A6B59" d="M1317.449 775.18l-.324 2.972 5.27-8.961z"/><path fill="#4D2F2D" d="M1303.207 770.934l14.242 4.246 2.953-7.832z"/><path fill="#A2826D" d="M1316.086 760.098l-12.879 10.836 17.195-3.586z"/><path fill="#D2C2B3" d="M1316.086 760.098l6.891 7.058 3.421-19.008z"/><path fill="#746254" d="M1322.898 793.133l-67.867 123.535 73.02-117.02z"/><path fill="#B3987D" d="M1317.574 780.719l-14.367-9.785 19.691 22.199z"/><path fill="#4A3F39" d="M1320.402 767.348l1.993 1.843.582-2.035z"/><path fill="#AE8571" d="M1316.086 760.098l4.316 7.25 2.575-.192z"/><path fill="#51CDC5" d="M1298.258 646.758l17.828 113.34 10.312-11.95z"/><path fill="#4D4D45" d="M1302.387 770.363l-47.356 146.305 67.867-123.535z"/><path fill="#A27467" d="M1303.207 770.934l-.82-.571 20.511 22.77z"/><path fill="#A39183" d="M1255.031 916.668l41.043-1.883 31.977-115.137z"/><path fill="#4AC5C0" d="M1298.258 646.758l28.14 101.39 12.657-40.265z"/><path fill="#6BD0C8" d="M1300.582 646.922l-2.324-.164 40.797 61.125z"/><path fill="#74D4D0" d="M1420.309 371.832l-136.067 83.844 152.512-6.809z"/><path fill="#4B3937" d="M1322.395 769.191l.503 23.942 5.153 6.515z"/><path fill="#A17C69" d="M1322.977 767.156l-.582 2.035 5.656 30.457z"/><path fill="#6AD3CE" d="M1300.582 646.922l38.473 60.961 46.109-136.692z"/><path fill="#A3DED8" d="M1284.242 455.676l100.922 115.515 51.59-122.324z"/><path fill="#8ADBD4" d="M1296.859 636.242l3.723 10.68 84.582-75.731z"/><path fill="#77D6CE" d="M1277.559 584.043l19.3 52.199 88.305-65.051z"/><path fill="#76D7D0" d="M1286.09 532.234l-8.531 51.809 107.605-12.852z"/><path fill="#75D6CF" d="M1284.242 455.676l1.848 76.558 99.074 38.957z"/><path fill="#80DBD4" d="M1409.586 162.125l-163.348 249.551 174.071-39.844z"/><path fill="#85D7D3" d="M1246.238 411.676l38.004 44 136.067-83.844z"/><path fill="#80DAD1" d="M1196.93 165.023l49.308 246.653 163.348-249.551z"/><path fill="#7FDAD3" d="M1243.156 126.664l-46.226 38.359 212.656-2.898z"/><path fill="#90DDD7" d="M1385.164 571.191l22.531 137.758 11.399-2.441z"/><path fill="#463F35" d="M1424.746 812.684l3.797 2.109 2.656-6.066z"/><path fill="#894D55" d="M1322.977 767.156l5.074 32.492 96.695 13.036z"/><path fill="#6D494B" d="M1326.398 748.148l-3.421 19.008 101.769 45.528z"/><path fill="#AA9578" d="M1407.695 708.949l-81.297 39.199 98.348 64.536z"/><path fill="#B39A96" d="M1424.746 812.684l-36.941 162.449 40.738-160.34z"/><path fill="#A3947D" d="M1328.051 799.648l-31.977 115.137 128.672-102.101z"/><path fill="#4B3A30" d="M1431.199 808.727l5.707 4.453 3.094-9.008z"/><path fill="#6ED6CD" d="M1419.094 706.508l-11.399 2.441 43.02 51.914z"/><path fill="#A0DED9" d="M1409.586 162.125l71.324 24.031 3.531-37.672z"/><path fill="#50493F" d="M1431.199 808.727l-2.656 6.066 8.363-1.613z"/><path fill="#513132" d="M1431.199 808.727l8.801-4.555 7.18-36.031z"/><path fill="#2E1F18" d="M1424.746 812.684l6.453-3.957 15.981-40.586z"/><path fill="#A17E6A" d="M1407.695 708.949l17.051 103.735 22.434-44.543z"/><path fill="#6D4B42" d="M1440 804.172l-3.094 9.008 14.985-6.719z"/><path fill="#80D7CF" d="M1457.699 43.66l-48.113 118.465 52.734-79.871z"/><path fill="#49C6C0" d="M1459.664 206.691l-50.078-44.566 57.836 80.105z"/><path fill="#8EDBD5" d="M1243.156 126.664l166.43 35.461 48.113-118.465z"/><path fill="#75D6CD" d="M1195.633-9.988l47.523 136.652 214.543-83.004z"/><path fill="#7ADACF" d="M1409.586 162.125l10.723 209.707 47.113-129.602z"/><path fill="#9F8C7E" d="M1436.906 813.18l33.016 40.73.887-19.258z"/><path fill="#777054" d="M1451.891 806.461l-14.985 6.719 33.903 21.472z"/><path fill="#B1A29B" d="M1428.543 814.793l-40.738 160.34 82.117-121.223z"/><path fill="#8E7D69" d="M1436.906 813.18l-8.363 1.613 41.379 39.117z"/><path fill="#70D5CF" d="M1419.094 706.508l31.621 54.355 21.719-11.898z"/><path fill="#7DD8D3" d="M1474.938 275.914l-54.629 95.918 55.984-76.672z"/><path fill="#84D9D4" d="M1467.422 242.23l-47.113 129.602 54.629-95.918z"/><path fill="#72D5D0" d="M1419.094 706.508l53.34 42.457 3.363-43.164z"/><path fill="#77D7CC" d="M1476.293 295.16l-55.984 76.672 67.582-36.535z"/><path fill="#73D4CD" d="M1409.586 162.125l50.078 44.566 21.246-20.535z"/><path fill="#83D8D3" d="M1409.586 162.125l74.855-13.641 3.114-28.207z"/><path fill="#9BDED7" d="M1462.32 82.254l-52.734 79.871 77.969-41.848z"/><path fill="#A59C97" d="M1469.922 853.91l-82.117 121.223 106.07-120.281z"/><path fill="#7FDAD1" d="M1487.891 335.297l-67.582 36.535 82.484 6.375z"/><path fill="#80DAD1" d="M1420.309 371.832l16.445 77.035 66.039-70.66z"/><path fill="#7BDAD2" d="M1385.164 571.191l135.781 74.77 6.977-68.438z"/><path fill="#92DDD9" d="M1436.754 448.867l-51.59 122.324 142.758 6.332z"/><path fill="#7CD8D3" d="M1385.164 571.191l33.93 135.317 101.851-60.547z"/><path fill="#92DFD9" d="M1419.094 706.508l56.703-.707 45.148-59.84z"/><path fill="#67D4CE" d="M1502.793 378.207l-66.039 70.66 93.461-49.226z"/><path fill="#B3ABA8" d="M1387.805 975.133l159.929 173.023 2.071-284.48z"/><path fill="#80DBD2" d="M1557.008 449.699l-120.254-.832 134.82 74.996z"/><path fill="#A0958F" d="M1493.875 854.852l-106.07 120.281 162-111.457z"/><path fill="#79D8D2" d="M1436.754 448.867l91.168 128.656 43.652-53.66z"/><path fill="#78D9D0" d="M1530.215 399.641l-93.461 49.226 120.254.832z"/></svg>