<svg xmlns="http://www.w3.org/2000/svg" width="1440" height="900" viewBox="0 0 1440 900"><path d="M0 0h1440v900h-1440z"/><path fill="#EADEE0" d="M-4.031 497.973l.441 7.886 460.426-259.015z"/><path fill="#7E7B68" d="M-37.508 894.488l13.383 30.461 32.406 20.078z"/><path fill="#262219" d="M-37.52 843l-2.152 36.25 71.848 67.93z"/><path fill="#2D2E29" d="M-39.672 879.25l2.164 15.238 69.684 52.692z"/><path fill="#B09689" d="M-37.508 894.488l45.789 50.539 23.895 2.153z"/><path fill="#2B1E15" d="M-37.52 843l69.696 104.18 4.066.765z"/><path fill="#2E271F" d="M-37.52 843l83.43 105.906 5.465.985z"/><path fill="#695F6A" d="M-37.52 843l73.762 104.945 9.668.961z"/><path fill="#978070" d="M-34.766 784.633l-2.754 58.367 88.895 106.891z"/><path fill="#DDD8DC" d="M-34.766 784.633l86.141 165.258 198.84 59.984z"/><path fill="#542E21" d="M-35.344 781.266l.578 3.367 284.981 225.242z"/><path fill="#E8DDDB" d="M-7.426 395.324l3.395 102.649 460.867-251.129z"/><path fill="#242A20" d="M-4.074 514.051l-34.582 145.211 489.312 257.535z"/><path fill="#6B3229" d="M-38.656 659.262l3.312 122.004 486 135.531z"/><path fill="#DDD6DB" d="M-35.344 781.266l285.559 228.609 200.441-93.078z"/><path fill="#D7CDCC" d="M-3.59 505.859l-.484 8.192 460.91-267.207z"/><path fill="#F2F3F5" d="M-530-297l291.605 584.203 695.231-40.359z"/><path fill="#4C7A92" d="M-238.395 287.203l230.969 108.121 464.262-148.48z"/><path fill="#3C231F" d="M-4.074 514.051l454.73 402.746 40.942-16.524z"/><path fill="#02464F" d="M456.836 246.844l-460.91 267.207 495.672 386.222z"/><path fill="#645761" d="M456.836 246.844l34.762 653.429 150.808.844z"/><path fill="#F6F6F6" d="M-530-297l986.836 543.844 263.164-543.844z"/><path fill="#EFEDF0" d="M1164.414-106.09l346.328 421.274 459.258-612.184z"/><path fill="#41372E" d="M724.645 900.141l6.773 1.089.148-3.218z"/><path fill="#33291F" d="M731.363 894.906l-6.718 5.235 6.921-2.129z"/><path fill="#ECF1F4" d="M456.836 246.844l185.57 654.273 88.957-6.211z"/><path fill="#605654" d="M713.77 905.727l10.875-5.586 6.718-5.235z"/><path fill="#6B6162" d="M642.406 901.117l71.364 4.61 17.593-10.821z"/><path fill="#6E5F5A" d="M731.566 898.012l-.148 3.218 2.414 3.067z"/><path fill="#21170E" d="M731.363 894.906l.203 3.106h15.829z"/><path fill="#473938" d="M747.395 898.012l15.015 4.117 7.754-1.918z"/><path fill="#8E7F82" d="M733.832 904.297l6.063 4.387 7.5-10.672z"/><path fill="#372D24" d="M731.566 898.012l2.266 6.285 13.563-6.285z"/><path fill="#5D4E49" d="M747.395 898.012l1.468 4.98 5.364-1.683z"/><path fill="#716559" d="M747.395 898.012l-7.5 10.672 8.968-5.692z"/><path fill="#594F46" d="M747.395 898.012l6.832 3.297 1.363-.106z"/><path fill="#A39094" d="M747.395 898.012l8.195 3.191 6.82.926z"/><path fill="#403929" d="M784.164 899.238l-5.379 7.969 5.414-2.969z"/><path fill="#382D29" d="M770.164 900.211l8.621 6.996 5.379-7.969z"/><path fill="#A59192" d="M784.164 899.238l.035 5 .84-2.011z"/><path fill="#62595C" d="M784.164 899.238l.875 2.989 8.156-2.278z"/><path fill="#483936" d="M784.164 899.238l9.031.711.664-4.859z"/><path fill="#564B45" d="M770.164 900.211l14-.973 9.695-4.148z"/><path fill="#453A36" d="M793.195 899.949l-8.156 2.278 9.738.867z"/><path fill="#544B50" d="M804.984 894.832l10.008 16.688 3.684-14.688z"/><path fill="#291C16" d="M793.859 895.09l-.664 4.859 1.782-.031z"/><path fill="#655A58" d="M793.195 899.949l1.582 3.145.2-3.176z"/><path fill="#47403A" d="M770.164 900.211l23.695-5.121 8.243-5.27z"/><path fill="#332A23" d="M794.977 899.918l-.2 3.176 5.836 1.886z"/><path fill="#908081" d="M802.102 889.82l-8.243 5.27 11.125-.258z"/><path fill="#403933" d="M793.859 895.09l1.118 4.828 10.007-5.086z"/><path fill="#3E3731" d="M747.395 898.012l22.769 2.199 31.938-10.391z"/><path fill="#7D787E" d="M802.102 889.82l2.882 5.012 13.692 2z"/><path fill="#DAC0CB" d="M456.836 246.844l274.527 648.062 70.739-5.086z"/><path fill="#2E2422" d="M731.363 894.906l16.032 3.106 54.707-8.192z"/><path fill="#97888B" d="M794.977 899.918l5.636 5.062 4.371-10.148z"/><path fill="#898079" d="M804.984 894.832l-4.371 10.148 14.379 6.54z"/><path fill="#EBC9C8" d="M818.676 896.832l-3.684 14.688 10.692 1.636z"/><path fill="#8E807F" d="M818.676 896.832l11.883 3.949 3.191-.183z"/><path fill="#8C7C7C" d="M818.676 896.832l7.008 16.324 4.875-12.375z"/><path fill="#857671" d="M847.855 895.988l-2.699 9.539 10.903-3.683z"/><path fill="#817172" d="M833.75 900.598l11.406 4.929 2.699-9.539z"/><path fill="#8C7D80" d="M802.102 889.82l16.574 7.012 29.179-.844z"/><path fill="#85746D" d="M818.676 896.832l15.074 3.766 14.105-4.61z"/><path fill="#938789" d="M916.559 890.895l10.234 22.054 6.969 2.145z"/><path fill="#968A8C" d="M847.855 895.988l8.204 5.856 60.5-10.949z"/><path fill="#918285" d="M890.062 917.188l24.754-13.754 1.743-12.539z"/><path fill="#362720" d="M456.836 246.844l345.266 642.976 114.457 1.075z"/><path fill="#8F8083" d="M802.102 889.82l45.753 6.168 68.704-5.093z"/><path fill="#938487" d="M856.059 901.844l34.003 15.344 26.497-26.293z"/><path fill="#8B7F81" d="M916.559 890.895l-1.743 12.539 11.977 9.515z"/><path fill="#F3F3F3" d="M720-297l-263.164 543.844 575.582-352.852z"/><path fill="#805743" d="M916.559 890.895l17.203 24.199 102.304 13.254z"/><path fill="#F2F2F2" d="M1059.215-44l-602.379 290.844 606.824-287.813z"/><path fill="#eee" d="M456.836 246.844l459.723 644.051 147.101-931.864z"/><path fill="#F3F3F3" d="M1032.418-106.008l-575.582 352.852 602.379-290.844z"/><path fill="#005162" d="M1063.66-40.969l-147.101 931.864 231.379-907.223z"/><path fill="#333E44" d="M1147.938-16.328l-231.379 907.223 543.5-518.317z"/><path fill="#EEECEF" d="M1167.262-32.41l-12.403 10.668 316.215 338.808z"/><path fill="#EDEBEE" d="M1154.859-21.742l-6.921 5.414 323.136 333.394z"/><path fill="#E2E2E4" d="M1147.938-16.328l312.121 388.906 11.015-55.512z"/><path fill="#E8D9D4" d="M1212.992 929.32l16.297 1.047 266.695-263.578z"/><path fill="#C7BBBD" d="M916.559 890.895l119.507 37.453 450.071-377.368z"/><path fill="#7E4F61" d="M1460.059 372.578l-543.5 518.317 569.578-339.915z"/><path fill="#DECECF" d="M1036.066 928.348l163.653.304 286.418-377.672z"/><path fill="#94745D" d="M1290.855 939.969l66.352-5.383 136.992-141.371z"/><path fill="#94745F" d="M1229.289 930.367l61.566 9.602 203.344-146.754z"/><path fill="#9F7F68" d="M1357.207 934.586l42.813-1.879 94.179-139.492z"/><path fill="#92715E" d="M1400.02 932.707l29.222-6.426 64.957-133.066z"/><path fill="#947561" d="M1429.242 926.281l25.379-12.152 39.578-120.914z"/><path fill="#63463E" d="M1229.289 930.367l264.91-137.152 1.785-126.426z"/><path fill="#B6907B" d="M1486.137 550.98l-286.418 377.672 296.265-261.863z"/><path fill="#E9DCD6" d="M1199.719 928.652l13.273.668 282.992-262.531z"/><path fill="#E3E2E7" d="M1167.262-32.41l303.812 349.476 39.668-1.882z"/><path fill="#EFEDF0" d="M1164.414-106.09l2.848 73.68 343.48 347.594z"/></svg>