<svg xmlns="http://www.w3.org/2000/svg" width="1440" height="900" viewBox="0 0 1440 900"><path d="M0 0h1440v900h-1440z"/><path fill="#3D6974" d="M-11.301 462.629l-.187 1.023 13.058 1.879z"/><path fill="#607882" d="M1.57 465.531l-22.062 24.762 25.762-25.219z"/><path fill="#1C2B26" d="M2.473 628.684l-2.661 8.277 3.786 2.809z"/><path fill="#262E2E" d="M-.188 636.961l-7.484-7.731 8.078 10.872z"/><path fill="#7B8F9A" d="M-20.492 490.293l-5.094 91.363 30.856-116.582z"/><path fill="#7CAEAF" d="M-2.891 381.652l-4.535 13.672 12.696 69.75z"/><path fill="#607C7D" d="M-7.672 629.23l7.484 7.731 2.661-8.277z"/><path fill="#68858D" d="M-10.387 448.406l11.957 17.125 3.7-.457z"/><path fill="#9B857A" d="M-7.672 629.23l-25.16 13.024 33.238-2.152z"/><path fill="#95847A" d="M-9.105 613.082l1.433 16.148 10.145-.546z"/><path fill="#86AAA6" d="M-54.812 793.074l-.208 12.289 74.899 108.024z"/><path fill="#88766C" d="M-32.832 642.254l27.371 17.262 5.867-19.414z"/><path fill="#323C33" d="M-.188 636.961l.594 3.141 3.192-.332z"/><path fill="#1D424A" d="M-11.488 463.652l-5.668 15.024 18.726-13.145z"/><path fill="#1C555E" d="M-17.156 478.676l-3.336 11.617 22.062-24.762z"/><path fill="#153E44" d="M-11.699 460.32l.398 2.309 12.871 2.902z"/><path fill="#59848A" d="M-10.387 448.406l-1.312 11.914 13.269 5.211z"/><path fill="#42898B" d="M-7.426 395.324l-2.961 53.082 15.657 16.668z"/><path fill="#2D2F22" d="M7.141 659.07l-61.953 134.004 74.691 120.313z"/><path fill="#917D72" d="M.406 640.102l-5.867 19.414 12.602-.446z"/><path fill="#37403D" d="M11.109 640.016l.633 12.382 1.113-15.554z"/><path fill="#282A25" d="M11.109 640.016l-7.511-.246 8.144 12.628z"/><path fill="#362923" d="M-56.27 842.367l68.016 69.75 8.133 1.27z"/><path fill="#939AA4" d="M-55.98 760.008l1.168 33.066 61.953-134.004z"/><path fill="#907874" d="M.406 640.102l6.735 18.968 4.601-6.672z"/><path fill="#455262" d="M3.598 639.77l-3.192.332 11.336 12.296z"/><path fill="#697B89" d="M5.27 465.074l-30.856 116.582 37.262 47.106z"/><path fill="#6E5D56" d="M-25.477 677.902l-30.503 82.106 63.121-100.938z"/><path fill="#796C5B" d="M-5.461 659.516l-20.016 18.386 32.618-18.832z"/><path fill="#9D8A7B" d="M-25.586 581.656l16.481 31.426 20.781 15.68z"/><path fill="#7C8C8C" d="M-9.105 613.082l11.578 15.602 9.203.078z"/><path fill="#9BAEAA" d="M11.676 628.762l-9.203-.078 10.382 8.16z"/><path fill="#999081" d="M-56.27 842.367l3.235 14.945 64.781 54.805z"/><path fill="#54453E" d="M-53.035 857.312l10.402 22.364 54.379 32.441z"/><path fill="#2B2B23" d="M-42.633 879.676l20.879 26.547 33.5 5.894z"/><path fill="#33423F" d="M3.598 639.77l7.511.246 1.746-3.172z"/><path fill="#4F7F95" d="M2.473 628.684l1.125 11.086 9.257-2.926z"/><path fill="#212119" d="M-55.02 805.363l-1.25 37.004 76.149 71.02z"/><path fill="#53372C" d="M377.832 771.922l-11.367-.399 20.844 10.629z"/><path fill="#D4A394" d="M7.141 659.07l12.738 254.317 43.035 23.73z"/><path fill="#F2F2F4" d="M-530-297l503.684 567.898 155.957-18.191z"/><path fill="#2A6D7E" d="M-26.652 300.215l1.336 28.457 154.957-75.965z"/><path fill="#0F4756" d="M-25.316 328.672l22.425 52.98 132.532-128.945z"/><path fill="#E2ECEE" d="M-26.316 270.898l-.336 29.317 156.293-47.508z"/><path fill="#A2A0A3" d="M129.641 252.707l-132.532 128.945 225.711-11.843z"/><path fill="#56A6AF" d="M-2.891 381.652l8.161 83.422 217.55-95.265z"/><path fill="#124244" d="M5.27 465.074l6.406 163.688 211.144-258.953z"/><path fill="#E8E9ED" d="M298.594 248.781l-75.774 121.028 80.996-106.946zM129.641 252.707l93.179 117.102 75.774-121.028zM303.816 262.863l-80.996 106.946 85.645-98.571z"/><path fill="#5C342A" d="M376.125 770.133l1.707 1.789 12.391-124.942z"/><path fill="#8F675D" d="M366.465 771.523l-86.668 247.665 107.512-237.036z"/><path fill="#2E2017" d="M376.125 770.133l-9.66 1.39 11.367.399z"/><path fill="#23241C" d="M11.742 652.398l-4.601 6.672 359.324 112.453z"/><path fill="#6B2C25" d="M7.141 659.07l55.773 278.047 303.551-165.594z"/><path fill="#649FAD" d="M388.824 270.695l-166.004 99.114 167.403 277.171z"/><path fill="#654133" d="M377.832 771.922l9.477 10.23 2.914-135.172z"/><path fill="#DFD8DD" d="M62.914 937.117l187.301 72.758 116.25-238.352z"/><path fill="#DBD2D7" d="M250.215 1009.875l29.582 9.313 86.668-247.665z"/><path fill="#EBECF0" d="M308.465 271.238l80.359-.543.133-8.472z"/><path fill="#E8E9ED" d="M303.816 262.863l4.649 8.375 80.492-9.015z"/><path fill="#DCD7DB" d="M279.797 1019.188l64.91 10.449 42.602-247.485z"/><path fill="#E9EAEE" d="M298.594 248.781l5.222 14.082 85.141-.64z"/><path fill="#255D6C" d="M308.465 271.238l-85.645 98.571 166.004-99.114z"/><path fill="#493125" d="M366.465 771.523l9.66-1.39 14.098-123.153z"/><path fill="#1E1E16" d="M12.855 636.844l-1.113 15.554 378.481-5.418z"/><path fill="#692D25" d="M11.742 652.398l354.723 119.125 23.758-124.543z"/><path fill="#642925" d="M11.676 628.762l1.179 8.082 377.368 10.136z"/><path fill="#4F3E36" d="M222.82 369.809l-211.144 258.953 378.547 18.218z"/><path fill="#A3A6AD" d="M388.957 262.223l-.133 8.472 13.875-6.156z"/><path fill="#E8E9ED" d="M388.957 262.223l13.742 2.316 54.137-17.695z"/><path fill="#E9EAEE" d="M298.594 248.781l90.363 13.442 67.879-15.379z"/><path fill="#DFDADE" d="M387.309 782.152l-42.602 247.485 118.797-74.817z"/><path fill="#DECFD2" d="M387.309 782.152l76.195 172.668 18.762-28.804z"/><path fill="#6B432A" d="M387.309 782.152l94.957 143.864 9.332-25.743z"/><path fill="#E2ECEE" d="M513.727 312.883l36.558 12.012 1.328.043z"/><path fill="#E9EAEE" d="M456.836 246.844l-54.137 17.695 111.028 48.344z"/><path fill="#D0CBD1" d="M402.699 264.539l-13.875 6.156 124.903 42.188z"/><path fill="#C3CBD8" d="M388.824 270.695l1.399 376.285 123.504-334.097z"/><path fill="#E6EAED" d="M456.836 246.844l56.891 66.039 37.886 12.055z"/><path fill="#D7D5E0" d="M598.59 551.23l-1.531 7.754 2.804-5.609z"/><path fill="#D3D3DB" d="M599.863 553.375l-2.804 5.609 2.898 4.207z"/><path fill="#D6D5DD" d="M390.223 646.98l206.836-87.996 1.531-7.754z"/><path fill="#0A4354" d="M513.727 312.883l-123.504 334.097 208.367-95.75z"/><path fill="#D4D2D7" d="M597.059 558.984l-206.836 87.996 209.734-83.789z"/><path fill="#8CA0A9" d="M551.613 324.938l-1.328-.043 48.305 226.335z"/><path fill="#813221" d="M390.223 646.98l-2.914 135.172 212.648-218.961z"/><path fill="#025A64" d="M550.285 324.895l-36.558-12.012 84.863 238.347z"/><path fill="#332920" d="M635.742 899.852l-35.711 59.148 36.09-56.039z"/><path fill="#646168" d="M636.781 890.008l-1.039 9.844 5.887-4.95z"/><path fill="#3A3230" d="M641.629 894.902l-5.887 4.95 6.067-1.911z"/><path fill="#54413D" d="M599.957 563.191l-212.648 218.961 248.793 98.586z"/><path fill="#3B2C25" d="M491.598 900.273l143.679-16.335.825-3.2z"/><path fill="#34251E" d="M387.309 782.152l104.289 118.121 144.504-19.535z"/><path fill="#3E342B" d="M491.598 900.273l33.371 39.055 110.308-55.39z"/><path fill="#372E25" d="M524.969 939.328l75.062 19.672 35.711-59.148z"/><path fill="#382F28" d="M635.277 883.938l-110.308 55.39 110.773-39.476z"/><path fill="#827B80" d="M635.277 883.938l.465 15.914 1.039-9.844z"/><path fill="#7A747E" d="M635.277 883.938l1.504 6.07 5.215-4.91z"/><path fill="#867F86" d="M636.102 880.738l-.825 3.2 6.719 1.16z"/><path fill="#463E33" d="M643.34 886.668l7.25 5.914 2.414-6.484z"/><path fill="#423837" d="M641.809 897.941l-6.067 1.911 6.664 1.265z"/><path fill="#8B8189" d="M635.742 899.852l.379 3.109 6.285-1.844z"/><path fill="#261D14" d="M641.996 885.098l-5.215 4.91 6.559-3.34z"/><path fill="#22180F" d="M636.781 890.008l4.848 4.894 1.711-8.234z"/><path fill="#41342E" d="M641.809 897.941l.597 3.176 8.184-8.535z"/><path fill="#463D38" d="M641.629 894.902l.18 3.039 8.781-5.359z"/><path fill="#4B443E" d="M643.34 886.668l-1.711 8.234 8.961-2.32z"/><path fill="#4A4645" d="M641.996 885.098l1.344 1.57 9.664-.57z"/><path fill="#2B2321" d="M636.102 880.738l5.894 4.36 11.008 1z"/><path fill="#352A24" d="M650.59 892.582l-8.184 8.535 19.875 4.113z"/><path fill="#261D14" d="M653.004 886.098l-2.414 6.484 11.691 12.648z"/><path fill="#E6E7EB" d="M694.703 213.973l-143.09 110.965 149.848-106.926z"/><path fill="#EAEBEF" d="M456.836 246.844l237.867-32.871 8.149-28.856z"/><path fill="#E8E9ED" d="M456.836 246.844l94.777 78.094 143.09-110.965z"/><path fill="#F2F2F2" d="M456.836 246.844l246.016-61.727 17.148-482.117z"/><path fill="#F2F2F4" d="M298.594 248.781l158.242-1.937 263.164-543.844zM129.641 252.707l168.953-3.926 421.406-545.781z"/><path fill="#E9EAEC" d="M702.852 185.117l-8.149 28.856 14.324-15.828z"/><path fill="#E8E9ED" d="M694.703 213.973l6.758 4.039 7.566-19.867zM709.027 198.145l20.317 16.906.238-12.024z"/><path fill="#143335" d="M599.863 553.375l.094 9.816 114.527 66.102z"/><path fill="#F6F6F6" d="M-530-297l659.641 549.707 590.359-549.707z"/><path fill="#B6BFC6" d="M598.59 551.23l1.273 2.145 114.621 75.918z"/><path fill="#EAEBED" d="M702.852 185.117l6.175 13.028 20.555 4.882z"/><path fill="#786D75" d="M599.957 563.191l36.145 317.547 78.382-251.445z"/><path fill="#6D696A" d="M636.102 880.738l16.902 5.36 61.48-256.805z"/><path fill="#EFEDF0" d="M1164.414-106.09l346.328 421.274 459.258-612.184z"/><path fill="#463D34" d="M653.004 886.098l9.277 19.132 54.078 14.379z"/><path fill="#E9EAEE" d="M709.027 198.145l-7.566 19.867 27.883-2.961z"/><path fill="#96949F" d="M826.242 222.246l13.653 22.289 1.023-2.43z"/><path fill="#E9EAEE" d="M730.938 205.012l-1.356-1.985 1.566 4.078z"/><path fill="#EBEAEF" d="M729.582 203.027l-.238 12.024 1.804-7.946z"/><path fill="#CBC0C6" d="M729.582 203.027l1.356 1.985 17.695-2.692z"/><path fill="#C4B7C0" d="M731.148 207.105l-1.804 7.946 19.289-12.731z"/><path fill="#A19096" d="M653.004 886.098l63.355 33.511 29.899-6.82z"/><path fill="#E8E6E7" d="M729.582 203.027l19.051-.707 5.117-1.961z"/><path fill="#C8BBC2" d="M730.938 205.012l.21 2.093 17.485-4.785z"/><path fill="#E9EAEC" d="M702.852 185.117l26.73 17.91 24.168-2.668z"/><path fill="#322721" d="M653.004 886.098l93.254 26.691 7.051-1.93z"/><path fill="#E4E9ED" d="M840.918 242.105l-1.023 2.43 2.472-2.215z"/><path fill="#E7E8EC" d="M792.391 198.996l-38.641 1.363 59.5 12.379z"/><path fill="#F2F2F2" d="M720-297l-17.148 482.117 78.054-.199z"/><path fill="#EAE9EE" d="M702.852 185.117l50.898 15.242 27.156-15.441z"/><path fill="#EAEBED" d="M780.906 184.918l11.485 14.078 26.101-2.234z"/><path fill="#EBEBED" d="M780.906 184.918l-27.156 15.441 38.641-1.363z"/><path fill="#96959A" d="M813.25 212.738l5.059-3.699.183-12.277z"/><path fill="#C4BDC2" d="M792.391 198.996l20.859 13.742 5.242-15.976z"/><path fill="#EDEBEE" d="M753.75 200.359l-5.117 1.961 64.617 10.418z"/><path fill="#E7E8EC" d="M846.098 215.109l-3.731 27.211 11.113-30.558z"/><path fill="#84848C" d="M748.633 202.32l-19.289 12.731 83.906-2.313z"/><path fill="#84858A" d="M818.309 209.039l-5.059 3.699 12.992 9.508z"/><path fill="#8A5D58" d="M918.328 592.742l-203.844 36.551 204.211-29.125z"/><path fill="#E6E7EB" d="M842.367 242.32l3.449 14.032 7.664-44.59z"/><path fill="#C79E8C" d="M714.484 629.293l120.118 148.594 5.148-8.637z"/><path fill="#948A88" d="M774.832 916.883l9.988 4.121 54.742-129.926z"/><path fill="#705542" d="M714.484 629.293l125.266 139.957 78.945-169.082z"/><path fill="#DEECEF" d="M841.078 257.859l2.469-.687 2.269-.82z"/><path fill="#8B7F83" d="M839.562 791.078l13.106 125.824 9.074 3.258z"/><path fill="#241B12" d="M714.484 629.293l-61.48 256.805 181.598-108.211z"/><path fill="#92858C" d="M653.004 886.098l100.305 24.761 81.293-132.972z"/><path fill="#908488" d="M834.602 777.887l-81.293 132.972 86.253-119.781z"/><path fill="#DFEAEE" d="M839.895 244.535l1.183 13.324 4.738-1.507z"/><path fill="#668599" d="M813.25 212.738l-83.906 2.313 111.734 42.808z"/><path fill="#8C9099" d="M839.895 244.535l-13.653-22.289 14.836 35.613z"/><path fill="#A398A0" d="M826.242 222.246l-12.992-9.508 27.828 45.121z"/><path fill="#5C808C" d="M729.344 215.051l-27.883 2.961 139.617 39.847z"/><path fill="#A09198" d="M753.309 910.859l8.652-.894 77.601-118.887z"/><path fill="#D4C3CD" d="M784.82 921.004l53.207-2.106 1.535-127.82z"/><path fill="#5E5550" d="M761.961 909.965l12.871 6.918 64.73-125.805z"/><path fill="#E8E8EA" d="M818.492 196.762l-.183 12.277 21.832-16.379z"/><path fill="#E6E1E5" d="M780.906 184.918l37.586 11.844 21.649-4.102z"/><path fill="#DFE9EB" d="M842.367 242.32l-2.472 2.215 5.921 11.817z"/><path fill="#918B8D" d="M839.562 791.078l-1.535 127.82 14.641-1.996z"/><path fill="#E6E7EB" d="M840.918 242.105l1.449.215 3.731-27.211z"/><path fill="#CCC4C2" d="M826.242 222.246l14.676 19.859 5.18-26.996z"/><path fill="#E8E9ED" d="M818.309 209.039l7.933 13.207 19.856-7.137z"/><path fill="#E8E9EB" d="M840.141 192.66l-21.832 16.379 27.789 6.07z"/><path fill="#A8979D" d="M834.602 777.887l4.96 13.191 6.602-11.402z"/><path fill="#DACFD5" d="M839.75 769.25l-5.148 8.637 11.562 1.789z"/><path fill="#EBEBED" d="M840.141 192.66l5.957 22.449 7.382-3.347z"/><path fill="#8DADBA" d="M841.078 257.859l52.707 137.793 5.371-16.132z"/><path fill="#5B7586" d="M841.078 257.859l-139.617-39.847 192.324 177.64z"/><path fill="#387881" d="M598.59 551.23l115.894 78.063 179.301-233.641z"/><path fill="#E7EAEF" d="M843.547 257.172l-2.469.687 58.078 121.661z"/><path fill="#004655" d="M551.613 324.938l46.977 226.292 295.195-155.578z"/><path fill="#91B8C7" d="M701.461 218.012l-149.848 106.926 342.172 70.714z"/><path fill="#E8EDF0" d="M845.816 256.352l-2.269.82 55.609 122.348z"/><path fill="#938487" d="M839.562 791.078l22.18 129.082 42.438 24.711z"/><path fill="#8C8283" d="M846.164 779.676l-6.602 11.402 64.618 153.793z"/><path fill="#261C13" d="M893.785 395.652l-179.301 233.641 203.844-36.551z"/><path fill="#8E96A3" d="M893.785 395.652l24.543 197.09 6.242 3.242z"/><path fill="#846B81" d="M924.57 595.984l-5.875 4.184 9.352 6.758z"/><path fill="#314043" d="M918.328 592.742l.367 7.426 5.875-4.184z"/><path fill="#73616D" d="M839.75 769.25l6.414 10.426 81.883-172.75z"/><path fill="#A4736C" d="M918.695 600.168l-78.945 169.082 88.297-162.324z"/><path fill="#928887" d="M846.164 779.676l58.016 165.195 44.371 8.668z"/><path fill="#006B85" d="M1025.156 206.281l1.719-2.375.191-7.039z"/><path fill="#3691A6" d="M1026.52 169.074l-1.364 37.207 1.91-9.414z"/><path fill="#E7E8EC" d="M845.816 256.352l53.34 123.168 126-173.239zM853.48 211.762l-7.664 44.59 179.34-50.071z"/><path fill="#EFEFF1" d="M1026.582 141.43l-173.102 70.332 173.247-49.336z"/><path fill="#ECECEE" d="M853.48 211.762l173.04-42.688.207-6.648z"/><path fill="#EBEBED" d="M853.48 211.762l171.676-5.481 1.364-37.207z"/><path fill="#EDEDEF" d="M840.141 192.66l186.144-57.914.074-7.219z"/><path fill="#EBEBED" d="M840.141 192.66l13.339 19.102 173.102-70.332z"/><path fill="#EEEEF0" d="M1026.285 134.746l-186.144 57.914 186.441-51.23z"/><path fill="#005567" d="M1026.875 203.906l-1.719 2.375 85.524 163.305z"/><path fill="#F1F1F3" d="M840.141 192.66l186.218-65.133 33.418-143.402z"/><path fill="#F0F0F2" d="M780.906 184.918l59.235 7.742 192.277-298.668z"/><path fill="#F3F3F3" d="M720-297l60.906 481.918 251.512-290.926zM1032.418-106.008l-192.277 298.668 219.636-208.535z"/><path fill="#472814" d="M1093.215 923.953l14.012-5.258 5.421-24.679z"/><path fill="#502C1C" d="M1090.801 923.719l2.414.234 19.433-29.937z"/><path fill="#705C5B" d="M1114.52 894.246l-1.872-.23 2.704 19.004z"/><path fill="#55423B" d="M1112.648 894.016l-5.421 24.679 8.125-5.675z"/><path fill="#98898E" d="M1112.648 894.016l4.309-.618 1.961-.457z"/><path fill="#1E1D18" d="M928.047 606.926l-81.883 172.75 266.484 114.34z"/><path fill="#6A99A9" d="M1025.156 206.281l-126 173.239 211.524-9.934z"/><path fill="#493E5C" d="M924.57 595.984l3.477 10.942 182.633-237.34z"/><path fill="#09363C" d="M899.156 379.52l-5.371 16.132 216.895-26.066z"/><path fill="#1C6E84" d="M893.785 395.652l30.785 200.332 186.11-226.398z"/><path fill="#AD9A9C" d="M846.164 779.676l102.387 173.863 164.097-59.523z"/><path fill="#AC908C" d="M948.551 953.539l142.25-29.82 21.847-29.703z"/><path fill="#685453" d="M1114.52 894.246l.832 18.774 1.605-19.622z"/><path fill="#98898C" d="M1112.648 894.016l1.872.23 2.437-.848z"/><path fill="#5C4E4D" d="M1116.957 893.398l-1.605 19.622 3.566-20.079z"/><path fill="#4F403B" d="M1122.309 891.836l-3.391 1.105 6.254 20.375z"/><path fill="#4E3C2E" d="M1118.918 892.941l-3.566 20.079 9.82.296z"/><path fill="#69583C" d="M928.047 606.926l184.601 287.09 9.661-2.18z"/><path fill="#998A8F" d="M1112.648 894.016l6.27-1.075 3.391-1.105z"/><path fill="#EEECEF" d="M1147.938-16.328l60.933 221.301 35.746-1.953z"/><path fill="#017B93" d="M1059.777-15.875l-33.418 143.402 100.032-146.558z"/><path fill="#564941" d="M1122.309 891.836l2.863 21.48 8.687-1.89z"/><path fill="#F2F0F1" d="M1154.859-21.742l-6.921 5.414 96.679 219.348z"/><path fill="#01586B" d="M1126.391-19.031l-100.032 146.558 121.579-143.855z"/><path fill="#004F60" d="M1026.359 127.527l-.074 7.219 182.586 70.227z"/><path fill="#005467" d="M1026.285 134.746l.297 6.684 182.289 63.543z"/><path fill="#00697F" d="M1027.066 196.867l-.191 7.039 181.996 1.067z"/><path fill="#004F5E" d="M1026.875 203.906l83.805 165.68 98.191-164.613z"/><path fill="#014C5F" d="M1026.582 141.43l.145 20.996 182.144 42.547z"/><path fill="#006D81" d="M1147.938-16.328l-121.579 143.855 182.512 77.446z"/><path fill="#005162" d="M1026.727 162.426l-.207 6.648 182.351 35.899z"/><path fill="#00515F" d="M1026.52 169.074l.546 27.793 181.805 8.106z"/><path fill="#326C80" d="M1208.871 204.973l-98.191 164.613 123.07-18.328z"/><path fill="#EFECE5" d="M1233.75 351.258l-123.07 18.328 124.566-8.152z"/><path fill="#F3F1F2" d="M1167.262-32.41l-12.403 10.668 89.758 224.762z"/><path fill="#759CAB" d="M1208.871 204.973l24.879 146.285 10.867-148.238z"/><path fill="#6E4F4D" d="M1122.309 891.836l11.55 19.59 135.754-10.996z"/><path fill="#C3B4C9" d="M1235.246 361.434l-124.566 8.152 164.906 73.336z"/><path fill="#EDEFEE" d="M1235.246 361.434l40.34 81.488 1.133-3.637z"/><path fill="#E7EEF4" d="M1276.719 439.285l-1.133 3.637 9.156-3.789z"/><path fill="#EDECF1" d="M1235.246 361.434l41.473 77.851 8.023-.152z"/><path fill="#395559" d="M1308.051 567.199l-1.805 19.684 9.746-9.61z"/><path fill="#C4B3B9" d="M1110.68 369.586l195.566 217.297 1.805-19.684z"/><path fill="#C8C0BE" d="M1122.309 891.836l147.304 8.594 36.633-313.547z"/><path fill="#8C959A" d="M1110.68 369.586l-182.633 237.34 378.199-20.043z"/><path fill="#E2CED9" d="M1275.586 442.922l-164.906-73.336 197.371 197.613z"/><path fill="#231A13" d="M928.047 606.926l194.262 284.91 183.937-304.953z"/><path fill="#282A27" d="M1284.742 439.133l-9.156 3.789 32.465 124.277z"/><path fill="#22211C" d="M1442.719 491.961l-126.727 85.312 142.645-56.359z"/><path fill="#E3E1E4" d="M1244.617 203.02l-10.867 148.238 234.227 38.734z"/><path fill="#436163" d="M1308.051 567.199l7.941 10.074 126.727-85.312z"/><path fill="#B9A3A6" d="M1284.742 439.133l23.309 128.066 134.668-75.238z"/><path fill="#648386" d="M1458.637 520.914l-142.645 56.359 146.231-44.156z"/><path fill="#26211B" d="M1306.246 586.883l-36.633 313.547 187.383-149.434z"/><path fill="#E1D0C9" d="M1269.613 900.43l36.914 5.398 150.469-154.832z"/><path fill="#80736B" d="M1306.527 905.828l13.625-.043 136.844-154.789z"/><path fill="#75654B" d="M1320.152 905.785l27.625-.672 109.219-154.117z"/><path fill="#D7BBB8" d="M1347.777 905.113l31.657 1.715 77.562-155.832z"/><path fill="#BB9D9D" d="M1379.434 906.828l10.234-1.285 67.328-154.547z"/><path fill="#CBB2AB" d="M1389.668 905.543l30.484.25 36.844-154.797z"/><path fill="#2DA3B1" d="M1284.742 439.133l157.977 52.828 19.515-77.219z"/><path fill="#887F80" d="M1462.223 533.117l-146.231 44.156 148.758-28.621z"/><path fill="#3C93A4" d="M1284.742 439.133l177.492-24.391 5.743-24.75z"/><path fill="#076072" d="M1233.75 351.258l1.496 10.176 232.731 28.558z"/><path fill="#0090A1" d="M1235.246 361.434l49.496 77.699 183.235-49.141z"/><path fill="#231C14" d="M1306.246 586.883l150.75 164.113 20.953-43.027z"/><path fill="#5C4652" d="M1306.246 586.883l171.703 121.086 4.086-36.449z"/><path fill="#563139" d="M1306.246 586.883l175.789 84.637.246-2.43z"/><path fill="#4E737C" d="M1315.992 577.273l-9.746 9.61 176.035 82.207z"/><path fill="#D1B7B6" d="M1464.75 548.652l-148.758 28.621 166.289 91.817z"/><path fill="#947A63" d="M1420.152 905.793l34.469 8.336 39.578-120.914z"/><path fill="#917456" d="M1456.996 750.996l-36.844 154.797 74.047-112.578z"/><path fill="#EFEDF0" d="M1164.414-106.09l2.848 73.68 343.48 347.594z"/><path fill="#E8E8EA" d="M1167.262-32.41l77.355 235.43 266.125 112.164z"/><path fill="#E0DEE1" d="M1244.617 203.02l223.36 186.972 42.765-74.808z"/></svg>