<svg xmlns="http://www.w3.org/2000/svg" width="1440" height="900" viewBox="0 0 1440 900"><path d="M0 0h1440v900h-1440z"/><path fill="#F2F2F2" d="M456.836 246.844l246.016-61.727 17.148-482.117z"/><path fill="#302D24" d="M-21.293 899.148l23.535 7.7 2.848-4.407z"/><path fill="#256072" d="M62.609 256.777l-69.929 120.559 88.437-30.766z"/><path fill="#A8ADB3" d="M-7.32 377.336l4.429 4.316 84.008-35.082z"/><path fill="#35362E" d="M-21.293 899.148l13.789 15.368 9.746-7.668z"/><path fill="#76A5B9" d="M64.473 252.367l-1.864 4.41 18.508 89.793z"/><path fill="#282A27" d="M-11.367 862.969l-1.012 2.449 17.469 37.023z"/><path fill="#453B32" d="M-12.379 865.418l-4.559 12.371 22.028 24.652z"/><path fill="#221F16" d="M-16.938 877.789l-4.355 21.359 26.383 3.293z"/><path fill="#A6917C" d="M-11.367 862.969l16.457 39.472 14.344 12.344z"/><path fill="#336F87" d="M-23.137 370.531l15.817 6.805 69.929-120.559z"/><path fill="#E8E9ED" d="M-188.984 345.816l165.847 24.715 85.746-113.754z"/><path fill="#E8ECEF" d="M-238.395 287.203l301.004-30.426 1.864-4.41z"/><path fill="#E6EAED" d="M-238.395 287.203l49.411 58.613 251.593-89.039z"/><path fill="#E7EBEE" d="M-294.469 257.258l56.074 29.945 302.868-34.836z"/><path fill="#E59B50" d="M-11.367 862.969l30.801 51.816 43.48 22.332z"/><path fill="#B9B8BE" d="M-2.891 381.652l-4.535 13.672 88.543-48.754z"/><path fill="#E9EDF0" d="M-324.316 239.75l29.847 17.508 358.942-4.891z"/><path fill="#1E93A7" d="M298.23 302.41l-9.316 10.238 9.981 9.68z"/><path fill="#F2F2F4" d="M-530-297l205.684 536.75 388.789 12.617z"/><path fill="#037D8A" d="M-20.938 422.594l-2.343 7.117 104.398-83.141z"/><path fill="#549EA1" d="M-7.426 395.324l-13.512 27.27 102.055-76.024z"/><path fill="#602B23" d="M-25.477 677.902l2.539 24.563 207.043 66.574z"/><path fill="#592A22" d="M-24.836 740.246l5.168 110.332 203.773-81.539z"/><path fill="#5D291C" d="M-19.668 850.578l8.301 12.391 195.472-93.93z"/><path fill="#59271C" d="M-22.938 702.465l-1.898 37.781 208.941 28.793z"/><path fill="#CFB39D" d="M-11.367 862.969l74.281 74.148 121.191-168.078z"/><path fill="#13636A" d="M81.117 346.57l152.848 161.02 1.965-4.762z"/><path fill="#E1DADF" d="M184.105 769.039l-121.191 168.078 130.797 79.11z"/><path fill="#692F21" d="M250.719 525.527l-66.614 243.512 82.75-1.605z"/><path fill="#6F504B" d="M237.871 522.133l-53.766 246.906 66.614-243.512z"/><path fill="#2E1D15" d="M233.965 507.59l-261.004 31.816 264.91-17.273z"/><path fill="#154748" d="M-23.281 429.711l-6.024 99.152 263.27-21.273z"/><path fill="#201F1A" d="M81.117 346.57l-104.398 83.141 257.246 77.879z"/><path fill="#857E86" d="M-27.039 539.406l1.562 138.496 263.348-155.769z"/><path fill="#1C2A2A" d="M-29.305 528.863l2.266 10.543 261.004-31.816z"/><path fill="#D8CDD1" d="M313.18 288.203l-14.95 14.207 17.758-2.719z"/><path fill="#211D12" d="M-25.477 677.902l209.582 91.137 53.766-246.906z"/><path fill="#613625" d="M184.105 769.039l66.11 240.836 16.64-242.441z"/><path fill="#01414D" d="M233.965 507.59l3.906 14.543 12.848 3.394z"/><path fill="#E1DCE0" d="M184.105 769.039l9.606 247.188 56.504-6.352z"/><path fill="#033E42" d="M235.93 502.828l-1.965 4.762 16.754 17.937z"/><path fill="#E9EAEE" d="M298.594 248.781l-9.68 63.867 14.902-49.785z"/><path fill="#E8E9ED" d="M288.914 312.648l9.316-10.238 5.586-39.547z"/><path fill="#E5EAEE" d="M313.18 288.203l2.808 11.488.992-10.882z"/><path fill="#828783" d="M81.117 346.57l154.813 156.258 52.984-190.18z"/><path fill="#DCD5DA" d="M266.855 767.434l-16.64 242.441 29.582 9.313z"/><path fill="#E8E9ED" d="M312.809 286.055l.371 2.148 3.8.606z"/><path fill="#598C9D" d="M64.473 252.367l16.644 94.203 207.797-33.922z"/><path fill="#E8E9ED" d="M308.465 271.238l4.344 14.817 4.171 2.754z"/><path fill="#E9EAEE" d="M298.594 248.781l5.222 14.082 4.649 8.375zM64.473 252.367l224.441 60.281 9.68-63.867z"/><path fill="#C6A7A2" d="M461.797 767.531l14.441-4.39 2.555-3.368z"/><path fill="#C4D2DB" d="M288.914 312.648l-52.984 190.18 62.965-180.5z"/><path fill="#E9EAEE" d="M308.465 271.238l-10.235 31.172 14.579-16.355zM303.816 262.863l-5.586 39.547 10.235-31.172z"/><path fill="#016B85" d="M298.23 302.41l.665 19.918 17.093-22.637z"/><path fill="#193B3D" d="M467.852 448.02l-217.133 77.507 218.07-75.336z"/><path fill="#E8E9ED" d="M312.809 286.055l-14.579 16.355 14.95-14.207z"/><path fill="#DAD3D8" d="M266.855 767.434l12.942 251.754 64.91 10.449z"/><path fill="#B09DA3" d="M436.602 761.207l-2.114 13.605 4.106-6.773z"/><path fill="#563A2E" d="M436.602 761.207l25.195 6.324 16.996-7.758z"/><path fill="#662A22" d="M250.719 525.527l16.136 241.907 123.368-120.454z"/><path fill="#71493D" d="M390.223 646.98l-123.368 120.454 169.747-6.227z"/><path fill="#524139" d="M266.855 767.434l167.633 7.378 2.114-13.605z"/><path fill="#92B0BB" d="M316.98 288.809l-.992 10.882 140.848-52.847z"/><path fill="#E8E9ED" d="M298.594 248.781l9.871 22.457 148.371-24.394z"/><path fill="#E8E7EC" d="M308.465 271.238l8.515 17.571 139.856-41.965z"/><path fill="#A9978D" d="M474.613 767.918l-2.777 12.25 9.766-2.457z"/><path fill="#5E3C33" d="M438.594 768.039l-4.106 6.773 27.309-7.281z"/><path fill="#573529" d="M436.602 761.207l1.992 6.832 23.203-.508z"/><path fill="#B09FA7" d="M434.488 774.812l-167.633-7.378 196.649 187.386z"/><path fill="#DBD2D5" d="M266.855 767.434l77.852 262.203 118.797-74.817z"/><path fill="#47311C" d="M467.074 769.727l4.762 10.441 2.777-12.25z"/><path fill="#316273" d="M467.852 448.02l.937 2.171 9.383-8.996z"/><path fill="#C9AAA5" d="M467.074 769.727l7.539-1.809 1.625-4.777z"/><path fill="#3E2B1C" d="M465.285 768.746l1.789.981 9.164-6.586z"/><path fill="#0D363C" d="M235.93 502.828l14.789 22.699 217.133-77.507z"/><path fill="#0C353B" d="M298.895 322.328l-62.965 180.5 231.922-54.808z"/><path fill="#DDDBE0" d="M315.988 299.691l-17.093 22.637 168.957 125.692z"/><path fill="#DDD8DE" d="M250.719 525.527l139.504 121.453 78.566-196.789z"/><path fill="#1F1B10" d="M390.223 646.98l46.379 114.227 42.191-1.434z"/><path fill="#6C4536" d="M467.074 769.727l-1.789-.981 6.551 11.422z"/><path fill="#603C2E" d="M461.797 767.531l-27.309 7.281 37.348 5.356z"/><path fill="#6C4633" d="M465.285 768.746l-3.488-1.215 10.039 12.637z"/><path fill="#5F402C" d="M461.797 767.531l3.488 1.215 10.953-5.605z"/><path fill="#55443A" d="M471.836 780.168l-37.348-5.356 47.778 151.204z"/><path fill="#736A6D" d="M481.602 777.711l3.035 146.945 4.078-147.988z"/><path fill="#BF9A92" d="M434.488 774.812l29.016 180.008 18.762-28.804z"/><path fill="#91868C" d="M481.602 777.711l-9.766 2.457 12.801 144.488z"/><path fill="#887F84" d="M471.836 780.168l10.43 145.848 2.371-1.36z"/><path fill="#E5EDF0" d="M574.793 321.445l119.359 79.051.551-186.523z"/><path fill="#625648" d="M474.613 767.918l6.989 9.793 7.113-1.043z"/><path fill="#8C6E63" d="M478.793 759.773l-2.555 3.368 12.477 13.527z"/><path fill="#BC9F91" d="M476.238 763.141l-1.625 4.777 14.102 8.75z"/><path fill="#B4BCC6" d="M456.836 246.844l-140.848 52.847 197.739 13.192z"/><path fill="#AAB8C3" d="M467.852 448.02l10.32-6.825 35.555-128.312z"/><path fill="#024B54" d="M315.988 299.691l151.864 148.329 45.875-135.137z"/><path fill="#4A3D35" d="M488.715 776.668l-4.078 147.988 40.332 14.672z"/><path fill="#E6E7EB" d="M570.832 321.281l3.961.164 119.91-107.472z"/><path fill="#BBB6BD" d="M513.727 312.883l-35.555 128.312 92.66-119.914z"/><path fill="#386167" d="M570.832 321.281l-92.66 119.914 96.621-119.75z"/><path fill="#E6EAED" d="M456.836 246.844l56.891 66.039 57.105 8.398z"/><path fill="#573A32" d="M478.793 759.773l9.922 16.895 128.015-68.695z"/><path fill="#C3B378" d="M468.789 450.191l-78.566 196.789 226.507 60.993z"/><path fill="#453126" d="M390.223 646.98l88.57 112.793 137.937-51.8z"/><path fill="#332920" d="M635.742 899.852l-35.711 59.148 36.09-56.039z"/><path fill="#221B13" d="M640.754 866.211l-4.695 4.969 4.804-1.86z"/><path fill="#646168" d="M636.781 890.008l-1.039 9.844 5.887-4.95z"/><path fill="#655C5D" d="M488.715 776.668l147.207 69.219.055-3.129z"/><path fill="#3B302A" d="M635.566 855.215l-110.597 84.113 110.789-80.973z"/><path fill="#3F322A" d="M488.715 776.668l36.254 162.66 110.597-84.113z"/><path fill="#7D7479" d="M636.023 874.227l-.746 9.711.825-3.2z"/><path fill="#3A2F29" d="M635.758 858.355l-110.789 80.973 111.09-68.148z"/><path fill="#372E25" d="M524.969 939.328l75.062 19.672 35.711-59.148z"/><path fill="#382F28" d="M635.277 883.938l-110.308 55.39 110.773-39.476z"/><path fill="#413630" d="M524.969 939.328l111.054-65.101.036-3.047z"/><path fill="#B5978C" d="M616.73 707.973l-128.015 68.695 147.262 66.09z"/><path fill="#33261D" d="M488.715 776.668l146.851 78.547.356-9.328z"/><path fill="#241913" d="M636.059 871.18l4.441 1.55.363-3.41z"/><path fill="#392E28" d="M524.969 939.328l110.308-55.39.746-9.711z"/><path fill="#3A3230" d="M641.629 894.902l-5.887 4.95 6.067-1.911z"/><path fill="#817E85" d="M635.977 842.758l-.055 3.129 4.832 20.324z"/><path fill="#74717A" d="M635.758 858.355l.301 12.825 4.695-4.969z"/><path fill="#737079" d="M635.922 845.887l-.356 9.328 5.188 10.996z"/><path fill="#827B80" d="M635.277 883.938l.465 15.914 1.039-9.844z"/><path fill="#79737D" d="M635.566 855.215l.192 3.14 4.996 7.856z"/><path fill="#7B767D" d="M636.023 874.227l.079 6.511 4.398-8.008z"/><path fill="#837982" d="M636.059 871.18l-.036 3.047 4.477-1.497z"/><path fill="#7A747E" d="M635.277 883.938l1.504 6.07 5.215-4.91z"/><path fill="#867F86" d="M636.102 880.738l-.825 3.2 6.719 1.16z"/><path fill="#6C5F68" d="M640.5 872.73l-4.398 8.008 5.894 4.36z"/><path fill="#261D14" d="M641.996 885.098l-5.215 4.91 6.559-3.34z"/><path fill="#423837" d="M641.809 897.941l-6.067 1.911 6.664 1.265z"/><path fill="#8B8189" d="M635.742 899.852l.379 3.109 6.285-1.844z"/><path fill="#22180F" d="M636.781 890.008l4.848 4.894 1.711-8.234z"/><path fill="#41342E" d="M641.809 897.941l.597 3.176 8.184-8.535z"/><path fill="#463D38" d="M641.629 894.902l.18 3.039 8.781-5.359z"/><path fill="#4B443E" d="M643.34 886.668l-1.711 8.234 8.961-2.32z"/><path fill="#575850" d="M635.977 842.758l4.777 23.453 12.25 19.887z"/><path fill="#D3CBC9" d="M640.754 866.211l.109 3.109 12.141 16.778z"/><path fill="#CFC9C9" d="M640.863 869.32l-.363 3.41 12.504 13.368z"/><path fill="#463E33" d="M643.34 886.668l7.25 5.914 2.414-6.484z"/><path fill="#CAC3CA" d="M640.5 872.73l1.496 12.368 11.008 1z"/><path fill="#4A4645" d="M641.996 885.098l1.344 1.57 9.664-.57z"/><path fill="#356569" d="M694.152 400.496l-215.98 40.699 220.695 76.332z"/><path fill="#352A24" d="M650.59 892.582l-8.184 8.535 19.875 4.113z"/><path fill="#261D14" d="M653.004 886.098l-2.414 6.484 11.691 12.648z"/><path fill="#F2F2F4" d="M298.594 248.781l158.242-1.937 263.164-543.844z"/><path fill="#DDDEE2" d="M468.789 450.191l147.941 257.782 82.137-190.446z"/><path fill="#E7E8EC" d="M456.836 246.844l113.996 74.437 123.871-107.308z"/><path fill="#B5C9D2" d="M478.172 441.195l-9.383 8.996 230.078 67.336z"/><path fill="#EAEBEF" d="M456.836 246.844l237.867-32.871 8.149-28.856z"/><path fill="#005057" d="M574.793 321.445l-96.621 119.75 215.98-40.699z"/><path fill="#F2F2F4" d="M64.473 252.367l234.121-3.586 421.406-545.781z"/><path fill="#578A9F" d="M702.852 185.117l-8.149 28.856 227.449 184.32z"/><path fill="#3F362F" d="M653.004 886.098l9.277 19.132 51.09 6.922z"/><path fill="#CEC5C8" d="M635.977 842.758l17.027 43.34 60.367 26.054z"/><path fill="#675555" d="M635.977 842.758l77.394 69.394 5.344-.304z"/><path fill="#F6F6F6" d="M-530-297l594.473 549.367 655.527-549.367z"/><path fill="#EFEDF0" d="M1164.414-106.09l346.328 421.274 459.258-612.184z"/><path fill="#AA8471" d="M790.051 721.918l3.715-.711 1.535-8.187z"/><path fill="#684C3E" d="M792.309 705.254l-2.258 16.664 5.25-8.898z"/><path fill="#4C3E33" d="M616.73 707.973l173.321 13.945 2.258-16.664z"/><path fill="#704D39" d="M800.363 688.238l-8.054 17.016 8.351.586z"/><path fill="#7A5D62" d="M616.73 707.973l19.247 134.785 154.074-120.84z"/><path fill="#96878C" d="M718.715 911.848l6.062 1.117 65.274-191.047z"/><path fill="#9B8C91" d="M635.977 842.758l82.738 69.09 71.336-189.93z"/><path fill="#5F463F" d="M792.309 705.254l2.992 7.766 5.359-7.18z"/><path fill="#584324" d="M698.867 517.527l-82.137 190.446 183.633-19.735z"/><path fill="#685A4D" d="M616.73 707.973l175.579-2.719 8.054-17.016z"/><path fill="#51402E" d="M795.301 713.02l-1.535 8.187 6.894-15.367z"/><path fill="#C3B8BC" d="M793.766 721.207l-3.715.711 66.008 179.926z"/><path fill="#8C7E7E" d="M957.227 804.602l-30.918 126.574 30.964 12.707z"/><path fill="#9C8F96" d="M790.051 721.918l-65.274 191.047 131.282-11.121z"/><path fill="#534A4B" d="M800.66 705.84l156.567 98.762 5.523-5.696z"/><path fill="#3EA6B3" d="M694.152 400.496l226.993 6.188 1.007-8.391z"/><path fill="#267F91" d="M694.703 213.973l-.551 186.523 228-2.203z"/><path fill="#B59890" d="M962.75 798.906l26.453 5.188.735-119.367z"/><path fill="#547387" d="M922.152 398.293l-1.007 8.391 5.019-6.075z"/><path fill="#E3E7E6" d="M694.152 400.496l4.715 117.031 222.278-110.843z"/><path fill="#F3F3F3" d="M720-297l-17.148 482.117 306.851-138.558z"/><path fill="#6E9BA1" d="M926.164 400.609l-5.019 6.075 7.945 4.632z"/><path fill="#28251C" d="M698.867 517.527l101.496 170.711 128.727-276.922z"/><path fill="#98898E" d="M921.145 406.684l-222.278 110.843 230.223-106.211z"/><path fill="#A28577" d="M800.66 705.84l-6.894 15.367 163.461 83.395z"/><path fill="#938487" d="M793.766 721.207l62.293 180.637 101.168-97.242z"/><path fill="#908486" d="M856.059 901.844l34.003 15.344 67.165-112.586z"/><path fill="#918287" d="M890.062 917.188l10.555 3.089 56.61-115.675z"/><path fill="#92868A" d="M900.617 920.277l15.332 3.059 41.278-118.734z"/><path fill="#8F8387" d="M915.949 923.336l10.36 7.84 30.918-126.574z"/><path fill="#2B2117" d="M962.75 798.906l-5.523 5.696 18.007-1.266z"/><path fill="#736769" d="M957.227 804.602l.046 139.281 17.961-140.547z"/><path fill="#49342F" d="M800.66 705.84l162.09 93.066 27.188-114.179z"/><path fill="#221E15" d="M800.363 688.238l.297 17.602 189.278-21.113z"/><path fill="#292116" d="M962.75 798.906l12.484 4.43 13.969.758z"/><path fill="#919797" d="M994.496 682l-4.558 2.727 9.207-2.059z"/><path fill="#73645D" d="M994.496 682l4.649.668 2.828-10.387z"/><path fill="#241F19" d="M989.938 684.727l-.735 119.367 9.942-121.426z"/><path fill="#7A6167" d="M1009.09 675.293l-9.945 7.375 12.296-6.395z"/><path fill="#231C14" d="M999.145 682.668l-9.942 121.426 22.238-127.821z"/><path fill="#8C8479" d="M800.363 688.238l189.575-3.511 12.035-12.446z"/><path fill="#6F656D" d="M989.938 684.727l4.558-2.727 7.477-9.719z"/><path fill="#24657B" d="M1013.344 380.945l.804 8.785 4.692-4.511z"/><path fill="#755C57" d="M1001.973 672.281l-2.828 10.387 9.945-7.375z"/><path fill="#538C9D" d="M1013.344 380.945l5.496 4.274 6.125-13.547z"/><path fill="#003F47" d="M922.152 398.293l4.012 2.316 87.18-19.664z"/><path fill="#2C748A" d="M926.164 400.609l2.926 10.707 85.058-21.586z"/><path fill="#01454E" d="M1013.344 380.945l-87.18 19.664 87.984-10.879z"/><path fill="#EDEDEF" d="M702.852 185.117l323.433-50.371.074-7.219z"/><path fill="#F0F0F2" d="M1009.703 46.559l-306.851 138.558 323.507-57.59z"/><path fill="#F3F3F3" d="M1028.113 46.855l-18.41-.296 22.004 10.183z"/><path fill="#0E3940" d="M922.152 398.293l91.192-17.348 11.621-9.273z"/><path fill="#E7ECF0" d="M922.152 398.293l102.813-26.621 1.32-236.926z"/><path fill="#E5E6EA" d="M702.852 185.117l219.3 213.176 104.133-263.547z"/><path fill="#685547" d="M975.234 803.336l-17.961 140.547 70.504-20.055z"/><path fill="#A5969B" d="M1046.863 882.734l2.989 3.645 3.82-1.031z"/><path fill="#47596F" d="M1009.703 46.559l16.656 80.968 5.348-70.785z"/><path fill="#F1F5F6" d="M1059.215-44l-31.102 90.855 35.547-87.824z"/><path fill="#F4F4F4" d="M720-297l289.703 343.559 22.715-152.567z"/><path fill="#F3F3F5" d="M1028.113 46.855l3.594 9.887 31.953-97.711z"/><path fill="#885C7F" d="M1009.09 675.293l2.351.98 30.575-149.007z"/><path fill="#3E2B3E" d="M1001.973 672.281l7.117 3.012 32.926-148.027z"/><path fill="#4F8796" d="M929.09 411.316l-128.727 276.922 241.653-160.972z"/><path fill="#333A4C" d="M800.363 688.238l201.61-15.957 40.043-145.015z"/><path fill="#554136" d="M1040.371 912.688l6.207-4.555.285-25.399z"/><path fill="#301E14" d="M1027.777 923.828l12.594-11.14 6.492-29.954z"/><path fill="#7F654C" d="M989.203 804.094l-13.969-.758 71.629 79.398z"/><path fill="#806751" d="M975.234 803.336l52.543 120.492 19.086-41.094z"/><path fill="#B29FA5" d="M1046.863 882.734l-.285 25.399 3.274-21.754z"/><path fill="#543E33" d="M1049.852 886.379l-3.274 21.754 3.727-2.809z"/><path fill="#524032" d="M1050.305 905.324l3.98 2.653.863-10.09z"/><path fill="#221E15" d="M1011.441 676.273l-22.238 127.821 64.469 81.254z"/><path fill="#896D58" d="M989.203 804.094l57.66 78.64 6.809 2.614z"/><path fill="#AB9B9E" d="M1053.672 885.348l-3.82 1.031 5.296 11.508z"/><path fill="#5A4439" d="M1049.852 886.379l.453 18.945 4.843-7.437z"/><path fill="#967762" d="M1011.441 676.273l42.231 209.075 13.082 7.582z"/><path fill="#F5F5F7" d="M1032.418-106.008l-22.715 152.567 49.512-90.559z"/><path fill="#F6F4F5" d="M1009.703 46.559l18.41.296 31.102-90.855z"/><path fill="#675146" d="M1060.812 903.762l4.852-.942 1.09-9.89z"/><path fill="#32697E" d="M1018.84 385.219l-4.692 4.511 45.622 105.129z"/><path fill="#20546A" d="M1014.148 389.73l-85.058 21.586 130.68 83.543z"/><path fill="#0D3336" d="M929.09 411.316l112.926 115.95 17.754-32.407z"/><path fill="#5E4D39" d="M1055.148 897.887l-.863 10.09 6.527-4.215z"/><path fill="#60433D" d="M1055.148 897.887l5.664 5.875 5.942-10.832z"/><path fill="#B4A1A7" d="M1053.672 885.348l1.476 12.539 11.606-4.957z"/><path fill="#634D3F" d="M1066.754 892.93l-1.09 9.89 8.547 6.157z"/><path fill="#4A2618" d="M1066.754 892.93l7.457 16.047 24.949 25.222z"/><path fill="#004F5E" d="M1116.801 330.191l-91.836 41.481 94.351-40.496z"/><path fill="#013F4A" d="M1129.977 318.359l-10.661 12.817 11.235-10.039z"/><path fill="#006372" d="M1116.801 330.191l2.515.985 10.661-12.817z"/><path fill="#01485A" d="M1026.285 134.746l-1.32 236.926 91.836-41.481z"/><path fill="#DFDBDA" d="M1141.824 327.914l.313 1.781 4.539-1.984z"/><path fill="#026278" d="M1119.316 331.176l3.59 1.386 7.645-11.425z"/><path fill="#12788F" d="M1024.965 371.672l-6.125 13.547 104.066-52.657z"/><path fill="#085368" d="M1119.316 331.176l-94.351 40.496 97.941-39.11z"/><path fill="#005866" d="M1018.84 385.219l40.93 109.64 63.136-162.297z"/><path fill="#005669" d="M1026.285 134.746l90.516 195.445 13.176-11.832z"/><path fill="#45717A" d="M1141.824 327.914l-11.273-6.777 11.586 8.558z"/><path fill="#6D8F99" d="M1130.551 321.137l-7.645 11.425 19.231-2.867z"/><path fill="#182F3F" d="M1122.906 332.562l-63.136 162.297 82.367-165.164z"/><path fill="#5D9BA8" d="M1129.977 318.359l.574 2.778 11.273 6.777z"/><path fill="#093A3F" d="M1142.137 329.695l-82.367 165.164 86.906-167.148z"/><path fill="#0C6D7E" d="M1141.824 327.914l4.852-.203 6.902-5.781z"/><path fill="#237487" d="M1129.977 318.359l11.847 9.555 11.754-5.984z"/><path fill="#007D94" d="M1063.66-40.969l-31.953 97.711 135.555-89.152z"/><path fill="#7E5841" d="M1066.754 892.93l32.406 41.269 80.676 1.524z"/><path fill="#004E5F" d="M1026.359 127.527l-.074 7.219 197.664 73.707z"/><path fill="#8B6D55" d="M1011.441 676.273l55.313 216.657 153.316 6.617z"/><path fill="#503A2F" d="M1066.754 892.93l113.082 42.793 23.926-20.207z"/><path fill="#8C787A" d="M1220.07 899.547l-9.55 12.531 11.777-1.844z"/><path fill="#008298" d="M1167.262-32.41l-135.555 89.152 192.242 151.711z"/><path fill="#50413E" d="M1203.762 915.516l6.758-3.438 9.55-12.531z"/><path fill="#56352C" d="M1066.754 892.93l137.008 22.586 16.308-15.969z"/><path fill="#EDEDEF" d="M1167.262-32.41l56.687 240.863 5.883-1.531z"/><path fill="#37859B" d="M1026.285 134.746l103.692 183.613 93.972-109.906z"/><path fill="#088192" d="M1129.977 318.359l23.601 3.571 70.371-113.477z"/><path fill="#005162" d="M1031.707 56.742l-5.348 70.785 197.59 80.926z"/><path fill="#948389" d="M1220.07 899.547l2.227 10.687 6.933-5.214z"/><path fill="#E6E6E8" d="M1241.379 210.348l2.933 17.199.305-24.527z"/><path fill="#E8E8EA" d="M1229.832 206.922l-5.883 1.531 7.813 11.305z"/><path fill="#E5E5E7" d="M1229.832 206.922l1.93 12.836 2.113-1.168z"/><path fill="#989AAF" d="M1223.949 208.453l-70.371 113.477 78.184-102.172z"/><path fill="#E6E6E8" d="M1229.832 206.922l11.547 3.426 3.238-7.328z"/><path fill="#E7E7E9" d="M1229.832 206.922l4.043 11.668 7.504-8.242z"/><path fill="#A29197" d="M1220.07 899.547l9.16 5.473 9.375-1.192z"/><path fill="#ECECEE" d="M1167.262-32.41l62.57 239.332 14.785-3.902z"/><path fill="#E6E6E8" d="M1241.379 210.348l-7.504 8.242 10.437 8.957zM1233.875 218.59l-2.113 1.168 12.55 7.789z"/><path fill="#A4BAC7" d="M1231.762 219.758l-78.184 102.172 90.734-94.383z"/><path fill="#E2E1E6" d="M1244.617 203.02l-.305 24.527 215.395 82.402z"/><path fill="#857075" d="M1220.07 899.547l18.535 4.281 31.008-3.398z"/><path fill="#2C4146" d="M1457.969 528.699l-398.199-33.84 399.988 152.25z"/><path fill="#293436" d="M1059.77 494.859l393.058 177.262 6.93-25.012z"/><path fill="#554550" d="M1457.016 513.531l-397.246-18.672 398.199 33.84z"/><path fill="#F2F3EB" d="M1146.676 327.711l-86.906 167.148 392.367-22.246z"/><path fill="#EAECD7" d="M1153.578 321.93l-6.902 5.781 305.461 144.902z"/><path fill="#EBE6E2" d="M1042.016 527.266l-30.575 149.007 441.387-4.152z"/><path fill="#442A2B" d="M1011.441 676.273l208.629 223.274 232.758-227.426z"/><path fill="#E7D8D3" d="M1220.07 899.547l49.543.883 183.215-228.309z"/><path fill="#31697A" d="M1452.137 472.613l-392.367 22.246 393.777-4.156z"/><path fill="#E4DED0" d="M1059.77 494.859l-17.754 32.407 410.812 144.855z"/><path fill="#E8E8EA" d="M1167.262-32.41l77.355 235.43 215.09 106.929z"/><path fill="#302F34" d="M1453.547 490.703l-393.777 4.156 397.246 18.672z"/><path fill="#409CB1" d="M1153.578 321.93l298.559 150.683 6.008-33.722z"/><path fill="#6C4741" d="M1452.828 672.121l-183.215 228.309 190.617-192.223z"/><path fill="#E4D3CC" d="M1269.613 900.43l33.567.863 157.05-193.086z"/><path fill="#409AA5" d="M1153.578 321.93l304.567 116.961 4.089-24.149z"/><path fill="#E3E2E7" d="M1244.312 227.547l-90.734 94.383 308.656 92.812z"/><path fill="#907D77" d="M1460.23 708.207l-157.05 193.086 164.34-166.988z"/><path fill="#7C7D6D" d="M1303.18 901.293l43.32 3.598 121.02-170.586z"/><path fill="#BAADA7" d="M1346.5 904.891l1.277.222 119.743-170.808z"/><path fill="#E0DFE4" d="M1459.707 309.949l-215.395-82.402 223.911 153.617z"/><path fill="#009FB2" d="M1244.312 227.547l217.922 187.195 5.989-33.578z"/><path fill="#42342B" d="M1381.281 916.863l73.34-2.734 39.578-120.914z"/><path fill="#655D50" d="M1347.777 905.113l33.504 11.75 112.918-123.648z"/><path fill="#9F948E" d="M1467.52 734.305l-119.743 170.808 146.422-111.898z"/><path fill="#EFEDF0" d="M1164.414-106.09l2.848 73.68 343.48 347.594z"/><path fill="#E3E3E5" d="M1167.262-32.41l292.445 342.359 51.035 5.235z"/></svg>