<svg xmlns="http://www.w3.org/2000/svg" width="1440" height="900" viewBox="0 0 1440 900"><path fill="#1F1F1F" d="M0 0h1440v900h-1440z"/><path fill="#919EA7" d="M718.852 595.613l-7.387 5.199 10.672 3.52z"/><path fill="#7D8790" d="M-.621 548.414l2.547 29.004.316-33.352z"/><path fill="#747671" d="M-5.918 523.16l6.273 16.977 1.887 3.929z"/><path fill="#181810" d="M-20.172 469.148l10.535 38.637 98.453-159.375z"/><path fill="#7C98A4" d="M758.082 641.609l34.453 47.133 1.774-34.164z"/><path fill="#64767A" d="M.355 540.137l-4.375 6.285 6.262-2.356z"/><path fill="#818B94" d="M-4.02 546.422l3.399 1.992 2.863-4.348z"/><path fill="#889697" d="M-.621 548.414l-2.867 18.543 5.414 10.461z"/><path fill="#939D9E" d="M-5.84 541.66l1.82 4.762 4.375-6.285z"/><path fill="#6B8890" d="M778.328 638.75l-20.246 2.859 36.227 12.969z"/><path fill="#87827C" d="M-7.957 573.77l4.09 9.179 5.793-5.531z"/><path fill="#9C9BA0" d="M-6.258 539.133l.418 2.527 6.195-1.523z"/><path fill="#BDBAAB" d="M-3.867 582.949l3.652 7.235 2.141-12.766z"/><path fill="#9FA09A" d="M-3.488 566.957l-4.469 6.813 9.883 3.648z"/><path fill="#89A098" d="M-17.32 421.184l-2.852 47.964 108.988-120.738z"/><path fill="#97AFB9" d="M-5.195 324.074l.527 11.196 93.484 13.14z"/><path fill="#2D2A23" d="M-5.918 523.16l8.16 20.906 86.574-195.656z"/><path fill="#84918A" d="M-5.918 523.16l-.34 15.973 6.613 1.004z"/><path fill="#49686B" d="M-9.637 507.785l3.719 15.375 94.734-174.75z"/><path fill="#DCDFD4" d="M-20.688 415.52l3.368 5.664 106.136-72.774z"/><path fill="#98ABBA" d="M-4.668 335.27l-16.02 80.25 109.504-67.11z"/><path fill="#BFC0BB" d="M286.195 570.531l.723 7.602.078-10.844z"/><path fill="#8F9799" d="M277.555 559.066l8.64 11.465.801-3.242z"/><path fill="#A2B2BF" d="M-21.891 285.676l16.696 38.398 94.011 24.336z"/><path fill="#9699A0" d="M88.816 348.41l-86.574 195.656 275.313 15z"/><path fill="#2F4C48" d="M2.242 544.066l-.316 33.352 275.629-18.352z"/><path fill="#8FA2A9" d="M-.734 594.855l-1.196 33.45 279.485-69.239z"/><path fill="#95AFBE" d="M88.816 348.41l251.282-16.328 49.066-31.344z"/><path fill="#4F6163" d="M1.926 577.418l-2.141 12.766 277.77-31.118z"/><path fill="#83959F" d="M-.215 590.184l-.519 4.671 278.289-35.789z"/><path fill="#74909C" d="M-1.688 720.734l1.227 70.473 287.379-213.074z"/><path fill="#97B2C3" d="M-21.891 285.676l110.707 62.734 300.348-47.672z"/><path fill="#8BA2AA" d="M-1.93 628.305l-4.515 63.832 293.363-114.004z"/><path fill="#C6C9B8" d="M409.648 409.352l-2.496-.372 11.758 18.61z"/><path fill="#8EA2AB" d="M-6.445 692.137l4.757 28.597 288.606-142.601z"/><path fill="#A2A19F" d="M277.555 559.066l-279.485 69.239 288.848-50.172z"/><path fill="#B9B5B2" d="M286.195 570.531l-8.64-11.465 9.363 19.067z"/><path fill="#306573" d="M394.984 763.875l-401.187 58.641 403.84-57.243z"/><path fill="#91A09B" d="M88.816 348.41l188.739 210.656 62.543-226.984z"/><path fill="#678F9B" d="M1018.992 687.633l-11.418 3.547 13.449-1.364z"/><path fill="#74909B" d="M286.918 578.133l-287.379 213.074 395.445-27.332z"/><path fill="#2D5E6D" d="M-.461 791.207l-5.742 31.309 401.187-58.641z"/><path fill="#C9CBCA" d="M286.996 567.289l-.078 10.844 131.992-150.543z"/><path fill="#303F3C" d="M705.996 601.156l5.469-.344 7.387-5.199z"/><path fill="#DAD8C1" d="M415.711 399.492l-6.063 9.86 9.262 18.238z"/><path fill="#97A9B5" d="M414.195 393.117l-7.043 15.863 8.559-9.488z"/><path fill="#123133" d="M340.098 332.082l-62.543 226.984 129.597-150.086z"/><path fill="#B4BFC5" d="M407.152 408.98l2.496.372 6.063-9.86z"/><path fill="#284C4A" d="M543.676 764.668l-4.176 11.934 7.492-15.969z"/><path fill="#959EA5" d="M340.098 332.082l67.054 76.898 7.043-15.863z"/><path fill="#98B2BF" d="M389.164 300.738l-49.066 31.344 74.097 61.035z"/><path fill="#808082" d="M277.555 559.066l9.441 8.223 131.914-139.699z"/><path fill="#5A5C5B" d="M407.152 408.98l-129.597 150.086 141.355-131.476z"/><path fill="#475E66" d="M1160.836 767.301l10.992-13.422 4.871-14.883z"/><path fill="#9DC0D3" d="M-21.891 285.676l411.055 15.062 330.836-683.738z"/><path fill="#546253" d="M542.965 754.953l.711 9.715 3.316-4.035z"/><path fill="#76929E" d="M286.918 578.133l108.066 185.742 147.981-8.922z"/><path fill="#8597A1" d="M418.91 427.59l-131.992 150.543 256.047 176.82z"/><path fill="#3D6E7D" d="M397.637 765.273l139.066 12.344 6.262-22.664z"/><path fill="#2A5158" d="M542.965 754.953l-6.262 22.664 6.973-12.949z"/><path fill="#698A93" d="M394.984 763.875l2.653 1.398 145.328-10.32z"/><path fill="#5D818D" d="M536.703 777.617l2.797-1.015 4.176-11.934z"/><path fill="#2E5F66" d="M542.965 754.953l4.027 5.68 7.32-11.567z"/><path fill="#75919D" d="M418.91 427.59l124.055 327.363 11.347-5.887z"/><path fill="#242B23" d="M546.992 760.633l-7.492 15.969 14.812-27.536z"/><path fill="#BABABC" d="M418.91 427.59l135.402 321.476 151.684-147.91z"/><path fill="#B0CADB" d="M-530-383l508.109 668.676 741.891-668.676z"/><path fill="#455048" d="M418.91 427.59l287.086 173.566 12.856-5.543z"/><path fill="#516969" d="M711.465 600.812l-5.469.344 12.457 5.949z"/><path fill="#77939F" d="M705.996 601.156l-151.684 147.91 164.141-141.961z"/><path fill="#7898A5" d="M711.465 600.812l6.988 6.293 3.684-2.773z"/><path fill="#9FA29B" d="M415.711 399.492l3.199 28.098 299.942 168.023z"/><path fill="#222E2A" d="M-21.277 827.074l-508.723 456.926h1250z"/><path fill="#284042" d="M-6.203 822.516l-15.074 4.558 741.277 456.926z"/><path fill="#253D3D" d="M397.637 765.273l-403.84 57.243 726.203 461.484z"/><path fill="#223F3B" d="M539.5 776.602l-2.797 1.015 183.297 506.383z"/><path fill="#243D3A" d="M536.703 777.617l-139.066-12.344 322.363 518.727z"/><path fill="#8098A4" d="M722.137 604.332l35.945 37.277 20.246-2.859z"/><path fill="#959DA7" d="M718.852 595.613l3.285 8.719 56.191 34.418z"/><path fill="#77939F" d="M718.453 607.105l-164.141 141.961 203.77-107.457z"/><path fill="#7D97A6" d="M722.137 604.332l-3.684 2.773 39.629 34.504z"/><path fill="#688A96" d="M758.082 641.609l-203.77 107.457 238.223-60.324z"/><path fill="#244145" d="M539.5 776.602l180.5 507.398 72.535-595.258z"/><path fill="#5D7D8C" d="M554.312 749.066l-14.812 27.536 253.035-87.86z"/><path fill="#9CB8C6" d="M389.164 300.738l25.031 92.379 481.766-171.16z"/><path fill="#AAB7BD" d="M414.195 393.117l1.516 6.375 480.25-177.535z"/><path fill="#ACC6D3" d="M389.164 300.738l506.797-78.781 49.23-82.328z"/><path fill="#8E9CA5" d="M895.961 221.957l-480.25 177.535 497.605 16.508z"/><path fill="#9AB7C5" d="M895.961 221.957l17.355 194.043 1.715-3.578z"/><path fill="#BFBDA8" d="M913.316 416l3.887 14.109 6.699-13.953z"/><path fill="#F1F2EA" d="M415.711 399.492l303.141 196.121 194.464-179.613z"/><path fill="#D4C7C1" d="M915.031 412.422l-1.715 3.578 10.586.156z"/><path fill="#D5CDB8" d="M917.203 430.109l16.715 6.77 1.172-18.051z"/><path fill="#594F46" d="M913.316 416l-194.464 179.613 198.351-165.504z"/><path fill="#26413C" d="M778.328 638.75l15.981 15.828 136.812-120.336z"/><path fill="#A5C1D6" d="M720-383l-330.836 683.738 556.027-161.109z"/><path fill="#6F7062" d="M917.203 430.109l-198.351 165.504 212.269-61.371z"/><path fill="#9E9586" d="M923.902 416.156l-6.699 13.953 17.887-11.281z"/><path fill="#1A1A12" d="M718.852 595.613l59.476 43.137 152.793-104.508z"/><path fill="#D8D1CB" d="M1042.078 320.184l-106.988 98.644 122.777-73.191z"/><path fill="#5C828D" d="M1021.023 689.816l139.813 77.485 15.863-28.305z"/><path fill="#272725" d="M915.031 412.422l8.871 3.734 11.188 2.672z"/><path fill="#DBD0BA" d="M933.918 436.879l-16.715-6.77 19.863 96.817z"/><path fill="#E9E2DA" d="M917.203 430.109l13.918 104.133 5.945-7.316z"/><path fill="#A3B4BE" d="M1423.113 393.863l-5.136-9.418 5.558 20.922z"/><path fill="#688593" d="M931.121 534.242l-136.812 120.336 207.644 37.059z"/><path fill="#6D8B96" d="M794.309 654.578l-1.774 34.164 209.418 2.895z"/><path fill="#9DB1BC" d="M1057.867 345.637l47.254 35.703 19.246-20.012z"/><path fill="#A1B4BB" d="M1042.078 320.184l15.789 25.453 66.5 15.691z"/><path fill="#6A8A97" d="M1001.953 691.637l2.844-.231 2.777-.226z"/><path fill="#96B2C0" d="M915.031 412.422l20.059 6.406 81.875-141.023z"/><path fill="#A2B8C6" d="M945.191 139.629l-49.23 82.328 121.004 55.848z"/><path fill="#A4BBC9" d="M895.961 221.957l19.07 190.465 101.934-134.617z"/><path fill="#688897" d="M1001.953 691.637l5.621-.457 11.418-3.547z"/><path fill="#969897" d="M931.121 534.242l70.832 157.395 17.039-4.004z"/><path fill="#AEA8AA" d="M1105.121 381.34l71.578 357.656 233.086-85.891z"/><path fill="#8B807A" d="M937.066 526.926l-5.945 7.316 87.871 153.391z"/><path fill="#99AFBA" d="M1016.965 277.805l-81.875 141.023 106.988-98.644z"/><path fill="#97ABB4" d="M935.09 418.828l-1.172 18.051 123.949-91.242z"/><path fill="#2B3123" d="M937.066 526.926l81.926 160.707 86.129-306.293z"/><path fill="#4B7581" d="M1171.828 753.879l-13.414 22.953 17.563 69.121z"/><path fill="#A2B0BB" d="M1057.867 345.637l-123.949 91.242 171.203-55.539z"/><path fill="#7E8C8D" d="M933.918 436.879l3.148 90.047 168.055-145.586z"/><path fill="#6C8792" d="M1105.121 381.34l-86.129 306.293 157.707 51.363z"/><path fill="#40707E" d="M1160.836 767.301l-2.422 9.531 13.414-22.953z"/><path fill="#567E8A" d="M1021.023 689.816l-13.449 1.364 148.867 86.972z"/><path fill="#3E6576" d="M1158.414 776.832l-1.973 1.32 19.536 67.801z"/><path fill="#527A86" d="M1004.797 691.406l-2.844.231 174.024 154.316z"/><path fill="#638390" d="M1021.023 689.816l135.418 88.336 4.395-10.851z"/><path fill="#8E9995" d="M1156.441 778.152l1.973-1.32 2.422-9.531z"/><path fill="#253F3C" d="M792.535 688.742l-72.535 595.258 455.977-438.047z"/><path fill="#396A78" d="M1001.953 691.637l-209.418-2.895 383.442 157.211z"/><path fill="#517983" d="M1007.574 691.18l-2.777.226 171.18 154.547z"/><path fill="#477380" d="M1156.441 778.152l-148.867-86.972 168.403 154.773z"/><path fill="#698A93" d="M1018.992 687.633l2.031 2.183 155.676 49.18z"/><path fill="#4C7883" d="M1171.828 753.879l4.149 92.074.722-106.957z"/><path fill="#A5C2D4" d="M945.191 139.629l71.774 138.176 168.281 24.894z"/><path fill="#A9BCCB" d="M1016.965 277.805l25.113 42.379 143.168-17.485z"/><path fill="#B5C2CB" d="M1042.078 320.184l82.289 41.144 60.879-58.629z"/><path fill="#9DA4B4" d="M1415.797 361.406l3.137 13.258 12.781 6.016z"/><path fill="#587C8A" d="M1176.699 738.996l-.722 106.957 233.808-192.848z"/><path fill="#A2BAC4" d="M1185.246 302.699l-60.879 58.629 271.731 7.848z"/><path fill="#7ABEC7" d="M1185.246 302.699l210.852 66.477 18.754-11.481z"/><path fill="#E2E9E1" d="M1423.535 405.367l-13.75 247.738 19.844-238.769z"/><path fill="#B2A6A8" d="M1414.852 357.695l-18.754 11.481 19.699-7.77z"/><path fill="#ABABA3" d="M1415.797 361.406l-19.699 7.77 19.757 2.453z"/><path fill="#9FA3A2" d="M1417.84 382.387l-21.742-13.211 21.879 15.269z"/><path fill="#A9A5A6" d="M1415.855 371.629l-19.757-2.453 21.742 13.211z"/><path fill="#A4B3B0" d="M1417.977 384.445l-21.879-15.269 27.437 36.191z"/><path fill="#C4B8AC" d="M1415.797 361.406l.058 10.223 3.079 3.035z"/><path fill="#D0C9C1" d="M1415.855 371.629l1.985 10.758 1.094-7.723z"/><path fill="#A1B1BE" d="M1417.977 384.445l5.136 9.418 8.602-13.183z"/><path fill="#A6918C" d="M1105.121 381.34l304.664 271.765 13.75-247.738z"/><path fill="#A1B3C1" d="M1124.367 361.328l-19.246 20.012 318.414 24.027z"/><path fill="#9EACB9" d="M1396.098 369.176l-271.731-7.848 299.168 44.039z"/><path fill="#A8ADB0" d="M1418.934 374.664l-1.094 7.723 13.875-1.707z"/><path fill="#ABB6B8" d="M1417.84 382.387l.137 2.058 13.738-3.765z"/><path fill="#92A9B1" d="M1423.113 393.863l.422 11.504 13.027.192z"/><path fill="#A9B3BF" d="M1423.535 405.367l6.094 8.969 6.933-8.777z"/><path fill="#CFCFC5" d="M1444.793 404.953l-8.231.606 9.395.8z"/><path fill="#A6B9BD" d="M1436.562 405.559l-6.933 8.777 12.445 3.672z"/><path fill="#BFC1BC" d="M1436.562 405.559l7.766 10.703 1.629-9.903z"/><path fill="#C4BBBE" d="M1436.562 405.559l5.512 12.449 2.254-1.746z"/><path fill="#A3B7BE" d="M1431.715 380.68l-8.602 13.183 21.571 7.801z"/><path fill="#9FB1BF" d="M1423.113 393.863l13.449 11.696 8.122-3.895z"/><path fill="#CED0C3" d="M1444.684 401.664l-8.122 3.895 8.231-.606z"/><path fill="#ADB2B5" d="M1442.074 418.008l-12.445-3.672 23.359 19.809z"/><path fill="#C6B3AF" d="M1429.629 414.336l41.516 96.074 1.253-14.484z"/><path fill="#D9C1B5" d="M1452.988 434.145l-23.359-19.809 42.769 81.59z"/><path fill="#A9B7C0" d="M1415.797 361.406l15.918 19.274 37.48-15.903z"/><path fill="#D1C8C1" d="M1431.715 380.68l12.969 20.984 23.461-10.297z"/><path fill="#A9B5C1" d="M1414.852 357.695l.945 3.711 53.398 3.371z"/><path fill="#D2CBC1" d="M1469.195 364.777l-37.48 15.903 39.035 2.984z"/><path fill="#B3A4A9" d="M1431.715 380.68l36.43 10.687 2.605-7.703z"/><path fill="#ADA69C" d="M1409.785 653.105l58.32-63.921 3.04-78.774z"/><path fill="#4D5E4C" d="M1429.629 414.336l-19.844 238.769 61.36-142.695z"/><path fill="#939B9E" d="M1468.105 589.184l-58.32 63.921 63.18 5.465z"/><path fill="#CBC6C2" d="M1414.852 357.695l54.343 7.082 25.559-43.781z"/><path fill="#CFDFDC" d="M1414.852 357.695l79.902-36.699 12.004-12.738z"/><path fill="#A6BAC5" d="M1185.246 302.699l229.606 54.996 91.906-49.437z"/><path fill="#849EAB" d="M1185.246 302.699l321.512 5.559 23.062-19.024z"/><path fill="#79949F" d="M1472.965 658.57l-63.18-5.465 114.688 46.727z"/><path fill="#B4C5CD" d="M1185.246 302.699l344.574-13.465 16.047-10.234z"/><path fill="#A5C2D2" d="M945.191 139.629l240.055 163.07 360.621-23.699z"/><path fill="#648692" d="M1409.785 653.105l-233.808 192.848 372.175-113.363z"/><path fill="#77929B" d="M1524.473 699.832l-114.688-46.727 138.367 79.485z"/><path fill="#28535C" d="M1548.152 732.59l-372.175 113.363 630.785 199.551z"/><path fill="#ABC5D2" d="M945.191 139.629l600.676 139.371 283.985-289.723z"/><path fill="#AFCADB" d="M720-383l225.191 522.629 884.661-150.352z"/><path fill="#233C38" d="M1806.762 1045.504l-630.785-199.551 661.898 353.887z"/><path fill="#24302C" d="M1175.977 845.953l-455.977 438.047 1117.875-84.16z"/></svg>