<svg xmlns="http://www.w3.org/2000/svg" width="1440" height="900" viewBox="0 0 1440 900"><path fill="#1F1F1F" d="M0 0h1440v900h-1440z"/><path fill="#253937" d="M622.742 775.867l-50.855 53.543 148.113 454.59z"/><path fill="#4B4748" d="M-7.68 563.406l4.192 3.551 8.59-114.102z"/><path fill="#D8D6C7" d="M24.055 355.242l41.984 85.805 22.777-92.637z"/><path fill="#2B2A25" d="M-.586 454.711l-20.715 21.258 26.403-23.114z"/><path fill="#BDBAAB" d="M-3.867 582.949l3.652 7.235 2.141-12.766z"/><path fill="#98B0BC" d="M-5.195 324.074l29.25 31.168 64.761-6.832z"/><path fill="#2B382F" d="M-21.301 475.969l13.621 87.437 12.782-110.551z"/><path fill="#A2B2BF" d="M-21.891 285.676l16.696 38.398 94.011 24.336z"/><path fill="#386977" d="M1007.531 723.902l-2.926 37.051 3.321-1.215z"/><path fill="#95AFBE" d="M88.816 348.41l251.282-16.328 49.066-31.344z"/><path fill="#40404A" d="M-6.012 446.133l5.426 8.578 5.688-1.856z"/><path fill="#1C1D15" d="M141.914 545.906l42.816 119.223 60.524-21.234z"/><path fill="#211E17" d="M-8.098 369.965l2.086 76.168 11.114 6.722z"/><path fill="#9DA9B7" d="M-5.195 324.074l.527 11.196 28.723 19.972z"/><path fill="#73909E" d="M185.039 666.637l-1.769 9.566 61.984-32.308z"/><path fill="#292B26" d="M5.102 452.855l-8.59 114.102 69.527-125.91z"/><path fill="#87827C" d="M-7.957 573.77l4.09 9.179 5.793-5.531z"/><path fill="#9FA09A" d="M-3.488 566.957l-4.469 6.813 9.883 3.648z"/><path fill="#AFB8A3" d="M24.055 355.242l-32.153 14.723 74.137 71.082z"/><path fill="#9BA9B6" d="M-4.668 335.27l-2 4.117 30.723 15.855z"/><path fill="#9FADB8" d="M-13.043 350.473l4.945 19.492 32.153-14.723z"/><path fill="#86909C" d="M-6.668 339.387l-6.375 11.086 37.098 4.769z"/><path fill="#D4C1BB" d="M-8.098 369.965l13.2 82.89 60.937-11.808z"/><path fill="#939EA2" d="M66.039 441.047l-69.527 125.91 145.402-21.051z"/><path fill="#96A7B1" d="M-3.488 566.957l5.414 10.461 139.988-31.512z"/><path fill="#7F9BA6" d="M184.73 665.129l-12.003 3.621 12.312-2.113z"/><path fill="#4C696F" d="M184.73 665.129l.309 1.508 60.215-22.742z"/><path fill="#9BA8AE" d="M-.734 594.855l-1.196 33.45 143.844-82.399z"/><path fill="#91A5AE" d="M1.926 577.418l-2.141 12.766 142.129-44.278z"/><path fill="#A0A4AF" d="M-.215 590.184l-.519 4.671 142.648-48.949z"/><path fill="#8DA1AC" d="M-1.93 628.305l-4.515 63.832 178.824-21.032z"/><path fill="#90A2AC" d="M-1.93 628.305l174.309 42.8.348-2.355z"/><path fill="#7F97A3" d="M-6.445 692.137l4.757 28.597 174.067-49.629z"/><path fill="#638390" d="M-1.688 720.734l1.227 70.473 172.84-120.102z"/><path fill="#758C91" d="M141.914 545.906l-143.844 82.399 174.657 40.445z"/><path fill="#557D87" d="M-.461 791.207l-5.742 31.309 189.473-146.313z"/><path fill="#7C94A0" d="M172.379 671.105l-172.84 120.102 183.731-115.004z"/><path fill="#7B95A2" d="M172.727 668.75l-.348 2.355 10.891 5.098z"/><path fill="#859DA7" d="M172.727 668.75l10.543 7.453 1.769-9.566z"/><path fill="#1C1C12" d="M141.914 545.906l30.813 122.844 12.003-3.621z"/><path fill="#97B2C3" d="M-21.891 285.676l110.707 62.734 300.348-47.672z"/><path fill="#34382A" d="M450.973 499.062l103.769 75.61.785-1.516z"/><path fill="#AEC2CB" d="M291.086 378.441l-8.969-2.605 37.481 159.742z"/><path fill="#1D1F14" d="M66.039 441.047l75.875 104.859 140.203-170.07z"/><path fill="#C7BAA7" d="M88.816 348.41l-22.777 92.637 216.078-65.211z"/><path fill="#BAB3A9" d="M287.613 369.066l1.203 2.512.598-.238z"/><path fill="#354844" d="M282.117 375.836l-140.203 170.07 177.684-10.328z"/><path fill="#A4A59F" d="M141.914 545.906l103.34 97.989 74.344-108.317z"/><path fill="#B2B3B8" d="M88.816 348.41l193.301 27.426 5.496-6.77z"/><path fill="#9BB2C0" d="M340.098 332.082l37.07 35.008 11.996-66.352z"/><path fill="#AEAAA7" d="M287.613 369.066l-5.496 6.77 6.699-4.258z"/><path fill="#4C3F1C" d="M452.289 494.449l-1.316 4.613 104.554 74.094z"/><path fill="#BFB7AC" d="M289.414 371.34l-.598.238 2.27 6.863z"/><path fill="#D8D3CF" d="M288.816 371.578l-6.699 4.258 8.969 2.605z"/><path fill="#A3B0B8" d="M289.414 371.34l1.672 7.101 49.012-46.359z"/><path fill="#122C45" d="M291.086 378.441l28.512 157.137 57.57-168.488z"/><path fill="#A2ACB8" d="M340.098 332.082l-49.012 46.359 86.082-11.351z"/><path fill="#97ADBB" d="M287.613 369.066l1.801 2.274 50.684-39.258z"/><path fill="#C6CACB" d="M88.816 348.41l198.797 20.656 52.485-36.984z"/><path fill="#8FB1BD" d="M468.895 363.145l3.101 5.57 3.742 4.004z"/><path fill="#79949F" d="M245.254 643.895l-61.984 32.308 208.089 85.934z"/><path fill="#5D7E8D" d="M183.27 676.203l-189.473 146.313 397.562-60.379z"/><path fill="#A9B8BD" d="M700.176 391.457l20.762 82.875 50.632-81.953z"/><path fill="#A6C7DA" d="M556.309 52.211l6.296-4.352 157.395-430.859z"/><path fill="#366575" d="M391.359 762.137l-397.562 60.379 403.84-57.243z"/><path fill="#658793" d="M394.984 763.875l-3.625-1.738 6.278 3.136z"/><path fill="#507B8B" d="M394.984 763.875l2.653 1.398 21.371-150.593z"/><path fill="#838F8F" d="M406.117 564.914l12.891 49.766 9.672-19.774z"/><path fill="#395642" d="M319.598 535.578l-74.344 108.317 173.754-29.215z"/><path fill="#BDBAB5" d="M406.117 564.914l-86.519-29.336 99.41 79.102z"/><path fill="#517B8B" d="M391.359 762.137l3.625 1.738 24.024-149.195z"/><path fill="#76929E" d="M245.254 643.895l146.105 118.242 27.649-147.457z"/><path fill="#8A6538" d="M453.859 482.344l-1.57 12.105 103.238 78.707z"/><path fill="#C2BBB3" d="M377.168 367.09l66.41 61.152 4.039-3.875z"/><path fill="#1A1B15" d="M377.168 367.09l-57.57 168.488 123.98-107.336z"/><path fill="#A7A39A" d="M447.617 424.367l-4.039 3.875 10.281 54.102z"/><path fill="#96ACB9" d="M468.895 363.145l-91.727 3.945 91.984 6.594z"/><path fill="#BBC3C6" d="M319.598 535.578l86.519 29.336 38.137-68.332z"/><path fill="#818989" d="M443.578 428.242l-123.98 107.336 124.656-38.996z"/><path fill="#99B5C1" d="M471.996 368.715l-1.402 5.953 5.144-1.949z"/><path fill="#98AEBB" d="M470.594 374.668l-22.977 49.699 28.121-51.648z"/><path fill="#7D837F" d="M406.117 564.914l22.563 29.992 22.293-95.844z"/><path fill="#191911" d="M444.254 496.582l-38.137 68.332 44.856-65.852z"/><path fill="#033E60" d="M577.965 226.844l-8.207 1.422 9.859 14.922z"/><path fill="#BDBDBF" d="M444.254 496.582l6.719 2.48 1.316-4.613z"/><path fill="#9BA3A5" d="M451.59 488.148l-7.336 8.434 8.035-2.133z"/><path fill="#B3AAA3" d="M443.578 428.242l.676 68.34 9.605-14.238z"/><path fill="#6A9AB0" d="M444.254 496.582l7.336-8.434 2.269-5.804z"/><path fill="#7292A1" d="M451.59 488.148l.699 6.301 1.57-12.105z"/><path fill="#99B3C2" d="M389.164 300.738l-11.996 66.352 91.727-3.945z"/><path fill="#82B1C5" d="M569.758 228.266l1.297 17.058 8.562-2.136z"/><path fill="#A6AFB6" d="M377.168 367.09l70.449 57.277 21.535-50.683z"/><path fill="#9CAEBC" d="M469.152 373.684l-21.535 50.683 22.977-49.699z"/><path fill="#93ADBC" d="M469.152 373.684l1.442.984 1.402-5.953z"/><path fill="#90ABBC" d="M468.895 363.145l.257 10.539 2.844-4.969z"/><path fill="#8B9EA5" d="M428.68 594.906l-9.672 19.774 111.898.988z"/><path fill="#A7C3D1" d="M569.758 228.266l-1.586 17.23 2.883-.172z"/><path fill="#7D98A3" d="M419.008 614.68l-21.371 150.593 133.269-149.605z"/><path fill="#809AA7" d="M428.68 594.906l102.226 20.762 23.836-40.996z"/><path fill="#003348" d="M582.977 372.09l.835 12.656 12.918-2.543z"/><path fill="#506056" d="M450.973 499.062l-22.293 95.844 126.062-20.234z"/><path fill="#A5C5D4" d="M-21.891 285.676l411.055 15.062 167.145-248.527z"/><path fill="#ABC5D4" d="M-530-383l508.109 668.676 578.2-233.465z"/><path fill="#A6A5B3" d="M556.309 52.211l5.496 7.465.8-11.817z"/><path fill="#869CAA" d="M582.977 372.09l13.753 10.113 1.411-1.312z"/><path fill="#B7D1E2" d="M-530-383l1086.309 435.211 163.691-435.211z"/><path fill="#638392" d="M530.906 615.668l-133.269 149.605 159.336 58.84z"/><path fill="#233029" d="M556.973 824.113l-159.336-58.84 322.363 518.727z"/><path fill="#98B0BC" d="M613.082 372.426l17.555 23.742 69.539-4.711z"/><path fill="#ACC2D0" d="M561.805 59.676l-5.496-7.465 8.988 44.723z"/><path fill="#A6A9AE" d="M630.637 396.168l-3.289 8.707 8.707.988z"/><path fill="#A4C1D3" d="M562.605 47.859l-.8 11.817 3.492 37.258z"/><path fill="#ADC7D4" d="M556.309 52.211l-167.145 248.527 176.133-203.804z"/><path fill="#AAC4D1" d="M568.078 228.211l-1.512.789 1.606 16.496z"/><path fill="#A9C5D1" d="M568.078 228.211l.094 17.285 1.586-17.23z"/><path fill="#A9C5D3" d="M565.297 96.934l-176.133 203.804 177.402-71.738z"/><path fill="#ACC6D5" d="M566.566 229l3.192-.734 8.207-1.422z"/><path fill="#ABC5D2" d="M566.566 229l1.512-.789 1.68.055z"/><path fill="#B1C4D2" d="M566.566 229l-177.402 71.738 179.008-55.242z"/><path fill="#9CB8C6" d="M389.164 300.738l79.731 62.407 99.277-117.649z"/><path fill="#7C98A3" d="M554.742 574.672l-23.836 40.996 92.11 94.98z"/><path fill="#4D7984" d="M620.223 777.379l2.519-1.512.274-65.219z"/><path fill="#88A4B0" d="M579.617 243.188l3.36 128.902 30.105.336z"/><path fill="#909B9F" d="M555.527 573.156l-.785 1.516 68.274 135.976z"/><path fill="#9CB2BD" d="M565.297 96.934l1.269 132.066 11.399-2.156z"/><path fill="#BDCED5" d="M579.617 243.188l-8.562 2.136 11.922 126.766z"/><path fill="#98B3C4" d="M568.172 245.496l-99.277 117.649 114.082 8.945z"/><path fill="#95AFBC" d="M468.895 363.145l6.843 9.574 107.239-.629z"/><path fill="#A2B4BE" d="M571.055 245.324l-2.883.172 14.805 126.594z"/><path fill="#003F6F" d="M447.617 424.367l6.242 57.977 129.953-97.598z"/><path fill="#B6C2C2" d="M475.738 372.719l-28.121 51.648 136.195-39.621z"/><path fill="#506169" d="M582.977 372.09l-107.239.629 108.074 12.027z"/><path fill="#1E1E14" d="M453.859 482.344l101.668 90.812 28.285-188.41z"/><path fill="#99B2C6" d="M598.141 380.891l14.273-4.18.668-4.285z"/><path fill="#9BAFBA" d="M598.141 380.891l-1.411 1.312 15.364-2.687z"/><path fill="#95B1BD" d="M582.977 372.09l15.164 8.801 14.941-8.465z"/><path fill="#5C7D8C" d="M556.973 824.113l63.25-46.734 2.793-66.731z"/><path fill="#94B1C3" d="M598.141 380.891l13.953-1.375.32-2.805z"/><path fill="#7A929E" d="M530.906 615.668l26.067 208.445 66.043-113.465z"/><path fill="#94ACB8" d="M612.094 379.516l-15.364 2.687 30.618 22.672z"/><path fill="#2B5C6A" d="M556.973 824.113l14.914 5.297 48.336-52.031z"/><path fill="#285D6B" d="M620.223 777.379l-48.336 52.031 50.855-53.543z"/><path fill="#BEB9B3" d="M720.938 474.332l-165.411 98.824 202.555 68.453z"/><path fill="#73848C" d="M612.094 379.516l15.254 25.359 3.289-8.707z"/><path fill="#7DA3B0" d="M596.73 382.203l-12.918 2.543 43.536 20.129z"/><path fill="#33352A" d="M583.812 384.746l-28.285 188.41 71.821-168.281z"/><path fill="#2A2A20" d="M627.348 404.875l-71.821 168.281 80.528-167.293z"/><path fill="#465656" d="M613.082 372.426l-.668 4.285 18.223 19.457z"/><path fill="#475558" d="M612.414 376.711l-.32 2.805 18.543 16.652z"/><path fill="#3C595D" d="M555.527 573.156l67.489 137.492 135.066-69.039z"/><path fill="#253D3D" d="M397.637 765.273l-403.84 57.243 726.203 461.484z"/><path fill="#97B3BF" d="M796.883 313.16l-25.313 79.219 32.59-35.539z"/><path fill="#9CB3C1" d="M579.617 243.188l33.465 129.238 87.094 19.031z"/><path fill="#B4B5B0" d="M630.637 396.168l5.418 9.695 64.121-14.406z"/><path fill="#222E2A" d="M-21.277 827.074l-508.723 456.926h1250z"/><path fill="#284042" d="M-6.203 822.516l-15.074 4.558 741.277 456.926z"/><path fill="#233C39" d="M571.887 829.41l-14.914-5.297 163.027 459.887z"/><path fill="#473728" d="M636.055 405.863l-80.528 167.293 165.411-98.824z"/><path fill="#D9D2C8" d="M700.176 391.457l-64.121 14.406 84.883 68.469z"/><path fill="#7C98A4" d="M758.082 641.609l34.453 47.133 1.774-34.164z"/><path fill="#74909E" d="M794.309 654.578l-1.774 34.164 105.688 32.656z"/><path fill="#6D8E9F" d="M903.176 618.895l-4.953 102.503 6.422-102.136z"/><path fill="#AAC7D9" d="M565.297 96.934l330.664 125.023 49.23-82.328z"/><path fill="#708E99" d="M758.082 641.609l-135.066 69.039 169.519-21.906z"/><path fill="#658290" d="M623.016 710.648l-.274 65.219 169.793-87.125z"/><path fill="#A9C4D7" d="M562.605 47.859l2.692 49.075 379.894 42.695z"/><path fill="#9FB5C2" d="M579.617 243.188l120.559 148.269 96.707-78.297z"/><path fill="#96B0BF" d="M700.176 391.457l71.394.922 25.313-79.219z"/><path fill="#B2C5D3" d="M577.965 226.844l1.652 16.344 217.266 69.972z"/><path fill="#5D838C" d="M792.535 688.742l-169.793 87.125 275.481-54.469z"/><path fill="#B1C7D4" d="M577.965 226.844l218.918 86.316 99.078-91.203z"/><path fill="#A9C6D6" d="M565.297 96.934l12.668 129.91 317.996-4.887z"/><path fill="#A5BFCC" d="M796.883 313.16l7.277 43.68 91.801-134.883z"/><path fill="#72929F" d="M902.754 608.137l.422 10.758 1.469.367z"/><path fill="#23403E" d="M622.742 775.867l97.258 508.133 178.223-562.602z"/><path fill="#15334F" d="M771.57 392.379l-50.632 81.953 181.816 133.805z"/><path fill="#233D3A" d="M898.223 721.398l-178.223 562.602 284.605-523.047z"/><path fill="#1A1B1D" d="M804.16 356.84l-32.59 35.539 131.184 215.758z"/><path fill="#181E1E" d="M720.938 474.332l37.144 167.277 144.672-33.472z"/><path fill="#7795A0" d="M758.082 641.609l36.227 12.969 108.445-46.441z"/><path fill="#738F9B" d="M902.754 608.137l-108.445 46.441 108.867-35.683z"/><path fill="#728E9A" d="M794.309 654.578l103.914 66.82 4.953-102.503z"/><path fill="#A6C2D7" d="M720-383l-157.395 430.859 382.586 91.77z"/><path fill="#6E7D82" d="M1099.805 591.695l2.773-1.218 30.863-70.161z"/><path fill="#889BA9" d="M1099.805 591.695l-2.856 13.172 5.629-14.39z"/><path fill="#A2B8C6" d="M945.191 139.629l-49.23 82.328 121.004 55.848z"/><path fill="#282015" d="M804.16 356.84l98.594 251.297 102.203-277.063z"/><path fill="#BEBCAF" d="M1153.664 365.219l5.613 15.367 6.235 4.293z"/><path fill="#A0BAC7" d="M895.961 221.957l-91.801 134.883 200.797-25.766z"/><path fill="#718D99" d="M904.645 619.262l-6.422 102.136 109.308 2.504z"/><path fill="#3B6C7B" d="M898.223 721.398l106.382 39.555 2.926-37.051z"/><path fill="#9EBAC6" d="M1004.957 331.074l4.891-4.984 7.117-48.285z"/><path fill="#5E828E" d="M1156.441 778.152l1.973-1.32 13.445-129.543z"/><path fill="#A5B7BB" d="M1151.633 364.77l-.508 2.117 2.539-1.668z"/><path fill="#B3C6D4" d="M895.961 221.957l108.996 109.117 12.008-53.269z"/><path fill="#7496A2" d="M1096.949 604.867l-11.734 2 86.644 40.422z"/><path fill="#C0BEB2" d="M1016.965 277.805l-7.117 48.285 32.23-5.906z"/><path fill="#9DB8C1" d="M1042.078 320.184l-32.23 5.906 48.019 19.547z"/><path fill="#A7B4BC" d="M1009.848 326.09l-4.891 4.984 52.91 14.563z"/><path fill="#5E615A" d="M1159.277 380.586l-25.836 139.73 32.071-135.437z"/><path fill="#72858C" d="M902.754 608.137l197.051-16.442 33.636-71.379z"/><path fill="#6C7079" d="M902.754 608.137l1.891 11.125 180.57-12.395z"/><path fill="#74949F" d="M904.645 619.262l102.886 104.64 77.684-117.035z"/><path fill="#5E7F8E" d="M1007.531 723.902l148.91 54.25 15.418-130.863z"/><path fill="#99B3C2" d="M1057.867 345.637l93.258 21.25.508-2.117z"/><path fill="#859BA6" d="M1430.691 578.953l-20.906 74.152 26.649-55.347z"/><path fill="#A3A2A7" d="M1085.215 606.867l11.734-2 2.856-13.172z"/><path fill="#D0CCC0" d="M902.754 608.137l182.461-1.27 14.59-15.172z"/><path fill="#A4A498" d="M1004.957 331.074l-102.203 277.063 230.687-87.821z"/><path fill="#2F4D4F" d="M1057.867 345.637l-52.91-14.563 128.484 189.242z"/><path fill="#6D8F99" d="M1085.215 606.867l-77.684 117.035 164.328-76.613z"/><path fill="#DFB9AC" d="M1057.867 345.637l75.574 174.679 25.836-139.73z"/><path fill="#26403F" d="M1004.605 760.953l-284.605 523.047 436.441-505.848z"/><path fill="#4F7484" d="M1007.926 759.738l-3.321 1.215 151.836 17.199z"/><path fill="#A8C3D4" d="M1170.82 226.559l-153.855 51.246 154.844-36.059z"/><path fill="#4B7782" d="M1007.531 723.902l.395 35.836 148.515 18.414z"/><path fill="#F6F3EA" d="M1269.578 477.156l.547 5.918 5.301 13.899z"/><path fill="#B8C5CE" d="M1016.965 277.805l25.113 42.379 129.731-78.438z"/><path fill="#87A2A9" d="M1133.441 520.316l-30.863 70.161 69.281 56.812z"/><path fill="#6E7470" d="M1275.426 496.973l-10.953 4.261 38.547 190.707z"/><path fill="#A9B1BB" d="M1335.273 399.281l-1.316 2.664 1.332 6.485z"/><path fill="#E1D8CF" d="M1153.664 365.219l-2.539 1.668 8.152 13.699z"/><path fill="#9CB3C1" d="M1151.125 366.887l-93.258-21.25 101.41 34.949z"/><path fill="#A7C4D6" d="M720-383l225.191 522.629 225.629 86.93z"/><path fill="#A6C3D3" d="M945.191 139.629l71.774 138.176 153.855-51.246z"/><path fill="#ACC2CF" d="M1171.809 241.746l-129.731 78.438 143.168-17.485z"/><path fill="#A2B4C0" d="M1042.078 320.184l15.789 25.453 127.379-42.938z"/><path fill="#7496A2" d="M1102.578 590.477l-5.629 14.39 74.91 42.422z"/><path fill="#9AB6C4" d="M1057.867 345.637l93.766 19.133 33.613-62.071z"/><path fill="#8197A2" d="M1264.473 501.234l-92.614 146.055 131.161 44.652z"/><path fill="#A4B2BD" d="M1153.664 365.219l11.848 19.66 19.734-82.18z"/><path fill="#A6B9C0" d="M1151.633 364.77l2.031.449 31.582-62.52z"/><path fill="#F5F1E8" d="M1269.578 477.156l-1.168 3.543 1.715 2.375z"/><path fill="#879DAA" d="M1133.441 520.316l38.418 126.973 92.614-146.055z"/><path fill="#AFA991" d="M1268.41 480.699l-3.937 20.535 5.652-18.16z"/><path fill="#DCD3C4" d="M1165.512 384.879l-32.071 135.437 134.969-39.617z"/><path fill="#D8D4C9" d="M1133.441 520.316l131.032-19.082 3.937-20.535z"/><path fill="#778E9C" d="M1171.859 647.289l-13.445 129.543 144.606-84.891z"/><path fill="#433131" d="M1333.957 401.945l-64.379 75.211 65.711-68.726z"/><path fill="#E4E4DC" d="M1165.512 384.879l102.898 95.82 1.168-3.543z"/><path fill="#BDB3AA" d="M1269.578 477.156l5.848 19.817 59.863-88.543z"/><path fill="#BCAF8F" d="M1270.125 483.074l-5.652 18.16 10.953-4.261z"/><path fill="#A2B2BF" d="M1185.246 302.699l148.711 99.246 1.316-2.664z"/><path fill="#A9BBC7" d="M1171.809 241.746l13.437 60.953 150.027 96.582z"/><path fill="#302919" d="M1165.512 384.879l104.066 92.277 64.379-75.211z"/><path fill="#AEB6C1" d="M1185.246 302.699l-19.734 82.18 168.445 17.066z"/><path fill="#7D95A1" d="M1303.02 691.941l106.765-38.836 20.906-74.152z"/><path fill="#D0DAD9" d="M1335.273 399.281l.016 9.149 101.273-2.871z"/><path fill="#C7C9C4" d="M1275.426 496.973l27.594 194.968 127.671-112.988z"/><path fill="#DBD7CC" d="M1448.133 495.188l-172.707 1.785 172.84 4.918z"/><path fill="#B6A490" d="M1275.426 496.973l155.265 81.98 12.754-44.992z"/><path fill="#A59D9A" d="M1430.691 578.953l14.485-20.34.426-13.234z"/><path fill="#E2E7E0" d="M1444.328 416.262l-7.766-10.703 14.086 49.246z"/><path fill="#D8D8CE" d="M1335.289 408.43l114.863 55.746.496-9.371z"/><path fill="#CED0C3" d="M1444.684 401.664l-8.122 3.895 8.231-.606z"/><path fill="#CFCFC5" d="M1444.793 404.953l-8.231.606 9.395.8z"/><path fill="#909EA7" d="M1430.691 578.953l13.559-9.906.926-10.434z"/><path fill="#CBCBC3" d="M1443.445 533.961l-12.754 44.992 14.911-33.574z"/><path fill="#BFC1BC" d="M1436.562 405.559l7.766 10.703 1.629-9.903z"/><path fill="#A5AC9A" d="M1436.562 405.559l-101.273 2.871 115.359 46.375z"/><path fill="#78716B" d="M1335.289 408.43l-59.863 88.543 172.476-5.153z"/><path fill="#C2C0B4" d="M1447.902 491.82l-172.476 5.153 172.707-1.785z"/><path fill="#C7BBA5" d="M1275.426 496.973l168.019 36.988 4.821-32.07z"/><path fill="#ACACA0" d="M1444.25 569.047l-13.559 9.906 19.723-.82z"/><path fill="#949899" d="M1430.691 578.953l5.743 18.805 13.98-19.625z"/><path fill="#655C5F" d="M1335.289 408.43l112.613 83.39 2.25-27.644z"/><path fill="#8D9BA4" d="M1450.414 578.133l-13.98 19.625 19.644-9.117z"/><path fill="#A1A49D" d="M1456.078 588.641l-19.644 9.117 31.671-8.574z"/><path fill="#C0C3BA" d="M1335.273 399.281l101.289 6.278 32.633-40.782z"/><path fill="#A8AEBA" d="M1436.562 405.559l8.122-3.895 24.511-36.887z"/><path fill="#76919C" d="M1468.105 589.184l-31.671 8.574 36.531 60.812z"/><path fill="#8397A0" d="M1436.434 597.758l-26.649 55.347 63.18 5.465z"/><path fill="#A9B5C1" d="M1335.273 399.281l133.922-34.504 25.559-43.781z"/><path fill="#AEC5D3" d="M1170.82 226.559l.989 15.187 322.945 79.25z"/><path fill="#D3CFCE" d="M1171.809 241.746l163.464 157.535 159.481-78.285z"/><path fill="#B1C4D2" d="M1170.82 226.559l323.934 94.437 12.004-12.738z"/><path fill="#B2C6D1" d="M1170.82 226.559l335.938 81.699 23.062-19.024z"/><path fill="#79949F" d="M1472.965 658.57l-63.18-5.465 114.688 46.727z"/><path fill="#B7CBD6" d="M1170.82 226.559l359 62.675 16.047-10.234z"/><path fill="#9B9A95" d="M1303.02 691.941l-144.606 84.891 389.738-44.242z"/><path fill="#76919C" d="M1409.785 653.105l-106.765 38.836 245.132 40.649z"/><path fill="#77929B" d="M1524.473 699.832l-114.688-46.727 138.367 79.485z"/><path fill="#B2C8D5" d="M1170.82 226.559l654.41-225.129 4.622-12.153z"/><path fill="#33636D" d="M1158.414 776.832l-1.973 1.32 650.321 267.352z"/><path fill="#3E6C79" d="M1548.152 732.59l-389.738 44.242 648.348 268.672z"/><path fill="#AEC8D9" d="M720-383l450.82 609.559 659.032-237.282z"/><path fill="#B3C6D4" d="M1170.82 226.559l375.047 52.441 279.363-277.57z"/><path fill="#223836" d="M1806.762 1045.504l-650.321-267.352 681.434 421.688z"/><path fill="#23342C" d="M1156.441 778.152l-436.441 505.848 1117.875-84.16z"/></svg>