<svg xmlns="http://www.w3.org/2000/svg" width="1440" height="900" viewBox="0 0 1440 900"><path fill="#1F1F1F" d="M0 0h1440v900h-1440z"/><path fill="#7995A1" d="M785.668 615.895l-7.34 22.855 9.672-21.293z"/><path fill="#26231C" d="M83.863 511.145l.223 3.023 9.527 12.945z"/><path fill="#213529" d="M-23.461 425.859l17.449 20.274 89.742-90.215z"/><path fill="#5C6061" d="M120.551 370.086l-41.395 112.918 46.391-112.039z"/><path fill="#D6DACB" d="M-20.965 342.629l-2.496 83.23 107.191-69.941z"/><path fill="#46514B" d="M709.672 515.082l-79.137 52.094 79.903-31.899z"/><path fill="#717173" d="M-7.656 542.535l85.363-26.347 1.449-33.184z"/><path fill="#84837F" d="M344.383 420.852l2.679.089 2.567-.55z"/><path fill="#889697" d="M-.621 548.414l-2.867 18.543 5.414 10.461z"/><path fill="#BFBBB2" d="M225.82 441.836l-.148 13.355 9.07 1.098z"/><path fill="#BDBAAB" d="M-3.867 582.949l3.652 7.235 2.141-12.766z"/><path fill="#9FA09A" d="M-3.488 566.957l-4.469 6.813 9.883 3.648z"/><path fill="#87827C" d="M-7.957 573.77l4.09 9.179 5.793-5.531z"/><path fill="#98A9B1" d="M76.16 541.434l-74.234 35.984 75.668-33.352z"/><path fill="#8EA0AA" d="M1.926 577.418l-2.141 12.766 77.809-46.118z"/><path fill="#2A372E" d="M161.773 592.91l-.683 10.141 10.019-2.742z"/><path fill="#98A6B3" d="M-.621 548.414l2.547 29.004 74.234-35.984z"/><path fill="#8098A4" d="M-1.688 720.734l1.227 70.473 126.137-139.727z"/><path fill="#1E1E14" d="M161.773 592.91l9.336 7.399 35.961 3.503z"/><path fill="#A7AFB2" d="M77.707 516.188l-1.547 25.246 8.125-3.586z"/><path fill="#899AA2" d="M76.16 541.434l1.434 2.632 6.691-6.218z"/><path fill="#32433D" d="M83.863 511.145l-6.156 5.043 6.379-2.02z"/><path fill="#8CA2AF" d="M-.215 590.184l-.519 4.671 78.328-50.789z"/><path fill="#95A3AC" d="M-7.656 542.535l7.035 5.879 78.328-32.226z"/><path fill="#A1AAAF" d="M-.621 548.414l76.781-6.98 1.547-25.246z"/><path fill="#22231B" d="M-6.012 446.133l-1.644 96.402 86.812-59.531z"/><path fill="#A6ABBE" d="M-5.195 324.074l-15.77 18.555 104.695 13.289z"/><path fill="#C0CBCD" d="M-6.012 446.133l85.168 36.871 4.574-127.086z"/><path fill="#7E95A3" d="M-6.445 692.137l4.757 28.597 127.364-69.254z"/><path fill="#95A6B0" d="M77.594 544.066l-78.328 50.789 126.41 56.625z"/><path fill="#BCC0C3" d="M107.883 363.094l-28.727 119.91 41.395-112.918z"/><path fill="#495E5F" d="M79.156 483.004l-1.449 33.184 6.156-5.043z"/><path fill="#A1B1C0" d="M88.816 348.41l-5.086 7.508 24.153 7.176z"/><path fill="#A2B2BF" d="M-21.891 285.676l16.696 38.398 94.011 24.336z"/><path fill="#99B0BE" d="M-5.195 324.074l88.925 31.844 5.086-7.508z"/><path fill="#1C1910" d="M84.086 514.168l-6.379 2.02 15.906 10.925z"/><path fill="#503F49" d="M77.707 516.188l6.578 21.66 9.328-10.735z"/><path fill="#1C1C14" d="M79.156 483.004l4.707 28.141 9.75 15.968z"/><path fill="#35342F" d="M83.73 355.918l-4.574 127.086 28.727-119.91z"/><path fill="#1E2418" d="M161.09 603.051l-35.414 48.429 45.433-51.171z"/><path fill="#AFB5B3" d="M77.594 544.066l83.496 58.985.683-10.141z"/><path fill="#869CA9" d="M-11.438 669.445l4.993 22.692 132.121-40.657z"/><path fill="#7F97A3" d="M-1.93 628.305l-9.508 41.14 137.114-17.965z"/><path fill="#96AAB3" d="M-.734 594.855l-1.196 33.45 127.606 23.175z"/><path fill="#AEADA9" d="M204.008 368.027l7.5 5.942 2.664-5.746z"/><path fill="#4C7A89" d="M355.504 685.039l35.855 77.098.207-67.477z"/><path fill="#ABB8BE" d="M107.883 363.094l12.668 6.992 16.773-6.391z"/><path fill="#A5B2A8" d="M120.551 370.086l4.996.879 11.777-7.27z"/><path fill="#97AEBC" d="M88.816 348.41l19.067 14.684 29.441.601z"/><path fill="#232822" d="M84.285 537.848l-6.691 6.218 84.179 48.844z"/><path fill="#313C2B" d="M93.613 527.113l-9.328 10.735 77.488 55.062z"/><path fill="#6D767D" d="M77.594 544.066l48.082 107.414 35.414-48.429z"/><path fill="#675D5B" d="M207.07 603.812l10.5 7.54 4.231-8.77z"/><path fill="#96B0BD" d="M214.172 368.223l124.488-13.926 1.438-22.215z"/><path fill="#ACB4BE" d="M88.816 348.41l48.508 15.285 66.684 4.332z"/><path fill="#ADAAA3" d="M234.742 456.289l95.352 92.906 1.855-1.015z"/><path fill="#464847" d="M125.547 370.965l-46.391 112.039 129.754-20.176z"/><path fill="#B0BBC1" d="M218.219 448.195l7.453 6.996.148-13.355z"/><path fill="#C3C4BE" d="M93.613 527.113l68.16 65.797 47.137-130.082z"/><path fill="#7B8B98" d="M79.156 483.004l14.457 44.109 115.297-64.285z"/><path fill="#1D2017" d="M207.07 603.812l-35.961-3.503 46.461 11.043z"/><path fill="#1F1810" d="M161.773 592.91l45.297 10.902 1.84-140.984z"/><path fill="#1F2018" d="M171.109 600.309l-45.433 51.171 91.894-40.128z"/><path fill="#A8B1C0" d="M338.66 354.297l24.07 21.672.024-1.832z"/><path fill="#D0D0C6" d="M211.508 373.969l6.711 74.226 7.601-6.359z"/><path fill="#BCB4A9" d="M125.547 370.965l83.363 91.863 9.309-14.633z"/><path fill="#EFE2D1" d="M211.508 373.969l-7.5-5.942 14.211 80.168z"/><path fill="#1B170E" d="M208.91 462.828l-1.84 140.984 14.731-1.23z"/><path fill="#444138" d="M204.008 368.027l-66.684-4.332 80.895 84.5z"/><path fill="#DDCCB8" d="M137.324 363.695l-11.777 7.27 92.672 77.23z"/><path fill="#726962" d="M214.172 368.223l-2.664 5.746 14.312 67.867z"/><path fill="#575F54" d="M226.918 616.754l-9.348-5.402 10.961 7.519z"/><path fill="#8EA2A9" d="M234.145 625.418l11.109 18.477 18.457-6.918z"/><path fill="#171611" d="M218.219 448.195l-9.309 14.633 16.762-7.637z"/><path fill="#1D2319" d="M229.188 610.176l-.856 5.336 5.813 9.906z"/><path fill="#2C2F26" d="M228.332 615.512l.199 3.359 5.614 6.547z"/><path fill="#37392C" d="M221.801 602.582l-4.231 8.77 11.618-1.176z"/><path fill="#373F30" d="M226.918 616.754l1.414-1.242.856-5.336z"/><path fill="#202016" d="M228.332 615.512l-1.414 1.242 1.613 2.117z"/><path fill="#40463C" d="M217.57 611.352l9.348 5.402 2.27-6.578z"/><path fill="#1B1B13" d="M217.57 611.352l-91.894 40.128 108.469-26.062z"/><path fill="#1D1D11" d="M228.531 618.871l-10.961-7.519 16.575 14.066z"/><path fill="#585954" d="M225.672 455.191l-16.762 7.637 25.832-6.539z"/><path fill="#A8A6A7" d="M208.91 462.828l12.891 139.754 12.941-146.293z"/><path fill="#899AA4" d="M229.188 610.176l4.957 15.242 29.566 11.559z"/><path fill="#8A8581" d="M347.062 420.941l-.683.926 3.25-1.476z"/><path fill="#608192" d="M-.461 791.207l-5.742 31.309 251.457-178.621z"/><path fill="#6C8C99" d="M125.676 651.48l-126.137 139.727 245.715-147.312z"/><path fill="#1C1C14" d="M234.145 625.418l-108.469 26.062 119.578-7.585z"/><path fill="#4B5E65" d="M362.754 374.137l14.394 2.91.02-9.957z"/><path fill="#7C98A3" d="M263.711 636.977l-18.457 6.918 110.25 41.144z"/><path fill="#90A2AE" d="M221.801 602.582l7.387 7.594 100.906-60.981z"/><path fill="#444540" d="M234.742 456.289l-12.941 146.293 108.293-53.387z"/><path fill="#8D9FA9" d="M229.188 610.176l34.523 26.801 66.383-87.782z"/><path fill="#9BB2C0" d="M340.098 332.082l37.07 35.008 11.996-66.352z"/><path fill="#7A96A1" d="M384.891 663.184l4.05 9.8 4.422-31.332z"/><path fill="#93AFBD" d="M88.816 348.41l115.192 19.617 136.09-35.945z"/><path fill="#93ADBA" d="M204.008 368.027l10.164.196 125.926-36.141z"/><path fill="#7997A2" d="M384.891 663.184l-29.387 21.855 33.437-12.055z"/><path fill="#272A21" d="M234.742 456.289l97.207 91.891 12.434-127.328z"/><path fill="#C6BEBC" d="M338.66 354.297l-124.488 13.926 130.211 52.629z"/><path fill="#B3A894" d="M214.172 368.223l11.648 73.613 118.563-20.984z"/><path fill="#6D8178" d="M225.82 441.836l8.922 14.453 109.641-35.437z"/><path fill="#1C1F14" d="M344.383 420.852l-12.434 127.328 14.43-126.313z"/><path fill="#D7CAC4" d="M344.383 420.852l1.996 1.015.683-.926z"/><path fill="#767A7D" d="M346.379 421.867l38.098 62.438 7.125-7.434z"/><path fill="#7894A0" d="M388.941 672.984l-33.437 12.055 36.062 9.621z"/><path fill="#97A8B0" d="M349.629 420.391l-3.25 1.476 45.223 55.004z"/><path fill="#8298A3" d="M758.082 641.609l-80.684 2.043 115.137 45.09z"/><path fill="#DBD7CB" d="M377.148 377.047l-27.519 43.344 49.707 44.136z"/><path fill="#F5F2E3" d="M338.66 354.297l5.723 66.555 18.347-44.883z"/><path fill="#F0E9DF" d="M344.383 420.852l5.246-.461 13.101-44.422z"/><path fill="#D4D2C5" d="M362.73 375.969l-13.101 44.422 27.519-43.344z"/><path fill="#95AFBE" d="M88.816 348.41l251.282-16.328 49.066-31.344z"/><path fill="#9BB1BC" d="M338.66 354.297l24.094 19.84 14.414-7.047z"/><path fill="#CAD1CA" d="M362.754 374.137l-.024 1.832 14.418 1.078z"/><path fill="#94B0BC" d="M340.098 332.082l-1.438 22.215 38.508 12.793z"/><path fill="#7A9380" d="M346.379 421.867l-14.43 126.313 52.528-63.875z"/><path fill="#AB9776" d="M400.875 474.031l-16.398 10.274 34.531 130.375z"/><path fill="#C6CBCE" d="M391.602 476.871l3.656-3.953 4.078-8.391z"/><path fill="#65838E" d="M391.566 694.66l-.207 67.477 3.625 1.738z"/><path fill="#B0A8A6" d="M474.426 380.074l-75.09 84.453 116.07 48.95z"/><path fill="#C1B4A1" d="M553.359 508.66l-5.015 5.043 6.394-4.91z"/><path fill="#96B2BE" d="M579.945 340.652l32.942 22.457.199-15.226z"/><path fill="#97B2C3" d="M-21.891 285.676l110.707 62.734 300.348-47.672z"/><path fill="#587F8E" d="M245.254 643.895l-251.457 178.621 397.562-60.379z"/><path fill="#76909D" d="M355.504 685.039l-110.25-41.144 146.105 118.242z"/><path fill="#A2A7A3" d="M331.949 548.18l-1.855 1.015 63.269 92.457z"/><path fill="#1A1914" d="M330.094 549.195l-66.383 87.782 129.652 4.675z"/><path fill="#C0C8CB" d="M395.258 472.918l-3.656 3.953 9.273-2.84z"/><path fill="#75909B" d="M263.711 636.977l91.793 48.062 37.859-43.387z"/><path fill="#4D6C71" d="M355.504 685.039l29.387-21.855 8.472-21.532z"/><path fill="#678995" d="M677.398 643.652l-43.714 34.52 158.851 10.57z"/><path fill="#658793" d="M394.984 763.875l-3.625-1.738 6.278 3.136z"/><path fill="#366575" d="M391.359 762.137l-397.562 60.379 403.84-57.243z"/><path fill="#C1C7C7" d="M399.336 464.527l-4.078 8.391 5.617 1.113z"/><path fill="#688593" d="M391.566 694.66l3.418 69.215 2.653 1.398z"/><path fill="#A1B7C5" d="M389.164 300.738l79.731 62.407 89.316-28.29z"/><path fill="#B59E8C" d="M543.148 501.266l10.211 7.394.266-10.863z"/><path fill="#CCBD9E" d="M349.629 420.391l41.973 56.48 7.734-12.344z"/><path fill="#B5BDBF" d="M391.602 476.871l-7.125 7.434 16.398-10.274z"/><path fill="#1A170E" d="M384.477 484.305l-52.528 63.875 87.059 66.5z"/><path fill="#9CA7AD" d="M331.949 548.18l61.414 93.472 25.645-26.972z"/><path fill="#7B95A2" d="M388.941 672.984l2.625 21.676 27.442-79.98z"/><path fill="#7F9AA5" d="M393.363 641.652l-4.422 31.332 30.067-58.304z"/><path fill="#99B3C2" d="M389.164 300.738l-11.996 66.352 91.727-3.945z"/><path fill="#A5B2B8" d="M377.148 377.047l22.188 87.48 69.816-90.843z"/><path fill="#96ACB9" d="M468.895 363.145l-91.727 3.945 91.984 6.594z"/><path fill="#98ACB5" d="M377.168 367.09l-.02 9.957 92.004-3.363z"/><path fill="#93ADBC" d="M469.152 373.684l1.442.984 1.402-5.953z"/><path fill="#90ABBC" d="M468.895 363.145l.257 10.539 2.844-4.969z"/><path fill="#8FAFBA" d="M470.594 374.668l3.832 5.406 1.312-7.355z"/><path fill="#99B5C1" d="M471.996 368.715l-1.402 5.953 5.144-1.949z"/><path fill="#8FB1BD" d="M468.895 363.145l3.101 5.57 3.742 4.004z"/><path fill="#CDC8B5" d="M553.625 497.797l-.266 10.863 1.379.133z"/><path fill="#96B0BF" d="M470.594 374.668l-1.442-.984 5.274 6.39z"/><path fill="#AAACA9" d="M469.152 373.684l-69.816 90.843 75.09-84.453z"/><path fill="#61675B" d="M400.875 474.031l18.133 140.649 86.347-91.157z"/><path fill="#B4B4B4" d="M474.426 380.074l40.98 133.403 10.953-3.532z"/><path fill="#CAC9C5" d="M399.336 464.527l1.539 9.504 114.531 39.446z"/><path fill="#191911" d="M400.875 474.031l104.48 49.492 10.051-10.046z"/><path fill="#E8DDCB" d="M543.148 501.266l-6.187 11.804 11.383.633z"/><path fill="#3D7280" d="M540.398 710.855l-142.761 54.418 146.765-54.16z"/><path fill="#755F36" d="M526.359 509.945l10.602 3.125 6.187-11.804z"/><path fill="#3F3117" d="M515.406 513.477l-10.051 10.046 32.29.579z"/><path fill="#513A18" d="M536.961 513.07l-10.602-3.125 11.286 14.157z"/><path fill="#4B3C1D" d="M526.359 509.945l-10.953 3.532 22.239 10.625z"/><path fill="#718D99" d="M391.566 694.66l6.071 70.613 142.761-54.418z"/><path fill="#BEB7AF" d="M630.535 567.176l1.481 32.801 78.422-64.7z"/><path fill="#6F8B97" d="M391.566 694.66l148.832 16.195 5.758-25.722z"/><path fill="#678993" d="M549.34 709.008l1.801-1.727 1.183-2.949z"/><path fill="#65737C" d="M474.426 380.074l51.933 129.871 16.789-8.679z"/><path fill="#7B97A3" d="M419.008 614.68l-27.442 79.98 154.59-9.527z"/><path fill="#7F99A6" d="M505.355 523.523l-86.347 91.157 127.148 70.453z"/><path fill="#70919A" d="M551.98 695.227l-11.582 15.628 11.926-6.523z"/><path fill="#56747F" d="M546.156 685.133l18.942 9.859 67.957-77.027z"/><path fill="#20201E" d="M505.355 523.523l40.801 161.61.239-159.153z"/><path fill="#2A1E10" d="M537.645 524.102l-32.29-.579 41.04 2.457z"/><path fill="#2E2B18" d="M536.961 513.07l.684 11.032 10.699-10.399z"/><path fill="#7C6E53" d="M537.645 524.102l8.75 1.878 1.949-12.277z"/><path fill="#A0ADB3" d="M579.156 427.09l5.11.57 2.828-11.992z"/><path fill="#1E2015" d="M551.98 695.227l.344 9.105 7.297-10.52z"/><path fill="#98B2BF" d="M468.895 363.145l6.843 9.574 82.473-37.864z"/><path fill="#728E99" d="M540.398 710.855l4.004.258 7.922-6.781z"/><path fill="#738F9A" d="M544.402 711.113l4.938-2.105 2.984-4.676z"/><path fill="#496E76" d="M546.156 685.133l-5.758 25.722 11.582-15.628z"/><path fill="#ACC6D3" d="M562.605 47.859l-6.296 4.352 63.097 213.836z"/><path fill="#839EAF" d="M579.945 340.652l33.141 7.231 6.32-81.836z"/><path fill="#212B23" d="M546.156 685.133l5.824 10.094 7.641-1.415z"/><path fill="#A4988A" d="M543.148 501.266l5.196 12.437 5.015-5.043z"/><path fill="#A5C5D4" d="M-21.891 285.676l411.055 15.062 167.145-248.527z"/><path fill="#C2BBAB" d="M580.352 515.848l-13.282 7.898 15.168-.652z"/><path fill="#C1C5C4" d="M595.625 408.852l-.246 5.421.902-.433z"/><path fill="#ABC5D4" d="M-530-383l508.109 668.676 578.2-233.465z"/><path fill="#B2C6CF" d="M866.754 441.324l-1.426-.023 19.559 17.289z"/><path fill="#434135" d="M548.344 513.703l-1.949 12.277 12.785-7.609z"/><path fill="#B8AB9A" d="M554.738 508.793l-6.394 4.91 10.836 4.668z"/><path fill="#CDCAC3" d="M576.754 511.199l-9.684 12.547 13.282-7.898z"/><path fill="#B6A699" d="M565.699 499.664l-.511 7.535 1.023-6.308z"/><path fill="#95B1BD" d="M475.738 372.719l-1.312 7.355 89.429-36.062z"/><path fill="#254544" d="M549.34 709.008l-4.938 2.105 175.598 572.887z"/><path fill="#1E2422" d="M474.426 380.074l68.722 121.192 19.149-17.368z"/><path fill="#BDB8B4" d="M543.148 501.266l10.477-3.469 8.672-13.899z"/><path fill="#74929D" d="M654.328 634.992l-11.754 2.426 14.047-.656z"/><path fill="#B3A99F" d="M580.352 515.848l1.886 7.246 19.012 8.004z"/><path fill="#9CAFBD" d="M558.211 334.855l-82.473 37.864 88.117-28.707z"/><path fill="#272C26" d="M630.535 567.176l-2.73 31.008 4.211 1.793z"/><path fill="#A1A79B" d="M601.25 531.098l26.555 67.086 2.73-31.008z"/><path fill="#303F3A" d="M546.156 685.133l13.465 8.679 5.477 1.18z"/><path fill="#273B30" d="M552.324 704.332l-1.183 2.949 13.957-12.289z"/><path fill="#587C8A" d="M559.621 693.812l-7.297 10.52 12.774-9.34z"/><path fill="#D7CEC7" d="M554.738 508.793l4.442 9.578 6.008-11.172z"/><path fill="#E0DBD5" d="M562.297 483.898l-8.672 13.899 12.074 1.867z"/><path fill="#CBCAC5" d="M563.977 484.332l-1.68-.434 3.402 15.766z"/><path fill="#A3A3A3" d="M554.738 508.793l10.45-1.594.511-7.535z"/><path fill="#A79B8B" d="M553.625 497.797l1.113 10.996 10.961-9.129z"/><path fill="#BFAD9F" d="M559.18 518.371l-12.785 7.609 20.675-2.234z"/><path fill="#C8C8C0" d="M565.188 507.199l-6.008 11.172 7.89 5.375z"/><path fill="#99B3C0" d="M558.211 334.855l5.644 9.157 12.477-2.254z"/><path fill="#DAD4C6" d="M565.699 499.664l.512 1.227 10.543 10.308z"/><path fill="#C6BEB3" d="M566.211 500.891l-1.023 6.308 11.566 4z"/><path fill="#CDC8C4" d="M565.188 507.199l1.882 16.547 9.684-12.547z"/><path fill="#D8D1C7" d="M563.977 484.332l1.722 15.332 11.055 11.535z"/><path fill="#B2BABA" d="M563.855 344.012l-89.429 36.062 104.73 47.016z"/><path fill="#5C5A4E" d="M562.297 483.898l1.68.434 15.179-57.242z"/><path fill="#44585F" d="M579.156 427.09l-15.179 57.242 20.289-56.672z"/><path fill="#1A1A12" d="M474.426 380.074l87.871 103.824 16.859-56.808z"/><path fill="#B6BABD" d="M563.855 344.012l15.301 83.078 7.938-11.422z"/><path fill="#B0BFC6" d="M558.211 334.855l18.121 6.903 3.613-1.106z"/><path fill="#97B3C1" d="M576.332 341.758l1.969-.731 1.644-.375z"/><path fill="#9BB2C0" d="M579.945 340.652l15.68 68.2 17.262-45.743z"/><path fill="#3E494B" d="M584.266 427.66l-20.289 56.672 32.851-62.328z"/><path fill="#1E1B14" d="M596.828 422.004l-20.074 89.195 24.496 19.899z"/><path fill="#89AEC1" d="M579.945 340.652l-1.644.375 17.324 67.825z"/><path fill="#8C7E75" d="M576.754 511.199l3.598 4.649 20.898 15.25z"/><path fill="#597076" d="M590.844 414.078l.422 3.32 4.113-3.125z"/><path fill="#8C9AA7" d="M590.844 414.078l-3.75 1.59 4.172 1.73z"/><path fill="#AAB3BA" d="M587.094 415.668l-2.828 11.992 7-10.262z"/><path fill="#3C595D" d="M642.574 637.418l-4.699 13.457 18.746-14.113z"/><path fill="#546881" d="M590.844 414.078l4.535.195.246-5.421z"/><path fill="#8EABB9" d="M578.301 341.027l-1.969.731 19.293 67.094z"/><path fill="#98ABBA" d="M563.855 344.012l23.239 71.656 8.531-6.816z"/><path fill="#052639" d="M587.094 415.668l3.75-1.59 4.781-5.226z"/><path fill="#94B0BC" d="M576.332 341.758l-12.477 2.254 31.77 64.84z"/><path fill="#3C3E30" d="M563.977 484.332l12.777 26.867 20.074-89.195z"/><path fill="#898C91" d="M591.266 417.398l-7 10.262 12.562-5.656z"/><path fill="#9EAABA" d="M595.379 414.273l-4.113 3.125 5.562 4.606z"/><path fill="#B8C7CC" d="M596.281 413.84l-.902.433 1.449 7.731z"/><path fill="#A0BBC6" d="M558.211 334.855l21.734 5.797 39.461-74.605z"/><path fill="#616F72" d="M582.238 523.094l-15.168.652 34.18 7.352z"/><path fill="#AEBFC9" d="M389.164 300.738l169.047 34.117 61.195-68.808z"/><path fill="#6F8F9A" d="M637.875 650.875l5.754 9.934 12.992-24.047z"/><path fill="#14140A" d="M601.25 531.098l29.285 36.078 79.137-52.094z"/><path fill="#A6C3D3" d="M556.309 52.211l-167.145 248.527 230.242-34.691z"/><path fill="#88837F" d="M601.25 531.098l-34.18-7.352 60.735 74.438z"/><path fill="#575C5F" d="M567.07 523.746l-20.675 2.234 81.41 72.204z"/><path fill="#7B939F" d="M546.395 525.98l-.239 159.153 81.649-86.949z"/><path fill="#213D3E" d="M637.875 650.875l-6.117 21.766 11.871-11.832z"/><path fill="#5B7B8A" d="M631.758 672.641l-66.66 22.351 68.586-16.82z"/><path fill="#1A1A12" d="M627.805 598.184l1.34 2.089 2.871-.296z"/><path fill="#242618" d="M629.145 600.273l-1.34-2.089 5.25 19.781z"/><path fill="#2B4546" d="M643.629 660.809l-9.945 17.363 43.714-34.52z"/><path fill="#9EAABA" d="M612.887 363.109l-17.262 45.743 67.488-15.563z"/><path fill="#74919F" d="M627.805 598.184l-81.649 86.949 86.899-67.168z"/><path fill="#222014" d="M632.016 599.977l-2.871.296 3.91 17.692z"/><path fill="#5A8494" d="M565.098 694.992l-13.957 12.289 82.543-29.109z"/><path fill="#41494B" d="M632.016 599.977l1.039 17.988 4.59.316z"/><path fill="#6C8997" d="M551.141 707.281l-1.801 1.727 84.344-30.836z"/><path fill="#7595A0" d="M741.188 590.102l-63.79 53.55 80.684-2.043z"/><path fill="#A6C7DA" d="M556.309 52.211l6.296-4.352 157.395-430.859z"/><path fill="#6F8B99" d="M633.055 617.965l4.82 32.91 4.699-13.457z"/><path fill="#7693A1" d="M637.645 618.281l-4.59-.316 9.519 19.453z"/><path fill="#628082" d="M633.055 617.965l-67.957 77.027 72.777-44.117z"/><path fill="#648491" d="M631.758 672.641l1.926 5.531 9.945-17.363z"/><path fill="#233F43" d="M565.098 694.992l66.66-22.351 6.117-21.766z"/><path fill="#555C62" d="M595.625 408.852l.656 4.988 66.832-20.551z"/><path fill="#1B241F" d="M637.645 618.281l4.929 19.137 11.754-2.426z"/><path fill="#54696E" d="M632.016 599.977l5.629 18.304 16.683 16.711z"/><path fill="#5D635F" d="M596.281 413.84l.547 8.164 66.285-28.715z"/><path fill="#65655B" d="M596.828 422.004l4.422 109.094 108.422-16.016z"/><path fill="#75919D" d="M656.621 636.762l-12.992 24.047 33.769-17.157z"/><path fill="#AFB6BC" d="M613.086 347.883l-.199 15.226 50.226 30.18z"/><path fill="#9CA8B4" d="M694.902 404.297l1.477 10.594 1.73-5.184z"/><path fill="#7795A0" d="M632.016 599.977l22.312 35.015 23.07 8.66z"/><path fill="#7B97A3" d="M654.328 634.992l2.293 1.77 20.777 6.89z"/><path fill="#949496" d="M696.379 414.891l-99.551 7.113 112.844 93.078z"/><path fill="#92A5AC" d="M694.902 404.297l3.207 5.41 2.067-18.25z"/><path fill="#CBC4B4" d="M995.676 569.035l4.469-.906 4.113-6.5z"/><path fill="#9AA1A7" d="M694.902 404.297l-31.789-11.008 33.266 21.602z"/><path fill="#254343" d="M544.402 711.113l-146.765 54.16 322.363 518.727z"/><path fill="#A3AFBB" d="M663.113 393.289l31.789 11.008 5.274-12.84z"/><path fill="#B3B2B0" d="M663.113 393.289l-66.285 28.715 99.551-7.113z"/><path fill="#8198A8" d="M613.086 347.883l50.027 45.406 37.063-1.832z"/><path fill="#98B3C4" d="M619.406 266.047l-6.32 81.836 87.09 43.574z"/><path fill="#778890" d="M835.73 564.426l-6.324 7.281 26.504 27.516z"/><path fill="#222E2A" d="M-21.277 827.074l-508.723 456.926h1250z"/><path fill="#284042" d="M-6.203 822.516l-15.074 4.558 741.277 456.926z"/><path fill="#253D3D" d="M397.637 765.273l-403.84 57.243 726.203 461.484z"/><path fill="#B7D1E2" d="M-530-383l1086.309 435.211 163.691-435.211z"/><path fill="#8C938C" d="M710.438 535.277l-78.422 64.7 109.172-9.875z"/><path fill="#8D928C" d="M632.016 599.977l45.382 43.675 63.79-53.55z"/><path fill="#8295A3" d="M782.145 604.371l3.523 11.524 2.332 1.562z"/><path fill="#C4C1B8" d="M710.438 535.277l30.75 54.825 2.871-1.926z"/><path fill="#8A9BA3" d="M782.797 601.762l-.652 2.609 5.855 13.086z"/><path fill="#7D98A9" d="M781.371 605.969l.774-1.598.652-2.609z"/><path fill="#677173" d="M782.07 588.195l.727 13.567 1.066-12.164z"/><path fill="#8496A2" d="M744.059 588.176l-2.871 1.926 21.863-2.122z"/><path fill="#869CA9" d="M741.188 590.102l16.894 51.507 4.969-53.629z"/><path fill="#7B95A2" d="M763.051 587.98l-4.969 53.629 23.289-35.64z"/><path fill="#CDCCC7" d="M710.438 535.277l33.621 52.899 18.992-.196z"/><path fill="#EFEBE0" d="M902.34 463.863l-3 1.75 4.637.875z"/><path fill="#B9CDD8" d="M898.062 266.645l12.86 17.058.23-12.758z"/><path fill="#191E21" d="M782.07 588.195l1.793 1.403 27.309-20.407z"/><path fill="#6D8188" d="M763.051 587.98l18.32 17.989 1.426-4.207z"/><path fill="#638591" d="M788 617.457l10.137 10.547 27.203-51.844z"/><path fill="#C6C0B2" d="M823.664 563.773l-12.492 5.418 14.168 6.969z"/><path fill="#7C98A4" d="M758.082 641.609l34.453 47.133 1.774-34.164z"/><path fill="#859BA6" d="M782.145 604.371l-.774 1.598 4.297 9.926z"/><path fill="#141D22" d="M782.07 588.195l-19.019-.215 19.746 13.782z"/><path fill="#899CA3" d="M758.082 641.609l20.246-2.859 7.34-22.855z"/><path fill="#8C9EAA" d="M781.371 605.969l-23.289 35.64 27.586-25.714z"/><path fill="#7993A2" d="M778.328 638.75l15.981 15.828 3.828-26.574z"/><path fill="#6B8890" d="M778.328 638.75l-20.246 2.859 36.227 12.969z"/><path fill="#77929D" d="M803.254 365.652l4.726 13.235 5.176 3.472z"/><path fill="#A2B8C3" d="M794.547 362.043l8.707 3.609.906-8.812z"/><path fill="#708B92" d="M788 617.457l-9.672 21.293 19.809-10.746z"/><path fill="#98B2C1" d="M796.883 313.16l-3.965 48.746 11.242-5.066z"/><path fill="#254746" d="M549.34 709.008l170.66 574.992 189.633-516.734z"/><path fill="#96B2BE" d="M700.176 391.457l92.742-29.551 3.965-48.746z"/><path fill="#7693A1" d="M798.137 628.004l-3.828 26.574 15.23-15.539z"/><path fill="#95B4C6" d="M619.406 266.047l80.77 125.41 96.707-78.297z"/><path fill="#95B1BF" d="M807.98 378.887l-15.062-16.981 15.312 18.696z"/><path fill="#3B4044" d="M782.797 601.762l5.203 15.695 37.34-41.297z"/><path fill="#677E8C" d="M798.137 628.004l11.402 11.035 1.363-2.512z"/><path fill="#95B6BF" d="M794.547 362.043l-1.629-.137 10.336 3.746z"/><path fill="#9CB1C2" d="M792.918 361.906l1.629.137 9.613-5.203z"/><path fill="#1E2820" d="M831.973 553.293l1.254 5.949 2.503 5.184z"/><path fill="#C1BFC2" d="M698.109 409.707l-1.73 5.184 111.488-23.645z"/><path fill="#93AFBD" d="M803.254 365.652l-10.336-3.746 15.062 16.981z"/><path fill="#94B0BE" d="M792.918 361.906l14.949 29.34.363-10.644z"/><path fill="#9FA49E" d="M696.379 414.891l13.293 100.191 98.195-123.836z"/><path fill="#A4A2A3" d="M700.176 391.457l-2.067 18.25 109.758-18.461z"/><path fill="#94AEBB" d="M792.918 361.906l-92.742 29.551 107.691-.211z"/><path fill="#C2B9A8" d="M823.57 549.406l-.008 13.555.102.812z"/><path fill="#91AEBE" d="M804.16 356.84l-.906 8.812 9.902 16.707z"/><path fill="#C4C3C1" d="M710.438 535.277l52.613 52.703 48.121-18.789z"/><path fill="#1B2023" d="M763.051 587.98l19.019.215 29.102-19.004z"/><path fill="#E1DED5" d="M807.867 391.246l-98.195 123.836 113.898 34.324z"/><path fill="#B0B4A6" d="M823.562 562.961l-12.39 6.23 12.492-5.418z"/><path fill="#495B5B" d="M809.539 639.039l-15.23 15.539 31.492-14.351z"/><path fill="#293728" d="M884.887 458.59l14.453 7.023 1.972-4.761z"/><path fill="#92A7BA" d="M807.98 378.887l.25 1.715 4.926 1.757z"/><path fill="#7E9AA8" d="M825.34 576.16l22.297 54.387 8.273-31.324z"/><path fill="#38575A" d="M829.406 571.707l-4.066 4.453 30.57 23.063z"/><path fill="#8EAAB8" d="M808.23 380.602l-.363 10.644 5.289-8.887z"/><path fill="#B7B1A3" d="M811.172 569.191l12.39-6.23.008-13.555z"/><path fill="#191911" d="M709.672 515.082l.766 20.195 113.132 14.129z"/><path fill="#A4A8A9" d="M710.438 535.277l100.734 33.914 12.398-19.785z"/><path fill="#7E8E8E" d="M798.137 628.004l12.765 8.523 14.438-60.367z"/><path fill="#1E3030" d="M783.863 589.598l-1.066 12.164 42.543-25.602z"/><path fill="#6F6B6A" d="M811.172 569.191l-27.309 20.407 41.477-13.438z"/><path fill="#68838A" d="M794.309 654.578l-1.774 34.164 33.266-48.515z"/><path fill="#72929F" d="M810.902 636.527l-1.363 2.512 16.262 1.188z"/><path fill="#7F7B70" d="M833.227 559.242l-9.563 4.531 12.066.653z"/><path fill="#BDB7A7" d="M823.664 563.773l5.742 7.934 6.324-7.281z"/><path fill="#3B3734" d="M823.664 563.773l1.676 12.387 4.066-4.453z"/><path fill="#B6C6D5" d="M895.961 221.957l-99.078 91.203 101.179-46.515z"/><path fill="#8097A5" d="M847.637 630.547l.508 5.422 7.765-36.746z"/><path fill="#57594E" d="M823.57 549.406l.094 14.367 8.309-10.48z"/><path fill="#AEA095" d="M831.973 553.293l-8.309 10.48 9.563-4.531z"/><path fill="#7995A1" d="M825.34 576.16l-14.438 60.367 36.735-5.98z"/><path fill="#7592A0" d="M810.902 636.527l14.899 3.7 21.836-9.68z"/><path fill="#718E9E" d="M847.637 630.547l-21.836 9.68 22.344-4.258z"/><path fill="#74909E" d="M825.801 640.227l-33.266 48.515 55.61-52.773z"/><path fill="#5C7A85" d="M924.75 756.59l-15.117 10.676 20.39-4.348z"/><path fill="#CCCDC8" d="M813.156 382.359l52.172 58.942 1.426.023z"/><path fill="#191611" d="M807.867 391.246l15.703 158.16 41.758-108.105z"/><path fill="#91ADBB" d="M813.156 382.359l-5.289 8.887 57.461 50.055z"/><path fill="#708E99" d="M916.844 752.75l8.953 2.637 43.984-184.192z"/><path fill="#4F7989" d="M904.453 755.949l-1.984-.797 7.164 12.114z"/><path fill="#333124" d="M823.57 549.406l8.403 3.887 52.914-94.703z"/><path fill="#F1F0EB" d="M865.328 441.301l-41.758 108.105 61.317-90.816z"/><path fill="#ACABA6" d="M995.23 551.934l-.734 17.05 1.18.051z"/><path fill="#AAC5D6" d="M562.605 47.859l56.801 218.188 276.555-44.09z"/><path fill="#B3C6D4" d="M619.406 266.047l177.477 47.113 99.078-91.203z"/><path fill="#2D464A" d="M916.844 752.75l-7.211 14.516 12.461-12.825z"/><path fill="#5C7E8A" d="M902.469 755.152l-109.934-66.41 117.098 78.524z"/><path fill="#718D99" d="M848.145 635.969l-55.61 52.773 109.934 66.41z"/><path fill="#4A7180" d="M910.922 283.703l11.164-1.633.832-3.648z"/><path fill="#6F8C9A" d="M988.426 575.613l19.5 184.125 73.832-80.82z"/><path fill="#DEDAD1" d="M884.887 458.59l-52.914 94.703 67.367-87.68z"/><path fill="#507A86" d="M904.453 755.949l5.18 11.317 7.211-14.516z"/><path fill="#E2E2D6" d="M901.312 460.852l-1.972 4.761 3-1.75z"/><path fill="#BCB5A2" d="M995.23 551.934l.446 17.101 8.582-7.406z"/><path fill="#B2C4D2" d="M911.152 270.945l-.23 12.758 11.996-5.281z"/><path fill="#A1C2D3" d="M895.961 221.957l32.164 25.023 4.937-15.16z"/><path fill="#9BB5C4" d="M804.16 356.84l8.996 25.519 97.766-98.656z"/><path fill="#607D8B" d="M792.535 688.742l-158.851-10.57 275.949 89.094z"/><path fill="#AEC1CF" d="M898.062 266.645l-101.179 46.515 114.039-29.457z"/><path fill="#698696" d="M633.684 678.172l-84.344 30.836 360.293 58.258z"/><path fill="#305367" d="M911.152 270.945l13.602-3.179.324-2.227z"/><path fill="#9EB8C5" d="M796.883 313.16l7.277 43.68 106.762-73.137z"/><path fill="#617171" d="M1153.664 365.219l-2.781 12.976 8.394 2.391z"/><path fill="#DCD2C6" d="M899.34 465.613l-67.367 87.68 81.476-82.387z"/><path fill="#D8D4C8" d="M903.977 466.488l-4.637-.875 14.109 5.293z"/><path fill="#857C6A" d="M924.18 444.332l-22.868 16.52 24.254-2.809z"/><path fill="#D7CCB6" d="M901.312 460.852l22.739-.024 1.515-2.785z"/><path fill="#2D301D" d="M866.754 441.324l56.289-.867.859-24.301z"/><path fill="#D1CFC2" d="M994.496 568.984l-6.07 6.629 7.25-6.578z"/><path fill="#708A97" d="M848.145 635.969l54.324 119.183 14.375-2.402z"/><path fill="#4F7A83" d="M902.469 755.152l1.984.797 12.391-3.199z"/><path fill="#1F1F17" d="M923.043 440.457l4.418 4.906 3.578-.429z"/><path fill="#3E6576" d="M911.152 270.945l13.926-5.406 1.949-12.809z"/><path fill="#A7C4D6" d="M895.961 221.957l37.101 9.863 12.129-92.191z"/><path fill="#56555A" d="M866.754 441.324l18.133 17.266 38.156-18.133z"/><path fill="#C7BAB4" d="M884.887 458.59l16.425 2.262 21.731-20.395z"/><path fill="#938E7B" d="M938.434 447.625l-12.868 10.418 13.332.883z"/><path fill="#264559" d="M911.152 270.945l11.766 7.477 1.039-7.457z"/><path fill="#42676F" d="M922.094 754.441l-12.461 12.825 15.117-10.676z"/><path fill="#C1AF9B" d="M813.156 382.359l53.598 58.965 57.148-25.168z"/><path fill="#B1B7B3" d="M910.922 283.703l-97.766 98.656 110.746 33.797z"/><path fill="#9AB4C1" d="M922.086 282.07l-11.164 1.633 12.98 132.453z"/><path fill="#D9D4C0" d="M901.312 460.852l1.028 3.011 21.711-3.035z"/><path fill="#DDD6C4" d="M902.34 463.863l1.637 2.625 20.074-5.66z"/><path fill="#DFD6C4" d="M903.977 466.488l9.472 4.418 10.602-10.078z"/><path fill="#AFC7D3" d="M898.062 266.645l13.09 4.3 15.875-18.215z"/><path fill="#DECAB1" d="M923.043 440.457l-21.731 20.395 22.868-16.52z"/><path fill="#DED3BF" d="M913.449 470.906l10.371-5.933.231-4.145z"/><path fill="#6E6A5F" d="M1018.711 560.672l-1.848 4.73 2.774.93z"/><path fill="#0E3144" d="M911.152 270.945l12.805.02.797-3.199z"/><path fill="#C7C3BA" d="M1004.258 561.629l12.605 3.773 1.848-4.73z"/><path fill="#5E8491" d="M925.797 755.387l-1.047 1.203 5.273 6.328z"/><path fill="#4F7A83" d="M916.844 752.75l5.25 1.691 3.703.946z"/><path fill="#5E6C79" d="M923.902 416.156l7.137 28.778 7.395 2.691z"/><path fill="#4A4B3D" d="M931.039 444.934l-5.473 13.109 12.868-10.418z"/><path fill="#61818E" d="M922.094 754.441l2.656 2.149 1.047-1.203z"/><path fill="#AAC5D6" d="M562.605 47.859l333.356 174.098 49.23-82.328z"/><path fill="#A9B9B9" d="M1153.664 365.219l14.129 1.683.238-.34z"/><path fill="#5B5650" d="M923.043 440.457l1.137 3.875 3.281 1.031z"/><path fill="#A9C3D0" d="M898.062 266.645l28.965-13.915 1.098-5.75z"/><path fill="#353626" d="M924.18 444.332l1.386 13.711 1.895-12.68z"/><path fill="#A4C1D3" d="M895.961 221.957l2.101 44.688 30.063-19.665z"/><path fill="#413831" d="M923.902 416.156l-.859 24.301 7.996 4.477z"/><path fill="#323323" d="M927.461 445.363l-1.895 12.68 5.473-13.109z"/><path fill="#3D7785" d="M1004.957 331.074l-5.926 24.731 7.883-1.981z"/><path fill="#5F6B61" d="M980.398 553.789l6.079.246 8.753-2.101z"/><path fill="#A6C2D7" d="M720-383l-157.395 430.859 382.586 91.77z"/><path fill="#DACEB4" d="M925.566 458.043l-1.515 2.785 14.847-1.902z"/><path fill="#DBCCB5" d="M924.051 460.828l-.231 4.145 15.078-6.047z"/><path fill="#908B78" d="M938.434 447.625l.464 11.301 5.098-4.953z"/><path fill="#E4E4D8" d="M938.898 458.926l41.5 94.863 14.832-1.855z"/><path fill="#DFD9C9" d="M943.996 453.973l-5.098 4.953 56.332 93.008z"/><path fill="#848A88" d="M835.73 564.426l20.18 34.797 97.688-35.317z"/><path fill="#534834" d="M961.348 567.82l1.984-.742 4.762-11.551z"/><path fill="#CEBEAE" d="M953.598 563.906l7.75 3.914 6.746-12.293z"/><path fill="#DDD5C8" d="M831.973 553.293l3.757 11.133 117.868-.52z"/><path fill="#857F71" d="M913.449 470.906l-81.476 82.387 121.625 10.613z"/><path fill="#9B948C" d="M961.348 567.82l-6.286-1.156 14.719 4.531z"/><path fill="#C6BEA9" d="M953.598 563.906l-97.688 35.317 99.152-32.559z"/><path fill="#737A73" d="M855.91 599.223l-7.765 36.746 106.917-69.305z"/><path fill="#D1CABA" d="M953.598 563.906l1.464 2.758 6.286 1.156z"/><path fill="#6C7D75" d="M969.781 571.195l9.778-3.332.074-3.484z"/><path fill="#CCC8BD" d="M913.449 470.906l40.149 93 14.496-8.379z"/><path fill="#E1DBCD" d="M938.898 458.926l-15.078 6.047 44.274 90.554z"/><path fill="#524D30" d="M968.094 555.527l-4.762 11.551 6.449 4.117z"/><path fill="#CAC2B7" d="M923.82 464.973l-10.371 5.933 54.645 84.621z"/><path fill="#517581" d="M848.145 635.969l68.699 116.781 52.937-181.555z"/><path fill="#798F9C" d="M955.062 566.664l-106.917 69.305 121.636-64.774z"/><path fill="#B4ACA9" d="M963.332 567.078l-1.984.742 8.433 3.375z"/><path fill="#71929B" d="M988.426 575.613l-62.629 179.774 78.808 5.566z"/><path fill="#353529" d="M980.398 553.789l-.765 10.59 6.844-10.344z"/><path fill="#333422" d="M968.094 555.527l11.539 8.852.765-10.59z"/><path fill="#3F524C" d="M968.094 555.527l1.687 15.668 9.852-6.816z"/><path fill="#A0A79F" d="M986.477 554.035l8.019 14.949.734-17.05z"/><path fill="#E6E8DA" d="M938.898 458.926l29.196 96.601 12.304-1.738z"/><path fill="#C3D3D2" d="M979.559 567.863l-9.778 3.332 18.645 4.418z"/><path fill="#797B78" d="M986.477 554.035l-6.844 10.344 14.863 4.605z"/><path fill="#A7ADAB" d="M979.559 567.863l8.867 7.75 6.07-6.629z"/><path fill="#849AA7" d="M969.781 571.195l-43.984 184.192 62.629-179.774z"/><path fill="#939C99" d="M979.633 564.379l-.074 3.484 14.937 1.121z"/><path fill="#C1C7C7" d="M923.902 416.156l14.532 31.469 60.597-91.82z"/><path fill="#838577" d="M938.434 447.625l5.562 6.348 55.035-98.168z"/><path fill="#62828F" d="M925.797 755.387l4.226 7.531 74.582-1.965z"/><path fill="#678995" d="M930.023 762.918l-20.39 4.348 94.972-6.313z"/><path fill="#7F92A0" d="M922.086 282.07l76.945 73.735 5.926-24.731z"/><path fill="#98B2C1" d="M922.086 282.07l1.816 134.086 75.129-60.351z"/><path fill="#859EA3" d="M1257.625 546.02l-55.563 94.207 93.739-79.965z"/><path fill="#BBCCC4" d="M1066.695 396.844l-1.246 1.746 14.449 4.305z"/><path fill="#6B8B98" d="M988.426 575.613l16.179 185.34 3.321-1.215z"/><path fill="#A9AAA4" d="M995.676 569.035l-7.25 6.578 11.719-7.484z"/><path fill="#B5C5D2" d="M922.918 278.422l-.832 3.648 94.879-4.265z"/><path fill="#A8B6B9" d="M1006.914 353.824l-7.883 1.981 9.067 1.976z"/><path fill="#3D3D31" d="M999.031 355.805l-55.035 98.168 64.102-96.192z"/><path fill="#C8C7C2" d="M1059.859 356.723l-51.761 1.058 53.461 9.879z"/><path fill="#34372E" d="M1016.863 565.402l-16.718 2.727 19.492-1.797z"/><path fill="#A6B4BF" d="M1004.957 331.074l1.957 22.75 2.934-27.734z"/><path fill="#3A4A4A" d="M1058.582 566.965l-6.605 4.422 7.378-.309z"/><path fill="#9EBAC6" d="M1004.957 331.074l4.891-4.984 7.117-48.285z"/><path fill="#BCC6C8" d="M922.086 282.07l82.871 49.004 12.008-53.269z"/><path fill="#C0B2A5" d="M1004.258 561.629l-4.113 6.5 16.718-2.727z"/><path fill="#C0C1B9" d="M995.23 551.934l9.028 9.695 6.672-12.039z"/><path fill="#B4C6D4" d="M925.078 265.539l-.324 2.227 92.211 10.039z"/><path fill="#AFC5D2" d="M923.957 270.965l-1.039 7.457 94.047-.617z"/><path fill="#B0C6D4" d="M924.754 267.766l-.797 3.199 93.008 6.84z"/><path fill="#C0BEB2" d="M1016.965 277.805l-7.117 48.285 32.23-5.906z"/><path fill="#A8C2D1" d="M933.062 231.82l-4.937 15.16 88.84 30.825z"/><path fill="#B0C8D2" d="M927.027 252.73l-1.949 12.809 91.887 12.266z"/><path fill="#6F574B" d="M1065.449 398.59l-16.91 114.426 31.359-110.121z"/><path fill="#B0C2CC" d="M928.125 246.98l-1.098 5.75 89.938 25.075z"/><path fill="#A5C2D2" d="M945.191 139.629l-12.129 92.191 83.903 45.985z"/><path fill="#D5D2C3" d="M1000.145 568.129l-11.719 7.484 31.211-9.281z"/><path fill="#DDD7C9" d="M1010.93 549.59l-6.672 12.039 14.453-.957z"/><path fill="#656759" d="M1010.93 549.59l24.382-7.949 13.227-28.625z"/><path fill="#D1CBBD" d="M1010.93 549.59l7.781 11.082 6.605-8.438z"/><path fill="#AEA59E" d="M1018.711 560.672l.926 5.66 5.679-14.098z"/><path fill="#D6CDBC" d="M1010.93 549.59l14.386 2.644 6.536-5.679z"/><path fill="#8D907B" d="M1010.93 549.59l20.922-3.035 3.46-4.914z"/><path fill="#4D6265" d="M1039.98 538.996l2.219 18.652 4.43 2.582z"/><path fill="#4F3713" d="M1098.012 505.398l1.41 7.481.117-12.387z"/><path fill="#D4D2C3" d="M1036.078 547.164l-4.226-.609 4.808 3.285z"/><path fill="#CFCEBC" d="M1035.312 541.641l-3.46 4.914 4.226.609z"/><path fill="#8A9EA7" d="M1059.355 571.078l4.813 9.086.848-2.855z"/><path fill="#C7BEAC" d="M1031.852 546.555l-6.536 5.679 11.344-2.394z"/><path fill="#DDD7CB" d="M1025.316 552.234l-5.679 14.098 22.562-8.684z"/><path fill="#CACCB6" d="M1036.078 547.164l.582 2.676 3.32-10.844z"/><path fill="#C1B69A" d="M1035.312 541.641l.766 5.523 3.902-8.168z"/><path fill="#9DB3C1" d="M1042.078 320.184l-35.164 33.64 50.953-8.187z"/><path fill="#A4B1BA" d="M1009.848 326.09l-2.934 27.734 35.164-33.64z"/><path fill="#DBCEC5" d="M1039.98 538.996l-3.32 10.844 5.539 7.808z"/><path fill="#DED8CC" d="M1036.66 549.84l-11.344 2.394 16.883 5.414z"/><path fill="#A6B5B8" d="M1006.914 353.824l1.184 3.957 49.769-12.144z"/><path fill="#DADCD1" d="M943.996 453.973l51.234 97.961 53.309-38.918z"/><path fill="#A99E88" d="M995.23 551.934l15.7-2.344 37.609-36.574z"/><path fill="#7C8479" d="M1035.312 541.641l4.668-2.645 8.559-25.98z"/><path fill="#4B4239" d="M1042.199 557.648l-22.562 8.684 32.34 5.055z"/><path fill="#94A5AC" d="M1046.629 560.23l-4.43-2.582 9.778 13.739z"/><path fill="#465B60" d="M1064.168 580.164l-44.531-13.832 65.578 40.535z"/><path fill="#C6C6BE" d="M1019.637 566.332l-31.211 9.281 96.789 31.254z"/><path fill="#222218" d="M1039.98 538.996l6.649 21.234 11.953 6.735z"/><path fill="#C8C0BE" d="M1065.785 392.934l14.113 9.961 7.95-11.977z"/><path fill="#586B71" d="M1046.629 560.23l5.348 11.157 6.605-4.422z"/><path fill="#243433" d="M1058.582 566.965l.773 4.113 5.661 6.231z"/><path fill="#B5B7B2" d="M1065.504 387.52l.281 5.414 22.063-2.016z"/><path fill="#B6B3AE" d="M1057.867 345.637l-49.769 12.144 51.761-1.058z"/><path fill="#A4B2B3" d="M1153.664 365.219l11.672 10.164 2.457-8.481z"/><path fill="#63757F" d="M1051.977 571.387l-32.34-5.055 44.531 13.832z"/><path fill="#73919B" d="M988.426 575.613l93.332 103.305 3.457-72.051z"/><path fill="#34494C" d="M1059.355 571.078l-7.378.309 12.191 8.777z"/><path fill="#9DBDBA" d="M1065.785 392.934l.91 3.91 13.203 6.051z"/><path fill="#41696B" d="M1065.785 392.934l-.336 5.656 1.246-1.746z"/><path fill="#88A7A9" d="M1065.09 388.875l.359 9.715.336-5.656z"/><path fill="#A1B4BB" d="M1042.078 320.184l15.789 25.453 66.5 15.691z"/><path fill="#95BBC4" d="M1065.062 377.773l-3.503-10.113 3.531 21.215z"/><path fill="#ACAAAF" d="M1061.559 367.66l-53.461-9.879 56.992 31.094z"/><path fill="#6E8994" d="M1065.062 377.773l.028 11.102.414-1.355z"/><path fill="#CEC6BB" d="M943.996 453.973l104.543 59.043 16.91-114.426z"/><path fill="#B7BFC2" d="M1008.098 357.781l-64.102 96.192 121.453-55.383z"/><path fill="#9CB0B9" d="M1065.09 388.875l-56.992-31.094 57.351 40.809z"/><path fill="#96B4BC" d="M1065.504 387.52l-.414 1.355.695 4.059z"/><path fill="#9AA7AF" d="M1061.559 367.66l3.503 10.113 22.786 13.145z"/><path fill="#6B6B61" d="M1102.77 545.828l2.66 3.102 12.504-5.844z"/><path fill="#ABB9C2" d="M1153.664 365.219l14.367 1.343 3.778-124.816z"/><path fill="#A5B7BB" d="M1151.633 364.77l-.508 2.117 2.539-1.668z"/><path fill="#A0A8A8" d="M1133.945 546.523l-7.55 2.77 8.488.516z"/><path fill="#7B7659" d="M1102.227 528.129l15.707 14.957 16.16-3.012z"/><path fill="#A9B7C4" d="M1171.809 241.746l-3.778 124.816 4.047.426z"/><path fill="#9E9A97" d="M1101.457 544.758l1.313 1.07 15.164-2.742z"/><path fill="#87888A" d="M1065.062 377.773l.442 9.747 22.344 3.398z"/><path fill="#1D1A11" d="M1048.539 513.016l-8.559 25.98 52.918-25.086z"/><path fill="#A3A2A7" d="M1085.215 606.867l11.734-2 2.856-13.172z"/><path fill="#2D200D" d="M1092.898 513.91l4.664-.844.45-7.668z"/><path fill="#A3A8A2" d="M1085.215 606.867l-3.457 72.051 15.191-74.051z"/><path fill="#9E9898" d="M1102.77 545.828l-1.313-1.07 3.973 4.172z"/><path fill="#3C2B11" d="M1097.562 513.066l1.7 9.012.16-9.199z"/><path fill="#211D12" d="M1099.262 522.078l2.195 22.68.77-16.629z"/><path fill="#EFEBE2" d="M1048.539 513.016l44.359.894 5.114-8.512z"/><path fill="#352214" d="M1098.012 505.398l-.45 7.668 1.86-.187z"/><path fill="#1F1C13" d="M1099.422 512.879l-.16 9.199 2.965 6.051z"/><path fill="#9EA3A9" d="M1064.168 580.164l21.047 26.703 14.59-15.172z"/><path fill="#71868B" d="M1065.016 577.309l-.848 2.855 35.637 11.531z"/><path fill="#EDEBDE" d="M1048.539 513.016l49.473-7.618 1.527-4.906z"/><path fill="#463313" d="M1097.562 513.066l-4.664.844 6.364 8.168z"/><path fill="#BFB5AB" d="M1101.457 544.758l-36.441 32.551 40.414-28.379z"/><path fill="#9BA3A5" d="M1099.805 591.695l2.773-1.218 2.852-41.547z"/><path fill="#96A0A1" d="M1058.582 566.965l6.434 10.344 36.441-32.551z"/><path fill="#392E1C" d="M1099.262 522.078l-6.364-8.168 8.559 30.848z"/><path fill="#313922" d="M1092.898 513.91l-52.918 25.086 61.477 5.762z"/><path fill="#26261A" d="M1039.98 538.996l18.602 27.969 42.875-22.207z"/><path fill="#889BA9" d="M1099.805 591.695l-2.856 13.172 5.629-14.39z"/><path fill="#1C1910" d="M1099.539 500.492l-.117 12.387 13.348-30.074z"/><path fill="#875938" d="M1112.77 482.805l20.546-10.875.012-2.778z"/><path fill="#271E15" d="M1048.539 513.016l51-12.524 13.231-17.687z"/><path fill="#A3BACA" d="M1042.078 320.184l82.289 41.144 47.442-119.582z"/><path fill="#B6A498" d="M1065.016 577.309l34.789 14.386 5.625-42.765z"/><path fill="#6A7A7A" d="M1102.227 528.129l-.77 16.629 16.477-1.672z"/><path fill="#E88453" d="M1079.898 402.895l-31.359 110.121 64.231-30.211z"/><path fill="#4B7581" d="M1171.828 753.879l-13.414 22.953 17.563 69.121z"/><path fill="#CBB6A3" d="M1133.316 471.93l2.391 6.238 7.793-15.535z"/><path fill="#B4B9BF" d="M1057.867 345.637l1.992 11.086 64.508 4.605z"/><path fill="#97A5B0" d="M1059.859 356.723l1.7 10.937 62.808-6.332z"/><path fill="#CFC3AB" d="M1061.559 367.66l26.289 23.258 36.519-29.59z"/><path fill="#C4AD9B" d="M1133.316 471.93l-20.546 10.875 22.937-4.637z"/><path fill="#959D9F" d="M1105.43 548.93l-2.852 41.547 23.817-41.184z"/><path fill="#928E8D" d="M1117.934 543.086l-12.504 5.844 20.965.363z"/><path fill="#A7AFAF" d="M1151.125 366.887l-.242 11.308 2.781-12.976z"/><path fill="#A0B6C3" d="M1124.367 361.328l27.266 3.442 20.176-123.024z"/><path fill="#23241C" d="M1099.422 512.879l2.805 15.25 31.867 11.945z"/><path fill="#786C54" d="M1126.395 549.293l7.55-2.77.149-6.449z"/><path fill="#7C817D" d="M1117.934 543.086l8.461 6.207 7.699-9.219z"/><path fill="#93A1AC" d="M1126.395 549.293l-23.817 41.184 32.305-40.668z"/><path fill="#D8D9D4" d="M1133.328 469.152l-.012 2.778 10.184-9.297z"/><path fill="#A8C3D4" d="M1170.82 226.559l-153.855 51.246 154.844-36.059z"/><path fill="#B8C5CE" d="M1016.965 277.805l25.113 42.379 129.731-78.438z"/><path fill="#7C7469" d="M1112.77 482.805l-13.348 30.074 36.285-34.711z"/><path fill="#B78E62" d="M1099.422 512.879l34.672 27.195 1.613-61.906z"/><path fill="#AB7C60" d="M1087.848 390.918l-7.95 11.977 56.172 56.183z"/><path fill="#DADDD2" d="M1079.898 402.895l32.872 79.91 23.3-23.727z"/><path fill="#9D784E" d="M1112.77 482.805l20.558-13.653 2.742-10.074z"/><path fill="#C1B4AE" d="M1134.094 540.074l-.149 6.449 7.875-5.316z"/><path fill="#A19A94" d="M1133.945 546.523l.938 3.286 6.937-8.602z"/><path fill="#213F47" d="M1136.07 459.078l-2.742 10.074 10.172-6.519z"/><path fill="#D8CFBE" d="M1136.07 459.078l7.43 3.555 6.008-80.758z"/><path fill="#DFC2A4" d="M1087.848 390.918l48.222 68.16 13.438-77.203z"/><path fill="#B8C2C4" d="M1124.367 361.328l-36.519 29.59 61.66-9.043z"/><path fill="#A6B8BC" d="M1124.367 361.328l26.758 5.559.508-2.117z"/><path fill="#40707E" d="M1160.836 767.301l-2.422 9.531 13.414-22.953z"/><path fill="#425456" d="M1124.367 361.328l25.141 20.547 1.375-3.68z"/><path fill="#9FADB6" d="M1124.367 361.328l26.516 16.867.242-11.308z"/><path fill="#C5BFB3" d="M1143.5 462.633l-7.793 15.535 24.254 41.824z"/><path fill="#D6DBD7" d="M1172.078 366.988l-6.742 8.395 10.07-8.203z"/><path fill="#D8CFBD" d="M1267.07 529.391l2.11 3.918 1.613-1.493z"/><path fill="#698694" d="M1081.758 678.918l-73.832 80.82 148.515 18.414z"/><path fill="#8DA1A8" d="M1172.883 566.094l-70.305 24.383 77.363 7.445z"/><path fill="#3E6576" d="M1158.414 776.832l-1.973 1.32 19.536 67.801z"/><path fill="#AD9E7F" d="M1159.961 519.992l-18.141 21.215 22.922-2.465z"/><path fill="#998E72" d="M1134.094 540.074l7.726 1.133 18.141-21.215z"/><path fill="#F4F3DF" d="M1149.508 381.875l-6.008 80.758 15.777-82.047z"/><path fill="#596460" d="M1150.883 378.195l-1.375 3.68 9.769-1.289z"/><path fill="#33240F" d="M1135.707 478.168l-1.613 61.906 25.867-20.082z"/><path fill="#8E9995" d="M1156.441 778.152l1.973-1.32 2.422-9.531z"/><path fill="#6A8694" d="M1081.758 678.918l74.683 99.234 4.395-10.851z"/><path fill="#93A1AA" d="M1194.684 575.105l-14.743 22.817 22.121 42.305z"/><path fill="#A9ABA6" d="M1171.809 241.746l.269 125.242 3.328.192z"/><path fill="#C6C0B2" d="M1164.742 538.742l8.141 27.352 2.324-20.621z"/><path fill="#B3B1A5" d="M1153.664 365.219l5.613 15.367 6.059-5.203z"/><path fill="#EFE4D2" d="M1226.852 376.93l-83.352 85.703 105.641-71.805z"/><path fill="#608192" d="M1081.758 678.918l79.078 88.383 10.992-13.422z"/><path fill="#7E9AA6" d="M1102.578 590.477l-5.629 14.39 82.992-6.945z"/><path fill="#C2B2A2" d="M1159.961 519.992l4.781 18.75 3.145-6.238z"/><path fill="#A6B3B9" d="M1168.031 366.562l-.238.34 4.285.086z"/><path fill="#809BA6" d="M1295.801 560.262l-93.739 79.965 100.958 51.714z"/><path fill="#A7C4D6" d="M720-383l225.191 522.629 225.629 86.93z"/><path fill="#A6C3D3" d="M945.191 139.629l71.774 138.176 153.855-51.246z"/><path fill="#A4BAC7" d="M1151.633 364.77l2.031.449 18.145-123.473z"/><path fill="#A5ACB2" d="M1167.793 366.902l-2.457 8.481 6.742-8.395z"/><path fill="#B2A99A" d="M1167.887 532.504l10.082 13.187 7.949 2.118z"/><path fill="#D1C7BB" d="M1167.887 532.504l-3.145 6.238 10.465 6.731z"/><path fill="#8E929B" d="M1141.82 541.207l-6.937 8.602 38 16.285z"/><path fill="#7C7060" d="M1164.742 538.742l-22.922 2.465 31.063 24.887z"/><path fill="#C1B6B4" d="M1134.883 549.809l-32.305 40.668 70.305-24.383z"/><path fill="#98A7AE" d="M1185.918 547.809l-13.035 18.285 21.801 9.011z"/><path fill="#B09F8B" d="M1167.887 532.504l7.32 12.969 2.762.218z"/><path fill="#A8988B" d="M1175.207 545.473l-2.324 20.621 5.086-20.403z"/><path fill="#273D3A" d="M909.633 767.266l-189.633 516.734 455.977-438.047z"/><path fill="#3D6D77" d="M1004.605 760.953l-94.972 6.313 266.344 78.687z"/><path fill="#3B6575" d="M1007.926 759.738l-3.321 1.215 171.372 85z"/><path fill="#3E6E7C" d="M1156.441 778.152l-148.515-18.414 168.051 86.215z"/><path fill="#B8B5AC" d="M1185.918 547.809l8.766 27.296 62.941-29.085z"/><path fill="#95A6AE" d="M1172.883 566.094l7.058 31.828 14.743-22.817z"/><path fill="#708C98" d="M1081.758 678.918l90.07 74.961 30.234-113.652z"/><path fill="#C2BFB6" d="M1177.969 545.691l-5.086 20.403 13.035-18.285z"/><path fill="#708A97" d="M1179.941 597.922l-82.992 6.945 105.113 35.36z"/><path fill="#7293A2" d="M1096.949 604.867l-15.191 74.051 120.304-38.691z"/><path fill="#9FB3BE" d="M1175.406 367.18l-10.07 8.203 61.516 1.547z"/><path fill="#CCC9D0" d="M1171.809 241.746l3.597 125.434 51.446 9.75z"/><path fill="#B3B7BA" d="M1165.336 375.383l-6.059 5.203 67.575-3.656z"/><path fill="#A49087" d="M1159.277 380.586l-15.777 82.047 83.352-85.703z"/><path fill="#78939C" d="M1202.062 640.227l-30.234 113.652 131.192-61.938z"/><path fill="#4D7483" d="M1171.828 753.879l4.149 92.074 127.043-154.012z"/><path fill="#BAB1AA" d="M1378.07 549.02l-19 13.89 49.696.813z"/><path fill="#B0A7AA" d="M1194.684 575.105l7.378 65.122 55.563-94.207z"/><path fill="#C1C6BF" d="M1249.141 390.828l-105.641 71.805 123.57 66.758z"/><path fill="#C3BCAA" d="M1143.5 462.633l16.461 57.359 107.109 9.399z"/><path fill="#B8B19F" d="M1185.918 547.809l71.707-1.789 8.465-14.161z"/><path fill="#D8D4C9" d="M1159.961 519.992l7.926 12.512 99.183-3.113z"/><path fill="#CECBBA" d="M1185.918 547.809l80.172-15.95.98-2.468z"/><path fill="#CCC6B6" d="M1167.887 532.504l18.031 15.305 81.152-18.418z"/><path fill="#DAD1C0" d="M1267.07 529.391l-.98 2.468 3.09 1.45z"/><path fill="#C1B79E" d="M1266.09 531.859l-8.465 14.161 11.555-12.711z"/><path fill="#8C9091" d="M1333.223 324.27l10.535 118.851.035.145z"/><path fill="#BAB095" d="M1270.793 531.816l-1.613 1.493 26.621 26.953z"/><path fill="#C3B598" d="M1269.18 533.309l-11.555 12.711 38.176 14.242z"/><path fill="#342E14" d="M1348.23 455.895l2.489 91.8 27.351 1.325z"/><path fill="#A2B5C3" d="M1325.688 334.074l18.07 109.047 72.039-81.715z"/><path fill="#DBE5DD" d="M1331.031 322.957l-1.41 7.406 2.41-1.496z"/><path fill="#B1B9C3" d="M1226.852 376.93l22.289 13.898 76.547-56.754z"/><path fill="#ACC3D1" d="M1170.82 226.559l.989 15.187 159.222 81.211z"/><path fill="#69B0B4" d="M1325.688 334.074l3.933-3.711 1.41-7.406z"/><path fill="#ABBCC4" d="M1171.809 241.746l55.043 135.184 104.179-53.973z"/><path fill="#9FB7C1" d="M1226.852 376.93l98.836-42.856 5.343-11.117z"/><path fill="#CCC2A9" d="M1270.793 531.816l25.008 28.446 35.91-3.016z"/><path fill="#C0B6AA" d="M1331.711 557.246l-35.91 3.016 45.629 1.718z"/><path fill="#A2ABB2" d="M1295.801 560.262l7.219 131.679 38.41-129.961z"/><path fill="#D4C9CD" d="M1331.031 322.957l1 5.91 1.192-4.597z"/><path fill="#CAE5DE" d="M1329.621 330.363l-3.933 3.711 6.343-5.207z"/><path fill="#A2B6C1" d="M1343.758 443.121l-10.535-118.851 82.574 37.136z"/><path fill="#667C87" d="M1353.871 557.68l-12.441 4.3 17.64.93z"/><path fill="#D4D1CA" d="M1331.711 557.246l9.719 4.734.136-9.035z"/><path fill="#C2BCA2" d="M1270.793 531.816l60.918 25.43 9.855-4.301z"/><path fill="#25151F" d="M1249.141 390.828l17.929 138.563 76.688-86.27z"/><path fill="#8C9DA4" d="M1359.07 562.91l-17.64-.93 68.355 91.125z"/><path fill="#A1B3C1" d="M1325.688 334.074l-76.547 56.754 94.617 52.293z"/><path fill="#E3E1CA" d="M1270.793 531.816l70.773 21.129 6.664-97.05z"/><path fill="#DFDDD0" d="M1343.758 443.121l-76.688 86.27 76.723-86.125z"/><path fill="#61605B" d="M1343.793 443.266l-76.723 86.125 81.16-73.496z"/><path fill="#D2CCB4" d="M1267.07 529.391l3.723 2.425 77.437-75.921z"/><path fill="#8399A4" d="M1341.43 561.98l-38.41 129.961 106.765-38.836z"/><path fill="#685D5B" d="M1343.793 443.266l4.437 12.629 2.344-5.973z"/><path fill="#748388" d="M1350.719 547.695l3.152 9.985 24.199-8.66z"/><path fill="#536A78" d="M1350.719 547.695l-9.153 5.25 12.305 4.735z"/><path fill="#292210" d="M1348.23 455.895l-6.664 97.05 9.153-5.25z"/><path fill="#334340" d="M1341.566 552.945l-.136 9.035 12.441-4.3z"/><path fill="#E3B9A3" d="M1350.574 449.922l107.637 7.769.894-28.218z"/><path fill="#1B2821" d="M1353.871 557.68l5.199 5.23 19-13.89z"/><path fill="#A9B5C1" d="M1414.852 357.695l.945 3.711 53.398 3.371z"/><path fill="#A8BAC6" d="M1333.223 324.27l-1.192 4.597 82.821 28.828z"/><path fill="#A5BBC6" d="M1332.031 328.867l-6.343 5.207 90.109 27.332z"/><path fill="#C7C4CD" d="M1414.852 357.695l-82.821-28.828 83.766 32.539z"/><path fill="#96A4AD" d="M1430.691 578.953l-7.211 2.324 12.954 16.481z"/><path fill="#A2B6C1" d="M1333.223 324.27l10.57 118.996 72.004-81.86z"/><path fill="#B9B9AD" d="M1415.797 361.406l-65.223 88.516 108.531-20.449z"/><path fill="#E7EEE6" d="M1343.793 443.266l6.781 6.656 65.223-88.516z"/><path fill="#8BA1AC" d="M1359.07 562.91l50.715 90.195 13.695-71.828z"/><path fill="#BFBCB7" d="M1408.766 563.723l-49.696-.813 64.41 18.367z"/><path fill="#547981" d="M1408.766 563.723l14.714 17.554 7.211-2.324z"/><path fill="#809BA6" d="M1423.48 581.277l-13.695 71.828 26.649-55.347z"/><path fill="#8EA5AB" d="M1408.766 563.723l21.925 15.23 14.485-20.34z"/><path fill="#909EA7" d="M1430.691 578.953l13.559-9.906.926-10.434z"/><path fill="#8D9BA4" d="M1450.414 578.133l-13.98 19.625 19.644-9.117z"/><path fill="#949899" d="M1430.691 578.953l5.743 18.805 13.98-19.625z"/><path fill="#ACACA0" d="M1444.25 569.047l-13.559 9.906 19.723-.82z"/><path fill="#E4D1CD" d="M1458.211 457.691l-109.981-1.796 113.989 11.671z"/><path fill="#8EA0A0" d="M1350.574 449.922l-2.344 5.973 109.981 1.796z"/><path fill="#D6C5B3" d="M1415.797 361.406l43.308 68.067 1.356-23.45z"/><path fill="#D2CAC7" d="M1469.195 364.777l-53.398-3.371 54.953 22.258z"/><path fill="#D1C6C0" d="M1415.797 361.406l44.664 44.617 7.684-14.656z"/><path fill="#DDD6CC" d="M1348.23 455.895l29.84 93.125 84.149-81.454z"/><path fill="#A1A49D" d="M1456.078 588.641l-19.644 9.117 31.671-8.574z"/><path fill="#ABB3BE" d="M1415.797 361.406l52.348 29.961 2.605-7.703z"/><path fill="#A8A89E" d="M1408.766 563.723l36.41-5.11 26.957-36.273z"/><path fill="#47524C" d="M1462.219 467.566l-84.149 81.454 94.328-53.094z"/><path fill="#CAC0B7" d="M1378.07 549.02l30.696 14.703 63.632-67.797z"/><path fill="#39352C" d="M1408.766 563.723l63.367-41.383.265-26.414z"/><path fill="#76919C" d="M1468.105 589.184l-31.671 8.574 36.531 60.812z"/><path fill="#8397A0" d="M1436.434 597.758l-26.649 55.347 63.18 5.465z"/><path fill="#837B92" d="M1333.223 324.27l81.629 33.425 79.902-36.699z"/><path fill="#CBC6C2" d="M1414.852 357.695l54.343 7.082 25.559-43.781z"/><path fill="#D1D2C4" d="M1333.223 324.27l161.531-3.274 12.004-12.738z"/><path fill="#AEC2CB" d="M1331.031 322.957l2.192 1.313 173.535-16.012z"/><path fill="#B9BFCB" d="M1331.031 322.957l175.727-14.699 23.062-19.024z"/><path fill="#E4E1DC" d="M1170.82 226.559l160.211 96.398 198.789-33.723z"/><path fill="#79949F" d="M1472.965 658.57l-63.18-5.465 114.688 46.727z"/><path fill="#B7CBD6" d="M1170.82 226.559l359 62.675 16.047-10.234z"/><path fill="#73868A" d="M1303.02 691.941l-127.043 154.012 372.175-113.363z"/><path fill="#76919C" d="M1409.785 653.105l-106.765 38.836 245.132 40.649z"/><path fill="#77929B" d="M1524.473 699.832l-114.688-46.727 138.367 79.485z"/><path fill="#B2C8D5" d="M1170.82 226.559l654.41-225.129 4.622-12.153z"/><path fill="#28535C" d="M1548.152 732.59l-372.175 113.363 630.785 199.551z"/><path fill="#AEC8D9" d="M720-383l450.82 609.559 659.032-237.282z"/><path fill="#B3C6D4" d="M1170.82 226.559l375.047 52.441 279.363-277.57z"/><path fill="#233C38" d="M1806.762 1045.504l-630.785-199.551 661.898 353.887z"/><path fill="#24302C" d="M1175.977 845.953l-455.977 438.047 1117.875-84.16z"/></svg>